M48
;GenerationSoftware,Autodesk,EAGLE,9.6.1*%
;CreationDate,2020-04-26T08:32:37Z*%
FMAT,2
ICI,OFF
METRIC,TZ,000.000
T6C0.350
T5C0.610
T4C0.813
T3C0.914
T2C1.016
T1C3.302
%
G90
M71
T1
X3810Y67056
X64008Y67056
X4572Y4572
X64008Y3810
T2
X64516Y28448
X64516Y25908
X64516Y23368
X64516Y20828
X64516Y18288
X64516Y15748
X64516Y13208
X23876Y67818
X18796Y67818
X16256Y67818
X13716Y67818
X48006Y52324
X21336Y67818
X50546Y52324
X53086Y52324
X55626Y52324
X3556Y42418
X3556Y39878
X3556Y37338
X3556Y34798
X3556Y32258
X3556Y29718
X3556Y27178
X3556Y24638
X3556Y22098
X3556Y19558
X3556Y17018
X3556Y14478
X3556Y11938
X48260Y4826
X45720Y4826
X43180Y4826
X64516Y38608
X40640Y4826
X34290Y12954
X31750Y12954
X29210Y12954
X26670Y12954
X55626Y32258
X55626Y29718
X56388Y18034
X56388Y20574
X64516Y43688
X64516Y41148
X30480Y60198
X64516Y36068
X64516Y33528
X64516Y30988
T3
X21844Y7112
X24384Y4572
X24384Y7112
X26924Y4572
X26924Y7112
X21844Y4572
T4
X25146Y60198
X38354Y42418
X22606Y60198
X23876Y58293
X40894Y42418
T5
X25654Y44450
X30734Y44450
T6
X27737Y20269
X26670Y19202
X29261Y33833
X28499Y34595
X30175Y32918
X32766Y28956
X35052Y31242
X54102Y36881
X21488Y37033
X34290Y41910
X8687Y45872
X35357Y24689
X25451Y18898
X41453Y61570
X36881Y61417
X49378Y18440
X35052Y54102
X34290Y40386
X6096Y54712
X26060Y20879
X43739Y24536
X44196Y13716
X31242Y24384
X25146Y35052
X35814Y32004
X34290Y23470
X10516Y54864
X57912Y40234
X37490Y58217
X42672Y24384
X52273Y33071
X27737Y21641
M30