G04 EAGLE Gerber RS-274X export*
G75*
%MOMM*%
%FSLAX34Y34*%
%LPD*%
%INTop Copper*%
%IPPOS*%
%AMOC8*
5,1,8,0,0,1.08239X$1,22.5*%
G01*
%ADD10R,1.500000X1.300000*%
%ADD11R,1.300000X1.500000*%
%ADD12R,0.350000X1.400000*%
%ADD13R,1.800000X1.900000*%
%ADD14R,1.900000X1.900000*%
%ADD15P,1.539592X8X22.500000*%
%ADD16C,1.524000*%
%ADD17C,1.676400*%
%ADD18R,1.200000X1.200000*%
%ADD19C,1.117600*%
%ADD20C,1.320800*%
%ADD21R,1.600000X1.300000*%
%ADD22R,1.300000X1.600000*%
%ADD23R,1.800000X1.100000*%
%ADD24C,1.879600*%
%ADD25P,1.429621X8X202.500000*%
%ADD26C,0.140000*%
%ADD27P,1.649562X8X22.500000*%
%ADD28C,0.152400*%
%ADD29C,0.756400*%

G36*
X635545Y10165D02*
X635545Y10165D01*
X635568Y10162D01*
X635665Y10184D01*
X635764Y10200D01*
X635785Y10212D01*
X635808Y10217D01*
X635893Y10269D01*
X635981Y10316D01*
X635997Y10333D01*
X636018Y10346D01*
X636082Y10422D01*
X636150Y10494D01*
X636160Y10516D01*
X636176Y10534D01*
X636212Y10627D01*
X636254Y10717D01*
X636257Y10741D01*
X636265Y10763D01*
X636270Y10863D01*
X636281Y10961D01*
X636276Y10985D01*
X636277Y11009D01*
X636250Y11105D01*
X636229Y11202D01*
X636216Y11222D01*
X636210Y11246D01*
X636154Y11328D01*
X636103Y11413D01*
X636084Y11429D01*
X636071Y11448D01*
X635991Y11508D01*
X635916Y11573D01*
X635893Y11582D01*
X635874Y11596D01*
X635718Y11657D01*
X629785Y13247D01*
X623704Y16758D01*
X618738Y21724D01*
X615227Y27805D01*
X613409Y34589D01*
X613409Y41611D01*
X615227Y48395D01*
X618738Y54476D01*
X623704Y59442D01*
X629785Y62953D01*
X636569Y64771D01*
X643591Y64771D01*
X650375Y62953D01*
X656456Y59442D01*
X661422Y54476D01*
X664933Y48395D01*
X666751Y41611D01*
X666751Y34589D01*
X664933Y27805D01*
X661422Y21724D01*
X656456Y16758D01*
X650375Y13247D01*
X644442Y11657D01*
X644420Y11647D01*
X644396Y11643D01*
X644309Y11597D01*
X644218Y11556D01*
X644200Y11540D01*
X644179Y11528D01*
X644111Y11456D01*
X644038Y11389D01*
X644026Y11368D01*
X644010Y11350D01*
X643968Y11260D01*
X643920Y11173D01*
X643916Y11149D01*
X643906Y11127D01*
X643895Y11028D01*
X643878Y10930D01*
X643882Y10906D01*
X643879Y10883D01*
X643900Y10785D01*
X643915Y10687D01*
X643926Y10666D01*
X643931Y10642D01*
X643982Y10557D01*
X644028Y10468D01*
X644045Y10452D01*
X644057Y10431D01*
X644133Y10366D01*
X644204Y10297D01*
X644226Y10287D01*
X644244Y10271D01*
X644337Y10234D01*
X644426Y10191D01*
X644450Y10188D01*
X644473Y10179D01*
X644639Y10161D01*
X669038Y10161D01*
X669058Y10164D01*
X669077Y10162D01*
X669179Y10184D01*
X669281Y10200D01*
X669298Y10210D01*
X669318Y10214D01*
X669407Y10267D01*
X669498Y10316D01*
X669512Y10330D01*
X669529Y10340D01*
X669596Y10419D01*
X669668Y10494D01*
X669676Y10512D01*
X669689Y10527D01*
X669728Y10623D01*
X669771Y10717D01*
X669773Y10737D01*
X669781Y10755D01*
X669799Y10922D01*
X669799Y705258D01*
X669796Y705278D01*
X669798Y705297D01*
X669776Y705399D01*
X669760Y705501D01*
X669750Y705518D01*
X669746Y705538D01*
X669693Y705627D01*
X669644Y705718D01*
X669630Y705732D01*
X669620Y705749D01*
X669541Y705816D01*
X669466Y705888D01*
X669448Y705896D01*
X669433Y705909D01*
X669337Y705948D01*
X669243Y705991D01*
X669223Y705993D01*
X669205Y706001D01*
X669038Y706019D01*
X430762Y706019D01*
X430742Y706016D01*
X430723Y706018D01*
X430621Y705996D01*
X430519Y705980D01*
X430502Y705970D01*
X430482Y705966D01*
X430393Y705913D01*
X430302Y705864D01*
X430288Y705850D01*
X430271Y705840D01*
X430204Y705761D01*
X430132Y705686D01*
X430124Y705668D01*
X430111Y705653D01*
X430072Y705557D01*
X430029Y705463D01*
X430027Y705443D01*
X430019Y705425D01*
X430001Y705258D01*
X430001Y697483D01*
X419222Y697483D01*
X419202Y697480D01*
X419183Y697482D01*
X419081Y697460D01*
X418979Y697443D01*
X418962Y697434D01*
X418942Y697430D01*
X418853Y697377D01*
X418762Y697328D01*
X418748Y697314D01*
X418731Y697304D01*
X418664Y697225D01*
X418593Y697150D01*
X418584Y697132D01*
X418571Y697117D01*
X418532Y697021D01*
X418489Y696927D01*
X418487Y696907D01*
X418479Y696889D01*
X418461Y696722D01*
X418461Y695959D01*
X418459Y695959D01*
X418459Y696722D01*
X418456Y696742D01*
X418458Y696761D01*
X418436Y696863D01*
X418419Y696965D01*
X418410Y696982D01*
X418406Y697002D01*
X418353Y697091D01*
X418304Y697182D01*
X418290Y697196D01*
X418280Y697213D01*
X418201Y697280D01*
X418126Y697351D01*
X418108Y697360D01*
X418093Y697373D01*
X417997Y697412D01*
X417903Y697455D01*
X417883Y697457D01*
X417865Y697465D01*
X417698Y697483D01*
X406919Y697483D01*
X406919Y705258D01*
X406916Y705278D01*
X406918Y705297D01*
X406896Y705399D01*
X406880Y705501D01*
X406870Y705518D01*
X406866Y705538D01*
X406813Y705627D01*
X406764Y705718D01*
X406750Y705732D01*
X406740Y705749D01*
X406661Y705816D01*
X406586Y705888D01*
X406568Y705896D01*
X406553Y705909D01*
X406457Y705948D01*
X406363Y705991D01*
X406343Y705993D01*
X406325Y706001D01*
X406158Y706019D01*
X403962Y706019D01*
X403942Y706016D01*
X403923Y706018D01*
X403821Y705996D01*
X403719Y705980D01*
X403702Y705970D01*
X403682Y705966D01*
X403593Y705913D01*
X403502Y705864D01*
X403488Y705850D01*
X403471Y705840D01*
X403404Y705761D01*
X403332Y705686D01*
X403324Y705668D01*
X403311Y705653D01*
X403272Y705557D01*
X403229Y705463D01*
X403227Y705443D01*
X403219Y705425D01*
X403201Y705258D01*
X403201Y697483D01*
X391922Y697483D01*
X391902Y697480D01*
X391883Y697482D01*
X391781Y697460D01*
X391679Y697443D01*
X391662Y697434D01*
X391642Y697430D01*
X391553Y697377D01*
X391462Y697328D01*
X391448Y697314D01*
X391431Y697304D01*
X391364Y697225D01*
X391293Y697150D01*
X391284Y697132D01*
X391271Y697117D01*
X391232Y697021D01*
X391189Y696927D01*
X391187Y696907D01*
X391179Y696889D01*
X391161Y696722D01*
X391161Y695959D01*
X391159Y695959D01*
X391159Y696722D01*
X391156Y696742D01*
X391158Y696761D01*
X391136Y696863D01*
X391119Y696965D01*
X391110Y696982D01*
X391106Y697002D01*
X391053Y697091D01*
X391004Y697182D01*
X390990Y697196D01*
X390980Y697213D01*
X390901Y697280D01*
X390826Y697351D01*
X390808Y697360D01*
X390793Y697373D01*
X390697Y697412D01*
X390603Y697455D01*
X390583Y697457D01*
X390565Y697465D01*
X390398Y697483D01*
X366522Y697483D01*
X366502Y697480D01*
X366483Y697482D01*
X366381Y697460D01*
X366279Y697443D01*
X366262Y697434D01*
X366242Y697430D01*
X366153Y697377D01*
X366062Y697328D01*
X366048Y697314D01*
X366031Y697304D01*
X365964Y697225D01*
X365893Y697150D01*
X365884Y697132D01*
X365871Y697117D01*
X365832Y697021D01*
X365789Y696927D01*
X365787Y696907D01*
X365779Y696889D01*
X365761Y696722D01*
X365761Y695959D01*
X365759Y695959D01*
X365759Y696722D01*
X365756Y696742D01*
X365758Y696761D01*
X365736Y696863D01*
X365719Y696965D01*
X365710Y696982D01*
X365706Y697002D01*
X365653Y697091D01*
X365604Y697182D01*
X365590Y697196D01*
X365580Y697213D01*
X365501Y697280D01*
X365426Y697351D01*
X365408Y697360D01*
X365393Y697373D01*
X365297Y697412D01*
X365203Y697455D01*
X365183Y697457D01*
X365165Y697465D01*
X364998Y697483D01*
X353719Y697483D01*
X353719Y705258D01*
X353716Y705278D01*
X353718Y705297D01*
X353696Y705399D01*
X353680Y705501D01*
X353670Y705518D01*
X353666Y705538D01*
X353613Y705627D01*
X353564Y705718D01*
X353550Y705732D01*
X353540Y705749D01*
X353461Y705816D01*
X353386Y705888D01*
X353368Y705896D01*
X353353Y705909D01*
X353257Y705948D01*
X353163Y705991D01*
X353143Y705993D01*
X353125Y706001D01*
X352958Y706019D01*
X350762Y706019D01*
X350742Y706016D01*
X350723Y706018D01*
X350621Y705996D01*
X350519Y705980D01*
X350502Y705970D01*
X350482Y705966D01*
X350393Y705913D01*
X350302Y705864D01*
X350288Y705850D01*
X350271Y705840D01*
X350204Y705761D01*
X350132Y705686D01*
X350124Y705668D01*
X350111Y705653D01*
X350072Y705557D01*
X350029Y705463D01*
X350027Y705443D01*
X350019Y705425D01*
X350001Y705258D01*
X350001Y697483D01*
X339222Y697483D01*
X339202Y697480D01*
X339183Y697482D01*
X339081Y697460D01*
X338979Y697443D01*
X338962Y697434D01*
X338942Y697430D01*
X338853Y697377D01*
X338762Y697328D01*
X338748Y697314D01*
X338731Y697304D01*
X338664Y697225D01*
X338593Y697150D01*
X338584Y697132D01*
X338571Y697117D01*
X338532Y697021D01*
X338489Y696927D01*
X338487Y696907D01*
X338479Y696889D01*
X338461Y696722D01*
X338461Y695959D01*
X338459Y695959D01*
X338459Y696722D01*
X338456Y696742D01*
X338458Y696761D01*
X338436Y696863D01*
X338419Y696965D01*
X338410Y696982D01*
X338406Y697002D01*
X338353Y697091D01*
X338304Y697182D01*
X338290Y697196D01*
X338280Y697213D01*
X338201Y697280D01*
X338126Y697351D01*
X338108Y697360D01*
X338093Y697373D01*
X337997Y697412D01*
X337903Y697455D01*
X337883Y697457D01*
X337865Y697465D01*
X337698Y697483D01*
X326919Y697483D01*
X326919Y705258D01*
X326916Y705278D01*
X326918Y705297D01*
X326896Y705399D01*
X326880Y705501D01*
X326870Y705518D01*
X326866Y705538D01*
X326813Y705627D01*
X326764Y705718D01*
X326750Y705732D01*
X326740Y705749D01*
X326661Y705816D01*
X326586Y705888D01*
X326568Y705896D01*
X326553Y705909D01*
X326457Y705948D01*
X326363Y705991D01*
X326343Y705993D01*
X326325Y706001D01*
X326158Y706019D01*
X10922Y706019D01*
X10902Y706016D01*
X10883Y706018D01*
X10781Y705996D01*
X10679Y705980D01*
X10662Y705970D01*
X10642Y705966D01*
X10553Y705913D01*
X10462Y705864D01*
X10448Y705850D01*
X10431Y705840D01*
X10364Y705761D01*
X10292Y705686D01*
X10284Y705668D01*
X10271Y705653D01*
X10232Y705557D01*
X10189Y705463D01*
X10187Y705443D01*
X10179Y705425D01*
X10161Y705258D01*
X10161Y675119D01*
X10165Y675095D01*
X10162Y675072D01*
X10184Y674975D01*
X10200Y674876D01*
X10212Y674855D01*
X10217Y674832D01*
X10269Y674747D01*
X10316Y674659D01*
X10333Y674643D01*
X10346Y674622D01*
X10422Y674558D01*
X10494Y674490D01*
X10516Y674480D01*
X10534Y674464D01*
X10627Y674428D01*
X10717Y674386D01*
X10741Y674383D01*
X10763Y674375D01*
X10863Y674370D01*
X10961Y674359D01*
X10985Y674364D01*
X11009Y674363D01*
X11105Y674390D01*
X11202Y674411D01*
X11222Y674424D01*
X11246Y674430D01*
X11328Y674486D01*
X11413Y674537D01*
X11429Y674556D01*
X11448Y674569D01*
X11508Y674649D01*
X11573Y674724D01*
X11582Y674747D01*
X11596Y674766D01*
X11657Y674922D01*
X13247Y680855D01*
X16758Y686936D01*
X21724Y691902D01*
X27805Y695413D01*
X34589Y697231D01*
X41611Y697231D01*
X48395Y695413D01*
X54476Y691902D01*
X59442Y686936D01*
X62953Y680855D01*
X64771Y674071D01*
X64771Y667049D01*
X62953Y660265D01*
X59442Y654184D01*
X54476Y649218D01*
X48395Y645707D01*
X41611Y643889D01*
X34589Y643889D01*
X27805Y645707D01*
X21724Y649218D01*
X16758Y654184D01*
X13247Y660265D01*
X11657Y666198D01*
X11647Y666220D01*
X11643Y666244D01*
X11597Y666331D01*
X11556Y666422D01*
X11540Y666440D01*
X11528Y666461D01*
X11456Y666529D01*
X11389Y666602D01*
X11368Y666614D01*
X11350Y666630D01*
X11260Y666672D01*
X11173Y666720D01*
X11149Y666724D01*
X11127Y666734D01*
X11028Y666745D01*
X10930Y666762D01*
X10906Y666758D01*
X10883Y666761D01*
X10785Y666740D01*
X10687Y666725D01*
X10666Y666714D01*
X10642Y666709D01*
X10557Y666658D01*
X10468Y666612D01*
X10452Y666595D01*
X10431Y666583D01*
X10366Y666507D01*
X10297Y666436D01*
X10287Y666414D01*
X10271Y666396D01*
X10234Y666303D01*
X10191Y666214D01*
X10188Y666190D01*
X10179Y666167D01*
X10161Y666001D01*
X10161Y10922D01*
X10164Y10902D01*
X10162Y10883D01*
X10184Y10781D01*
X10200Y10679D01*
X10210Y10662D01*
X10214Y10642D01*
X10267Y10553D01*
X10316Y10462D01*
X10330Y10448D01*
X10340Y10431D01*
X10419Y10364D01*
X10494Y10292D01*
X10512Y10284D01*
X10527Y10271D01*
X10623Y10232D01*
X10717Y10189D01*
X10737Y10187D01*
X10755Y10179D01*
X10922Y10161D01*
X635521Y10161D01*
X635545Y10165D01*
G37*
%LPC*%
G36*
X402913Y22097D02*
X402913Y22097D01*
X401350Y23660D01*
X365036Y59974D01*
X363473Y61537D01*
X363473Y183664D01*
X363459Y183754D01*
X363451Y183845D01*
X363439Y183875D01*
X363434Y183907D01*
X363391Y183988D01*
X363355Y184072D01*
X363329Y184104D01*
X363318Y184124D01*
X363295Y184147D01*
X363250Y184203D01*
X349757Y197696D01*
X349757Y199906D01*
X349743Y199996D01*
X349735Y200087D01*
X349723Y200116D01*
X349718Y200148D01*
X349675Y200229D01*
X349639Y200313D01*
X349613Y200345D01*
X349602Y200366D01*
X349579Y200388D01*
X349534Y200444D01*
X342367Y207612D01*
X342366Y207612D01*
X342365Y207613D01*
X342262Y207687D01*
X342167Y207755D01*
X342166Y207755D01*
X342165Y207756D01*
X342044Y207793D01*
X341932Y207827D01*
X341931Y207827D01*
X341929Y207828D01*
X341807Y207824D01*
X341686Y207821D01*
X341685Y207821D01*
X341684Y207821D01*
X341571Y207779D01*
X341455Y207737D01*
X341454Y207736D01*
X341453Y207735D01*
X341360Y207661D01*
X341263Y207583D01*
X341262Y207582D01*
X341261Y207581D01*
X341198Y207482D01*
X341130Y207376D01*
X341130Y207375D01*
X341129Y207374D01*
X341100Y207259D01*
X341070Y207137D01*
X341070Y207136D01*
X341070Y207135D01*
X341079Y207015D01*
X341089Y206892D01*
X341089Y206891D01*
X341089Y206890D01*
X341148Y206733D01*
X344724Y199585D01*
X344746Y199554D01*
X344762Y199518D01*
X344866Y199388D01*
X345187Y199067D01*
X345187Y198840D01*
X345202Y198749D01*
X345209Y198657D01*
X345223Y198620D01*
X345226Y198597D01*
X345242Y198569D01*
X345267Y198499D01*
X345369Y198296D01*
X345226Y197866D01*
X345220Y197828D01*
X345205Y197793D01*
X345187Y197626D01*
X345187Y146620D01*
X345206Y146505D01*
X345223Y146389D01*
X345225Y146383D01*
X345226Y146377D01*
X345281Y146274D01*
X345334Y146169D01*
X345339Y146165D01*
X345342Y146160D01*
X345426Y146080D01*
X345510Y145997D01*
X345516Y145994D01*
X345520Y145990D01*
X345537Y145982D01*
X345657Y145916D01*
X348080Y144913D01*
X350653Y142340D01*
X352045Y138979D01*
X352045Y120101D01*
X350653Y116740D01*
X348080Y114167D01*
X344719Y112775D01*
X341081Y112775D01*
X337720Y114167D01*
X335147Y116740D01*
X333755Y120101D01*
X333755Y138979D01*
X334824Y141559D01*
X334846Y141654D01*
X334875Y141747D01*
X334874Y141773D01*
X334880Y141798D01*
X334871Y141895D01*
X334868Y141993D01*
X334859Y142017D01*
X334857Y142043D01*
X334817Y142132D01*
X334784Y142224D01*
X334768Y142244D01*
X334757Y142268D01*
X334691Y142339D01*
X334630Y142416D01*
X334608Y142430D01*
X334591Y142449D01*
X334505Y142496D01*
X334423Y142549D01*
X334398Y142555D01*
X334375Y142568D01*
X334279Y142585D01*
X334185Y142609D01*
X334159Y142607D01*
X334133Y142611D01*
X334036Y142597D01*
X333940Y142589D01*
X333916Y142579D01*
X333890Y142575D01*
X333803Y142531D01*
X333713Y142493D01*
X333688Y142473D01*
X333670Y142464D01*
X333647Y142440D01*
X333582Y142388D01*
X326868Y135674D01*
X326815Y135600D01*
X326755Y135530D01*
X326743Y135500D01*
X326724Y135474D01*
X326697Y135387D01*
X326663Y135302D01*
X326659Y135261D01*
X326652Y135239D01*
X326653Y135207D01*
X326645Y135136D01*
X326645Y120101D01*
X325253Y116740D01*
X322680Y114167D01*
X319319Y112775D01*
X315681Y112775D01*
X312320Y114167D01*
X309747Y116740D01*
X308355Y120101D01*
X308355Y138979D01*
X309747Y142340D01*
X312320Y144913D01*
X315681Y146305D01*
X319319Y146305D01*
X322680Y144913D01*
X325253Y142340D01*
X325348Y142110D01*
X325372Y142071D01*
X325388Y142028D01*
X325436Y141967D01*
X325477Y141901D01*
X325513Y141872D01*
X325541Y141836D01*
X325607Y141794D01*
X325667Y141744D01*
X325710Y141728D01*
X325748Y141703D01*
X325824Y141684D01*
X325896Y141656D01*
X325942Y141654D01*
X325987Y141643D01*
X326064Y141649D01*
X326142Y141646D01*
X326186Y141659D01*
X326232Y141662D01*
X326304Y141693D01*
X326378Y141714D01*
X326416Y141740D01*
X326458Y141758D01*
X326565Y141844D01*
X326580Y141855D01*
X326583Y141859D01*
X326589Y141863D01*
X332770Y148044D01*
X332823Y148118D01*
X332883Y148188D01*
X332895Y148218D01*
X332914Y148244D01*
X332941Y148331D01*
X332975Y148416D01*
X332979Y148457D01*
X332986Y148479D01*
X332985Y148511D01*
X332993Y148583D01*
X332993Y197573D01*
X332985Y197624D01*
X332986Y197675D01*
X332958Y197789D01*
X332954Y197816D01*
X332949Y197824D01*
X332946Y197838D01*
X331422Y201947D01*
X331366Y202045D01*
X331314Y202143D01*
X331306Y202151D01*
X331300Y202161D01*
X331217Y202236D01*
X331136Y202312D01*
X331125Y202317D01*
X331117Y202325D01*
X331014Y202369D01*
X330913Y202416D01*
X330901Y202417D01*
X330890Y202422D01*
X330779Y202431D01*
X330669Y202443D01*
X330657Y202440D01*
X330645Y202441D01*
X330537Y202414D01*
X330428Y202391D01*
X330418Y202385D01*
X330407Y202382D01*
X330313Y202322D01*
X330217Y202265D01*
X330209Y202256D01*
X330199Y202249D01*
X330130Y202163D01*
X330057Y202078D01*
X330053Y202067D01*
X330045Y202058D01*
X330007Y201953D01*
X329965Y201849D01*
X329964Y201835D01*
X329960Y201827D01*
X329960Y201800D01*
X329947Y201683D01*
X329947Y198592D01*
X329952Y198559D01*
X329950Y198526D01*
X329982Y198362D01*
X330126Y197908D01*
X330032Y197727D01*
X330002Y197634D01*
X329965Y197543D01*
X329962Y197512D01*
X329956Y197493D01*
X329956Y197460D01*
X329947Y197377D01*
X329947Y197173D01*
X329610Y196837D01*
X329591Y196810D01*
X329566Y196788D01*
X329473Y196649D01*
X300664Y141089D01*
X300664Y141088D01*
X300624Y140966D01*
X300588Y140855D01*
X300588Y140854D01*
X300589Y140725D01*
X300590Y140609D01*
X300590Y140608D01*
X300637Y140447D01*
X301245Y138979D01*
X301245Y120101D01*
X299853Y116740D01*
X297280Y114167D01*
X293919Y112775D01*
X290281Y112775D01*
X286920Y114167D01*
X284347Y116740D01*
X282955Y120101D01*
X282955Y138979D01*
X284347Y142340D01*
X286920Y144913D01*
X290281Y146305D01*
X293919Y146305D01*
X296812Y145107D01*
X296919Y145081D01*
X297025Y145053D01*
X297038Y145053D01*
X297051Y145050D01*
X297161Y145061D01*
X297271Y145067D01*
X297283Y145072D01*
X297296Y145074D01*
X297397Y145118D01*
X297499Y145160D01*
X297509Y145168D01*
X297521Y145174D01*
X297602Y145248D01*
X297686Y145320D01*
X297694Y145333D01*
X297702Y145340D01*
X297715Y145365D01*
X297779Y145459D01*
X325288Y198513D01*
X325318Y198606D01*
X325355Y198697D01*
X325358Y198729D01*
X325364Y198747D01*
X325364Y198780D01*
X325373Y198863D01*
X325373Y200409D01*
X325363Y200471D01*
X325363Y200533D01*
X325343Y200591D01*
X325334Y200652D01*
X325304Y200707D01*
X325284Y200766D01*
X325247Y200815D01*
X325218Y200869D01*
X325173Y200912D01*
X325135Y200962D01*
X325085Y200996D01*
X325040Y201038D01*
X324983Y201065D01*
X324932Y201100D01*
X324873Y201116D01*
X324817Y201142D01*
X324755Y201149D01*
X324695Y201166D01*
X324634Y201162D01*
X324573Y201169D01*
X324511Y201156D01*
X324449Y201153D01*
X324364Y201124D01*
X324332Y201117D01*
X324317Y201108D01*
X324290Y201099D01*
X322873Y200438D01*
X321141Y201068D01*
X319689Y204183D01*
X319672Y204207D01*
X319662Y204234D01*
X319604Y204308D01*
X319550Y204386D01*
X319527Y204404D01*
X319509Y204426D01*
X319429Y204477D01*
X319354Y204534D01*
X319327Y204544D01*
X319302Y204559D01*
X319210Y204583D01*
X319121Y204612D01*
X319092Y204612D01*
X319063Y204620D01*
X318969Y204612D01*
X318875Y204612D01*
X318847Y204603D01*
X318818Y204600D01*
X318731Y204564D01*
X318642Y204533D01*
X318619Y204516D01*
X318592Y204504D01*
X318461Y204399D01*
X269210Y155148D01*
X269157Y155074D01*
X269097Y155005D01*
X269085Y154975D01*
X269066Y154948D01*
X269039Y154861D01*
X269005Y154777D01*
X269001Y154736D01*
X268994Y154713D01*
X268995Y154681D01*
X268987Y154610D01*
X268987Y146620D01*
X269006Y146505D01*
X269023Y146389D01*
X269025Y146383D01*
X269026Y146377D01*
X269081Y146274D01*
X269134Y146169D01*
X269139Y146165D01*
X269142Y146160D01*
X269226Y146080D01*
X269310Y145997D01*
X269316Y145994D01*
X269320Y145990D01*
X269337Y145982D01*
X269457Y145916D01*
X271880Y144913D01*
X274453Y142340D01*
X275845Y138979D01*
X275845Y120101D01*
X274453Y116740D01*
X271880Y114167D01*
X268519Y112775D01*
X264881Y112775D01*
X261520Y114167D01*
X258947Y116740D01*
X257555Y120101D01*
X257555Y138979D01*
X258947Y142340D01*
X261520Y144913D01*
X263943Y145916D01*
X264043Y145978D01*
X264143Y146038D01*
X264147Y146043D01*
X264152Y146046D01*
X264227Y146136D01*
X264303Y146225D01*
X264305Y146231D01*
X264309Y146235D01*
X264351Y146344D01*
X264395Y146453D01*
X264396Y146460D01*
X264397Y146465D01*
X264398Y146483D01*
X264413Y146620D01*
X264413Y156820D01*
X316796Y209202D01*
X316802Y209211D01*
X316810Y209217D01*
X316874Y209310D01*
X316939Y209402D01*
X316942Y209412D01*
X316948Y209421D01*
X316978Y209529D01*
X317012Y209637D01*
X317011Y209647D01*
X317014Y209658D01*
X317008Y209770D01*
X317005Y209883D01*
X317002Y209893D01*
X317001Y209903D01*
X316947Y210062D01*
X314549Y215206D01*
X314492Y215289D01*
X314441Y215375D01*
X314423Y215390D01*
X314410Y215409D01*
X314330Y215470D01*
X314254Y215535D01*
X314233Y215543D01*
X314214Y215557D01*
X314119Y215589D01*
X314026Y215627D01*
X313997Y215630D01*
X313981Y215635D01*
X313948Y215635D01*
X313859Y215645D01*
X306674Y215645D01*
X306593Y215632D01*
X306511Y215628D01*
X306459Y215610D01*
X306431Y215606D01*
X306406Y215592D01*
X306352Y215574D01*
X299496Y212377D01*
X299455Y212349D01*
X299410Y212330D01*
X299312Y212252D01*
X299292Y212238D01*
X299288Y212232D01*
X299279Y212225D01*
X279878Y192824D01*
X278092Y191038D01*
X221966Y134912D01*
X221913Y134838D01*
X221853Y134768D01*
X221841Y134738D01*
X221822Y134712D01*
X221795Y134625D01*
X221761Y134540D01*
X221757Y134499D01*
X221750Y134477D01*
X221751Y134445D01*
X221743Y134374D01*
X221743Y80347D01*
X221757Y80257D01*
X221765Y80166D01*
X221777Y80136D01*
X221782Y80104D01*
X221825Y80023D01*
X221861Y79939D01*
X221887Y79907D01*
X221898Y79887D01*
X221921Y79864D01*
X221966Y79808D01*
X227077Y74697D01*
X227077Y67543D01*
X222017Y62483D01*
X220980Y62483D01*
X220960Y62480D01*
X220941Y62482D01*
X220839Y62460D01*
X220737Y62444D01*
X220720Y62434D01*
X220700Y62430D01*
X220611Y62377D01*
X220520Y62328D01*
X220506Y62314D01*
X220489Y62304D01*
X220422Y62225D01*
X220350Y62150D01*
X220342Y62132D01*
X220329Y62117D01*
X220290Y62021D01*
X220247Y61927D01*
X220245Y61907D01*
X220237Y61889D01*
X220219Y61722D01*
X220219Y55118D01*
X220222Y55098D01*
X220220Y55079D01*
X220242Y54977D01*
X220258Y54875D01*
X220268Y54858D01*
X220272Y54838D01*
X220325Y54749D01*
X220374Y54658D01*
X220388Y54644D01*
X220398Y54627D01*
X220477Y54560D01*
X220552Y54488D01*
X220570Y54480D01*
X220585Y54467D01*
X220681Y54428D01*
X220775Y54385D01*
X220795Y54383D01*
X220813Y54375D01*
X220980Y54357D01*
X222017Y54357D01*
X227077Y49297D01*
X227077Y42143D01*
X222017Y37083D01*
X214863Y37083D01*
X209803Y42143D01*
X209803Y49297D01*
X214863Y54357D01*
X214884Y54357D01*
X214904Y54360D01*
X214923Y54358D01*
X215025Y54380D01*
X215127Y54396D01*
X215144Y54406D01*
X215164Y54410D01*
X215253Y54463D01*
X215344Y54512D01*
X215358Y54526D01*
X215375Y54536D01*
X215442Y54615D01*
X215514Y54690D01*
X215522Y54708D01*
X215535Y54723D01*
X215574Y54819D01*
X215617Y54913D01*
X215619Y54933D01*
X215627Y54951D01*
X215645Y55118D01*
X215645Y61722D01*
X215642Y61742D01*
X215644Y61761D01*
X215622Y61863D01*
X215606Y61965D01*
X215596Y61982D01*
X215592Y62002D01*
X215539Y62091D01*
X215490Y62182D01*
X215476Y62196D01*
X215466Y62213D01*
X215387Y62280D01*
X215312Y62352D01*
X215294Y62360D01*
X215279Y62373D01*
X215183Y62412D01*
X215089Y62455D01*
X215069Y62457D01*
X215051Y62465D01*
X214884Y62483D01*
X214863Y62483D01*
X209803Y67543D01*
X209803Y74697D01*
X214863Y79757D01*
X216408Y79757D01*
X216428Y79760D01*
X216447Y79758D01*
X216549Y79780D01*
X216651Y79796D01*
X216668Y79806D01*
X216688Y79810D01*
X216777Y79863D01*
X216868Y79912D01*
X216882Y79926D01*
X216899Y79936D01*
X216966Y80015D01*
X217038Y80090D01*
X217046Y80108D01*
X217059Y80123D01*
X217098Y80219D01*
X217141Y80313D01*
X217143Y80333D01*
X217151Y80351D01*
X217169Y80518D01*
X217169Y136583D01*
X218732Y138146D01*
X266004Y185418D01*
X266046Y185476D01*
X266095Y185528D01*
X266117Y185575D01*
X266147Y185617D01*
X266168Y185686D01*
X266199Y185751D01*
X266204Y185803D01*
X266220Y185853D01*
X266218Y185924D01*
X266226Y185995D01*
X266215Y186046D01*
X266213Y186098D01*
X266189Y186166D01*
X266174Y186236D01*
X266147Y186280D01*
X266129Y186329D01*
X266084Y186385D01*
X266047Y186447D01*
X266008Y186481D01*
X265975Y186521D01*
X265915Y186560D01*
X265860Y186607D01*
X265812Y186626D01*
X265768Y186654D01*
X265699Y186672D01*
X265632Y186699D01*
X265561Y186707D01*
X265530Y186715D01*
X265506Y186713D01*
X265466Y186717D01*
X264943Y186717D01*
X264852Y186703D01*
X264762Y186695D01*
X264732Y186683D01*
X264700Y186678D01*
X264619Y186635D01*
X264535Y186599D01*
X264503Y186573D01*
X264482Y186562D01*
X264460Y186539D01*
X264404Y186494D01*
X196019Y118109D01*
X46228Y118109D01*
X46208Y118106D01*
X46189Y118108D01*
X46087Y118086D01*
X45985Y118070D01*
X45968Y118060D01*
X45948Y118056D01*
X45859Y118003D01*
X45768Y117954D01*
X45754Y117940D01*
X45737Y117930D01*
X45670Y117851D01*
X45598Y117776D01*
X45590Y117758D01*
X45577Y117743D01*
X45538Y117647D01*
X45495Y117553D01*
X45493Y117533D01*
X45485Y117515D01*
X45476Y117432D01*
X43959Y113768D01*
X41172Y110981D01*
X37531Y109473D01*
X33589Y109473D01*
X29948Y110981D01*
X27161Y113768D01*
X25653Y117409D01*
X25653Y121351D01*
X27161Y124992D01*
X29948Y127779D01*
X33589Y129287D01*
X37531Y129287D01*
X41172Y127779D01*
X43959Y124992D01*
X44720Y123153D01*
X44782Y123053D01*
X44842Y122953D01*
X44847Y122949D01*
X44850Y122944D01*
X44940Y122869D01*
X45029Y122793D01*
X45035Y122791D01*
X45039Y122787D01*
X45148Y122745D01*
X45257Y122701D01*
X45264Y122700D01*
X45269Y122699D01*
X45287Y122698D01*
X45424Y122683D01*
X193809Y122683D01*
X193900Y122697D01*
X193990Y122705D01*
X194020Y122717D01*
X194052Y122722D01*
X194133Y122765D01*
X194217Y122801D01*
X194249Y122827D01*
X194270Y122838D01*
X194292Y122861D01*
X194348Y122906D01*
X253812Y182370D01*
X253854Y182428D01*
X253903Y182480D01*
X253925Y182527D01*
X253955Y182569D01*
X253976Y182638D01*
X254007Y182703D01*
X254012Y182755D01*
X254028Y182805D01*
X254026Y182876D01*
X254034Y182947D01*
X254023Y182998D01*
X254021Y183050D01*
X253997Y183118D01*
X253982Y183188D01*
X253955Y183233D01*
X253937Y183281D01*
X253892Y183337D01*
X253855Y183399D01*
X253816Y183433D01*
X253783Y183473D01*
X253723Y183512D01*
X253668Y183559D01*
X253620Y183578D01*
X253576Y183606D01*
X253507Y183624D01*
X253440Y183651D01*
X253369Y183659D01*
X253338Y183667D01*
X253314Y183665D01*
X253274Y183669D01*
X252310Y183669D01*
X249201Y186778D01*
X249201Y191174D01*
X251998Y193971D01*
X252051Y194045D01*
X252111Y194115D01*
X252123Y194145D01*
X252142Y194171D01*
X252169Y194258D01*
X252203Y194343D01*
X252207Y194384D01*
X252214Y194406D01*
X252213Y194438D01*
X252221Y194509D01*
X252221Y212783D01*
X253784Y214346D01*
X253784Y214347D01*
X253785Y214347D01*
X253826Y214405D01*
X253875Y214456D01*
X253897Y214503D01*
X253927Y214545D01*
X253928Y214546D01*
X253928Y214547D01*
X253949Y214615D01*
X253979Y214679D01*
X253984Y214731D01*
X254000Y214781D01*
X254000Y214783D01*
X253998Y214853D01*
X254006Y214923D01*
X253995Y214975D01*
X253993Y215026D01*
X253993Y215027D01*
X253993Y215029D01*
X253969Y215095D01*
X253954Y215164D01*
X253927Y215209D01*
X253909Y215257D01*
X253908Y215258D01*
X253908Y215259D01*
X253864Y215314D01*
X253827Y215375D01*
X253788Y215409D01*
X253755Y215449D01*
X253754Y215450D01*
X253754Y215451D01*
X253694Y215489D01*
X253640Y215535D01*
X253592Y215554D01*
X253548Y215582D01*
X253547Y215583D01*
X253546Y215583D01*
X253478Y215600D01*
X253412Y215627D01*
X253341Y215635D01*
X253310Y215643D01*
X253309Y215642D01*
X253308Y215643D01*
X253285Y215641D01*
X253246Y215645D01*
X85083Y215645D01*
X84992Y215631D01*
X84902Y215623D01*
X84872Y215611D01*
X84840Y215606D01*
X84759Y215563D01*
X84675Y215527D01*
X84643Y215501D01*
X84622Y215490D01*
X84600Y215467D01*
X84544Y215422D01*
X44598Y175476D01*
X44530Y175381D01*
X44460Y175287D01*
X44458Y175281D01*
X44454Y175276D01*
X44420Y175165D01*
X44384Y175053D01*
X44384Y175047D01*
X44382Y175041D01*
X44385Y174924D01*
X44386Y174808D01*
X44388Y174800D01*
X44388Y174795D01*
X44395Y174778D01*
X44433Y174646D01*
X45467Y172151D01*
X45467Y168209D01*
X43959Y164568D01*
X41172Y161781D01*
X37531Y160273D01*
X33589Y160273D01*
X29948Y161781D01*
X27161Y164568D01*
X25653Y168209D01*
X25653Y172151D01*
X27161Y175792D01*
X29948Y178579D01*
X33589Y180087D01*
X37531Y180087D01*
X40745Y178755D01*
X40858Y178729D01*
X40972Y178700D01*
X40978Y178701D01*
X40984Y178699D01*
X41101Y178710D01*
X41217Y178719D01*
X41223Y178722D01*
X41229Y178722D01*
X41337Y178770D01*
X41443Y178816D01*
X41449Y178820D01*
X41454Y178822D01*
X41468Y178835D01*
X41574Y178920D01*
X80048Y217394D01*
X80090Y217452D01*
X80139Y217504D01*
X80161Y217551D01*
X80191Y217593D01*
X80212Y217662D01*
X80243Y217727D01*
X80248Y217779D01*
X80264Y217829D01*
X80262Y217900D01*
X80270Y217971D01*
X80259Y218022D01*
X80257Y218074D01*
X80233Y218142D01*
X80218Y218212D01*
X80191Y218256D01*
X80173Y218305D01*
X80128Y218361D01*
X80091Y218423D01*
X80052Y218457D01*
X80019Y218497D01*
X79959Y218536D01*
X79904Y218583D01*
X79856Y218602D01*
X79812Y218630D01*
X79743Y218648D01*
X79676Y218675D01*
X79605Y218683D01*
X79574Y218691D01*
X79550Y218689D01*
X79510Y218693D01*
X62223Y218693D01*
X62132Y218679D01*
X62042Y218671D01*
X62012Y218659D01*
X61980Y218654D01*
X61899Y218611D01*
X61815Y218575D01*
X61783Y218549D01*
X61762Y218538D01*
X61740Y218515D01*
X61684Y218470D01*
X44449Y201235D01*
X44382Y201141D01*
X44311Y201047D01*
X44309Y201041D01*
X44306Y201035D01*
X44271Y200924D01*
X44235Y200813D01*
X44235Y200806D01*
X44233Y200800D01*
X44236Y200684D01*
X44237Y200567D01*
X44239Y200560D01*
X44240Y200555D01*
X44246Y200537D01*
X44284Y200406D01*
X45467Y197551D01*
X45467Y193609D01*
X43959Y189968D01*
X41172Y187181D01*
X37531Y185673D01*
X33589Y185673D01*
X29948Y187181D01*
X27161Y189968D01*
X25653Y193609D01*
X25653Y197551D01*
X27161Y201192D01*
X29948Y203979D01*
X33589Y205487D01*
X37531Y205487D01*
X40386Y204304D01*
X40499Y204277D01*
X40613Y204249D01*
X40619Y204249D01*
X40625Y204248D01*
X40742Y204259D01*
X40858Y204268D01*
X40864Y204270D01*
X40870Y204271D01*
X40978Y204319D01*
X41084Y204364D01*
X41090Y204369D01*
X41095Y204371D01*
X41108Y204384D01*
X41215Y204469D01*
X57188Y220442D01*
X57230Y220500D01*
X57279Y220552D01*
X57301Y220599D01*
X57331Y220641D01*
X57352Y220710D01*
X57383Y220775D01*
X57388Y220827D01*
X57404Y220877D01*
X57402Y220948D01*
X57410Y221019D01*
X57399Y221070D01*
X57397Y221122D01*
X57373Y221190D01*
X57358Y221260D01*
X57331Y221304D01*
X57313Y221353D01*
X57268Y221409D01*
X57231Y221471D01*
X57192Y221505D01*
X57159Y221545D01*
X57099Y221584D01*
X57044Y221631D01*
X56996Y221650D01*
X56952Y221678D01*
X56883Y221696D01*
X56816Y221723D01*
X56745Y221731D01*
X56714Y221739D01*
X56690Y221737D01*
X56650Y221741D01*
X46228Y221741D01*
X46208Y221738D01*
X46189Y221740D01*
X46087Y221718D01*
X45985Y221702D01*
X45968Y221692D01*
X45948Y221688D01*
X45859Y221635D01*
X45768Y221586D01*
X45754Y221572D01*
X45737Y221562D01*
X45670Y221483D01*
X45598Y221408D01*
X45590Y221390D01*
X45577Y221375D01*
X45538Y221279D01*
X45495Y221185D01*
X45493Y221165D01*
X45485Y221147D01*
X45467Y220980D01*
X45467Y219009D01*
X43959Y215368D01*
X41172Y212581D01*
X37531Y211073D01*
X33589Y211073D01*
X29948Y212581D01*
X27161Y215368D01*
X25653Y219009D01*
X25653Y222951D01*
X27161Y226592D01*
X29948Y229379D01*
X33589Y230887D01*
X37531Y230887D01*
X41172Y229379D01*
X44013Y226538D01*
X44086Y226485D01*
X44156Y226425D01*
X44186Y226413D01*
X44212Y226394D01*
X44299Y226367D01*
X44384Y226333D01*
X44425Y226329D01*
X44447Y226322D01*
X44480Y226323D01*
X44551Y226315D01*
X257818Y226315D01*
X257908Y226329D01*
X257999Y226337D01*
X258028Y226349D01*
X258060Y226354D01*
X258141Y226397D01*
X258225Y226433D01*
X258257Y226459D01*
X258278Y226470D01*
X258300Y226493D01*
X258356Y226538D01*
X275120Y243302D01*
X275162Y243360D01*
X275211Y243412D01*
X275233Y243459D01*
X275263Y243501D01*
X275284Y243570D01*
X275315Y243635D01*
X275320Y243687D01*
X275336Y243737D01*
X275334Y243808D01*
X275342Y243879D01*
X275331Y243930D01*
X275329Y243982D01*
X275305Y244050D01*
X275290Y244120D01*
X275263Y244164D01*
X275245Y244213D01*
X275200Y244269D01*
X275163Y244331D01*
X275124Y244365D01*
X275091Y244405D01*
X275031Y244444D01*
X274976Y244491D01*
X274928Y244510D01*
X274884Y244538D01*
X274815Y244556D01*
X274748Y244583D01*
X274677Y244591D01*
X274646Y244599D01*
X274622Y244597D01*
X274582Y244601D01*
X46055Y244601D01*
X45940Y244582D01*
X45824Y244565D01*
X45818Y244563D01*
X45812Y244562D01*
X45709Y244507D01*
X45605Y244454D01*
X45600Y244449D01*
X45595Y244446D01*
X45515Y244362D01*
X45432Y244278D01*
X45429Y244272D01*
X45425Y244268D01*
X45418Y244251D01*
X45352Y244131D01*
X43959Y240768D01*
X41172Y237981D01*
X37531Y236473D01*
X33589Y236473D01*
X29948Y237981D01*
X27161Y240768D01*
X25653Y244409D01*
X25653Y248351D01*
X27161Y251992D01*
X29948Y254779D01*
X33589Y256287D01*
X37531Y256287D01*
X41172Y254779D01*
X43959Y251992D01*
X44931Y249645D01*
X44993Y249545D01*
X45052Y249445D01*
X45057Y249441D01*
X45060Y249436D01*
X45151Y249361D01*
X45239Y249285D01*
X45245Y249283D01*
X45250Y249279D01*
X45358Y249237D01*
X45467Y249193D01*
X45475Y249192D01*
X45479Y249191D01*
X45498Y249190D01*
X45634Y249175D01*
X273057Y249175D01*
X273148Y249189D01*
X273238Y249197D01*
X273268Y249209D01*
X273300Y249214D01*
X273381Y249257D01*
X273465Y249293D01*
X273497Y249319D01*
X273518Y249330D01*
X273534Y249347D01*
X273536Y249348D01*
X273544Y249356D01*
X273596Y249398D01*
X274831Y250633D01*
X274868Y250684D01*
X274912Y250728D01*
X274939Y250783D01*
X274975Y250833D01*
X274993Y250893D01*
X275021Y250949D01*
X275029Y251009D01*
X275047Y251068D01*
X275046Y251130D01*
X275054Y251192D01*
X275042Y251253D01*
X275041Y251314D01*
X275019Y251373D01*
X275008Y251434D01*
X274978Y251487D01*
X274956Y251545D01*
X274917Y251594D01*
X274887Y251648D01*
X274841Y251689D01*
X274803Y251737D01*
X274750Y251771D01*
X274704Y251812D01*
X274623Y251852D01*
X274596Y251870D01*
X274593Y251871D01*
X274545Y251951D01*
X274528Y251966D01*
X274515Y251985D01*
X274435Y252045D01*
X274358Y252111D01*
X274337Y252119D01*
X274319Y252133D01*
X274224Y252165D01*
X274130Y252203D01*
X274102Y252206D01*
X274085Y252211D01*
X274053Y252211D01*
X273963Y252221D01*
X52393Y252221D01*
X41574Y263040D01*
X41480Y263107D01*
X41386Y263178D01*
X41380Y263180D01*
X41375Y263183D01*
X41264Y263217D01*
X41152Y263254D01*
X41146Y263254D01*
X41140Y263256D01*
X41023Y263253D01*
X40906Y263251D01*
X40899Y263249D01*
X40894Y263249D01*
X40876Y263243D01*
X40745Y263205D01*
X37531Y261873D01*
X33589Y261873D01*
X29948Y263381D01*
X27161Y266168D01*
X25653Y269809D01*
X25653Y273751D01*
X27161Y277392D01*
X29948Y280179D01*
X33589Y281687D01*
X37531Y281687D01*
X41172Y280179D01*
X43959Y277392D01*
X45467Y273751D01*
X45467Y269809D01*
X44433Y267314D01*
X44406Y267200D01*
X44378Y267086D01*
X44378Y267080D01*
X44377Y267074D01*
X44388Y266958D01*
X44397Y266841D01*
X44399Y266836D01*
X44400Y266829D01*
X44448Y266722D01*
X44493Y266615D01*
X44498Y266609D01*
X44500Y266605D01*
X44513Y266591D01*
X44598Y266484D01*
X54064Y257018D01*
X54138Y256965D01*
X54208Y256905D01*
X54238Y256893D01*
X54264Y256874D01*
X54351Y256847D01*
X54436Y256813D01*
X54477Y256809D01*
X54499Y256802D01*
X54531Y256803D01*
X54603Y256795D01*
X71890Y256795D01*
X71960Y256806D01*
X72032Y256808D01*
X72081Y256826D01*
X72132Y256834D01*
X72196Y256868D01*
X72263Y256893D01*
X72304Y256925D01*
X72350Y256950D01*
X72399Y257001D01*
X72455Y257046D01*
X72483Y257090D01*
X72519Y257128D01*
X72549Y257193D01*
X72588Y257253D01*
X72601Y257304D01*
X72623Y257351D01*
X72631Y257422D01*
X72648Y257492D01*
X72644Y257544D01*
X72650Y257595D01*
X72635Y257666D01*
X72629Y257737D01*
X72609Y257785D01*
X72598Y257836D01*
X72561Y257897D01*
X72533Y257963D01*
X72488Y258019D01*
X72471Y258047D01*
X72462Y258055D01*
X72460Y258058D01*
X72449Y258067D01*
X72428Y258094D01*
X41934Y288588D01*
X41839Y288656D01*
X41745Y288726D01*
X41739Y288728D01*
X41734Y288732D01*
X41623Y288766D01*
X41511Y288803D01*
X41505Y288803D01*
X41499Y288804D01*
X41382Y288801D01*
X41265Y288800D01*
X41258Y288798D01*
X41253Y288798D01*
X41235Y288792D01*
X41104Y288753D01*
X37531Y287273D01*
X33589Y287273D01*
X29948Y288781D01*
X27161Y291568D01*
X25653Y295209D01*
X25653Y299151D01*
X27161Y302792D01*
X29948Y305579D01*
X33589Y307087D01*
X37531Y307087D01*
X41172Y305579D01*
X43959Y302792D01*
X45467Y299151D01*
X45467Y295209D01*
X44582Y293073D01*
X44555Y292959D01*
X44526Y292846D01*
X44527Y292839D01*
X44526Y292833D01*
X44537Y292717D01*
X44546Y292600D01*
X44548Y292595D01*
X44549Y292588D01*
X44596Y292481D01*
X44642Y292374D01*
X44647Y292368D01*
X44649Y292364D01*
X44661Y292350D01*
X44747Y292243D01*
X75400Y261590D01*
X75474Y261537D01*
X75544Y261477D01*
X75574Y261465D01*
X75600Y261446D01*
X75687Y261419D01*
X75772Y261385D01*
X75813Y261381D01*
X75835Y261374D01*
X75867Y261375D01*
X75939Y261367D01*
X268989Y261367D01*
X269051Y261377D01*
X269113Y261377D01*
X269171Y261397D01*
X269232Y261406D01*
X269287Y261436D01*
X269346Y261456D01*
X269395Y261493D01*
X269449Y261522D01*
X269492Y261567D01*
X269542Y261605D01*
X269576Y261655D01*
X269618Y261700D01*
X269645Y261757D01*
X269680Y261808D01*
X269696Y261867D01*
X269722Y261923D01*
X269729Y261985D01*
X269746Y262045D01*
X269742Y262106D01*
X269749Y262167D01*
X269736Y262229D01*
X269732Y262291D01*
X269704Y262376D01*
X269697Y262408D01*
X269694Y262412D01*
X269694Y262414D01*
X269687Y262426D01*
X269679Y262450D01*
X268968Y263974D01*
X268911Y264057D01*
X268860Y264143D01*
X268843Y264158D01*
X268830Y264177D01*
X268749Y264238D01*
X268673Y264303D01*
X268652Y264311D01*
X268633Y264325D01*
X268538Y264357D01*
X268445Y264395D01*
X268416Y264398D01*
X268400Y264403D01*
X268367Y264403D01*
X268278Y264413D01*
X90493Y264413D01*
X41215Y313691D01*
X41126Y313755D01*
X41086Y313789D01*
X41073Y313794D01*
X41027Y313829D01*
X41021Y313831D01*
X41015Y313834D01*
X40905Y313869D01*
X40793Y313905D01*
X40786Y313905D01*
X40780Y313907D01*
X40664Y313904D01*
X40547Y313903D01*
X40540Y313901D01*
X40535Y313900D01*
X40517Y313894D01*
X40386Y313856D01*
X37531Y312673D01*
X33589Y312673D01*
X29948Y314181D01*
X27161Y316968D01*
X25653Y320609D01*
X25653Y324551D01*
X27161Y328192D01*
X29948Y330979D01*
X33589Y332487D01*
X37531Y332487D01*
X41172Y330979D01*
X43959Y328192D01*
X45467Y324551D01*
X45467Y320609D01*
X44284Y317754D01*
X44257Y317641D01*
X44229Y317527D01*
X44229Y317521D01*
X44228Y317515D01*
X44239Y317398D01*
X44248Y317282D01*
X44250Y317276D01*
X44251Y317270D01*
X44299Y317162D01*
X44344Y317056D01*
X44349Y317050D01*
X44351Y317045D01*
X44364Y317032D01*
X44449Y316925D01*
X92164Y269210D01*
X92238Y269157D01*
X92308Y269097D01*
X92338Y269085D01*
X92364Y269066D01*
X92451Y269039D01*
X92536Y269005D01*
X92577Y269001D01*
X92599Y268994D01*
X92631Y268995D01*
X92703Y268987D01*
X276745Y268987D01*
X276826Y269000D01*
X276908Y269004D01*
X276960Y269022D01*
X276988Y269026D01*
X277014Y269040D01*
X277067Y269058D01*
X280335Y270582D01*
X280402Y270628D01*
X280474Y270666D01*
X280503Y270697D01*
X280539Y270721D01*
X280587Y270785D01*
X280643Y270844D01*
X280661Y270883D01*
X280687Y270917D01*
X280713Y270994D01*
X280747Y271067D01*
X280751Y271110D01*
X280765Y271150D01*
X280765Y271231D01*
X280774Y271311D01*
X280765Y271353D01*
X280765Y271396D01*
X280739Y271473D01*
X280722Y271552D01*
X280700Y271589D01*
X280686Y271629D01*
X280637Y271693D01*
X280595Y271763D01*
X280563Y271791D01*
X280537Y271825D01*
X280470Y271870D01*
X280408Y271923D01*
X280369Y271939D01*
X280333Y271963D01*
X280256Y271984D01*
X280180Y272015D01*
X280124Y272021D01*
X280096Y272029D01*
X280068Y272027D01*
X280014Y272033D01*
X105733Y272033D01*
X43472Y334294D01*
X43398Y334347D01*
X43328Y334407D01*
X43298Y334419D01*
X43272Y334438D01*
X43185Y334465D01*
X43100Y334499D01*
X43059Y334503D01*
X43037Y334510D01*
X43005Y334509D01*
X42933Y334517D01*
X23437Y334517D01*
X14477Y343477D01*
X14477Y380423D01*
X26820Y392766D01*
X26887Y392860D01*
X26958Y392954D01*
X26960Y392960D01*
X26963Y392965D01*
X26997Y393076D01*
X27034Y393188D01*
X27034Y393194D01*
X27036Y393200D01*
X27033Y393317D01*
X27031Y393434D01*
X27029Y393441D01*
X27029Y393446D01*
X27023Y393464D01*
X26985Y393595D01*
X25653Y396809D01*
X25653Y400751D01*
X27161Y404392D01*
X29948Y407179D01*
X33589Y408687D01*
X37531Y408687D01*
X41172Y407179D01*
X43959Y404392D01*
X45467Y400751D01*
X45467Y396809D01*
X43959Y393168D01*
X41172Y390381D01*
X37531Y388873D01*
X33589Y388873D01*
X31094Y389907D01*
X30980Y389934D01*
X30866Y389962D01*
X30860Y389962D01*
X30854Y389963D01*
X30738Y389952D01*
X30621Y389943D01*
X30616Y389941D01*
X30609Y389940D01*
X30502Y389892D01*
X30395Y389847D01*
X30389Y389842D01*
X30385Y389840D01*
X30371Y389827D01*
X30264Y389742D01*
X19274Y378752D01*
X19221Y378678D01*
X19161Y378608D01*
X19149Y378578D01*
X19130Y378552D01*
X19103Y378465D01*
X19069Y378380D01*
X19065Y378339D01*
X19058Y378317D01*
X19059Y378285D01*
X19051Y378213D01*
X19051Y345687D01*
X19065Y345596D01*
X19073Y345506D01*
X19085Y345476D01*
X19090Y345444D01*
X19133Y345363D01*
X19169Y345279D01*
X19195Y345247D01*
X19206Y345226D01*
X19229Y345204D01*
X19274Y345148D01*
X25108Y339314D01*
X25182Y339261D01*
X25252Y339201D01*
X25282Y339189D01*
X25308Y339170D01*
X25395Y339143D01*
X25480Y339109D01*
X25521Y339105D01*
X25543Y339098D01*
X25575Y339099D01*
X25647Y339091D01*
X28601Y339091D01*
X28672Y339102D01*
X28744Y339104D01*
X28793Y339122D01*
X28844Y339130D01*
X28907Y339164D01*
X28975Y339189D01*
X29015Y339221D01*
X29061Y339246D01*
X29111Y339298D01*
X29167Y339342D01*
X29195Y339386D01*
X29231Y339424D01*
X29261Y339489D01*
X29300Y339549D01*
X29312Y339600D01*
X29334Y339647D01*
X29342Y339718D01*
X29360Y339788D01*
X29356Y339840D01*
X29361Y339891D01*
X29346Y339962D01*
X29341Y340033D01*
X29320Y340081D01*
X29309Y340132D01*
X29272Y340193D01*
X29244Y340259D01*
X29200Y340315D01*
X29183Y340343D01*
X29165Y340358D01*
X29140Y340390D01*
X27161Y342368D01*
X25653Y346009D01*
X25653Y349951D01*
X27161Y353592D01*
X29948Y356379D01*
X33589Y357887D01*
X37531Y357887D01*
X41172Y356379D01*
X43959Y353592D01*
X45467Y349951D01*
X45467Y346009D01*
X44879Y344591D01*
X44871Y344557D01*
X44870Y344554D01*
X44869Y344549D01*
X44853Y344477D01*
X44824Y344364D01*
X44825Y344358D01*
X44823Y344352D01*
X44834Y344235D01*
X44843Y344119D01*
X44846Y344113D01*
X44846Y344107D01*
X44894Y343999D01*
X44939Y343893D01*
X44944Y343887D01*
X44946Y343882D01*
X44959Y343868D01*
X45044Y343762D01*
X99784Y289022D01*
X99858Y288969D01*
X99928Y288909D01*
X99958Y288897D01*
X99984Y288878D01*
X100071Y288851D01*
X100156Y288817D01*
X100197Y288813D01*
X100219Y288806D01*
X100251Y288807D01*
X100323Y288799D01*
X279037Y288799D01*
X279099Y288809D01*
X279161Y288809D01*
X279219Y288829D01*
X279280Y288838D01*
X279335Y288868D01*
X279394Y288888D01*
X279443Y288925D01*
X279497Y288954D01*
X279540Y288999D01*
X279590Y289037D01*
X279624Y289087D01*
X279667Y289132D01*
X279693Y289189D01*
X279728Y289240D01*
X279744Y289299D01*
X279770Y289355D01*
X279777Y289417D01*
X279794Y289477D01*
X279790Y289538D01*
X279797Y289599D01*
X279784Y289661D01*
X279781Y289723D01*
X279752Y289808D01*
X279745Y289840D01*
X279736Y289855D01*
X279727Y289882D01*
X279030Y291376D01*
X279661Y293107D01*
X281841Y294124D01*
X281865Y294141D01*
X281893Y294151D01*
X281966Y294210D01*
X282044Y294263D01*
X282062Y294286D01*
X282085Y294304D01*
X282136Y294384D01*
X282193Y294459D01*
X282202Y294487D01*
X282218Y294511D01*
X282241Y294603D01*
X282271Y294692D01*
X282271Y294721D01*
X282278Y294750D01*
X282271Y294844D01*
X282271Y294938D01*
X282261Y294966D01*
X282259Y294995D01*
X282222Y295082D01*
X282192Y295171D01*
X282174Y295194D01*
X282163Y295221D01*
X282058Y295352D01*
X249212Y328198D01*
X249138Y328251D01*
X249068Y328311D01*
X249038Y328323D01*
X249012Y328342D01*
X248925Y328369D01*
X248840Y328403D01*
X248799Y328407D01*
X248777Y328414D01*
X248745Y328413D01*
X248673Y328421D01*
X78301Y328421D01*
X41934Y364788D01*
X41839Y364856D01*
X41745Y364926D01*
X41739Y364928D01*
X41734Y364932D01*
X41623Y364966D01*
X41511Y365003D01*
X41505Y365003D01*
X41499Y365004D01*
X41382Y365001D01*
X41265Y365000D01*
X41258Y364998D01*
X41253Y364998D01*
X41236Y364992D01*
X41104Y364953D01*
X37531Y363473D01*
X33589Y363473D01*
X29948Y364981D01*
X27161Y367768D01*
X25653Y371409D01*
X25653Y375351D01*
X27161Y378992D01*
X29948Y381779D01*
X33589Y383287D01*
X37531Y383287D01*
X41172Y381779D01*
X43959Y378992D01*
X45467Y375351D01*
X45467Y371409D01*
X44582Y369273D01*
X44555Y369159D01*
X44526Y369046D01*
X44527Y369039D01*
X44526Y369033D01*
X44537Y368917D01*
X44546Y368800D01*
X44548Y368795D01*
X44549Y368788D01*
X44596Y368681D01*
X44642Y368574D01*
X44647Y368568D01*
X44649Y368564D01*
X44661Y368550D01*
X44747Y368443D01*
X79972Y333218D01*
X80046Y333165D01*
X80116Y333105D01*
X80146Y333093D01*
X80172Y333074D01*
X80259Y333047D01*
X80344Y333013D01*
X80385Y333009D01*
X80407Y333002D01*
X80439Y333003D01*
X80511Y332995D01*
X250883Y332995D01*
X252446Y331432D01*
X287256Y296621D01*
X287323Y296574D01*
X287384Y296519D01*
X287433Y296494D01*
X287456Y296478D01*
X287484Y296469D01*
X287534Y296444D01*
X287583Y296427D01*
X287603Y296423D01*
X287621Y296414D01*
X287646Y296411D01*
X287649Y296409D01*
X287687Y296405D01*
X287723Y296400D01*
X287825Y296381D01*
X287845Y296384D01*
X287865Y296381D01*
X287966Y296400D01*
X288069Y296415D01*
X288087Y296423D01*
X288106Y296427D01*
X288196Y296478D01*
X288289Y296524D01*
X288303Y296538D01*
X288320Y296548D01*
X288390Y296625D01*
X288463Y296698D01*
X288472Y296716D01*
X288485Y296731D01*
X288559Y296882D01*
X288724Y297334D01*
X291663Y298704D01*
X292115Y298540D01*
X292135Y298536D01*
X292153Y298527D01*
X292255Y298513D01*
X292357Y298494D01*
X292377Y298497D01*
X292396Y298494D01*
X292498Y298513D01*
X292600Y298528D01*
X292618Y298537D01*
X292638Y298540D01*
X292728Y298591D01*
X292821Y298637D01*
X292835Y298652D01*
X292852Y298661D01*
X292921Y298738D01*
X292994Y298812D01*
X293003Y298829D01*
X293016Y298844D01*
X293091Y298995D01*
X293255Y299447D01*
X296199Y300819D01*
X296274Y300871D01*
X296354Y300916D01*
X296375Y300940D01*
X296402Y300958D01*
X296457Y301031D01*
X296518Y301099D01*
X296536Y301135D01*
X296550Y301154D01*
X296561Y301185D01*
X296593Y301249D01*
X296663Y301442D01*
X297152Y302141D01*
X297806Y302690D01*
X298137Y302844D01*
X302507Y293472D01*
X306877Y284100D01*
X306546Y283946D01*
X305706Y283798D01*
X304866Y283871D01*
X304813Y283867D01*
X304761Y283873D01*
X304692Y283858D01*
X304621Y283853D01*
X304572Y283832D01*
X304520Y283821D01*
X304459Y283785D01*
X304394Y283757D01*
X304355Y283722D01*
X304309Y283695D01*
X304263Y283641D01*
X304210Y283594D01*
X304184Y283548D01*
X304149Y283508D01*
X304123Y283442D01*
X304088Y283381D01*
X304077Y283329D01*
X304057Y283280D01*
X304045Y283168D01*
X304039Y283140D01*
X304041Y283129D01*
X304039Y283113D01*
X304039Y277107D01*
X304053Y277016D01*
X304061Y276926D01*
X304073Y276896D01*
X304078Y276864D01*
X304121Y276783D01*
X304157Y276699D01*
X304183Y276667D01*
X304194Y276646D01*
X304217Y276624D01*
X304262Y276568D01*
X311882Y268948D01*
X311898Y268937D01*
X311910Y268921D01*
X311998Y268865D01*
X312081Y268805D01*
X312100Y268799D01*
X312117Y268788D01*
X312218Y268763D01*
X312317Y268732D01*
X312336Y268733D01*
X312356Y268728D01*
X312459Y268736D01*
X312562Y268739D01*
X312581Y268746D01*
X312601Y268747D01*
X312696Y268787D01*
X312793Y268823D01*
X312809Y268836D01*
X312827Y268843D01*
X312958Y268948D01*
X326964Y282954D01*
X327006Y283012D01*
X327055Y283064D01*
X327077Y283111D01*
X327107Y283153D01*
X327128Y283222D01*
X327159Y283287D01*
X327164Y283339D01*
X327180Y283389D01*
X327178Y283460D01*
X327186Y283531D01*
X327175Y283582D01*
X327173Y283634D01*
X327149Y283702D01*
X327134Y283772D01*
X327107Y283817D01*
X327089Y283865D01*
X327044Y283921D01*
X327007Y283983D01*
X326968Y284017D01*
X326935Y284057D01*
X326875Y284096D01*
X326820Y284143D01*
X326772Y284162D01*
X326728Y284190D01*
X326659Y284208D01*
X326592Y284235D01*
X326521Y284243D01*
X326490Y284251D01*
X326466Y284249D01*
X326426Y284253D01*
X325462Y284253D01*
X324189Y285526D01*
X324115Y285579D01*
X324045Y285639D01*
X324015Y285651D01*
X323989Y285670D01*
X323902Y285697D01*
X323817Y285731D01*
X323776Y285735D01*
X323754Y285742D01*
X323722Y285741D01*
X323651Y285749D01*
X311473Y285749D01*
X310927Y286295D01*
X310857Y286345D01*
X310792Y286402D01*
X310758Y286417D01*
X310727Y286439D01*
X310645Y286464D01*
X310565Y286497D01*
X310528Y286500D01*
X310492Y286511D01*
X310406Y286509D01*
X310320Y286515D01*
X310284Y286506D01*
X310246Y286505D01*
X310165Y286475D01*
X310082Y286454D01*
X310050Y286433D01*
X310015Y286420D01*
X309948Y286367D01*
X309876Y286320D01*
X309844Y286283D01*
X309823Y286267D01*
X309807Y286241D01*
X309765Y286194D01*
X309242Y285447D01*
X308589Y284898D01*
X308257Y284744D01*
X303887Y294116D01*
X299517Y303488D01*
X299848Y303642D01*
X300689Y303790D01*
X301539Y303716D01*
X301732Y303645D01*
X301822Y303628D01*
X301909Y303604D01*
X301942Y303606D01*
X301974Y303600D01*
X302064Y303612D01*
X302155Y303617D01*
X302194Y303630D01*
X302217Y303633D01*
X302246Y303648D01*
X302314Y303671D01*
X304707Y304787D01*
X304731Y304803D01*
X304758Y304813D01*
X304832Y304872D01*
X304910Y304925D01*
X304928Y304949D01*
X304951Y304967D01*
X305002Y305046D01*
X305058Y305121D01*
X305068Y305149D01*
X305084Y305174D01*
X305107Y305265D01*
X305136Y305355D01*
X305136Y305384D01*
X305144Y305412D01*
X305136Y305506D01*
X305136Y305601D01*
X305127Y305628D01*
X305124Y305657D01*
X305088Y305744D01*
X305057Y305834D01*
X305040Y305857D01*
X305028Y305884D01*
X304923Y306015D01*
X284264Y326674D01*
X282701Y328237D01*
X282701Y340415D01*
X282687Y340505D01*
X282679Y340596D01*
X282667Y340625D01*
X282662Y340657D01*
X282619Y340738D01*
X282583Y340822D01*
X282557Y340854D01*
X282546Y340875D01*
X282523Y340897D01*
X282478Y340953D01*
X279681Y343750D01*
X279681Y348146D01*
X282790Y351255D01*
X283754Y351255D01*
X283824Y351266D01*
X283896Y351268D01*
X283945Y351286D01*
X283996Y351294D01*
X284060Y351328D01*
X284127Y351353D01*
X284168Y351385D01*
X284214Y351410D01*
X284263Y351462D01*
X284319Y351506D01*
X284347Y351550D01*
X284383Y351588D01*
X284413Y351653D01*
X284452Y351713D01*
X284465Y351764D01*
X284487Y351811D01*
X284495Y351882D01*
X284512Y351952D01*
X284508Y352004D01*
X284514Y352055D01*
X284499Y352126D01*
X284493Y352197D01*
X284473Y352245D01*
X284462Y352296D01*
X284425Y352357D01*
X284397Y352423D01*
X284352Y352479D01*
X284335Y352507D01*
X284318Y352522D01*
X284292Y352554D01*
X275120Y361726D01*
X275046Y361779D01*
X274976Y361839D01*
X274946Y361851D01*
X274920Y361870D01*
X274833Y361897D01*
X274748Y361931D01*
X274707Y361935D01*
X274685Y361942D01*
X274653Y361941D01*
X274581Y361949D01*
X95065Y361949D01*
X41574Y415440D01*
X41480Y415507D01*
X41386Y415578D01*
X41380Y415580D01*
X41375Y415583D01*
X41264Y415617D01*
X41152Y415654D01*
X41146Y415654D01*
X41140Y415656D01*
X41023Y415653D01*
X40906Y415651D01*
X40899Y415649D01*
X40894Y415649D01*
X40876Y415643D01*
X40745Y415605D01*
X37531Y414273D01*
X33589Y414273D01*
X29948Y415781D01*
X27161Y418568D01*
X25653Y422209D01*
X25653Y426151D01*
X27161Y429792D01*
X29948Y432579D01*
X33589Y434087D01*
X37531Y434087D01*
X41172Y432579D01*
X43959Y429792D01*
X45467Y426151D01*
X45467Y422209D01*
X44433Y419714D01*
X44406Y419600D01*
X44378Y419486D01*
X44378Y419480D01*
X44377Y419474D01*
X44388Y419358D01*
X44397Y419241D01*
X44399Y419236D01*
X44400Y419229D01*
X44448Y419122D01*
X44493Y419015D01*
X44498Y419009D01*
X44500Y419005D01*
X44513Y418991D01*
X44598Y418884D01*
X96736Y366746D01*
X96810Y366693D01*
X96880Y366633D01*
X96910Y366621D01*
X96936Y366602D01*
X97023Y366575D01*
X97108Y366541D01*
X97149Y366537D01*
X97171Y366530D01*
X97203Y366531D01*
X97275Y366523D01*
X209351Y366523D01*
X209421Y366534D01*
X209493Y366536D01*
X209542Y366554D01*
X209593Y366562D01*
X209657Y366596D01*
X209724Y366621D01*
X209765Y366653D01*
X209811Y366678D01*
X209860Y366730D01*
X209916Y366774D01*
X209944Y366818D01*
X209980Y366856D01*
X210010Y366921D01*
X210049Y366981D01*
X210062Y367032D01*
X210084Y367079D01*
X210092Y367150D01*
X210109Y367220D01*
X210105Y367272D01*
X210111Y367323D01*
X210096Y367394D01*
X210090Y367465D01*
X210070Y367513D01*
X210059Y367564D01*
X210022Y367625D01*
X209994Y367691D01*
X209949Y367747D01*
X209932Y367775D01*
X209915Y367790D01*
X209889Y367822D01*
X209577Y368134D01*
X209577Y372530D01*
X212374Y375327D01*
X212427Y375401D01*
X212487Y375471D01*
X212499Y375501D01*
X212518Y375527D01*
X212545Y375614D01*
X212579Y375699D01*
X212583Y375740D01*
X212590Y375762D01*
X212589Y375794D01*
X212597Y375865D01*
X212597Y437649D01*
X212583Y437740D01*
X212575Y437830D01*
X212563Y437860D01*
X212558Y437892D01*
X212515Y437973D01*
X212479Y438057D01*
X212453Y438089D01*
X212442Y438110D01*
X212419Y438132D01*
X212374Y438188D01*
X203865Y446697D01*
X203807Y446739D01*
X203755Y446788D01*
X203708Y446810D01*
X203666Y446840D01*
X203597Y446861D01*
X203532Y446892D01*
X203480Y446897D01*
X203430Y446913D01*
X203359Y446911D01*
X203288Y446919D01*
X203237Y446908D01*
X203185Y446906D01*
X203117Y446882D01*
X203047Y446867D01*
X203002Y446840D01*
X202954Y446822D01*
X202898Y446777D01*
X202836Y446740D01*
X202802Y446701D01*
X202762Y446668D01*
X202723Y446608D01*
X202676Y446553D01*
X202657Y446505D01*
X202629Y446461D01*
X202611Y446392D01*
X202584Y446325D01*
X202576Y446254D01*
X202568Y446223D01*
X202570Y446199D01*
X202566Y446159D01*
X202566Y427093D01*
X202573Y427050D01*
X202571Y427006D01*
X202593Y426929D01*
X202605Y426850D01*
X202626Y426811D01*
X202638Y426769D01*
X202683Y426703D01*
X202721Y426633D01*
X202752Y426603D01*
X202777Y426566D01*
X202841Y426518D01*
X202899Y426463D01*
X202939Y426445D01*
X202974Y426419D01*
X203109Y426366D01*
X203122Y426360D01*
X203125Y426359D01*
X203130Y426358D01*
X203541Y426248D01*
X204120Y425913D01*
X204593Y425440D01*
X204928Y424861D01*
X205101Y424214D01*
X205101Y419903D01*
X194322Y419903D01*
X194302Y419900D01*
X194283Y419902D01*
X194181Y419880D01*
X194079Y419863D01*
X194062Y419854D01*
X194042Y419850D01*
X193953Y419797D01*
X193862Y419748D01*
X193848Y419734D01*
X193831Y419724D01*
X193764Y419645D01*
X193693Y419570D01*
X193684Y419552D01*
X193671Y419537D01*
X193632Y419441D01*
X193589Y419347D01*
X193587Y419327D01*
X193579Y419309D01*
X193561Y419142D01*
X193561Y418379D01*
X193559Y418379D01*
X193559Y419142D01*
X193556Y419162D01*
X193558Y419181D01*
X193536Y419283D01*
X193519Y419385D01*
X193510Y419402D01*
X193506Y419422D01*
X193453Y419511D01*
X193404Y419602D01*
X193390Y419616D01*
X193380Y419633D01*
X193301Y419700D01*
X193226Y419771D01*
X193208Y419780D01*
X193193Y419793D01*
X193097Y419832D01*
X193003Y419875D01*
X192983Y419877D01*
X192965Y419885D01*
X192798Y419903D01*
X182019Y419903D01*
X182019Y423113D01*
X182016Y423133D01*
X182018Y423152D01*
X181996Y423254D01*
X181980Y423356D01*
X181970Y423373D01*
X181966Y423393D01*
X181913Y423482D01*
X181864Y423573D01*
X181850Y423587D01*
X181840Y423604D01*
X181761Y423671D01*
X181686Y423743D01*
X181668Y423751D01*
X181653Y423764D01*
X181557Y423803D01*
X181463Y423846D01*
X181443Y423848D01*
X181425Y423856D01*
X181258Y423874D01*
X172558Y423874D01*
X172554Y423878D01*
X172554Y449882D01*
X172558Y449886D01*
X182274Y449886D01*
X182294Y449889D01*
X182313Y449887D01*
X182415Y449909D01*
X182517Y449925D01*
X182534Y449935D01*
X182554Y449939D01*
X182643Y449992D01*
X182734Y450041D01*
X182748Y450055D01*
X182765Y450065D01*
X182832Y450144D01*
X182904Y450219D01*
X182912Y450237D01*
X182925Y450252D01*
X182964Y450348D01*
X183007Y450442D01*
X183009Y450462D01*
X183017Y450480D01*
X183035Y450647D01*
X183035Y461512D01*
X183219Y461695D01*
X183230Y461711D01*
X183246Y461724D01*
X183302Y461811D01*
X183362Y461895D01*
X183368Y461914D01*
X183379Y461930D01*
X183404Y462031D01*
X183435Y462130D01*
X183434Y462150D01*
X183439Y462169D01*
X183431Y462272D01*
X183428Y462376D01*
X183421Y462394D01*
X183420Y462414D01*
X183379Y462509D01*
X183344Y462607D01*
X183331Y462622D01*
X183323Y462641D01*
X183219Y462771D01*
X165392Y480598D01*
X165318Y480651D01*
X165248Y480711D01*
X165218Y480723D01*
X165192Y480742D01*
X165105Y480769D01*
X165020Y480803D01*
X164979Y480807D01*
X164957Y480814D01*
X164925Y480813D01*
X164853Y480821D01*
X161282Y480821D01*
X161192Y480807D01*
X161101Y480799D01*
X161072Y480787D01*
X161040Y480782D01*
X160959Y480739D01*
X160875Y480703D01*
X160843Y480677D01*
X160822Y480666D01*
X160800Y480643D01*
X160744Y480598D01*
X142308Y462162D01*
X142255Y462088D01*
X142195Y462018D01*
X142183Y461988D01*
X142164Y461962D01*
X142137Y461875D01*
X142103Y461790D01*
X142099Y461749D01*
X142092Y461727D01*
X142093Y461695D01*
X142085Y461624D01*
X142085Y450647D01*
X142088Y450627D01*
X142086Y450608D01*
X142108Y450506D01*
X142124Y450404D01*
X142134Y450387D01*
X142138Y450367D01*
X142191Y450278D01*
X142240Y450187D01*
X142254Y450173D01*
X142264Y450156D01*
X142343Y450089D01*
X142418Y450017D01*
X142436Y450009D01*
X142451Y449996D01*
X142547Y449957D01*
X142641Y449914D01*
X142661Y449912D01*
X142679Y449904D01*
X142846Y449886D01*
X152562Y449886D01*
X152566Y449882D01*
X152566Y423878D01*
X152562Y423874D01*
X143862Y423874D01*
X143842Y423871D01*
X143823Y423873D01*
X143721Y423851D01*
X143619Y423835D01*
X143602Y423825D01*
X143582Y423821D01*
X143493Y423768D01*
X143402Y423719D01*
X143388Y423705D01*
X143371Y423695D01*
X143304Y423616D01*
X143232Y423541D01*
X143224Y423523D01*
X143211Y423508D01*
X143172Y423412D01*
X143129Y423318D01*
X143127Y423298D01*
X143119Y423280D01*
X143101Y423113D01*
X143101Y419903D01*
X132322Y419903D01*
X132302Y419900D01*
X132283Y419902D01*
X132181Y419880D01*
X132079Y419863D01*
X132062Y419854D01*
X132042Y419850D01*
X131953Y419797D01*
X131862Y419748D01*
X131848Y419734D01*
X131831Y419724D01*
X131764Y419645D01*
X131693Y419570D01*
X131684Y419552D01*
X131671Y419537D01*
X131632Y419441D01*
X131589Y419347D01*
X131587Y419327D01*
X131579Y419309D01*
X131561Y419142D01*
X131561Y418379D01*
X131559Y418379D01*
X131559Y419142D01*
X131556Y419162D01*
X131558Y419181D01*
X131536Y419283D01*
X131519Y419385D01*
X131510Y419402D01*
X131506Y419422D01*
X131453Y419511D01*
X131404Y419602D01*
X131390Y419616D01*
X131380Y419633D01*
X131301Y419700D01*
X131226Y419771D01*
X131208Y419780D01*
X131193Y419793D01*
X131097Y419832D01*
X131003Y419875D01*
X130983Y419877D01*
X130965Y419885D01*
X130798Y419903D01*
X120019Y419903D01*
X120019Y424214D01*
X120192Y424861D01*
X120527Y425440D01*
X121000Y425913D01*
X121579Y426248D01*
X121990Y426358D01*
X122030Y426376D01*
X122073Y426385D01*
X122141Y426426D01*
X122214Y426459D01*
X122246Y426489D01*
X122284Y426511D01*
X122336Y426572D01*
X122394Y426626D01*
X122415Y426665D01*
X122444Y426698D01*
X122474Y426772D01*
X122512Y426842D01*
X122519Y426886D01*
X122536Y426926D01*
X122552Y427071D01*
X122554Y427085D01*
X122554Y427088D01*
X122554Y427093D01*
X122554Y447594D01*
X122551Y447614D01*
X122553Y447633D01*
X122531Y447735D01*
X122515Y447837D01*
X122505Y447854D01*
X122501Y447874D01*
X122448Y447963D01*
X122399Y448054D01*
X122385Y448068D01*
X122375Y448085D01*
X122296Y448152D01*
X122221Y448224D01*
X122203Y448232D01*
X122188Y448245D01*
X122092Y448284D01*
X121998Y448327D01*
X121978Y448329D01*
X121960Y448337D01*
X121945Y448338D01*
X121035Y449248D01*
X121035Y461512D01*
X121928Y462405D01*
X135768Y462405D01*
X135858Y462419D01*
X135949Y462427D01*
X135978Y462439D01*
X136010Y462444D01*
X136091Y462487D01*
X136175Y462523D01*
X136207Y462549D01*
X136228Y462560D01*
X136250Y462583D01*
X136306Y462628D01*
X157510Y483832D01*
X157563Y483906D01*
X157623Y483976D01*
X157635Y484006D01*
X157654Y484032D01*
X157681Y484119D01*
X157715Y484204D01*
X157719Y484245D01*
X157726Y484267D01*
X157725Y484299D01*
X157733Y484370D01*
X157733Y494794D01*
X157730Y494814D01*
X157732Y494833D01*
X157710Y494935D01*
X157694Y495037D01*
X157684Y495054D01*
X157680Y495074D01*
X157627Y495163D01*
X157578Y495254D01*
X157564Y495268D01*
X157554Y495285D01*
X157475Y495352D01*
X157400Y495424D01*
X157382Y495432D01*
X157367Y495445D01*
X157271Y495484D01*
X157177Y495527D01*
X157157Y495529D01*
X157139Y495537D01*
X156972Y495555D01*
X151388Y495555D01*
X150495Y496448D01*
X150495Y510712D01*
X151388Y511605D01*
X168652Y511605D01*
X169545Y510712D01*
X169545Y496448D01*
X168652Y495555D01*
X163068Y495555D01*
X163048Y495552D01*
X163029Y495554D01*
X162927Y495532D01*
X162825Y495516D01*
X162808Y495506D01*
X162788Y495502D01*
X162699Y495449D01*
X162608Y495400D01*
X162594Y495386D01*
X162577Y495376D01*
X162510Y495297D01*
X162438Y495222D01*
X162430Y495204D01*
X162417Y495189D01*
X162378Y495093D01*
X162335Y494999D01*
X162333Y494979D01*
X162325Y494961D01*
X162307Y494794D01*
X162307Y486156D01*
X162310Y486136D01*
X162308Y486117D01*
X162330Y486015D01*
X162346Y485913D01*
X162356Y485896D01*
X162360Y485876D01*
X162413Y485787D01*
X162462Y485696D01*
X162476Y485682D01*
X162486Y485665D01*
X162565Y485598D01*
X162640Y485526D01*
X162658Y485518D01*
X162673Y485505D01*
X162769Y485466D01*
X162863Y485423D01*
X162883Y485421D01*
X162901Y485413D01*
X163068Y485395D01*
X167063Y485395D01*
X189830Y462628D01*
X189904Y462575D01*
X189974Y462515D01*
X190004Y462503D01*
X190030Y462484D01*
X190117Y462457D01*
X190202Y462423D01*
X190243Y462419D01*
X190265Y462412D01*
X190297Y462413D01*
X190368Y462405D01*
X203192Y462405D01*
X203389Y462207D01*
X203405Y462196D01*
X203418Y462180D01*
X203505Y462124D01*
X203589Y462064D01*
X203608Y462058D01*
X203624Y462047D01*
X203725Y462022D01*
X203824Y461991D01*
X203844Y461992D01*
X203863Y461987D01*
X203966Y461995D01*
X204070Y461998D01*
X204088Y462005D01*
X204108Y462006D01*
X204203Y462047D01*
X204301Y462082D01*
X204316Y462095D01*
X204335Y462103D01*
X204465Y462207D01*
X236797Y494539D01*
X553474Y494539D01*
X553544Y494550D01*
X553616Y494552D01*
X553665Y494570D01*
X553716Y494578D01*
X553780Y494612D01*
X553847Y494637D01*
X553888Y494669D01*
X553934Y494694D01*
X553983Y494745D01*
X554039Y494790D01*
X554067Y494834D01*
X554103Y494872D01*
X554133Y494937D01*
X554172Y494997D01*
X554185Y495048D01*
X554207Y495095D01*
X554215Y495166D01*
X554232Y495236D01*
X554228Y495288D01*
X554234Y495339D01*
X554219Y495410D01*
X554213Y495481D01*
X554193Y495529D01*
X554182Y495580D01*
X554145Y495641D01*
X554117Y495707D01*
X554072Y495763D01*
X554055Y495791D01*
X554038Y495806D01*
X554012Y495838D01*
X553973Y495877D01*
X553973Y506160D01*
X553954Y506275D01*
X553937Y506391D01*
X553935Y506397D01*
X553934Y506403D01*
X553879Y506505D01*
X553826Y506611D01*
X553821Y506615D01*
X553818Y506620D01*
X553734Y506700D01*
X553650Y506783D01*
X553644Y506786D01*
X553640Y506790D01*
X553623Y506798D01*
X553503Y506864D01*
X551080Y507867D01*
X548507Y510440D01*
X547115Y513801D01*
X547115Y531376D01*
X547104Y531446D01*
X547102Y531518D01*
X547084Y531567D01*
X547076Y531618D01*
X547042Y531682D01*
X547017Y531749D01*
X546985Y531790D01*
X546960Y531836D01*
X546909Y531885D01*
X546864Y531941D01*
X546820Y531969D01*
X546782Y532005D01*
X546717Y532035D01*
X546657Y532074D01*
X546606Y532087D01*
X546559Y532109D01*
X546488Y532117D01*
X546418Y532134D01*
X546366Y532130D01*
X546315Y532136D01*
X546244Y532121D01*
X546173Y532115D01*
X546125Y532095D01*
X546074Y532084D01*
X546013Y532047D01*
X545947Y532019D01*
X545891Y531974D01*
X545863Y531957D01*
X545848Y531940D01*
X545816Y531914D01*
X540228Y526326D01*
X540175Y526252D01*
X540115Y526182D01*
X540103Y526152D01*
X540084Y526126D01*
X540057Y526039D01*
X540023Y525954D01*
X540019Y525913D01*
X540012Y525891D01*
X540013Y525859D01*
X540005Y525788D01*
X540005Y513801D01*
X538613Y510440D01*
X536040Y507867D01*
X532679Y506475D01*
X529041Y506475D01*
X525680Y507867D01*
X523107Y510440D01*
X521715Y513801D01*
X521715Y532679D01*
X523107Y536040D01*
X525680Y538613D01*
X529041Y540005D01*
X532679Y540005D01*
X536040Y538613D01*
X538613Y536040D01*
X539600Y533655D01*
X539625Y533616D01*
X539640Y533573D01*
X539689Y533512D01*
X539730Y533446D01*
X539765Y533417D01*
X539794Y533381D01*
X539860Y533339D01*
X539920Y533289D01*
X539962Y533273D01*
X540001Y533248D01*
X540077Y533229D01*
X540149Y533201D01*
X540195Y533199D01*
X540240Y533188D01*
X540317Y533194D01*
X540395Y533190D01*
X540439Y533203D01*
X540485Y533207D01*
X540556Y533237D01*
X540631Y533259D01*
X540669Y533285D01*
X540711Y533303D01*
X540818Y533389D01*
X540833Y533399D01*
X540836Y533403D01*
X540842Y533408D01*
X549178Y541744D01*
X550741Y543307D01*
X562618Y543307D01*
X562688Y543318D01*
X562760Y543320D01*
X562809Y543338D01*
X562860Y543346D01*
X562924Y543380D01*
X562991Y543405D01*
X563032Y543437D01*
X563078Y543462D01*
X563127Y543514D01*
X563183Y543558D01*
X563211Y543602D01*
X563247Y543640D01*
X563277Y543705D01*
X563316Y543765D01*
X563329Y543816D01*
X563351Y543863D01*
X563359Y543934D01*
X563376Y544004D01*
X563372Y544056D01*
X563378Y544107D01*
X563363Y544178D01*
X563357Y544249D01*
X563337Y544297D01*
X563326Y544348D01*
X563289Y544409D01*
X563261Y544475D01*
X563216Y544531D01*
X563199Y544559D01*
X563182Y544574D01*
X563156Y544606D01*
X479074Y628688D01*
X479058Y628699D01*
X479046Y628715D01*
X478958Y628771D01*
X478875Y628831D01*
X478856Y628837D01*
X478839Y628848D01*
X478738Y628873D01*
X478639Y628904D01*
X478620Y628903D01*
X478600Y628908D01*
X478497Y628900D01*
X478394Y628897D01*
X478375Y628890D01*
X478355Y628889D01*
X478260Y628848D01*
X478163Y628813D01*
X478147Y628800D01*
X478129Y628793D01*
X477998Y628688D01*
X429191Y579881D01*
X380437Y579881D01*
X380347Y579867D01*
X380256Y579859D01*
X380227Y579847D01*
X380195Y579842D01*
X380114Y579799D01*
X380030Y579763D01*
X379998Y579737D01*
X379977Y579726D01*
X379955Y579703D01*
X379899Y579658D01*
X377102Y576861D01*
X372706Y576861D01*
X369597Y579970D01*
X369597Y584366D01*
X372706Y587475D01*
X377102Y587475D01*
X379899Y584678D01*
X379973Y584625D01*
X380043Y584565D01*
X380073Y584553D01*
X380099Y584534D01*
X380186Y584507D01*
X380271Y584473D01*
X380312Y584469D01*
X380334Y584462D01*
X380366Y584463D01*
X380437Y584455D01*
X426981Y584455D01*
X427072Y584469D01*
X427162Y584477D01*
X427192Y584489D01*
X427224Y584494D01*
X427305Y584537D01*
X427389Y584573D01*
X427421Y584599D01*
X427442Y584610D01*
X427464Y584633D01*
X427520Y584678D01*
X472098Y629256D01*
X472140Y629314D01*
X472189Y629366D01*
X472211Y629413D01*
X472241Y629455D01*
X472262Y629524D01*
X472293Y629589D01*
X472298Y629641D01*
X472314Y629691D01*
X472312Y629762D01*
X472320Y629833D01*
X472309Y629884D01*
X472307Y629936D01*
X472283Y630004D01*
X472268Y630074D01*
X472241Y630119D01*
X472223Y630167D01*
X472178Y630223D01*
X472141Y630285D01*
X472102Y630319D01*
X472069Y630359D01*
X472009Y630398D01*
X471954Y630445D01*
X471906Y630464D01*
X471862Y630492D01*
X471793Y630510D01*
X471726Y630537D01*
X471655Y630545D01*
X471624Y630553D01*
X471600Y630551D01*
X471560Y630555D01*
X460888Y630555D01*
X459995Y631448D01*
X459995Y644403D01*
X459981Y644494D01*
X459973Y644584D01*
X459961Y644614D01*
X459956Y644646D01*
X459913Y644727D01*
X459877Y644811D01*
X459851Y644843D01*
X459840Y644864D01*
X459817Y644886D01*
X459772Y644942D01*
X438188Y666526D01*
X438114Y666579D01*
X438044Y666639D01*
X438014Y666651D01*
X437988Y666670D01*
X437901Y666697D01*
X437816Y666731D01*
X437775Y666735D01*
X437753Y666742D01*
X437721Y666741D01*
X437649Y666749D01*
X395496Y666749D01*
X395476Y666746D01*
X395457Y666748D01*
X395355Y666726D01*
X395253Y666710D01*
X395236Y666700D01*
X395216Y666696D01*
X395127Y666643D01*
X395036Y666594D01*
X395022Y666580D01*
X395005Y666570D01*
X394938Y666491D01*
X394866Y666416D01*
X394858Y666398D01*
X394845Y666383D01*
X394806Y666287D01*
X394763Y666193D01*
X394761Y666173D01*
X394753Y666155D01*
X394735Y665988D01*
X394735Y661828D01*
X393842Y660935D01*
X389060Y660935D01*
X389048Y660947D01*
X389001Y660969D01*
X388959Y660999D01*
X388890Y661020D01*
X388825Y661050D01*
X388773Y661056D01*
X388724Y661071D01*
X388652Y661069D01*
X388581Y661077D01*
X388530Y661066D01*
X388478Y661065D01*
X388410Y661040D01*
X388340Y661025D01*
X388295Y660998D01*
X388247Y660981D01*
X388191Y660936D01*
X388129Y660899D01*
X388095Y660859D01*
X388055Y660827D01*
X388016Y660767D01*
X387969Y660712D01*
X387950Y660664D01*
X387922Y660620D01*
X387904Y660550D01*
X387877Y660484D01*
X387869Y660413D01*
X387861Y660381D01*
X387863Y660358D01*
X387859Y660317D01*
X387859Y645915D01*
X387873Y645824D01*
X387881Y645734D01*
X387893Y645704D01*
X387898Y645672D01*
X387941Y645591D01*
X387977Y645507D01*
X388003Y645475D01*
X388014Y645454D01*
X388037Y645432D01*
X388082Y645376D01*
X412232Y621226D01*
X412306Y621173D01*
X412376Y621113D01*
X412406Y621101D01*
X412432Y621082D01*
X412519Y621055D01*
X412604Y621021D01*
X412645Y621017D01*
X412667Y621010D01*
X412699Y621011D01*
X412771Y621003D01*
X416726Y621003D01*
X419835Y617894D01*
X419835Y613498D01*
X416726Y610389D01*
X412330Y610389D01*
X409221Y613498D01*
X409221Y617453D01*
X409207Y617544D01*
X409199Y617634D01*
X409187Y617664D01*
X409182Y617696D01*
X409139Y617777D01*
X409103Y617861D01*
X409077Y617893D01*
X409066Y617914D01*
X409043Y617936D01*
X408998Y617992D01*
X383285Y643705D01*
X383285Y660174D01*
X383282Y660194D01*
X383284Y660213D01*
X383262Y660315D01*
X383246Y660417D01*
X383236Y660434D01*
X383232Y660454D01*
X383179Y660543D01*
X383130Y660634D01*
X383116Y660648D01*
X383106Y660665D01*
X383027Y660732D01*
X382952Y660804D01*
X382934Y660812D01*
X382919Y660825D01*
X382823Y660864D01*
X382729Y660907D01*
X382709Y660909D01*
X382691Y660917D01*
X382585Y660928D01*
X382248Y661265D01*
X382232Y661277D01*
X382220Y661293D01*
X382133Y661349D01*
X382049Y661409D01*
X382030Y661415D01*
X382013Y661426D01*
X381912Y661451D01*
X381813Y661481D01*
X381794Y661481D01*
X381774Y661486D01*
X381671Y661478D01*
X381568Y661475D01*
X381549Y661468D01*
X381529Y661467D01*
X381434Y661426D01*
X381337Y661391D01*
X381321Y661378D01*
X381303Y661370D01*
X381172Y661265D01*
X380811Y660904D01*
X380757Y660896D01*
X380740Y660886D01*
X380720Y660882D01*
X380631Y660829D01*
X380540Y660780D01*
X380526Y660766D01*
X380509Y660756D01*
X380442Y660677D01*
X380370Y660602D01*
X380362Y660584D01*
X380349Y660569D01*
X380310Y660473D01*
X380267Y660379D01*
X380265Y660359D01*
X380257Y660341D01*
X380239Y660174D01*
X380239Y622369D01*
X374338Y616468D01*
X374285Y616394D01*
X374225Y616324D01*
X374213Y616294D01*
X374194Y616268D01*
X374167Y616181D01*
X374133Y616096D01*
X374129Y616055D01*
X374122Y616033D01*
X374123Y616001D01*
X374115Y615929D01*
X374115Y611974D01*
X371006Y608865D01*
X366610Y608865D01*
X363501Y611974D01*
X363501Y616370D01*
X366610Y619479D01*
X370565Y619479D01*
X370656Y619493D01*
X370746Y619501D01*
X370776Y619513D01*
X370808Y619518D01*
X370889Y619561D01*
X370973Y619597D01*
X371005Y619623D01*
X371026Y619634D01*
X371048Y619657D01*
X371104Y619702D01*
X375442Y624040D01*
X375495Y624114D01*
X375555Y624184D01*
X375567Y624214D01*
X375586Y624240D01*
X375613Y624327D01*
X375647Y624412D01*
X375651Y624453D01*
X375658Y624475D01*
X375657Y624507D01*
X375665Y624579D01*
X375665Y659361D01*
X375646Y659478D01*
X375628Y659596D01*
X375626Y659600D01*
X375626Y659604D01*
X375570Y659709D01*
X375515Y659815D01*
X375512Y659818D01*
X375510Y659822D01*
X375425Y659903D01*
X375339Y659986D01*
X375335Y659988D01*
X375332Y659991D01*
X375225Y660041D01*
X375117Y660092D01*
X375113Y660093D01*
X375109Y660095D01*
X374993Y660108D01*
X374873Y660122D01*
X374868Y660121D01*
X374865Y660122D01*
X374851Y660119D01*
X374707Y660097D01*
X374044Y659919D01*
X372834Y659919D01*
X372834Y669347D01*
X372831Y669366D01*
X372833Y669386D01*
X372811Y669488D01*
X372795Y669590D01*
X372785Y669607D01*
X372781Y669627D01*
X372728Y669716D01*
X372679Y669807D01*
X372665Y669821D01*
X372655Y669838D01*
X372576Y669905D01*
X372501Y669976D01*
X372483Y669985D01*
X372475Y669991D01*
X372453Y670033D01*
X372439Y670047D01*
X372429Y670064D01*
X372350Y670131D01*
X372275Y670203D01*
X372257Y670211D01*
X372242Y670224D01*
X372145Y670263D01*
X372052Y670306D01*
X372032Y670308D01*
X372014Y670316D01*
X371847Y670334D01*
X365573Y670334D01*
X365554Y670331D01*
X365534Y670333D01*
X365474Y670320D01*
X365347Y670334D01*
X361169Y670334D01*
X361169Y676656D01*
X361166Y676676D01*
X361168Y676695D01*
X361146Y676797D01*
X361130Y676899D01*
X361120Y676916D01*
X361116Y676936D01*
X361063Y677025D01*
X361014Y677116D01*
X361000Y677130D01*
X360990Y677147D01*
X360911Y677214D01*
X360836Y677286D01*
X360818Y677294D01*
X360803Y677307D01*
X360707Y677346D01*
X360613Y677389D01*
X360593Y677391D01*
X360575Y677399D01*
X360408Y677417D01*
X266439Y677417D01*
X266348Y677403D01*
X266258Y677395D01*
X266228Y677383D01*
X266196Y677378D01*
X266115Y677335D01*
X266031Y677299D01*
X265999Y677273D01*
X265978Y677262D01*
X265956Y677239D01*
X265900Y677194D01*
X253970Y665264D01*
X253917Y665190D01*
X253857Y665120D01*
X253845Y665090D01*
X253826Y665064D01*
X253799Y664977D01*
X253765Y664892D01*
X253761Y664851D01*
X253754Y664829D01*
X253755Y664797D01*
X253747Y664725D01*
X253747Y610870D01*
X253750Y610850D01*
X253748Y610831D01*
X253770Y610729D01*
X253786Y610627D01*
X253796Y610610D01*
X253800Y610590D01*
X253853Y610501D01*
X253902Y610410D01*
X253916Y610396D01*
X253926Y610379D01*
X254005Y610312D01*
X254080Y610240D01*
X254098Y610232D01*
X254113Y610219D01*
X254209Y610180D01*
X254303Y610137D01*
X254323Y610135D01*
X254341Y610127D01*
X254508Y610109D01*
X254827Y610109D01*
X259589Y605347D01*
X259589Y598613D01*
X254827Y593851D01*
X248093Y593851D01*
X243331Y598613D01*
X243331Y605347D01*
X248093Y610109D01*
X248412Y610109D01*
X248432Y610112D01*
X248451Y610110D01*
X248553Y610132D01*
X248655Y610148D01*
X248672Y610158D01*
X248692Y610162D01*
X248781Y610215D01*
X248872Y610264D01*
X248886Y610278D01*
X248903Y610288D01*
X248970Y610367D01*
X249042Y610442D01*
X249050Y610460D01*
X249063Y610475D01*
X249102Y610571D01*
X249145Y610665D01*
X249147Y610685D01*
X249155Y610703D01*
X249173Y610870D01*
X249173Y664725D01*
X249159Y664815D01*
X249151Y664906D01*
X249139Y664936D01*
X249134Y664968D01*
X249091Y665049D01*
X249055Y665133D01*
X249029Y665165D01*
X249018Y665186D01*
X248995Y665208D01*
X248950Y665264D01*
X247998Y666216D01*
X247961Y666243D01*
X247930Y666277D01*
X247862Y666314D01*
X247798Y666360D01*
X247755Y666373D01*
X247714Y666395D01*
X247638Y666409D01*
X247563Y666432D01*
X247517Y666431D01*
X247472Y666439D01*
X247395Y666428D01*
X247317Y666426D01*
X247274Y666410D01*
X247229Y666403D01*
X247160Y666368D01*
X247086Y666341D01*
X247050Y666312D01*
X247010Y666292D01*
X246955Y666236D01*
X246894Y666187D01*
X246869Y666149D01*
X246837Y666116D01*
X246771Y665996D01*
X246761Y665980D01*
X246760Y665976D01*
X246757Y665969D01*
X246513Y665380D01*
X243940Y662807D01*
X240579Y661415D01*
X236941Y661415D01*
X233580Y662807D01*
X231007Y665380D01*
X229615Y668741D01*
X229615Y687619D01*
X231007Y690980D01*
X233580Y693553D01*
X236941Y694945D01*
X240579Y694945D01*
X243940Y693553D01*
X246513Y690980D01*
X247905Y687619D01*
X247905Y673093D01*
X247919Y673002D01*
X247927Y672912D01*
X247939Y672882D01*
X247944Y672850D01*
X247987Y672769D01*
X248023Y672685D01*
X248049Y672653D01*
X248060Y672632D01*
X248083Y672610D01*
X248128Y672554D01*
X250922Y669760D01*
X250938Y669749D01*
X250950Y669733D01*
X251038Y669677D01*
X251121Y669617D01*
X251140Y669611D01*
X251157Y669600D01*
X251258Y669575D01*
X251357Y669544D01*
X251376Y669545D01*
X251396Y669540D01*
X251499Y669548D01*
X251602Y669551D01*
X251621Y669558D01*
X251641Y669559D01*
X251736Y669599D01*
X251833Y669635D01*
X251849Y669648D01*
X251867Y669655D01*
X251998Y669760D01*
X264229Y681991D01*
X388043Y681991D01*
X391826Y678208D01*
X391900Y678155D01*
X391970Y678095D01*
X392000Y678083D01*
X392026Y678064D01*
X392113Y678037D01*
X392198Y678003D01*
X392239Y677999D01*
X392261Y677992D01*
X392293Y677993D01*
X392365Y677985D01*
X393842Y677985D01*
X394735Y677092D01*
X394735Y672084D01*
X394738Y672064D01*
X394736Y672045D01*
X394758Y671943D01*
X394774Y671841D01*
X394784Y671824D01*
X394788Y671804D01*
X394841Y671715D01*
X394890Y671624D01*
X394904Y671610D01*
X394914Y671593D01*
X394993Y671526D01*
X395068Y671454D01*
X395086Y671446D01*
X395101Y671433D01*
X395197Y671394D01*
X395291Y671351D01*
X395311Y671349D01*
X395329Y671341D01*
X395496Y671323D01*
X439859Y671323D01*
X461354Y649828D01*
X461428Y649775D01*
X461498Y649715D01*
X461528Y649703D01*
X461554Y649684D01*
X461641Y649657D01*
X461726Y649623D01*
X461767Y649619D01*
X461789Y649612D01*
X461821Y649613D01*
X461893Y649605D01*
X475152Y649605D01*
X476045Y648712D01*
X476045Y635040D01*
X476056Y634970D01*
X476058Y634898D01*
X476076Y634849D01*
X476084Y634798D01*
X476118Y634734D01*
X476143Y634667D01*
X476175Y634626D01*
X476200Y634580D01*
X476252Y634531D01*
X476296Y634475D01*
X476340Y634447D01*
X476378Y634411D01*
X476443Y634381D01*
X476503Y634342D01*
X476554Y634329D01*
X476601Y634307D01*
X476672Y634299D01*
X476742Y634282D01*
X476794Y634286D01*
X476845Y634280D01*
X476916Y634295D01*
X476987Y634301D01*
X477035Y634321D01*
X477086Y634332D01*
X477147Y634369D01*
X477213Y634397D01*
X477269Y634442D01*
X477297Y634459D01*
X477312Y634476D01*
X477344Y634502D01*
X477812Y634970D01*
X478772Y635930D01*
X478825Y636004D01*
X478885Y636074D01*
X478897Y636104D01*
X478916Y636130D01*
X478943Y636217D01*
X478977Y636302D01*
X478981Y636343D01*
X478988Y636365D01*
X478987Y636397D01*
X478995Y636469D01*
X478995Y648712D01*
X479888Y649605D01*
X494152Y649605D01*
X495045Y648712D01*
X495045Y631448D01*
X494152Y630555D01*
X485512Y630555D01*
X485442Y630544D01*
X485370Y630542D01*
X485321Y630524D01*
X485270Y630516D01*
X485206Y630482D01*
X485139Y630457D01*
X485098Y630425D01*
X485052Y630400D01*
X485003Y630348D01*
X484947Y630304D01*
X484919Y630260D01*
X484883Y630222D01*
X484853Y630157D01*
X484814Y630097D01*
X484801Y630046D01*
X484779Y629999D01*
X484771Y629928D01*
X484754Y629858D01*
X484758Y629806D01*
X484752Y629755D01*
X484767Y629684D01*
X484773Y629613D01*
X484793Y629565D01*
X484804Y629514D01*
X484841Y629453D01*
X484869Y629387D01*
X484914Y629331D01*
X484931Y629303D01*
X484948Y629288D01*
X484974Y629256D01*
X666712Y447518D01*
X668275Y445955D01*
X668275Y253561D01*
X654049Y239335D01*
X653982Y239241D01*
X653911Y239147D01*
X653909Y239141D01*
X653906Y239135D01*
X653871Y239025D01*
X653835Y238913D01*
X653835Y238906D01*
X653833Y238900D01*
X653836Y238784D01*
X653837Y238667D01*
X653839Y238660D01*
X653840Y238655D01*
X653846Y238637D01*
X653884Y238506D01*
X655067Y235651D01*
X655067Y231709D01*
X653559Y228068D01*
X650772Y225281D01*
X647131Y223773D01*
X643189Y223773D01*
X640334Y224956D01*
X640221Y224983D01*
X640107Y225011D01*
X640101Y225011D01*
X640095Y225012D01*
X639978Y225001D01*
X639862Y224992D01*
X639856Y224990D01*
X639850Y224989D01*
X639742Y224941D01*
X639636Y224896D01*
X639630Y224891D01*
X639625Y224889D01*
X639612Y224876D01*
X639505Y224791D01*
X607499Y192785D01*
X557523Y192785D01*
X557432Y192771D01*
X557342Y192763D01*
X557312Y192751D01*
X557280Y192746D01*
X557199Y192703D01*
X557115Y192667D01*
X557083Y192641D01*
X557062Y192630D01*
X557040Y192607D01*
X556984Y192562D01*
X555206Y190784D01*
X555164Y190726D01*
X555115Y190674D01*
X555093Y190627D01*
X555063Y190585D01*
X555042Y190516D01*
X555011Y190451D01*
X555006Y190399D01*
X554990Y190349D01*
X554992Y190278D01*
X554984Y190207D01*
X554995Y190156D01*
X554997Y190104D01*
X555021Y190036D01*
X555036Y189966D01*
X555063Y189921D01*
X555081Y189873D01*
X555126Y189817D01*
X555163Y189755D01*
X555202Y189721D01*
X555235Y189681D01*
X555295Y189642D01*
X555350Y189595D01*
X555398Y189576D01*
X555442Y189548D01*
X555511Y189530D01*
X555578Y189503D01*
X555649Y189495D01*
X555680Y189487D01*
X555704Y189489D01*
X555744Y189485D01*
X573319Y189485D01*
X576680Y188093D01*
X579253Y185520D01*
X579835Y184113D01*
X579897Y184013D01*
X579957Y183913D01*
X579962Y183909D01*
X579965Y183904D01*
X580055Y183829D01*
X580144Y183753D01*
X580150Y183751D01*
X580155Y183747D01*
X580263Y183705D01*
X580372Y183661D01*
X580380Y183660D01*
X580384Y183659D01*
X580402Y183658D01*
X580539Y183643D01*
X620529Y183643D01*
X620620Y183657D01*
X620710Y183665D01*
X620740Y183677D01*
X620772Y183682D01*
X620853Y183725D01*
X620937Y183761D01*
X620969Y183787D01*
X620990Y183798D01*
X621012Y183821D01*
X621068Y183866D01*
X633037Y195835D01*
X657791Y195835D01*
X665227Y188399D01*
X665227Y174313D01*
X654049Y163135D01*
X653981Y163041D01*
X653911Y162947D01*
X653909Y162941D01*
X653906Y162936D01*
X653871Y162824D01*
X653835Y162713D01*
X653835Y162706D01*
X653833Y162700D01*
X653836Y162584D01*
X653837Y162467D01*
X653839Y162460D01*
X653840Y162455D01*
X653846Y162437D01*
X653884Y162306D01*
X655067Y159451D01*
X655067Y155509D01*
X653559Y151868D01*
X650772Y149081D01*
X647131Y147573D01*
X643189Y147573D01*
X640334Y148756D01*
X640221Y148783D01*
X640107Y148811D01*
X640101Y148811D01*
X640095Y148812D01*
X639978Y148801D01*
X639862Y148792D01*
X639856Y148790D01*
X639850Y148789D01*
X639742Y148741D01*
X639636Y148696D01*
X639630Y148691D01*
X639625Y148689D01*
X639612Y148676D01*
X639505Y148591D01*
X518884Y27970D01*
X518842Y27912D01*
X518793Y27860D01*
X518771Y27813D01*
X518741Y27771D01*
X518720Y27702D01*
X518689Y27637D01*
X518684Y27585D01*
X518668Y27535D01*
X518670Y27464D01*
X518662Y27393D01*
X518673Y27342D01*
X518675Y27290D01*
X518699Y27222D01*
X518714Y27152D01*
X518741Y27108D01*
X518759Y27059D01*
X518804Y27003D01*
X518841Y26941D01*
X518880Y26907D01*
X518913Y26867D01*
X518973Y26828D01*
X519028Y26781D01*
X519076Y26762D01*
X519120Y26734D01*
X519189Y26716D01*
X519256Y26689D01*
X519327Y26681D01*
X519358Y26673D01*
X519382Y26675D01*
X519422Y26671D01*
X536709Y26671D01*
X536800Y26685D01*
X536890Y26693D01*
X536920Y26705D01*
X536952Y26710D01*
X537033Y26753D01*
X537117Y26789D01*
X537149Y26815D01*
X537170Y26826D01*
X537192Y26849D01*
X537248Y26894D01*
X636420Y126066D01*
X636487Y126160D01*
X636558Y126254D01*
X636560Y126260D01*
X636563Y126265D01*
X636597Y126376D01*
X636634Y126488D01*
X636634Y126494D01*
X636636Y126500D01*
X636633Y126617D01*
X636631Y126734D01*
X636629Y126741D01*
X636629Y126746D01*
X636623Y126764D01*
X636585Y126895D01*
X635253Y130109D01*
X635253Y134051D01*
X636761Y137692D01*
X639548Y140479D01*
X643189Y141987D01*
X647131Y141987D01*
X650772Y140479D01*
X653559Y137692D01*
X655067Y134051D01*
X655067Y130109D01*
X653559Y126468D01*
X650772Y123681D01*
X647131Y122173D01*
X643189Y122173D01*
X640694Y123207D01*
X640580Y123234D01*
X640466Y123262D01*
X640460Y123262D01*
X640454Y123263D01*
X640338Y123252D01*
X640221Y123243D01*
X640216Y123241D01*
X640209Y123240D01*
X640102Y123192D01*
X639995Y123147D01*
X639989Y123142D01*
X639985Y123140D01*
X639971Y123127D01*
X639864Y123042D01*
X538919Y22097D01*
X402913Y22097D01*
G37*
%LPD*%
G36*
X341062Y303444D02*
X341062Y303444D01*
X341156Y303444D01*
X341184Y303453D01*
X341213Y303456D01*
X341300Y303492D01*
X341390Y303523D01*
X341413Y303540D01*
X341440Y303552D01*
X341571Y303657D01*
X341914Y304000D01*
X341967Y304074D01*
X342027Y304144D01*
X342039Y304174D01*
X342058Y304200D01*
X342085Y304287D01*
X342119Y304372D01*
X342123Y304413D01*
X342130Y304435D01*
X342129Y304467D01*
X342137Y304539D01*
X342137Y320987D01*
X393769Y372619D01*
X396614Y372619D01*
X396634Y372622D01*
X396653Y372620D01*
X396755Y372642D01*
X396857Y372658D01*
X396874Y372668D01*
X396894Y372672D01*
X396983Y372725D01*
X397074Y372774D01*
X397088Y372788D01*
X397105Y372798D01*
X397172Y372877D01*
X397244Y372952D01*
X397252Y372970D01*
X397265Y372985D01*
X397304Y373081D01*
X397347Y373175D01*
X397349Y373195D01*
X397357Y373213D01*
X397375Y373380D01*
X397375Y378632D01*
X398268Y379525D01*
X411027Y379525D01*
X411117Y379539D01*
X411208Y379547D01*
X411238Y379559D01*
X411270Y379564D01*
X411351Y379607D01*
X411435Y379643D01*
X411467Y379669D01*
X411488Y379680D01*
X411510Y379703D01*
X411566Y379748D01*
X411978Y380160D01*
X412020Y380218D01*
X412069Y380270D01*
X412091Y380317D01*
X412121Y380359D01*
X412142Y380428D01*
X412173Y380493D01*
X412178Y380545D01*
X412194Y380595D01*
X412192Y380666D01*
X412200Y380737D01*
X412189Y380788D01*
X412187Y380840D01*
X412163Y380908D01*
X412148Y380978D01*
X412121Y381023D01*
X412103Y381071D01*
X412058Y381127D01*
X412021Y381189D01*
X411982Y381223D01*
X411949Y381263D01*
X411889Y381302D01*
X411834Y381349D01*
X411786Y381368D01*
X411742Y381396D01*
X411673Y381414D01*
X411606Y381441D01*
X411535Y381449D01*
X411504Y381457D01*
X411480Y381455D01*
X411440Y381459D01*
X407923Y381459D01*
X407923Y389738D01*
X407920Y389758D01*
X407922Y389777D01*
X407900Y389879D01*
X407883Y389981D01*
X407874Y389998D01*
X407870Y390018D01*
X407817Y390107D01*
X407768Y390198D01*
X407754Y390212D01*
X407744Y390229D01*
X407665Y390296D01*
X407590Y390367D01*
X407572Y390376D01*
X407557Y390389D01*
X407461Y390428D01*
X407367Y390471D01*
X407347Y390473D01*
X407329Y390481D01*
X407162Y390499D01*
X406399Y390499D01*
X406399Y390501D01*
X407162Y390501D01*
X407182Y390504D01*
X407201Y390502D01*
X407303Y390524D01*
X407405Y390541D01*
X407422Y390550D01*
X407442Y390554D01*
X407531Y390607D01*
X407622Y390656D01*
X407636Y390670D01*
X407653Y390680D01*
X407720Y390759D01*
X407791Y390834D01*
X407800Y390852D01*
X407813Y390867D01*
X407852Y390963D01*
X407895Y391057D01*
X407897Y391077D01*
X407905Y391095D01*
X407923Y391262D01*
X407923Y399541D01*
X414235Y399541D01*
X414331Y399515D01*
X414449Y399503D01*
X414567Y399490D01*
X414572Y399491D01*
X414576Y399490D01*
X414691Y399517D01*
X414808Y399542D01*
X414811Y399544D01*
X414815Y399545D01*
X414917Y399607D01*
X415019Y399668D01*
X415022Y399672D01*
X415025Y399674D01*
X415101Y399765D01*
X415179Y399855D01*
X415180Y399859D01*
X415183Y399862D01*
X415226Y399972D01*
X415271Y400083D01*
X415271Y400088D01*
X415273Y400091D01*
X415273Y400105D01*
X415289Y400250D01*
X415289Y414789D01*
X415275Y414880D01*
X415267Y414970D01*
X415255Y415000D01*
X415250Y415032D01*
X415207Y415113D01*
X415171Y415197D01*
X415145Y415229D01*
X415134Y415250D01*
X415111Y415272D01*
X415066Y415328D01*
X413594Y416800D01*
X413500Y416868D01*
X413405Y416938D01*
X413399Y416940D01*
X413394Y416944D01*
X413283Y416978D01*
X413171Y417015D01*
X413165Y417015D01*
X413159Y417016D01*
X413042Y417013D01*
X412925Y417012D01*
X412918Y417010D01*
X412913Y417010D01*
X412895Y417004D01*
X412764Y416965D01*
X410557Y416051D01*
X407323Y416051D01*
X404335Y417289D01*
X402049Y419575D01*
X400811Y422563D01*
X400811Y425797D01*
X402049Y428785D01*
X404335Y431071D01*
X407323Y432309D01*
X410557Y432309D01*
X413545Y431071D01*
X415831Y428785D01*
X417069Y425797D01*
X417069Y422563D01*
X416452Y421074D01*
X416425Y420961D01*
X416397Y420847D01*
X416397Y420841D01*
X416396Y420835D01*
X416407Y420718D01*
X416416Y420602D01*
X416418Y420596D01*
X416419Y420590D01*
X416467Y420483D01*
X416512Y420376D01*
X416517Y420370D01*
X416519Y420365D01*
X416532Y420352D01*
X416617Y420245D01*
X419863Y416999D01*
X419863Y381577D01*
X415648Y377362D01*
X415595Y377288D01*
X415535Y377218D01*
X415523Y377188D01*
X415504Y377162D01*
X415477Y377075D01*
X415443Y376990D01*
X415439Y376949D01*
X415432Y376927D01*
X415433Y376895D01*
X415425Y376823D01*
X415425Y365760D01*
X415428Y365740D01*
X415426Y365721D01*
X415448Y365619D01*
X415464Y365517D01*
X415474Y365500D01*
X415478Y365480D01*
X415531Y365391D01*
X415580Y365300D01*
X415594Y365286D01*
X415604Y365269D01*
X415683Y365202D01*
X415758Y365130D01*
X415776Y365122D01*
X415791Y365109D01*
X415887Y365070D01*
X415981Y365027D01*
X416001Y365025D01*
X416019Y365017D01*
X416186Y364999D01*
X460509Y364999D01*
X460600Y365013D01*
X460690Y365021D01*
X460720Y365033D01*
X460752Y365038D01*
X460833Y365081D01*
X460917Y365117D01*
X460949Y365143D01*
X460970Y365154D01*
X460992Y365177D01*
X461048Y365222D01*
X501977Y406151D01*
X501988Y406167D01*
X502004Y406179D01*
X502060Y406266D01*
X502120Y406350D01*
X502126Y406369D01*
X502137Y406386D01*
X502162Y406487D01*
X502193Y406585D01*
X502192Y406605D01*
X502197Y406625D01*
X502189Y406728D01*
X502186Y406831D01*
X502179Y406850D01*
X502178Y406870D01*
X502137Y406965D01*
X502102Y407062D01*
X502089Y407078D01*
X502081Y407096D01*
X502035Y407154D01*
X502035Y419432D01*
X502955Y420351D01*
X503036Y420364D01*
X503053Y420374D01*
X503073Y420378D01*
X503162Y420431D01*
X503253Y420480D01*
X503267Y420494D01*
X503284Y420504D01*
X503351Y420583D01*
X503423Y420658D01*
X503431Y420676D01*
X503444Y420691D01*
X503483Y420787D01*
X503526Y420881D01*
X503528Y420901D01*
X503536Y420919D01*
X503554Y421086D01*
X503554Y441587D01*
X503547Y441630D01*
X503549Y441674D01*
X503527Y441751D01*
X503515Y441830D01*
X503494Y441869D01*
X503482Y441911D01*
X503437Y441977D01*
X503399Y442047D01*
X503368Y442077D01*
X503343Y442113D01*
X503279Y442162D01*
X503221Y442217D01*
X503181Y442235D01*
X503146Y442261D01*
X503010Y442314D01*
X502998Y442320D01*
X502995Y442321D01*
X502990Y442322D01*
X502579Y442432D01*
X502000Y442767D01*
X501527Y443240D01*
X501192Y443819D01*
X501019Y444466D01*
X501019Y448777D01*
X511798Y448777D01*
X511818Y448780D01*
X511837Y448778D01*
X511939Y448800D01*
X512041Y448817D01*
X512058Y448826D01*
X512078Y448830D01*
X512167Y448883D01*
X512258Y448932D01*
X512272Y448946D01*
X512289Y448956D01*
X512356Y449035D01*
X512427Y449110D01*
X512436Y449128D01*
X512449Y449143D01*
X512488Y449239D01*
X512531Y449333D01*
X512533Y449353D01*
X512541Y449371D01*
X512559Y449538D01*
X512559Y450301D01*
X512561Y450301D01*
X512561Y449538D01*
X512564Y449518D01*
X512562Y449499D01*
X512584Y449397D01*
X512601Y449295D01*
X512610Y449278D01*
X512614Y449258D01*
X512667Y449169D01*
X512716Y449078D01*
X512730Y449064D01*
X512740Y449047D01*
X512819Y448980D01*
X512894Y448909D01*
X512912Y448900D01*
X512927Y448887D01*
X513023Y448848D01*
X513117Y448805D01*
X513137Y448803D01*
X513155Y448795D01*
X513322Y448777D01*
X524101Y448777D01*
X524101Y445567D01*
X524102Y445559D01*
X524102Y445556D01*
X524104Y445547D01*
X524102Y445528D01*
X524124Y445426D01*
X524140Y445324D01*
X524150Y445307D01*
X524154Y445287D01*
X524207Y445198D01*
X524256Y445107D01*
X524270Y445093D01*
X524280Y445076D01*
X524359Y445009D01*
X524434Y444937D01*
X524452Y444929D01*
X524467Y444916D01*
X524563Y444877D01*
X524657Y444834D01*
X524677Y444832D01*
X524695Y444824D01*
X524862Y444806D01*
X533562Y444806D01*
X533566Y444802D01*
X533566Y418798D01*
X533562Y418794D01*
X523846Y418794D01*
X523826Y418791D01*
X523807Y418793D01*
X523705Y418771D01*
X523603Y418755D01*
X523586Y418745D01*
X523566Y418741D01*
X523477Y418688D01*
X523386Y418639D01*
X523372Y418625D01*
X523355Y418615D01*
X523288Y418536D01*
X523216Y418461D01*
X523208Y418443D01*
X523195Y418428D01*
X523156Y418332D01*
X523113Y418238D01*
X523111Y418218D01*
X523103Y418200D01*
X523085Y418033D01*
X523085Y417576D01*
X523088Y417556D01*
X523086Y417537D01*
X523108Y417435D01*
X523124Y417333D01*
X523134Y417316D01*
X523138Y417296D01*
X523191Y417207D01*
X523240Y417116D01*
X523254Y417102D01*
X523264Y417085D01*
X523343Y417018D01*
X523418Y416946D01*
X523436Y416938D01*
X523451Y416925D01*
X523547Y416886D01*
X523641Y416843D01*
X523661Y416841D01*
X523679Y416833D01*
X523846Y416815D01*
X563274Y416815D01*
X563294Y416818D01*
X563313Y416816D01*
X563415Y416838D01*
X563517Y416854D01*
X563534Y416864D01*
X563554Y416868D01*
X563643Y416921D01*
X563734Y416970D01*
X563748Y416984D01*
X563765Y416994D01*
X563832Y417073D01*
X563904Y417148D01*
X563912Y417166D01*
X563925Y417181D01*
X563964Y417277D01*
X564007Y417371D01*
X564009Y417391D01*
X564017Y417409D01*
X564035Y417576D01*
X564035Y418033D01*
X564032Y418053D01*
X564034Y418072D01*
X564012Y418174D01*
X563996Y418276D01*
X563986Y418293D01*
X563982Y418313D01*
X563929Y418402D01*
X563880Y418493D01*
X563866Y418507D01*
X563856Y418524D01*
X563777Y418591D01*
X563702Y418663D01*
X563684Y418671D01*
X563669Y418684D01*
X563573Y418723D01*
X563479Y418766D01*
X563459Y418768D01*
X563441Y418776D01*
X563274Y418794D01*
X553558Y418794D01*
X553554Y418798D01*
X553554Y444802D01*
X553558Y444806D01*
X562258Y444806D01*
X562278Y444809D01*
X562297Y444807D01*
X562399Y444829D01*
X562501Y444845D01*
X562518Y444855D01*
X562538Y444859D01*
X562627Y444912D01*
X562718Y444961D01*
X562732Y444975D01*
X562749Y444985D01*
X562816Y445064D01*
X562888Y445139D01*
X562896Y445157D01*
X562909Y445172D01*
X562948Y445268D01*
X562991Y445362D01*
X562993Y445382D01*
X563001Y445400D01*
X563019Y445567D01*
X563019Y448777D01*
X573798Y448777D01*
X573818Y448780D01*
X573837Y448778D01*
X573939Y448800D01*
X574041Y448817D01*
X574058Y448826D01*
X574078Y448830D01*
X574167Y448883D01*
X574258Y448932D01*
X574272Y448946D01*
X574289Y448956D01*
X574356Y449035D01*
X574427Y449110D01*
X574436Y449128D01*
X574449Y449143D01*
X574488Y449239D01*
X574531Y449333D01*
X574533Y449353D01*
X574541Y449371D01*
X574559Y449538D01*
X574559Y450301D01*
X575322Y450301D01*
X575342Y450304D01*
X575361Y450302D01*
X575463Y450324D01*
X575565Y450341D01*
X575582Y450350D01*
X575602Y450354D01*
X575691Y450407D01*
X575782Y450456D01*
X575796Y450470D01*
X575813Y450480D01*
X575880Y450559D01*
X575951Y450634D01*
X575960Y450652D01*
X575973Y450667D01*
X576012Y450763D01*
X576055Y450857D01*
X576057Y450877D01*
X576065Y450895D01*
X576083Y451062D01*
X576083Y458341D01*
X583894Y458341D01*
X584541Y458168D01*
X585120Y457833D01*
X585593Y457360D01*
X585928Y456781D01*
X586005Y456493D01*
X586015Y456471D01*
X586019Y456447D01*
X586065Y456359D01*
X586106Y456269D01*
X586122Y456251D01*
X586134Y456230D01*
X586206Y456161D01*
X586273Y456088D01*
X586294Y456077D01*
X586312Y456060D01*
X586402Y456018D01*
X586489Y455971D01*
X586513Y455967D01*
X586535Y455957D01*
X586634Y455946D01*
X586732Y455929D01*
X586756Y455932D01*
X586779Y455930D01*
X586876Y455951D01*
X586975Y455966D01*
X586996Y455977D01*
X587020Y455982D01*
X587105Y456033D01*
X587193Y456078D01*
X587210Y456096D01*
X587231Y456108D01*
X587296Y456183D01*
X587365Y456255D01*
X587375Y456277D01*
X587391Y456295D01*
X587428Y456387D01*
X587471Y456477D01*
X587474Y456501D01*
X587483Y456523D01*
X587501Y456690D01*
X587501Y457461D01*
X587487Y457552D01*
X587479Y457642D01*
X587467Y457672D01*
X587462Y457704D01*
X587419Y457785D01*
X587383Y457869D01*
X587357Y457901D01*
X587346Y457922D01*
X587323Y457944D01*
X587278Y458000D01*
X555536Y489742D01*
X555462Y489795D01*
X555392Y489855D01*
X555362Y489867D01*
X555336Y489886D01*
X555249Y489913D01*
X555164Y489947D01*
X555123Y489951D01*
X555101Y489958D01*
X555069Y489957D01*
X554997Y489965D01*
X239007Y489965D01*
X238916Y489951D01*
X238826Y489943D01*
X238796Y489931D01*
X238764Y489926D01*
X238683Y489883D01*
X238599Y489847D01*
X238567Y489821D01*
X238546Y489810D01*
X238524Y489787D01*
X238468Y489742D01*
X204308Y455582D01*
X204255Y455508D01*
X204195Y455438D01*
X204183Y455408D01*
X204164Y455382D01*
X204137Y455295D01*
X204103Y455210D01*
X204099Y455169D01*
X204092Y455147D01*
X204093Y455115D01*
X204085Y455044D01*
X204085Y453260D01*
X204099Y453170D01*
X204107Y453079D01*
X204119Y453050D01*
X204124Y453018D01*
X204167Y452937D01*
X204203Y452853D01*
X204229Y452821D01*
X204240Y452800D01*
X204263Y452778D01*
X204308Y452722D01*
X217171Y439859D01*
X217171Y375865D01*
X217185Y375775D01*
X217193Y375684D01*
X217205Y375655D01*
X217210Y375623D01*
X217253Y375542D01*
X217289Y375458D01*
X217315Y375426D01*
X217326Y375405D01*
X217349Y375383D01*
X217394Y375327D01*
X220191Y372530D01*
X220191Y368134D01*
X219879Y367822D01*
X219837Y367764D01*
X219788Y367712D01*
X219766Y367665D01*
X219736Y367623D01*
X219714Y367554D01*
X219684Y367489D01*
X219679Y367437D01*
X219663Y367387D01*
X219665Y367316D01*
X219657Y367245D01*
X219668Y367194D01*
X219670Y367142D01*
X219694Y367074D01*
X219709Y367004D01*
X219736Y366959D01*
X219754Y366911D01*
X219799Y366855D01*
X219836Y366793D01*
X219875Y366759D01*
X219908Y366719D01*
X219968Y366680D01*
X220023Y366633D01*
X220071Y366614D01*
X220115Y366586D01*
X220184Y366568D01*
X220251Y366541D01*
X220322Y366533D01*
X220353Y366525D01*
X220376Y366527D01*
X220417Y366523D01*
X276791Y366523D01*
X327465Y315849D01*
X327532Y315801D01*
X327593Y315746D01*
X327642Y315722D01*
X327665Y315705D01*
X327693Y315697D01*
X327743Y315671D01*
X328367Y315444D01*
X328387Y315441D01*
X328405Y315432D01*
X328507Y315418D01*
X328609Y315399D01*
X328629Y315401D01*
X328649Y315399D01*
X328750Y315418D01*
X328853Y315432D01*
X328871Y315441D01*
X328890Y315445D01*
X328980Y315496D01*
X329073Y315542D01*
X329087Y315556D01*
X329104Y315566D01*
X329174Y315643D01*
X329247Y315716D01*
X329255Y315734D01*
X329269Y315749D01*
X329343Y315899D01*
X329508Y316351D01*
X332377Y317689D01*
X332454Y317742D01*
X332535Y317788D01*
X332555Y317811D01*
X332580Y317828D01*
X332637Y317902D01*
X332699Y317972D01*
X332710Y318000D01*
X332729Y318024D01*
X332758Y318113D01*
X332795Y318199D01*
X332800Y318237D01*
X332807Y318257D01*
X332807Y318290D01*
X332816Y318365D01*
X332993Y327675D01*
X332992Y327681D01*
X332993Y327689D01*
X332993Y328633D01*
X333673Y329288D01*
X333677Y329292D01*
X333684Y329298D01*
X340390Y336004D01*
X340443Y336078D01*
X340503Y336148D01*
X340515Y336178D01*
X340534Y336204D01*
X340561Y336291D01*
X340595Y336376D01*
X340599Y336417D01*
X340606Y336439D01*
X340605Y336471D01*
X340613Y336543D01*
X340613Y398327D01*
X340599Y398417D01*
X340591Y398508D01*
X340579Y398537D01*
X340574Y398569D01*
X340531Y398650D01*
X340495Y398734D01*
X340469Y398766D01*
X340458Y398787D01*
X340435Y398809D01*
X340390Y398865D01*
X337593Y401662D01*
X337593Y406058D01*
X340702Y409167D01*
X345098Y409167D01*
X348207Y406058D01*
X348207Y401662D01*
X345410Y398865D01*
X345357Y398791D01*
X345297Y398721D01*
X345285Y398691D01*
X345266Y398665D01*
X345239Y398578D01*
X345205Y398493D01*
X345201Y398452D01*
X345194Y398430D01*
X345195Y398398D01*
X345187Y398327D01*
X345187Y334333D01*
X337766Y326912D01*
X337717Y326844D01*
X337661Y326781D01*
X337645Y326744D01*
X337622Y326712D01*
X337598Y326632D01*
X337565Y326554D01*
X337558Y326503D01*
X337550Y326477D01*
X337551Y326447D01*
X337543Y326388D01*
X337245Y310699D01*
X337258Y310610D01*
X337263Y310522D01*
X337277Y310480D01*
X337280Y310455D01*
X337295Y310427D01*
X337316Y310363D01*
X340343Y303873D01*
X340359Y303849D01*
X340369Y303821D01*
X340428Y303748D01*
X340481Y303670D01*
X340504Y303652D01*
X340523Y303629D01*
X340602Y303578D01*
X340677Y303522D01*
X340705Y303512D01*
X340730Y303496D01*
X340821Y303473D01*
X340911Y303444D01*
X340940Y303444D01*
X340968Y303436D01*
X341062Y303444D01*
G37*
%LPC*%
G36*
X79728Y490655D02*
X79728Y490655D01*
X78835Y491548D01*
X78835Y501307D01*
X78821Y501398D01*
X78813Y501488D01*
X78801Y501518D01*
X78796Y501550D01*
X78753Y501631D01*
X78717Y501715D01*
X78691Y501747D01*
X78680Y501768D01*
X78657Y501790D01*
X78612Y501846D01*
X37376Y543082D01*
X37302Y543135D01*
X37232Y543195D01*
X37202Y543207D01*
X37176Y543226D01*
X37089Y543253D01*
X37004Y543287D01*
X36963Y543291D01*
X36941Y543298D01*
X36909Y543297D01*
X36837Y543305D01*
X33686Y543305D01*
X33666Y543302D01*
X33647Y543304D01*
X33545Y543282D01*
X33443Y543266D01*
X33426Y543256D01*
X33406Y543252D01*
X33317Y543199D01*
X33226Y543150D01*
X33212Y543136D01*
X33195Y543126D01*
X33128Y543047D01*
X33056Y542972D01*
X33048Y542954D01*
X33035Y542939D01*
X32996Y542843D01*
X32953Y542749D01*
X32951Y542729D01*
X32943Y542711D01*
X32925Y542544D01*
X32925Y539808D01*
X32032Y538915D01*
X22416Y538915D01*
X22346Y538904D01*
X22274Y538902D01*
X22225Y538884D01*
X22174Y538876D01*
X22110Y538842D01*
X22043Y538817D01*
X22002Y538785D01*
X21956Y538760D01*
X21907Y538708D01*
X21851Y538664D01*
X21823Y538620D01*
X21787Y538582D01*
X21757Y538517D01*
X21718Y538457D01*
X21705Y538406D01*
X21683Y538359D01*
X21675Y538288D01*
X21658Y538218D01*
X21662Y538166D01*
X21656Y538115D01*
X21671Y538044D01*
X21677Y537973D01*
X21697Y537925D01*
X21708Y537874D01*
X21745Y537813D01*
X21773Y537747D01*
X21818Y537691D01*
X21835Y537663D01*
X21852Y537648D01*
X21878Y537616D01*
X26306Y533188D01*
X26380Y533135D01*
X26450Y533075D01*
X26480Y533063D01*
X26506Y533044D01*
X26593Y533017D01*
X26678Y532983D01*
X26719Y532979D01*
X26741Y532972D01*
X26773Y532973D01*
X26845Y532965D01*
X32032Y532965D01*
X32925Y532072D01*
X32925Y518808D01*
X32032Y517915D01*
X18768Y517915D01*
X17875Y518808D01*
X17875Y532072D01*
X18877Y533073D01*
X18888Y533089D01*
X18904Y533102D01*
X18960Y533189D01*
X19020Y533273D01*
X19026Y533292D01*
X19037Y533308D01*
X19062Y533409D01*
X19093Y533508D01*
X19092Y533528D01*
X19097Y533547D01*
X19089Y533650D01*
X19086Y533754D01*
X19079Y533772D01*
X19078Y533792D01*
X19037Y533887D01*
X19002Y533985D01*
X18989Y534000D01*
X18981Y534018D01*
X18877Y534149D01*
X14477Y538549D01*
X14477Y554159D01*
X17341Y557023D01*
X100007Y557023D01*
X102860Y554170D01*
X102934Y554117D01*
X103004Y554057D01*
X103034Y554045D01*
X103060Y554026D01*
X103147Y553999D01*
X103232Y553965D01*
X103273Y553961D01*
X103295Y553954D01*
X103327Y553955D01*
X103399Y553947D01*
X107354Y553947D01*
X110463Y550838D01*
X110463Y546442D01*
X107354Y543333D01*
X102958Y543333D01*
X99849Y546442D01*
X99849Y550397D01*
X99835Y550488D01*
X99827Y550578D01*
X99815Y550608D01*
X99810Y550640D01*
X99767Y550721D01*
X99731Y550805D01*
X99705Y550837D01*
X99694Y550858D01*
X99671Y550880D01*
X99626Y550936D01*
X98336Y552226D01*
X98262Y552279D01*
X98192Y552339D01*
X98162Y552351D01*
X98136Y552370D01*
X98049Y552397D01*
X97964Y552431D01*
X97923Y552435D01*
X97901Y552442D01*
X97869Y552441D01*
X97797Y552449D01*
X64969Y552449D01*
X64899Y552438D01*
X64827Y552436D01*
X64778Y552418D01*
X64727Y552410D01*
X64663Y552376D01*
X64596Y552351D01*
X64555Y552319D01*
X64509Y552294D01*
X64460Y552242D01*
X64404Y552198D01*
X64376Y552154D01*
X64340Y552116D01*
X64310Y552051D01*
X64271Y551991D01*
X64258Y551940D01*
X64236Y551893D01*
X64228Y551822D01*
X64211Y551752D01*
X64215Y551700D01*
X64209Y551649D01*
X64224Y551578D01*
X64230Y551507D01*
X64250Y551459D01*
X64261Y551408D01*
X64298Y551347D01*
X64326Y551281D01*
X64371Y551225D01*
X64388Y551197D01*
X64405Y551182D01*
X64431Y551150D01*
X66267Y549314D01*
X66267Y544918D01*
X63158Y541809D01*
X59203Y541809D01*
X59112Y541795D01*
X59022Y541787D01*
X58992Y541775D01*
X58960Y541770D01*
X58879Y541727D01*
X58795Y541691D01*
X58763Y541665D01*
X58742Y541654D01*
X58720Y541631D01*
X58664Y541586D01*
X52540Y535462D01*
X52529Y535446D01*
X52513Y535434D01*
X52457Y535346D01*
X52397Y535263D01*
X52391Y535244D01*
X52380Y535227D01*
X52355Y535126D01*
X52324Y535027D01*
X52325Y535008D01*
X52320Y534988D01*
X52328Y534885D01*
X52331Y534782D01*
X52338Y534763D01*
X52339Y534743D01*
X52379Y534648D01*
X52415Y534551D01*
X52428Y534535D01*
X52435Y534517D01*
X52540Y534386D01*
X80998Y505928D01*
X81072Y505875D01*
X81142Y505815D01*
X81172Y505803D01*
X81198Y505784D01*
X81285Y505757D01*
X81370Y505723D01*
X81411Y505719D01*
X81433Y505712D01*
X81465Y505713D01*
X81537Y505705D01*
X90675Y505705D01*
X90766Y505719D01*
X90856Y505727D01*
X90886Y505739D01*
X90918Y505744D01*
X90999Y505787D01*
X91083Y505823D01*
X91115Y505849D01*
X91136Y505860D01*
X91158Y505883D01*
X91214Y505928D01*
X108781Y523495D01*
X149734Y523495D01*
X149754Y523498D01*
X149773Y523496D01*
X149875Y523518D01*
X149977Y523534D01*
X149994Y523544D01*
X150014Y523548D01*
X150103Y523601D01*
X150194Y523650D01*
X150208Y523664D01*
X150225Y523674D01*
X150292Y523753D01*
X150364Y523828D01*
X150372Y523846D01*
X150385Y523861D01*
X150424Y523957D01*
X150467Y524051D01*
X150469Y524071D01*
X150477Y524089D01*
X150495Y524256D01*
X150495Y529712D01*
X151388Y530605D01*
X168652Y530605D01*
X169545Y529712D01*
X169545Y525780D01*
X169548Y525760D01*
X169546Y525741D01*
X169568Y525639D01*
X169584Y525537D01*
X169594Y525520D01*
X169598Y525500D01*
X169651Y525411D01*
X169700Y525320D01*
X169714Y525306D01*
X169724Y525289D01*
X169803Y525222D01*
X169878Y525150D01*
X169896Y525142D01*
X169911Y525129D01*
X170007Y525090D01*
X170101Y525047D01*
X170121Y525045D01*
X170139Y525037D01*
X170306Y525019D01*
X185928Y525019D01*
X185948Y525022D01*
X185967Y525020D01*
X186069Y525042D01*
X186171Y525058D01*
X186188Y525068D01*
X186208Y525072D01*
X186297Y525125D01*
X186388Y525174D01*
X186402Y525188D01*
X186419Y525198D01*
X186486Y525277D01*
X186558Y525352D01*
X186566Y525370D01*
X186579Y525385D01*
X186618Y525481D01*
X186661Y525575D01*
X186663Y525595D01*
X186671Y525613D01*
X186689Y525780D01*
X186689Y660680D01*
X186670Y660794D01*
X186653Y660910D01*
X186651Y660916D01*
X186650Y660922D01*
X186595Y661024D01*
X186542Y661130D01*
X186537Y661134D01*
X186534Y661140D01*
X186450Y661219D01*
X186366Y661302D01*
X186360Y661306D01*
X186356Y661309D01*
X186339Y661317D01*
X186219Y661383D01*
X182780Y662807D01*
X180207Y665380D01*
X178815Y668741D01*
X178815Y687619D01*
X180207Y690980D01*
X182780Y693553D01*
X186141Y694945D01*
X189779Y694945D01*
X193140Y693553D01*
X195713Y690980D01*
X197105Y687619D01*
X197105Y681228D01*
X197108Y681208D01*
X197106Y681189D01*
X197128Y681087D01*
X197144Y680985D01*
X197154Y680968D01*
X197158Y680948D01*
X197211Y680859D01*
X197260Y680768D01*
X197274Y680754D01*
X197284Y680737D01*
X197363Y680670D01*
X197438Y680598D01*
X197456Y680590D01*
X197471Y680577D01*
X197567Y680538D01*
X197661Y680495D01*
X197681Y680493D01*
X197699Y680485D01*
X197866Y680467D01*
X203454Y680467D01*
X203474Y680470D01*
X203493Y680468D01*
X203595Y680490D01*
X203697Y680506D01*
X203714Y680516D01*
X203734Y680520D01*
X203823Y680573D01*
X203914Y680622D01*
X203928Y680636D01*
X203945Y680646D01*
X204012Y680725D01*
X204084Y680800D01*
X204092Y680818D01*
X204105Y680833D01*
X204144Y680929D01*
X204187Y681023D01*
X204189Y681043D01*
X204197Y681061D01*
X204215Y681228D01*
X204215Y687619D01*
X205607Y690980D01*
X208180Y693553D01*
X211541Y694945D01*
X215179Y694945D01*
X218540Y693553D01*
X221113Y690980D01*
X222505Y687619D01*
X222505Y668741D01*
X221113Y665380D01*
X218540Y662807D01*
X215179Y661415D01*
X211541Y661415D01*
X208180Y662807D01*
X205607Y665380D01*
X204215Y668741D01*
X204215Y675132D01*
X204212Y675152D01*
X204214Y675171D01*
X204192Y675273D01*
X204176Y675375D01*
X204166Y675392D01*
X204162Y675412D01*
X204109Y675501D01*
X204060Y675592D01*
X204046Y675606D01*
X204036Y675623D01*
X203957Y675690D01*
X203882Y675762D01*
X203864Y675770D01*
X203849Y675783D01*
X203753Y675822D01*
X203659Y675865D01*
X203639Y675867D01*
X203621Y675875D01*
X203454Y675893D01*
X197866Y675893D01*
X197846Y675890D01*
X197827Y675892D01*
X197725Y675870D01*
X197623Y675854D01*
X197606Y675844D01*
X197586Y675840D01*
X197497Y675787D01*
X197406Y675738D01*
X197392Y675724D01*
X197375Y675714D01*
X197308Y675635D01*
X197236Y675560D01*
X197228Y675542D01*
X197215Y675527D01*
X197176Y675431D01*
X197133Y675337D01*
X197131Y675317D01*
X197123Y675299D01*
X197105Y675132D01*
X197105Y668741D01*
X195713Y665380D01*
X193140Y662807D01*
X191733Y662225D01*
X191633Y662163D01*
X191533Y662103D01*
X191529Y662098D01*
X191524Y662095D01*
X191449Y662005D01*
X191373Y661916D01*
X191371Y661910D01*
X191367Y661905D01*
X191325Y661797D01*
X191281Y661688D01*
X191280Y661680D01*
X191279Y661676D01*
X191278Y661658D01*
X191263Y661521D01*
X191263Y525780D01*
X191266Y525760D01*
X191264Y525741D01*
X191286Y525639D01*
X191302Y525537D01*
X191312Y525520D01*
X191316Y525500D01*
X191369Y525411D01*
X191418Y525320D01*
X191432Y525306D01*
X191442Y525289D01*
X191521Y525222D01*
X191596Y525150D01*
X191614Y525142D01*
X191629Y525129D01*
X191725Y525090D01*
X191819Y525047D01*
X191839Y525045D01*
X191857Y525037D01*
X192024Y525019D01*
X470154Y525019D01*
X470174Y525022D01*
X470193Y525020D01*
X470295Y525042D01*
X470397Y525058D01*
X470414Y525068D01*
X470434Y525072D01*
X470523Y525125D01*
X470614Y525174D01*
X470628Y525188D01*
X470645Y525198D01*
X470712Y525277D01*
X470784Y525352D01*
X470792Y525370D01*
X470805Y525385D01*
X470844Y525481D01*
X470887Y525575D01*
X470889Y525595D01*
X470897Y525613D01*
X470915Y525780D01*
X470915Y532679D01*
X472307Y536040D01*
X474880Y538613D01*
X478241Y540005D01*
X481879Y540005D01*
X485240Y538613D01*
X487813Y536040D01*
X489205Y532679D01*
X489205Y513801D01*
X487813Y510440D01*
X485240Y507867D01*
X481879Y506475D01*
X478241Y506475D01*
X474880Y507867D01*
X472307Y510440D01*
X470915Y513801D01*
X470915Y519684D01*
X470912Y519704D01*
X470914Y519723D01*
X470892Y519825D01*
X470876Y519927D01*
X470866Y519944D01*
X470862Y519964D01*
X470809Y520053D01*
X470760Y520144D01*
X470746Y520158D01*
X470736Y520175D01*
X470657Y520242D01*
X470582Y520314D01*
X470564Y520322D01*
X470549Y520335D01*
X470453Y520374D01*
X470359Y520417D01*
X470339Y520419D01*
X470321Y520427D01*
X470154Y520445D01*
X170306Y520445D01*
X170286Y520442D01*
X170267Y520444D01*
X170165Y520422D01*
X170063Y520406D01*
X170046Y520396D01*
X170026Y520392D01*
X169937Y520339D01*
X169846Y520290D01*
X169832Y520276D01*
X169815Y520266D01*
X169748Y520187D01*
X169676Y520112D01*
X169668Y520094D01*
X169655Y520079D01*
X169616Y519983D01*
X169573Y519889D01*
X169571Y519869D01*
X169563Y519851D01*
X169545Y519684D01*
X169545Y515448D01*
X168652Y514555D01*
X151388Y514555D01*
X150495Y515448D01*
X150495Y518160D01*
X150492Y518180D01*
X150494Y518199D01*
X150472Y518301D01*
X150456Y518403D01*
X150446Y518420D01*
X150442Y518440D01*
X150389Y518529D01*
X150340Y518620D01*
X150326Y518634D01*
X150316Y518651D01*
X150237Y518718D01*
X150162Y518790D01*
X150144Y518798D01*
X150129Y518811D01*
X150033Y518850D01*
X149939Y518893D01*
X149919Y518895D01*
X149901Y518903D01*
X149734Y518921D01*
X110991Y518921D01*
X110900Y518907D01*
X110810Y518899D01*
X110780Y518887D01*
X110748Y518882D01*
X110667Y518839D01*
X110583Y518803D01*
X110551Y518777D01*
X110530Y518766D01*
X110508Y518743D01*
X110452Y518698D01*
X94108Y502354D01*
X94055Y502280D01*
X93995Y502210D01*
X93983Y502180D01*
X93964Y502154D01*
X93937Y502067D01*
X93903Y501982D01*
X93899Y501941D01*
X93892Y501919D01*
X93893Y501887D01*
X93885Y501815D01*
X93885Y491548D01*
X92992Y490655D01*
X79728Y490655D01*
G37*
%LPD*%
G36*
X442025Y53509D02*
X442025Y53509D01*
X442051Y53507D01*
X442145Y53535D01*
X442240Y53555D01*
X442262Y53569D01*
X442287Y53576D01*
X442367Y53631D01*
X442451Y53681D01*
X442468Y53701D01*
X442489Y53716D01*
X442548Y53794D01*
X442611Y53868D01*
X442621Y53893D01*
X442636Y53914D01*
X442666Y54006D01*
X442703Y54097D01*
X442706Y54129D01*
X442712Y54147D01*
X442712Y54181D01*
X442721Y54263D01*
X442721Y54287D01*
X445546Y57112D01*
X445599Y57186D01*
X445659Y57256D01*
X445671Y57286D01*
X445690Y57312D01*
X445717Y57399D01*
X445751Y57484D01*
X445755Y57525D01*
X445762Y57547D01*
X445761Y57579D01*
X445769Y57651D01*
X445769Y79114D01*
X445766Y79134D01*
X445768Y79153D01*
X445746Y79255D01*
X445730Y79357D01*
X445720Y79374D01*
X445716Y79394D01*
X445663Y79483D01*
X445614Y79574D01*
X445600Y79588D01*
X445590Y79605D01*
X445511Y79672D01*
X445436Y79744D01*
X445418Y79752D01*
X445403Y79765D01*
X445307Y79804D01*
X445213Y79847D01*
X445193Y79849D01*
X445175Y79857D01*
X445008Y79875D01*
X441788Y79875D01*
X440895Y80768D01*
X440895Y97032D01*
X441788Y97925D01*
X454040Y97925D01*
X454130Y97939D01*
X454221Y97947D01*
X454250Y97959D01*
X454282Y97964D01*
X454363Y98007D01*
X454447Y98043D01*
X454479Y98069D01*
X454500Y98080D01*
X454522Y98103D01*
X454578Y98148D01*
X468406Y111976D01*
X468459Y112050D01*
X468519Y112120D01*
X468531Y112150D01*
X468550Y112176D01*
X468577Y112263D01*
X468611Y112348D01*
X468615Y112389D01*
X468622Y112411D01*
X468621Y112443D01*
X468629Y112515D01*
X468629Y126334D01*
X468626Y126354D01*
X468628Y126373D01*
X468606Y126475D01*
X468590Y126577D01*
X468580Y126594D01*
X468576Y126614D01*
X468523Y126703D01*
X468474Y126794D01*
X468460Y126808D01*
X468450Y126825D01*
X468371Y126892D01*
X468296Y126964D01*
X468278Y126972D01*
X468263Y126985D01*
X468167Y127024D01*
X468073Y127067D01*
X468053Y127069D01*
X468035Y127077D01*
X467868Y127095D01*
X465468Y127095D01*
X464575Y127988D01*
X464575Y133856D01*
X464561Y133946D01*
X464553Y134037D01*
X464541Y134066D01*
X464536Y134098D01*
X464493Y134179D01*
X464457Y134263D01*
X464431Y134295D01*
X464420Y134316D01*
X464397Y134338D01*
X464352Y134394D01*
X395516Y203230D01*
X393730Y205016D01*
X374696Y224051D01*
X374687Y224057D01*
X374681Y224065D01*
X374587Y224129D01*
X374496Y224194D01*
X374486Y224197D01*
X374477Y224203D01*
X374369Y224233D01*
X374261Y224266D01*
X374250Y224266D01*
X374240Y224269D01*
X374128Y224263D01*
X374015Y224260D01*
X374005Y224256D01*
X373994Y224256D01*
X373836Y224202D01*
X372716Y223680D01*
X372640Y223628D01*
X372561Y223584D01*
X372539Y223560D01*
X372512Y223541D01*
X372457Y223469D01*
X372396Y223401D01*
X372378Y223364D01*
X372364Y223345D01*
X372354Y223315D01*
X372322Y223250D01*
X372252Y223057D01*
X371762Y222358D01*
X371109Y221810D01*
X370778Y221655D01*
X366408Y231027D01*
X366370Y231082D01*
X366341Y231141D01*
X366301Y231182D01*
X366269Y231230D01*
X366216Y231270D01*
X366170Y231318D01*
X366119Y231344D01*
X366073Y231378D01*
X366010Y231399D01*
X365951Y231430D01*
X365894Y231438D01*
X365840Y231456D01*
X365773Y231456D01*
X365707Y231466D01*
X365651Y231456D01*
X365594Y231456D01*
X365531Y231435D01*
X365465Y231423D01*
X365392Y231388D01*
X365361Y231377D01*
X365360Y231377D01*
X365344Y231365D01*
X365314Y231351D01*
X365314Y231350D01*
X365241Y231287D01*
X365165Y231228D01*
X365149Y231206D01*
X365129Y231188D01*
X365081Y231104D01*
X365027Y231025D01*
X365019Y230999D01*
X365006Y230975D01*
X364986Y230881D01*
X364961Y230788D01*
X364962Y230761D01*
X364957Y230734D01*
X364969Y230638D01*
X364974Y230542D01*
X364985Y230510D01*
X364987Y230490D01*
X365001Y230460D01*
X365027Y230383D01*
X369397Y221012D01*
X369066Y220857D01*
X368226Y220709D01*
X367350Y220786D01*
X367297Y220782D01*
X367245Y220788D01*
X367176Y220773D01*
X367105Y220767D01*
X367056Y220747D01*
X367004Y220735D01*
X366943Y220699D01*
X366878Y220672D01*
X366839Y220636D01*
X366793Y220609D01*
X366747Y220555D01*
X366694Y220509D01*
X366668Y220463D01*
X366633Y220422D01*
X366607Y220357D01*
X366572Y220295D01*
X366561Y220243D01*
X366541Y220194D01*
X366529Y220082D01*
X366523Y220054D01*
X366525Y220044D01*
X366523Y220027D01*
X366523Y205479D01*
X366537Y205388D01*
X366545Y205298D01*
X366557Y205268D01*
X366562Y205236D01*
X366605Y205155D01*
X366641Y205071D01*
X366667Y205039D01*
X366678Y205018D01*
X366701Y204996D01*
X366746Y204940D01*
X422911Y148775D01*
X422911Y99702D01*
X422914Y99682D01*
X422912Y99663D01*
X422934Y99561D01*
X422950Y99459D01*
X422960Y99442D01*
X422964Y99422D01*
X423017Y99333D01*
X423066Y99242D01*
X423080Y99228D01*
X423090Y99211D01*
X423169Y99144D01*
X423244Y99072D01*
X423262Y99064D01*
X423277Y99051D01*
X423373Y99012D01*
X423467Y98969D01*
X423487Y98967D01*
X423505Y98959D01*
X423672Y98941D01*
X428397Y98941D01*
X428397Y89662D01*
X428400Y89642D01*
X428398Y89623D01*
X428420Y89521D01*
X428437Y89419D01*
X428446Y89402D01*
X428450Y89382D01*
X428503Y89293D01*
X428552Y89202D01*
X428566Y89188D01*
X428576Y89171D01*
X428655Y89104D01*
X428730Y89033D01*
X428748Y89024D01*
X428763Y89011D01*
X428859Y88972D01*
X428953Y88929D01*
X428973Y88927D01*
X428991Y88919D01*
X429158Y88901D01*
X429921Y88901D01*
X429921Y88899D01*
X429158Y88899D01*
X429138Y88896D01*
X429119Y88898D01*
X429017Y88876D01*
X428915Y88859D01*
X428898Y88850D01*
X428878Y88846D01*
X428789Y88793D01*
X428698Y88744D01*
X428684Y88730D01*
X428667Y88720D01*
X428600Y88641D01*
X428529Y88566D01*
X428520Y88548D01*
X428507Y88533D01*
X428468Y88437D01*
X428425Y88343D01*
X428423Y88323D01*
X428415Y88305D01*
X428397Y88138D01*
X428397Y78859D01*
X423672Y78859D01*
X423652Y78856D01*
X423633Y78858D01*
X423531Y78836D01*
X423429Y78820D01*
X423412Y78810D01*
X423392Y78806D01*
X423303Y78753D01*
X423212Y78704D01*
X423198Y78690D01*
X423181Y78680D01*
X423114Y78601D01*
X423042Y78526D01*
X423034Y78508D01*
X423021Y78493D01*
X422982Y78397D01*
X422939Y78303D01*
X422937Y78283D01*
X422929Y78265D01*
X422911Y78098D01*
X422911Y60699D01*
X422926Y60608D01*
X422933Y60518D01*
X422945Y60488D01*
X422950Y60456D01*
X422993Y60375D01*
X423029Y60291D01*
X423055Y60259D01*
X423066Y60238D01*
X423089Y60216D01*
X423134Y60160D01*
X425367Y57927D01*
X425462Y57859D01*
X425556Y57789D01*
X425562Y57787D01*
X425567Y57783D01*
X425678Y57749D01*
X425790Y57713D01*
X425796Y57713D01*
X425802Y57711D01*
X425919Y57714D01*
X426036Y57715D01*
X426043Y57717D01*
X426048Y57717D01*
X426065Y57724D01*
X426197Y57762D01*
X429627Y59183D01*
X433973Y59183D01*
X437987Y57520D01*
X441060Y54447D01*
X441257Y53972D01*
X441308Y53889D01*
X441354Y53803D01*
X441373Y53785D01*
X441386Y53763D01*
X441461Y53701D01*
X441532Y53634D01*
X441556Y53623D01*
X441576Y53606D01*
X441667Y53571D01*
X441755Y53530D01*
X441781Y53527D01*
X441805Y53518D01*
X441903Y53514D01*
X441999Y53503D01*
X442025Y53509D01*
G37*
%LPC*%
G36*
X636569Y643889D02*
X636569Y643889D01*
X629785Y645707D01*
X623704Y649218D01*
X618738Y654184D01*
X615227Y660265D01*
X613409Y667049D01*
X613409Y674071D01*
X615227Y680855D01*
X618738Y686936D01*
X623704Y691902D01*
X629785Y695413D01*
X636569Y697231D01*
X643591Y697231D01*
X650375Y695413D01*
X656456Y691902D01*
X661422Y686936D01*
X664933Y680855D01*
X666751Y674071D01*
X666751Y667049D01*
X664933Y660265D01*
X661422Y654184D01*
X656456Y649218D01*
X650375Y645707D01*
X643591Y643889D01*
X636569Y643889D01*
G37*
%LPD*%
%LPC*%
G36*
X42209Y19049D02*
X42209Y19049D01*
X35425Y20867D01*
X29344Y24378D01*
X24378Y29344D01*
X20867Y35425D01*
X19049Y42209D01*
X19049Y49231D01*
X20867Y56015D01*
X24378Y62096D01*
X29344Y67062D01*
X35425Y70573D01*
X42209Y72391D01*
X49231Y72391D01*
X56015Y70573D01*
X62096Y67062D01*
X67062Y62096D01*
X70573Y56015D01*
X72391Y49231D01*
X72391Y42209D01*
X70573Y35425D01*
X67062Y29344D01*
X62096Y24378D01*
X56015Y20867D01*
X49231Y19049D01*
X42209Y19049D01*
G37*
%LPD*%
G36*
X407182Y48264D02*
X407182Y48264D01*
X407201Y48262D01*
X407303Y48284D01*
X407405Y48301D01*
X407422Y48310D01*
X407442Y48314D01*
X407531Y48367D01*
X407622Y48416D01*
X407636Y48430D01*
X407653Y48440D01*
X407720Y48519D01*
X407791Y48594D01*
X407800Y48612D01*
X407813Y48627D01*
X407852Y48723D01*
X407895Y48817D01*
X407897Y48837D01*
X407905Y48855D01*
X407923Y49022D01*
X407923Y60106D01*
X409196Y59905D01*
X410983Y59324D01*
X412657Y58471D01*
X414081Y57437D01*
X414091Y57431D01*
X414100Y57423D01*
X414201Y57376D01*
X414300Y57326D01*
X414312Y57325D01*
X414323Y57320D01*
X414434Y57307D01*
X414544Y57292D01*
X414556Y57294D01*
X414567Y57292D01*
X414676Y57316D01*
X414786Y57336D01*
X414796Y57342D01*
X414808Y57345D01*
X414903Y57402D01*
X415001Y57456D01*
X415009Y57465D01*
X415019Y57471D01*
X415091Y57556D01*
X415166Y57638D01*
X415171Y57649D01*
X415179Y57658D01*
X415221Y57761D01*
X415265Y57863D01*
X415266Y57875D01*
X415271Y57886D01*
X415289Y58053D01*
X415289Y145041D01*
X415275Y145132D01*
X415267Y145222D01*
X415255Y145252D01*
X415250Y145284D01*
X415207Y145365D01*
X415171Y145449D01*
X415145Y145481D01*
X415134Y145502D01*
X415111Y145524D01*
X415066Y145580D01*
X398302Y162344D01*
X398244Y162386D01*
X398192Y162435D01*
X398145Y162457D01*
X398103Y162487D01*
X398034Y162508D01*
X397969Y162539D01*
X397917Y162544D01*
X397867Y162560D01*
X397796Y162558D01*
X397725Y162566D01*
X397674Y162555D01*
X397622Y162553D01*
X397554Y162529D01*
X397484Y162514D01*
X397439Y162487D01*
X397391Y162469D01*
X397335Y162424D01*
X397273Y162387D01*
X397239Y162348D01*
X397199Y162315D01*
X397160Y162255D01*
X397113Y162200D01*
X397094Y162152D01*
X397066Y162108D01*
X397048Y162039D01*
X397021Y161972D01*
X397013Y161901D01*
X397005Y161870D01*
X397007Y161846D01*
X397003Y161806D01*
X397003Y57584D01*
X397014Y57514D01*
X397016Y57442D01*
X397034Y57393D01*
X397042Y57342D01*
X397076Y57278D01*
X397101Y57211D01*
X397133Y57170D01*
X397158Y57124D01*
X397209Y57075D01*
X397254Y57019D01*
X397298Y56991D01*
X397336Y56955D01*
X397401Y56925D01*
X397461Y56886D01*
X397512Y56873D01*
X397559Y56851D01*
X397630Y56843D01*
X397700Y56826D01*
X397752Y56830D01*
X397803Y56824D01*
X397874Y56839D01*
X397945Y56845D01*
X397993Y56865D01*
X398044Y56876D01*
X398105Y56913D01*
X398171Y56941D01*
X398227Y56986D01*
X398255Y57003D01*
X398270Y57020D01*
X398302Y57046D01*
X398622Y57366D01*
X400143Y58471D01*
X401817Y59324D01*
X403604Y59905D01*
X404877Y60106D01*
X404877Y49022D01*
X404880Y49002D01*
X404878Y48983D01*
X404900Y48881D01*
X404917Y48779D01*
X404926Y48762D01*
X404930Y48742D01*
X404983Y48653D01*
X405032Y48562D01*
X405046Y48548D01*
X405056Y48531D01*
X405135Y48464D01*
X405210Y48393D01*
X405228Y48384D01*
X405243Y48371D01*
X405339Y48333D01*
X405433Y48289D01*
X405453Y48287D01*
X405471Y48279D01*
X405638Y48261D01*
X407162Y48261D01*
X407182Y48264D01*
G37*
G36*
X348105Y243090D02*
X348105Y243090D01*
X348177Y243092D01*
X348226Y243110D01*
X348277Y243118D01*
X348341Y243152D01*
X348408Y243177D01*
X348449Y243209D01*
X348495Y243234D01*
X348544Y243286D01*
X348600Y243330D01*
X348628Y243374D01*
X348664Y243412D01*
X348694Y243477D01*
X348733Y243537D01*
X348746Y243588D01*
X348768Y243635D01*
X348776Y243706D01*
X348793Y243776D01*
X348789Y243828D01*
X348795Y243879D01*
X348780Y243950D01*
X348774Y244021D01*
X348754Y244069D01*
X348743Y244120D01*
X348706Y244181D01*
X348678Y244247D01*
X348633Y244303D01*
X348616Y244331D01*
X348599Y244346D01*
X348594Y244352D01*
X348592Y244355D01*
X348590Y244357D01*
X348573Y244378D01*
X348261Y244690D01*
X348261Y249086D01*
X351058Y251883D01*
X351111Y251957D01*
X351171Y252027D01*
X351183Y252057D01*
X351202Y252083D01*
X351229Y252170D01*
X351263Y252255D01*
X351267Y252296D01*
X351274Y252318D01*
X351273Y252350D01*
X351281Y252421D01*
X351281Y278315D01*
X352844Y279878D01*
X353115Y280149D01*
X353121Y280158D01*
X353130Y280164D01*
X353193Y280257D01*
X353259Y280349D01*
X353262Y280359D01*
X353268Y280368D01*
X353298Y280476D01*
X353331Y280584D01*
X353331Y280594D01*
X353334Y280605D01*
X353328Y280717D01*
X353325Y280830D01*
X353321Y280840D01*
X353321Y280850D01*
X353267Y281009D01*
X353238Y281072D01*
X353402Y281524D01*
X353406Y281543D01*
X353415Y281561D01*
X353429Y281663D01*
X353448Y281765D01*
X353445Y281785D01*
X353448Y281805D01*
X353428Y281906D01*
X353414Y282009D01*
X353405Y282027D01*
X353401Y282046D01*
X353351Y282136D01*
X353304Y282229D01*
X353290Y282243D01*
X353281Y282261D01*
X353204Y282330D01*
X353130Y282403D01*
X353112Y282412D01*
X353098Y282425D01*
X352947Y282499D01*
X352495Y282664D01*
X351125Y285603D01*
X351289Y286055D01*
X351293Y286075D01*
X351302Y286093D01*
X351316Y286195D01*
X351335Y286297D01*
X351332Y286317D01*
X351335Y286336D01*
X351315Y286438D01*
X351301Y286541D01*
X351292Y286558D01*
X351288Y286578D01*
X351238Y286668D01*
X351191Y286761D01*
X351177Y286775D01*
X351167Y286792D01*
X351091Y286861D01*
X351017Y286934D01*
X350999Y286943D01*
X350984Y286957D01*
X350834Y287031D01*
X350382Y287195D01*
X349010Y290139D01*
X348958Y290214D01*
X348913Y290294D01*
X348889Y290315D01*
X348871Y290342D01*
X348798Y290397D01*
X348730Y290458D01*
X348693Y290476D01*
X348675Y290491D01*
X348644Y290501D01*
X348580Y290533D01*
X348386Y290603D01*
X347687Y291092D01*
X347139Y291746D01*
X346985Y292077D01*
X356356Y296447D01*
X356357Y296447D01*
X366418Y301139D01*
X366427Y301145D01*
X366448Y301152D01*
X366474Y301172D01*
X366505Y301185D01*
X366618Y301275D01*
X366622Y301278D01*
X366622Y301279D01*
X366636Y301289D01*
X367822Y302476D01*
X367875Y302550D01*
X367935Y302620D01*
X367947Y302650D01*
X367966Y302676D01*
X367993Y302763D01*
X368027Y302848D01*
X368031Y302889D01*
X368038Y302911D01*
X368037Y302943D01*
X368045Y303015D01*
X368045Y334018D01*
X368034Y334088D01*
X368032Y334160D01*
X368014Y334209D01*
X368006Y334260D01*
X367972Y334324D01*
X367947Y334391D01*
X367915Y334432D01*
X367890Y334478D01*
X367838Y334527D01*
X367794Y334583D01*
X367750Y334611D01*
X367712Y334647D01*
X367647Y334677D01*
X367587Y334716D01*
X367536Y334729D01*
X367489Y334751D01*
X367418Y334759D01*
X367348Y334776D01*
X367296Y334772D01*
X367245Y334778D01*
X367174Y334763D01*
X367103Y334757D01*
X367055Y334737D01*
X367004Y334726D01*
X366943Y334689D01*
X366877Y334661D01*
X366821Y334616D01*
X366793Y334599D01*
X366778Y334582D01*
X366746Y334556D01*
X353030Y320840D01*
X352977Y320766D01*
X352917Y320696D01*
X352905Y320666D01*
X352886Y320640D01*
X352859Y320553D01*
X352825Y320468D01*
X352821Y320427D01*
X352814Y320405D01*
X352815Y320373D01*
X352807Y320301D01*
X352807Y317953D01*
X352821Y317863D01*
X352829Y317772D01*
X352841Y317743D01*
X352846Y317711D01*
X352889Y317630D01*
X352925Y317546D01*
X352951Y317514D01*
X352962Y317493D01*
X352985Y317471D01*
X353030Y317415D01*
X355827Y314618D01*
X355827Y310222D01*
X352718Y307113D01*
X348322Y307113D01*
X348010Y307425D01*
X347952Y307467D01*
X347900Y307516D01*
X347853Y307538D01*
X347811Y307568D01*
X347742Y307590D01*
X347677Y307620D01*
X347625Y307625D01*
X347575Y307641D01*
X347504Y307639D01*
X347433Y307647D01*
X347382Y307636D01*
X347330Y307634D01*
X347262Y307610D01*
X347192Y307595D01*
X347147Y307568D01*
X347099Y307550D01*
X347043Y307505D01*
X346981Y307468D01*
X346947Y307429D01*
X346907Y307396D01*
X346868Y307336D01*
X346821Y307281D01*
X346802Y307233D01*
X346774Y307189D01*
X346756Y307120D01*
X346729Y307053D01*
X346721Y306982D01*
X346713Y306951D01*
X346715Y306928D01*
X346711Y306887D01*
X346711Y303276D01*
X346714Y303256D01*
X346712Y303237D01*
X346734Y303135D01*
X346750Y303033D01*
X346760Y303016D01*
X346764Y302996D01*
X346817Y302907D01*
X346866Y302816D01*
X346880Y302802D01*
X346890Y302785D01*
X346969Y302718D01*
X347044Y302646D01*
X347062Y302638D01*
X347077Y302625D01*
X347173Y302586D01*
X347267Y302543D01*
X347287Y302541D01*
X347305Y302533D01*
X347472Y302515D01*
X348646Y302515D01*
X348727Y302528D01*
X348809Y302532D01*
X348861Y302550D01*
X348889Y302554D01*
X348915Y302568D01*
X348968Y302586D01*
X359956Y307710D01*
X361687Y307079D01*
X363060Y304136D01*
X363111Y304060D01*
X363156Y303981D01*
X363180Y303959D01*
X363199Y303933D01*
X363271Y303877D01*
X363339Y303816D01*
X363376Y303798D01*
X363395Y303784D01*
X363425Y303774D01*
X363490Y303742D01*
X363683Y303672D01*
X364382Y303182D01*
X364930Y302529D01*
X365085Y302198D01*
X355713Y297828D01*
X355713Y297827D01*
X346341Y293457D01*
X346187Y293788D01*
X346153Y293981D01*
X346151Y293986D01*
X346151Y293991D01*
X346110Y294103D01*
X346072Y294213D01*
X346068Y294217D01*
X346066Y294222D01*
X345992Y294315D01*
X345920Y294407D01*
X345916Y294410D01*
X345913Y294414D01*
X345813Y294478D01*
X345715Y294543D01*
X345710Y294544D01*
X345706Y294547D01*
X345592Y294576D01*
X345478Y294606D01*
X345472Y294606D01*
X345467Y294607D01*
X345351Y294598D01*
X345232Y294590D01*
X345227Y294588D01*
X345222Y294588D01*
X345115Y294542D01*
X345005Y294497D01*
X345001Y294494D01*
X344996Y294492D01*
X344865Y294387D01*
X316192Y265714D01*
X316181Y265698D01*
X316165Y265686D01*
X316136Y265641D01*
X316104Y265608D01*
X316084Y265564D01*
X316049Y265515D01*
X316043Y265496D01*
X316032Y265479D01*
X316017Y265419D01*
X316001Y265384D01*
X315996Y265345D01*
X315976Y265279D01*
X315977Y265260D01*
X315972Y265240D01*
X315977Y265172D01*
X315974Y265140D01*
X315981Y265108D01*
X315983Y265034D01*
X315990Y265015D01*
X315991Y264995D01*
X316020Y264927D01*
X316026Y264900D01*
X316040Y264876D01*
X316067Y264803D01*
X316080Y264787D01*
X316087Y264769D01*
X316192Y264638D01*
X337528Y243302D01*
X337602Y243249D01*
X337672Y243189D01*
X337702Y243177D01*
X337728Y243158D01*
X337815Y243131D01*
X337900Y243097D01*
X337941Y243093D01*
X337963Y243086D01*
X337995Y243087D01*
X338067Y243079D01*
X348035Y243079D01*
X348105Y243090D01*
G37*
G36*
X283546Y203181D02*
X283546Y203181D01*
X283617Y203187D01*
X283665Y203207D01*
X283716Y203218D01*
X283777Y203255D01*
X283843Y203283D01*
X283899Y203328D01*
X283927Y203345D01*
X283942Y203362D01*
X283974Y203388D01*
X292630Y212044D01*
X292637Y212053D01*
X292645Y212059D01*
X292708Y212153D01*
X292774Y212244D01*
X292777Y212254D01*
X292783Y212263D01*
X292813Y212371D01*
X292846Y212479D01*
X292846Y212490D01*
X292849Y212500D01*
X292843Y212612D01*
X292840Y212725D01*
X292836Y212735D01*
X292836Y212745D01*
X292782Y212904D01*
X292260Y214024D01*
X292208Y214100D01*
X292164Y214179D01*
X292140Y214201D01*
X292121Y214227D01*
X292049Y214283D01*
X291981Y214344D01*
X291944Y214362D01*
X291925Y214376D01*
X291895Y214386D01*
X291830Y214418D01*
X291637Y214488D01*
X290938Y214978D01*
X290390Y215631D01*
X290235Y215962D01*
X299607Y220332D01*
X299607Y220333D01*
X308979Y224703D01*
X309133Y224372D01*
X309281Y223531D01*
X309207Y222681D01*
X309137Y222488D01*
X309120Y222398D01*
X309095Y222310D01*
X309097Y222278D01*
X309091Y222246D01*
X309104Y222156D01*
X309108Y222065D01*
X309122Y222026D01*
X309125Y222003D01*
X309139Y221974D01*
X309162Y221906D01*
X309744Y220658D01*
X309800Y220575D01*
X309852Y220489D01*
X309869Y220474D01*
X309882Y220455D01*
X309962Y220394D01*
X310039Y220329D01*
X310060Y220321D01*
X310079Y220307D01*
X310174Y220275D01*
X310267Y220237D01*
X310295Y220234D01*
X310312Y220229D01*
X310344Y220229D01*
X310434Y220219D01*
X312681Y220219D01*
X312772Y220233D01*
X312862Y220241D01*
X312892Y220253D01*
X312924Y220258D01*
X313005Y220301D01*
X313089Y220337D01*
X313121Y220363D01*
X313142Y220374D01*
X313164Y220397D01*
X313220Y220442D01*
X333032Y240254D01*
X333043Y240270D01*
X333059Y240282D01*
X333115Y240370D01*
X333175Y240453D01*
X333181Y240472D01*
X333192Y240489D01*
X333217Y240590D01*
X333248Y240689D01*
X333247Y240708D01*
X333252Y240728D01*
X333244Y240831D01*
X333241Y240934D01*
X333234Y240953D01*
X333233Y240973D01*
X333193Y241068D01*
X333157Y241165D01*
X333144Y241181D01*
X333137Y241199D01*
X333048Y241310D01*
X333047Y241311D01*
X333032Y241330D01*
X299465Y274897D01*
X299465Y277630D01*
X299454Y277700D01*
X299452Y277772D01*
X299434Y277821D01*
X299426Y277872D01*
X299392Y277936D01*
X299367Y278003D01*
X299335Y278044D01*
X299310Y278090D01*
X299258Y278139D01*
X299214Y278195D01*
X299170Y278223D01*
X299132Y278259D01*
X299067Y278289D01*
X299007Y278328D01*
X298956Y278341D01*
X298909Y278363D01*
X298838Y278371D01*
X298768Y278388D01*
X298716Y278384D01*
X298665Y278390D01*
X298594Y278375D01*
X298523Y278369D01*
X298475Y278349D01*
X298424Y278338D01*
X298363Y278301D01*
X298297Y278273D01*
X298241Y278228D01*
X298213Y278211D01*
X298198Y278194D01*
X298166Y278168D01*
X293594Y273596D01*
X292031Y272033D01*
X286982Y272033D01*
X286920Y272023D01*
X286858Y272023D01*
X286800Y272003D01*
X286739Y271994D01*
X286684Y271964D01*
X286625Y271944D01*
X286576Y271907D01*
X286522Y271878D01*
X286479Y271833D01*
X286429Y271795D01*
X286395Y271745D01*
X286353Y271700D01*
X286326Y271643D01*
X286291Y271592D01*
X286275Y271533D01*
X286249Y271477D01*
X286242Y271415D01*
X286225Y271355D01*
X286229Y271294D01*
X286222Y271233D01*
X286235Y271171D01*
X286239Y271109D01*
X286267Y271024D01*
X286274Y270992D01*
X286275Y270991D01*
X286275Y270990D01*
X286284Y270976D01*
X286292Y270950D01*
X287291Y268809D01*
X287126Y268357D01*
X287122Y268337D01*
X287114Y268320D01*
X287100Y268217D01*
X287080Y268115D01*
X287083Y268096D01*
X287080Y268076D01*
X287100Y267974D01*
X287114Y267872D01*
X287123Y267854D01*
X287127Y267834D01*
X287178Y267744D01*
X287224Y267652D01*
X287238Y267638D01*
X287248Y267620D01*
X287325Y267551D01*
X287398Y267478D01*
X287416Y267469D01*
X287431Y267456D01*
X287581Y267381D01*
X288033Y267217D01*
X289404Y264278D01*
X289239Y263826D01*
X289235Y263806D01*
X289227Y263788D01*
X289213Y263686D01*
X289193Y263584D01*
X289196Y263564D01*
X289194Y263544D01*
X289213Y263443D01*
X289227Y263340D01*
X289236Y263322D01*
X289240Y263303D01*
X289291Y263213D01*
X289337Y263120D01*
X289351Y263106D01*
X289361Y263089D01*
X289438Y263020D01*
X289511Y262946D01*
X289529Y262938D01*
X289544Y262924D01*
X289694Y262850D01*
X290146Y262685D01*
X291517Y259746D01*
X291352Y259294D01*
X291349Y259274D01*
X291340Y259257D01*
X291326Y259154D01*
X291307Y259052D01*
X291309Y259033D01*
X291307Y259013D01*
X291326Y258911D01*
X291340Y258809D01*
X291349Y258791D01*
X291353Y258771D01*
X291404Y258681D01*
X291450Y258589D01*
X291464Y258574D01*
X291474Y258557D01*
X291551Y258488D01*
X291624Y258415D01*
X291642Y258406D01*
X291657Y258393D01*
X291807Y258318D01*
X292259Y258154D01*
X293630Y255215D01*
X293465Y254762D01*
X293462Y254743D01*
X293453Y254725D01*
X293439Y254623D01*
X293420Y254521D01*
X293422Y254501D01*
X293420Y254481D01*
X293439Y254380D01*
X293453Y254277D01*
X293462Y254259D01*
X293466Y254240D01*
X293517Y254150D01*
X293563Y254057D01*
X293577Y254043D01*
X293587Y254026D01*
X293664Y253956D01*
X293737Y253883D01*
X293755Y253874D01*
X293770Y253861D01*
X293920Y253787D01*
X294372Y253622D01*
X295743Y250683D01*
X295578Y250231D01*
X295575Y250211D01*
X295566Y250193D01*
X295552Y250091D01*
X295533Y249989D01*
X295536Y249969D01*
X295533Y249950D01*
X295552Y249848D01*
X295567Y249746D01*
X295575Y249728D01*
X295579Y249708D01*
X295630Y249618D01*
X295676Y249525D01*
X295690Y249511D01*
X295700Y249494D01*
X295777Y249425D01*
X295850Y249352D01*
X295868Y249343D01*
X295883Y249330D01*
X296033Y249255D01*
X296486Y249091D01*
X297856Y246152D01*
X297692Y245699D01*
X297688Y245680D01*
X297679Y245662D01*
X297665Y245560D01*
X297646Y245458D01*
X297649Y245438D01*
X297646Y245418D01*
X297665Y245317D01*
X297680Y245214D01*
X297689Y245196D01*
X297692Y245177D01*
X297743Y245087D01*
X297789Y244994D01*
X297803Y244980D01*
X297813Y244962D01*
X297890Y244893D01*
X297963Y244820D01*
X297981Y244811D01*
X297996Y244798D01*
X298147Y244724D01*
X298599Y244559D01*
X299969Y241620D01*
X299805Y241168D01*
X299801Y241148D01*
X299792Y241130D01*
X299778Y241028D01*
X299759Y240926D01*
X299762Y240906D01*
X299759Y240887D01*
X299779Y240785D01*
X299793Y240683D01*
X299802Y240665D01*
X299805Y240645D01*
X299856Y240555D01*
X299902Y240462D01*
X299917Y240448D01*
X299926Y240431D01*
X300003Y240362D01*
X300077Y240289D01*
X300094Y240280D01*
X300109Y240267D01*
X300260Y240192D01*
X300712Y240028D01*
X302082Y237088D01*
X301918Y236636D01*
X301914Y236617D01*
X301905Y236599D01*
X301891Y236496D01*
X301872Y236395D01*
X301875Y236375D01*
X301872Y236355D01*
X301892Y236254D01*
X301906Y236151D01*
X301915Y236133D01*
X301919Y236114D01*
X301969Y236023D01*
X302016Y235931D01*
X302030Y235917D01*
X302039Y235899D01*
X302117Y235830D01*
X302190Y235757D01*
X302208Y235748D01*
X302222Y235735D01*
X302373Y235661D01*
X302825Y235496D01*
X304195Y232557D01*
X304031Y232105D01*
X304027Y232085D01*
X304018Y232067D01*
X304004Y231965D01*
X303985Y231863D01*
X303988Y231843D01*
X303985Y231824D01*
X304005Y231722D01*
X304019Y231619D01*
X304028Y231602D01*
X304032Y231582D01*
X304082Y231492D01*
X304129Y231399D01*
X304143Y231385D01*
X304153Y231368D01*
X304229Y231299D01*
X304303Y231226D01*
X304321Y231217D01*
X304335Y231203D01*
X304486Y231129D01*
X304938Y230965D01*
X306310Y228021D01*
X306362Y227946D01*
X306407Y227866D01*
X306431Y227845D01*
X306449Y227818D01*
X306522Y227763D01*
X306590Y227702D01*
X306627Y227684D01*
X306645Y227669D01*
X306676Y227659D01*
X306740Y227627D01*
X306933Y227557D01*
X307632Y227068D01*
X308181Y226414D01*
X308335Y226083D01*
X298964Y221713D01*
X298963Y221713D01*
X288902Y217021D01*
X288893Y217015D01*
X288872Y217008D01*
X288846Y216988D01*
X288815Y216975D01*
X288702Y216885D01*
X288698Y216882D01*
X288697Y216881D01*
X288684Y216871D01*
X285946Y214132D01*
X285893Y214058D01*
X285833Y213988D01*
X285821Y213958D01*
X285802Y213932D01*
X285775Y213845D01*
X285741Y213760D01*
X285737Y213719D01*
X285730Y213697D01*
X285731Y213665D01*
X285723Y213593D01*
X285723Y212947D01*
X280708Y207933D01*
X280697Y207917D01*
X280681Y207904D01*
X280625Y207817D01*
X280565Y207733D01*
X280559Y207714D01*
X280548Y207697D01*
X280523Y207597D01*
X280493Y207498D01*
X280493Y207478D01*
X280488Y207459D01*
X280496Y207356D01*
X280499Y207252D01*
X280506Y207233D01*
X280507Y207214D01*
X280548Y207119D01*
X280583Y207021D01*
X280596Y207006D01*
X280604Y206987D01*
X280708Y206856D01*
X282675Y204890D01*
X282675Y203926D01*
X282686Y203856D01*
X282688Y203784D01*
X282706Y203735D01*
X282714Y203684D01*
X282748Y203620D01*
X282773Y203553D01*
X282805Y203512D01*
X282830Y203466D01*
X282881Y203417D01*
X282926Y203361D01*
X282970Y203333D01*
X283008Y203297D01*
X283073Y203267D01*
X283133Y203228D01*
X283184Y203215D01*
X283231Y203193D01*
X283302Y203185D01*
X283372Y203168D01*
X283424Y203172D01*
X283475Y203166D01*
X283546Y203181D01*
G37*
%LPC*%
G36*
X367788Y368555D02*
X367788Y368555D01*
X366895Y369448D01*
X366895Y383712D01*
X367788Y384605D01*
X379532Y384605D01*
X379622Y384619D01*
X379713Y384627D01*
X379742Y384639D01*
X379774Y384644D01*
X379855Y384687D01*
X379939Y384723D01*
X379971Y384749D01*
X379992Y384760D01*
X380014Y384783D01*
X380070Y384828D01*
X380482Y385240D01*
X380524Y385298D01*
X380573Y385350D01*
X380595Y385397D01*
X380625Y385439D01*
X380646Y385508D01*
X380677Y385573D01*
X380682Y385625D01*
X380698Y385675D01*
X380696Y385746D01*
X380704Y385817D01*
X380693Y385868D01*
X380691Y385920D01*
X380667Y385988D01*
X380652Y386058D01*
X380625Y386102D01*
X380607Y386151D01*
X380562Y386207D01*
X380525Y386269D01*
X380486Y386303D01*
X380453Y386343D01*
X380393Y386382D01*
X380338Y386429D01*
X380290Y386448D01*
X380246Y386476D01*
X380177Y386494D01*
X380110Y386521D01*
X380039Y386529D01*
X380008Y386537D01*
X379984Y386535D01*
X379944Y386539D01*
X377443Y386539D01*
X377443Y394818D01*
X377440Y394838D01*
X377442Y394857D01*
X377420Y394959D01*
X377403Y395061D01*
X377394Y395078D01*
X377390Y395098D01*
X377337Y395187D01*
X377288Y395278D01*
X377274Y395292D01*
X377264Y395309D01*
X377185Y395376D01*
X377110Y395447D01*
X377092Y395456D01*
X377077Y395469D01*
X376981Y395508D01*
X376887Y395551D01*
X376867Y395553D01*
X376849Y395561D01*
X376682Y395579D01*
X375919Y395579D01*
X375919Y395581D01*
X376682Y395581D01*
X376702Y395584D01*
X376721Y395582D01*
X376823Y395604D01*
X376925Y395621D01*
X376942Y395630D01*
X376962Y395634D01*
X377051Y395687D01*
X377142Y395736D01*
X377156Y395750D01*
X377173Y395760D01*
X377240Y395839D01*
X377311Y395914D01*
X377320Y395932D01*
X377333Y395947D01*
X377372Y396043D01*
X377415Y396137D01*
X377417Y396157D01*
X377425Y396175D01*
X377443Y396342D01*
X377443Y404621D01*
X383755Y404621D01*
X383851Y404595D01*
X383969Y404583D01*
X384087Y404570D01*
X384092Y404571D01*
X384096Y404570D01*
X384211Y404597D01*
X384328Y404622D01*
X384331Y404624D01*
X384335Y404625D01*
X384437Y404687D01*
X384539Y404748D01*
X384542Y404752D01*
X384545Y404754D01*
X384621Y404845D01*
X384699Y404935D01*
X384700Y404939D01*
X384703Y404942D01*
X384746Y405052D01*
X384791Y405163D01*
X384791Y405168D01*
X384793Y405171D01*
X384793Y405185D01*
X384809Y405330D01*
X384809Y415290D01*
X384806Y415310D01*
X384808Y415329D01*
X384786Y415431D01*
X384770Y415533D01*
X384760Y415550D01*
X384756Y415570D01*
X384703Y415659D01*
X384654Y415750D01*
X384640Y415764D01*
X384630Y415781D01*
X384551Y415848D01*
X384476Y415920D01*
X384458Y415928D01*
X384443Y415941D01*
X384347Y415980D01*
X384253Y416023D01*
X384233Y416025D01*
X384215Y416033D01*
X384048Y416051D01*
X381923Y416051D01*
X378935Y417289D01*
X376649Y419575D01*
X375411Y422563D01*
X375411Y425797D01*
X376649Y428785D01*
X378935Y431071D01*
X381923Y432309D01*
X385157Y432309D01*
X388145Y431071D01*
X390431Y428785D01*
X391669Y425797D01*
X391669Y422563D01*
X390431Y419575D01*
X389606Y418750D01*
X389553Y418676D01*
X389493Y418607D01*
X389481Y418576D01*
X389462Y418550D01*
X389435Y418463D01*
X389401Y418378D01*
X389397Y418337D01*
X389390Y418315D01*
X389391Y418283D01*
X389383Y418212D01*
X389383Y387673D01*
X387820Y386110D01*
X385168Y383458D01*
X385115Y383384D01*
X385055Y383314D01*
X385043Y383284D01*
X385024Y383258D01*
X384997Y383171D01*
X384963Y383086D01*
X384959Y383045D01*
X384952Y383023D01*
X384953Y382991D01*
X384945Y382920D01*
X384945Y369448D01*
X384052Y368555D01*
X367788Y368555D01*
G37*
%LPD*%
%LPC*%
G36*
X348322Y535713D02*
X348322Y535713D01*
X345213Y538822D01*
X345213Y543218D01*
X348010Y546015D01*
X348063Y546089D01*
X348123Y546159D01*
X348135Y546189D01*
X348154Y546215D01*
X348181Y546302D01*
X348215Y546387D01*
X348219Y546428D01*
X348226Y546450D01*
X348225Y546482D01*
X348233Y546553D01*
X348233Y554997D01*
X348219Y555088D01*
X348211Y555178D01*
X348199Y555208D01*
X348194Y555240D01*
X348151Y555321D01*
X348115Y555405D01*
X348089Y555437D01*
X348078Y555458D01*
X348055Y555480D01*
X348010Y555536D01*
X310188Y593358D01*
X310171Y593370D01*
X310159Y593386D01*
X310072Y593442D01*
X309988Y593502D01*
X309969Y593508D01*
X309952Y593519D01*
X309852Y593544D01*
X309753Y593574D01*
X309733Y593574D01*
X309714Y593579D01*
X309611Y593571D01*
X309507Y593568D01*
X309488Y593561D01*
X309468Y593560D01*
X309373Y593519D01*
X309276Y593484D01*
X309260Y593471D01*
X309242Y593463D01*
X309111Y593358D01*
X308588Y592835D01*
X301012Y592835D01*
X295655Y598192D01*
X295655Y605768D01*
X301012Y611125D01*
X308588Y611125D01*
X313945Y605768D01*
X313945Y598192D01*
X313422Y597669D01*
X313410Y597653D01*
X313394Y597640D01*
X313338Y597553D01*
X313278Y597469D01*
X313272Y597450D01*
X313261Y597433D01*
X313236Y597333D01*
X313206Y597234D01*
X313206Y597214D01*
X313201Y597195D01*
X313209Y597092D01*
X313212Y596988D01*
X313219Y596969D01*
X313220Y596950D01*
X313261Y596855D01*
X313296Y596757D01*
X313309Y596742D01*
X313317Y596723D01*
X313422Y596592D01*
X351244Y558770D01*
X352807Y557207D01*
X352807Y546553D01*
X352821Y546463D01*
X352829Y546372D01*
X352841Y546343D01*
X352846Y546311D01*
X352889Y546230D01*
X352925Y546146D01*
X352951Y546114D01*
X352962Y546093D01*
X352985Y546071D01*
X353030Y546015D01*
X355827Y543218D01*
X355827Y538822D01*
X352718Y535713D01*
X348322Y535713D01*
G37*
%LPD*%
%LPC*%
G36*
X84670Y453417D02*
X84670Y453417D01*
X81561Y456526D01*
X81561Y460922D01*
X84358Y463719D01*
X84411Y463793D01*
X84471Y463863D01*
X84483Y463893D01*
X84502Y463919D01*
X84529Y464006D01*
X84563Y464091D01*
X84567Y464132D01*
X84574Y464154D01*
X84573Y464186D01*
X84581Y464257D01*
X84581Y468894D01*
X84578Y468914D01*
X84580Y468933D01*
X84558Y469035D01*
X84542Y469137D01*
X84532Y469154D01*
X84528Y469174D01*
X84475Y469263D01*
X84426Y469354D01*
X84412Y469368D01*
X84402Y469385D01*
X84323Y469452D01*
X84248Y469524D01*
X84230Y469532D01*
X84215Y469545D01*
X84119Y469584D01*
X84025Y469627D01*
X84005Y469629D01*
X83987Y469637D01*
X83820Y469655D01*
X79728Y469655D01*
X78835Y470548D01*
X78835Y483812D01*
X79728Y484705D01*
X92992Y484705D01*
X93885Y483812D01*
X93885Y470548D01*
X92992Y469655D01*
X89916Y469655D01*
X89896Y469652D01*
X89877Y469654D01*
X89775Y469632D01*
X89673Y469616D01*
X89656Y469606D01*
X89636Y469602D01*
X89547Y469549D01*
X89456Y469500D01*
X89442Y469486D01*
X89425Y469476D01*
X89358Y469397D01*
X89286Y469322D01*
X89278Y469304D01*
X89265Y469289D01*
X89226Y469193D01*
X89183Y469099D01*
X89181Y469079D01*
X89173Y469061D01*
X89155Y468894D01*
X89155Y464257D01*
X89169Y464167D01*
X89177Y464076D01*
X89189Y464047D01*
X89194Y464015D01*
X89237Y463934D01*
X89273Y463850D01*
X89299Y463818D01*
X89310Y463797D01*
X89333Y463775D01*
X89378Y463719D01*
X92175Y460922D01*
X92175Y456526D01*
X89066Y453417D01*
X84670Y453417D01*
G37*
%LPD*%
%LPC*%
G36*
X255125Y431799D02*
X255125Y431799D01*
X252511Y432882D01*
X250510Y434883D01*
X249427Y437497D01*
X249427Y451503D01*
X250510Y454117D01*
X252511Y456118D01*
X255125Y457201D01*
X257955Y457201D01*
X260569Y456118D01*
X262570Y454117D01*
X263653Y451503D01*
X263653Y437497D01*
X262570Y434883D01*
X260569Y432882D01*
X257955Y431799D01*
X255125Y431799D01*
G37*
%LPD*%
%LPC*%
G36*
X305925Y431799D02*
X305925Y431799D01*
X303311Y432882D01*
X301310Y434883D01*
X300227Y437497D01*
X300227Y451503D01*
X301310Y454117D01*
X303311Y456118D01*
X305925Y457201D01*
X308755Y457201D01*
X311369Y456118D01*
X313370Y454117D01*
X314453Y451503D01*
X314453Y437497D01*
X313370Y434883D01*
X311369Y432882D01*
X308755Y431799D01*
X305925Y431799D01*
G37*
%LPD*%
%LPC*%
G36*
X33589Y134873D02*
X33589Y134873D01*
X29948Y136381D01*
X27161Y139168D01*
X25653Y142809D01*
X25653Y146751D01*
X27161Y150392D01*
X29948Y153179D01*
X33589Y154687D01*
X37531Y154687D01*
X41172Y153179D01*
X43959Y150392D01*
X45467Y146751D01*
X45467Y142809D01*
X43959Y139168D01*
X41172Y136381D01*
X37531Y134873D01*
X33589Y134873D01*
G37*
%LPD*%
%LPC*%
G36*
X643189Y198373D02*
X643189Y198373D01*
X639548Y199881D01*
X636761Y202668D01*
X635253Y206309D01*
X635253Y210251D01*
X636761Y213892D01*
X639548Y216679D01*
X643189Y218187D01*
X647131Y218187D01*
X650772Y216679D01*
X653559Y213892D01*
X655067Y210251D01*
X655067Y206309D01*
X653559Y202668D01*
X650772Y199881D01*
X647131Y198373D01*
X643189Y198373D01*
G37*
%LPD*%
%LPC*%
G36*
X240263Y37083D02*
X240263Y37083D01*
X235203Y42143D01*
X235203Y49297D01*
X240263Y54357D01*
X247417Y54357D01*
X252477Y49297D01*
X252477Y42143D01*
X247417Y37083D01*
X240263Y37083D01*
G37*
%LPD*%
%LPC*%
G36*
X240263Y62483D02*
X240263Y62483D01*
X235203Y67543D01*
X235203Y74697D01*
X240263Y79757D01*
X247417Y79757D01*
X252477Y74697D01*
X252477Y67543D01*
X247417Y62483D01*
X240263Y62483D01*
G37*
%LPD*%
%LPC*%
G36*
X367283Y683919D02*
X367283Y683919D01*
X367283Y694437D01*
X389637Y694437D01*
X389637Y683919D01*
X381326Y683919D01*
X380679Y684092D01*
X380100Y684427D01*
X379627Y684900D01*
X379292Y685479D01*
X379195Y685842D01*
X379176Y685885D01*
X379165Y685932D01*
X379125Y685997D01*
X379094Y686066D01*
X379061Y686101D01*
X379036Y686142D01*
X378978Y686191D01*
X378927Y686246D01*
X378885Y686269D01*
X378848Y686300D01*
X378777Y686327D01*
X378711Y686364D01*
X378663Y686372D01*
X378619Y686389D01*
X378543Y686393D01*
X378468Y686406D01*
X378421Y686399D01*
X378373Y686401D01*
X378300Y686380D01*
X378225Y686369D01*
X378183Y686347D01*
X378136Y686334D01*
X378074Y686291D01*
X378007Y686256D01*
X377973Y686222D01*
X377934Y686195D01*
X377888Y686134D01*
X377835Y686080D01*
X377815Y686036D01*
X377786Y685998D01*
X377739Y685878D01*
X377729Y685858D01*
X377728Y685851D01*
X377725Y685842D01*
X377628Y685479D01*
X377293Y684900D01*
X376820Y684427D01*
X376241Y684092D01*
X375594Y683919D01*
X367283Y683919D01*
G37*
%LPD*%
%LPC*%
G36*
X235393Y574801D02*
X235393Y574801D01*
X230631Y579563D01*
X230631Y586297D01*
X235393Y591059D01*
X242127Y591059D01*
X246889Y586297D01*
X246889Y579563D01*
X242127Y574801D01*
X235393Y574801D01*
G37*
%LPD*%
G36*
X425528Y32778D02*
X425528Y32778D01*
X425600Y32780D01*
X425649Y32798D01*
X425700Y32806D01*
X425764Y32840D01*
X425831Y32865D01*
X425872Y32897D01*
X425918Y32922D01*
X425967Y32974D01*
X426023Y33018D01*
X426051Y33062D01*
X426087Y33100D01*
X426117Y33165D01*
X426156Y33225D01*
X426169Y33276D01*
X426191Y33323D01*
X426199Y33394D01*
X426216Y33464D01*
X426212Y33516D01*
X426218Y33567D01*
X426203Y33638D01*
X426197Y33709D01*
X426177Y33757D01*
X426166Y33808D01*
X426129Y33869D01*
X426101Y33935D01*
X426056Y33991D01*
X426039Y34019D01*
X426022Y34034D01*
X425996Y34066D01*
X417841Y42221D01*
X417828Y42231D01*
X417818Y42243D01*
X417728Y42302D01*
X417641Y42365D01*
X417626Y42370D01*
X417612Y42378D01*
X417508Y42406D01*
X417406Y42437D01*
X417390Y42437D01*
X417374Y42441D01*
X417267Y42434D01*
X417160Y42431D01*
X417145Y42425D01*
X417129Y42424D01*
X417030Y42383D01*
X416929Y42346D01*
X416917Y42336D01*
X416902Y42330D01*
X416821Y42260D01*
X416737Y42193D01*
X416728Y42179D01*
X416716Y42169D01*
X416624Y42029D01*
X416611Y42003D01*
X415506Y40482D01*
X414178Y39154D01*
X412657Y38049D01*
X410983Y37196D01*
X409196Y36615D01*
X407923Y36414D01*
X407923Y47498D01*
X407920Y47518D01*
X407922Y47537D01*
X407900Y47639D01*
X407883Y47741D01*
X407874Y47758D01*
X407870Y47778D01*
X407817Y47867D01*
X407768Y47958D01*
X407754Y47972D01*
X407744Y47989D01*
X407665Y48056D01*
X407590Y48127D01*
X407572Y48136D01*
X407557Y48149D01*
X407461Y48187D01*
X407367Y48231D01*
X407347Y48233D01*
X407329Y48241D01*
X407162Y48259D01*
X405638Y48259D01*
X405618Y48256D01*
X405599Y48258D01*
X405497Y48236D01*
X405395Y48219D01*
X405378Y48210D01*
X405358Y48206D01*
X405269Y48153D01*
X405178Y48104D01*
X405164Y48090D01*
X405147Y48080D01*
X405080Y48001D01*
X405009Y47926D01*
X405000Y47908D01*
X404987Y47893D01*
X404948Y47797D01*
X404905Y47703D01*
X404903Y47683D01*
X404895Y47665D01*
X404877Y47498D01*
X404877Y36060D01*
X404892Y35970D01*
X404899Y35879D01*
X404911Y35850D01*
X404917Y35818D01*
X404959Y35737D01*
X404995Y35653D01*
X405021Y35621D01*
X405032Y35600D01*
X405055Y35578D01*
X405067Y35563D01*
X405073Y35552D01*
X405080Y35546D01*
X405100Y35522D01*
X407632Y32990D01*
X407706Y32937D01*
X407776Y32877D01*
X407806Y32865D01*
X407832Y32846D01*
X407919Y32819D01*
X408004Y32785D01*
X408045Y32781D01*
X408067Y32774D01*
X408099Y32775D01*
X408171Y32767D01*
X425458Y32767D01*
X425528Y32778D01*
G37*
%LPC*%
G36*
X506983Y524763D02*
X506983Y524763D01*
X506983Y540906D01*
X507839Y540771D01*
X509360Y540276D01*
X510785Y539550D01*
X512079Y538610D01*
X513210Y537479D01*
X514150Y536185D01*
X514876Y534760D01*
X515371Y533239D01*
X515621Y531660D01*
X515621Y524763D01*
X506983Y524763D01*
G37*
%LPD*%
%LPC*%
G36*
X164083Y679703D02*
X164083Y679703D01*
X164083Y695846D01*
X164939Y695711D01*
X166460Y695216D01*
X167885Y694490D01*
X169179Y693550D01*
X170310Y692419D01*
X171250Y691125D01*
X171976Y689700D01*
X172471Y688179D01*
X172721Y686600D01*
X172721Y679703D01*
X164083Y679703D01*
G37*
%LPD*%
%LPC*%
G36*
X138683Y679703D02*
X138683Y679703D01*
X138683Y695846D01*
X139539Y695711D01*
X141060Y695216D01*
X142485Y694490D01*
X143779Y693550D01*
X144910Y692419D01*
X145850Y691125D01*
X146576Y689700D01*
X147071Y688179D01*
X147321Y686600D01*
X147321Y679703D01*
X138683Y679703D01*
G37*
%LPD*%
%LPC*%
G36*
X138683Y676657D02*
X138683Y676657D01*
X147321Y676657D01*
X147321Y669760D01*
X147071Y668181D01*
X146576Y666660D01*
X145850Y665235D01*
X144910Y663941D01*
X143779Y662810D01*
X142485Y661870D01*
X141060Y661144D01*
X139539Y660649D01*
X138683Y660514D01*
X138683Y676657D01*
G37*
%LPD*%
%LPC*%
G36*
X164083Y676657D02*
X164083Y676657D01*
X172721Y676657D01*
X172721Y669760D01*
X172471Y668181D01*
X171976Y666660D01*
X171250Y665235D01*
X170310Y663941D01*
X169179Y662810D01*
X167885Y661870D01*
X166460Y661144D01*
X164939Y660649D01*
X164083Y660514D01*
X164083Y676657D01*
G37*
%LPD*%
%LPC*%
G36*
X506983Y521717D02*
X506983Y521717D01*
X515621Y521717D01*
X515621Y514820D01*
X515371Y513241D01*
X514876Y511720D01*
X514150Y510295D01*
X513210Y509001D01*
X512079Y507870D01*
X510785Y506930D01*
X509360Y506204D01*
X507839Y505709D01*
X506983Y505574D01*
X506983Y521717D01*
G37*
%LPD*%
%LPC*%
G36*
X495299Y524763D02*
X495299Y524763D01*
X495299Y531660D01*
X495549Y533239D01*
X496044Y534760D01*
X496770Y536185D01*
X497710Y537479D01*
X498841Y538610D01*
X500135Y539550D01*
X501560Y540276D01*
X503081Y540771D01*
X503937Y540906D01*
X503937Y524763D01*
X495299Y524763D01*
G37*
%LPD*%
%LPC*%
G36*
X126999Y679703D02*
X126999Y679703D01*
X126999Y686600D01*
X127249Y688179D01*
X127744Y689700D01*
X128470Y691125D01*
X129410Y692419D01*
X130541Y693550D01*
X131835Y694490D01*
X133260Y695216D01*
X134781Y695711D01*
X135637Y695846D01*
X135637Y679703D01*
X126999Y679703D01*
G37*
%LPD*%
%LPC*%
G36*
X152399Y679703D02*
X152399Y679703D01*
X152399Y686600D01*
X152649Y688179D01*
X153144Y689700D01*
X153870Y691125D01*
X154810Y692419D01*
X155941Y693550D01*
X157235Y694490D01*
X158660Y695216D01*
X160181Y695711D01*
X161037Y695846D01*
X161037Y679703D01*
X152399Y679703D01*
G37*
%LPD*%
%LPC*%
G36*
X134781Y660649D02*
X134781Y660649D01*
X133260Y661144D01*
X131835Y661870D01*
X130541Y662810D01*
X129410Y663941D01*
X128470Y665235D01*
X127744Y666660D01*
X127249Y668181D01*
X126999Y669760D01*
X126999Y676657D01*
X135637Y676657D01*
X135637Y660514D01*
X134781Y660649D01*
G37*
%LPD*%
%LPC*%
G36*
X160181Y660649D02*
X160181Y660649D01*
X158660Y661144D01*
X157235Y661870D01*
X155941Y662810D01*
X154810Y663941D01*
X153870Y665235D01*
X153144Y666660D01*
X152649Y668181D01*
X152399Y669760D01*
X152399Y676657D01*
X161037Y676657D01*
X161037Y660514D01*
X160181Y660649D01*
G37*
%LPD*%
%LPC*%
G36*
X503081Y505709D02*
X503081Y505709D01*
X501560Y506204D01*
X500135Y506930D01*
X498841Y507870D01*
X497710Y509001D01*
X496770Y510295D01*
X496044Y511720D01*
X495549Y513241D01*
X495299Y514820D01*
X495299Y521717D01*
X503937Y521717D01*
X503937Y505574D01*
X503081Y505709D01*
G37*
%LPD*%
%LPC*%
G36*
X392683Y683919D02*
X392683Y683919D01*
X392683Y694437D01*
X403201Y694437D01*
X403201Y686126D01*
X403028Y685479D01*
X402693Y684900D01*
X402220Y684427D01*
X401641Y684092D01*
X400994Y683919D01*
X392683Y683919D01*
G37*
%LPD*%
%LPC*%
G36*
X355926Y683919D02*
X355926Y683919D01*
X355279Y684092D01*
X354700Y684427D01*
X354227Y684900D01*
X353892Y685479D01*
X353719Y686126D01*
X353719Y694437D01*
X364237Y694437D01*
X364237Y683919D01*
X355926Y683919D01*
G37*
%LPD*%
%LPC*%
G36*
X339983Y683919D02*
X339983Y683919D01*
X339983Y694437D01*
X350001Y694437D01*
X350001Y686126D01*
X349828Y685479D01*
X349493Y684900D01*
X349020Y684427D01*
X348441Y684092D01*
X347794Y683919D01*
X339983Y683919D01*
G37*
%LPD*%
%LPC*%
G36*
X419983Y683919D02*
X419983Y683919D01*
X419983Y694437D01*
X430001Y694437D01*
X430001Y686126D01*
X429828Y685479D01*
X429493Y684900D01*
X429020Y684427D01*
X428441Y684092D01*
X427794Y683919D01*
X419983Y683919D01*
G37*
%LPD*%
%LPC*%
G36*
X409126Y683919D02*
X409126Y683919D01*
X408479Y684092D01*
X407900Y684427D01*
X407427Y684900D01*
X407092Y685479D01*
X406919Y686126D01*
X406919Y694437D01*
X416937Y694437D01*
X416937Y683919D01*
X409126Y683919D01*
G37*
%LPD*%
%LPC*%
G36*
X329126Y683919D02*
X329126Y683919D01*
X328479Y684092D01*
X327900Y684427D01*
X327427Y684900D01*
X327092Y685479D01*
X326919Y686126D01*
X326919Y694437D01*
X336937Y694437D01*
X336937Y683919D01*
X329126Y683919D01*
G37*
%LPD*%
%LPC*%
G36*
X514083Y451823D02*
X514083Y451823D01*
X514083Y458341D01*
X521894Y458341D01*
X522541Y458168D01*
X523120Y457833D01*
X523593Y457360D01*
X523928Y456781D01*
X524101Y456134D01*
X524101Y451823D01*
X514083Y451823D01*
G37*
%LPD*%
%LPC*%
G36*
X501019Y451823D02*
X501019Y451823D01*
X501019Y456134D01*
X501192Y456781D01*
X501527Y457360D01*
X502000Y457833D01*
X502579Y458168D01*
X503226Y458341D01*
X511037Y458341D01*
X511037Y451823D01*
X501019Y451823D01*
G37*
%LPD*%
%LPC*%
G36*
X563019Y451823D02*
X563019Y451823D01*
X563019Y456134D01*
X563192Y456781D01*
X563527Y457360D01*
X564000Y457833D01*
X564579Y458168D01*
X565226Y458341D01*
X573037Y458341D01*
X573037Y451823D01*
X563019Y451823D01*
G37*
%LPD*%
%LPC*%
G36*
X133083Y410339D02*
X133083Y410339D01*
X133083Y416857D01*
X143101Y416857D01*
X143101Y412546D01*
X142928Y411899D01*
X142593Y411320D01*
X142120Y410847D01*
X141541Y410512D01*
X140894Y410339D01*
X133083Y410339D01*
G37*
%LPD*%
%LPC*%
G36*
X195083Y410339D02*
X195083Y410339D01*
X195083Y416857D01*
X205101Y416857D01*
X205101Y412546D01*
X204928Y411899D01*
X204593Y411320D01*
X204120Y410847D01*
X203541Y410512D01*
X202894Y410339D01*
X195083Y410339D01*
G37*
%LPD*%
%LPC*%
G36*
X122226Y410339D02*
X122226Y410339D01*
X121579Y410512D01*
X121000Y410847D01*
X120527Y411320D01*
X120192Y411899D01*
X120019Y412546D01*
X120019Y416857D01*
X130037Y416857D01*
X130037Y410339D01*
X122226Y410339D01*
G37*
%LPD*%
%LPC*%
G36*
X184226Y410339D02*
X184226Y410339D01*
X183579Y410512D01*
X183000Y410847D01*
X182527Y411320D01*
X182192Y411899D01*
X182019Y412546D01*
X182019Y416857D01*
X192037Y416857D01*
X192037Y410339D01*
X184226Y410339D01*
G37*
%LPD*%
%LPC*%
G36*
X431443Y90423D02*
X431443Y90423D01*
X431443Y98941D01*
X436754Y98941D01*
X437401Y98768D01*
X437980Y98433D01*
X438453Y97960D01*
X438788Y97381D01*
X438961Y96734D01*
X438961Y90423D01*
X431443Y90423D01*
G37*
%LPD*%
%LPC*%
G36*
X365879Y397103D02*
X365879Y397103D01*
X365879Y402414D01*
X366052Y403061D01*
X366387Y403640D01*
X366860Y404113D01*
X367439Y404448D01*
X368086Y404621D01*
X374397Y404621D01*
X374397Y397103D01*
X365879Y397103D01*
G37*
%LPD*%
%LPC*%
G36*
X396359Y392023D02*
X396359Y392023D01*
X396359Y397334D01*
X396532Y397981D01*
X396867Y398560D01*
X397340Y399033D01*
X397919Y399368D01*
X398566Y399541D01*
X404877Y399541D01*
X404877Y392023D01*
X396359Y392023D01*
G37*
%LPD*%
%LPC*%
G36*
X431443Y78859D02*
X431443Y78859D01*
X431443Y87377D01*
X438961Y87377D01*
X438961Y81066D01*
X438788Y80419D01*
X438453Y79840D01*
X437980Y79367D01*
X437401Y79032D01*
X436754Y78859D01*
X431443Y78859D01*
G37*
%LPD*%
%LPC*%
G36*
X368086Y386539D02*
X368086Y386539D01*
X367439Y386712D01*
X366860Y387047D01*
X366387Y387520D01*
X366052Y388099D01*
X365879Y388746D01*
X365879Y394057D01*
X374397Y394057D01*
X374397Y386539D01*
X368086Y386539D01*
G37*
%LPD*%
%LPC*%
G36*
X398566Y381459D02*
X398566Y381459D01*
X397919Y381632D01*
X397340Y381967D01*
X396867Y382440D01*
X396532Y383019D01*
X396359Y383666D01*
X396359Y388977D01*
X404877Y388977D01*
X404877Y381459D01*
X398566Y381459D01*
G37*
%LPD*%
%LPC*%
G36*
X270763Y72643D02*
X270763Y72643D01*
X270763Y80773D01*
X273238Y80773D01*
X278893Y75118D01*
X278893Y72643D01*
X270763Y72643D01*
G37*
%LPD*%
%LPC*%
G36*
X270763Y47243D02*
X270763Y47243D01*
X270763Y55373D01*
X273238Y55373D01*
X278893Y49718D01*
X278893Y47243D01*
X270763Y47243D01*
G37*
%LPD*%
%LPC*%
G36*
X259587Y72643D02*
X259587Y72643D01*
X259587Y75118D01*
X265242Y80773D01*
X267717Y80773D01*
X267717Y72643D01*
X259587Y72643D01*
G37*
%LPD*%
%LPC*%
G36*
X259587Y47243D02*
X259587Y47243D01*
X259587Y49718D01*
X265242Y55373D01*
X267717Y55373D01*
X267717Y47243D01*
X259587Y47243D01*
G37*
%LPD*%
%LPC*%
G36*
X270763Y61467D02*
X270763Y61467D01*
X270763Y69597D01*
X278893Y69597D01*
X278893Y67122D01*
X273238Y61467D01*
X270763Y61467D01*
G37*
%LPD*%
%LPC*%
G36*
X270763Y36067D02*
X270763Y36067D01*
X270763Y44197D01*
X278893Y44197D01*
X278893Y41722D01*
X273238Y36067D01*
X270763Y36067D01*
G37*
%LPD*%
%LPC*%
G36*
X265242Y36067D02*
X265242Y36067D01*
X259587Y41722D01*
X259587Y44197D01*
X267717Y44197D01*
X267717Y36067D01*
X265242Y36067D01*
G37*
%LPD*%
%LPC*%
G36*
X265242Y61467D02*
X265242Y61467D01*
X259587Y67122D01*
X259587Y69597D01*
X267717Y69597D01*
X267717Y61467D01*
X265242Y61467D01*
G37*
%LPD*%
%LPC*%
G36*
X227583Y603503D02*
X227583Y603503D01*
X227583Y611125D01*
X229848Y611125D01*
X235205Y605768D01*
X235205Y603503D01*
X227583Y603503D01*
G37*
%LPD*%
%LPC*%
G36*
X216915Y603503D02*
X216915Y603503D01*
X216915Y605768D01*
X222272Y611125D01*
X224537Y611125D01*
X224537Y603503D01*
X216915Y603503D01*
G37*
%LPD*%
%LPC*%
G36*
X227583Y592835D02*
X227583Y592835D01*
X227583Y600457D01*
X235205Y600457D01*
X235205Y598192D01*
X229848Y592835D01*
X227583Y592835D01*
G37*
%LPD*%
%LPC*%
G36*
X222272Y592835D02*
X222272Y592835D01*
X216915Y598192D01*
X216915Y600457D01*
X224537Y600457D01*
X224537Y592835D01*
X222272Y592835D01*
G37*
%LPD*%
%LPC*%
G36*
X366334Y659919D02*
X366334Y659919D01*
X366334Y668586D01*
X371086Y668586D01*
X371086Y659919D01*
X369876Y659919D01*
X369229Y660092D01*
X369091Y660173D01*
X369027Y660196D01*
X368968Y660229D01*
X368913Y660240D01*
X368908Y660242D01*
X368888Y660250D01*
X368886Y660250D01*
X368861Y660259D01*
X368793Y660262D01*
X368726Y660274D01*
X368671Y660266D01*
X368615Y660268D01*
X368550Y660249D01*
X368483Y660240D01*
X368457Y660229D01*
X368456Y660228D01*
X368453Y660227D01*
X368410Y660208D01*
X368379Y660199D01*
X368362Y660187D01*
X368329Y660172D01*
X368191Y660092D01*
X367544Y659919D01*
X366334Y659919D01*
G37*
%LPD*%
%LPC*%
G36*
X363376Y659919D02*
X363376Y659919D01*
X362729Y660092D01*
X362150Y660427D01*
X361677Y660900D01*
X361342Y661479D01*
X361169Y662126D01*
X361169Y668586D01*
X364586Y668586D01*
X364586Y659919D01*
X363376Y659919D01*
G37*
%LPD*%
%LPC*%
G36*
X137159Y678179D02*
X137159Y678179D01*
X137159Y678181D01*
X137161Y678181D01*
X137161Y678179D01*
X137159Y678179D01*
G37*
%LPD*%
%LPC*%
G36*
X162559Y678179D02*
X162559Y678179D01*
X162559Y678181D01*
X162561Y678181D01*
X162561Y678179D01*
X162559Y678179D01*
G37*
%LPD*%
%LPC*%
G36*
X226059Y601979D02*
X226059Y601979D01*
X226059Y601981D01*
X226061Y601981D01*
X226061Y601979D01*
X226059Y601979D01*
G37*
%LPD*%
%LPC*%
G36*
X505459Y523239D02*
X505459Y523239D01*
X505459Y523241D01*
X505461Y523241D01*
X505461Y523239D01*
X505459Y523239D01*
G37*
%LPD*%
%LPC*%
G36*
X269239Y45719D02*
X269239Y45719D01*
X269239Y45721D01*
X269241Y45721D01*
X269241Y45719D01*
X269239Y45719D01*
G37*
%LPD*%
%LPC*%
G36*
X269239Y71119D02*
X269239Y71119D01*
X269239Y71121D01*
X269241Y71121D01*
X269241Y71119D01*
X269239Y71119D01*
G37*
%LPD*%
D10*
X406400Y390500D03*
X406400Y371500D03*
X375920Y395580D03*
X375920Y376580D03*
D11*
X429920Y88900D03*
X448920Y88900D03*
D12*
X391460Y669460D03*
X365460Y669460D03*
X384960Y669460D03*
X378460Y669460D03*
X371960Y669460D03*
D13*
X418460Y695960D03*
X338460Y695960D03*
D14*
X391160Y695960D03*
X365760Y695960D03*
D15*
X218440Y45720D03*
X218440Y71120D03*
X243840Y45720D03*
X243840Y71120D03*
X269240Y45720D03*
X269240Y71120D03*
D16*
X548640Y322580D02*
X563880Y322580D01*
X563880Y297180D02*
X548640Y297180D01*
X556260Y180340D02*
X571500Y180340D01*
X571500Y205740D02*
X556260Y205740D01*
D17*
X645160Y436880D03*
X645160Y411480D03*
X645160Y386080D03*
X645160Y360680D03*
X645160Y335280D03*
X645160Y309880D03*
X645160Y284480D03*
X645160Y259080D03*
X645160Y233680D03*
X645160Y208280D03*
X645160Y182880D03*
X645160Y157480D03*
X645160Y132080D03*
D16*
X238760Y670560D02*
X238760Y685800D01*
X213360Y685800D02*
X213360Y670560D01*
X187960Y670560D02*
X187960Y685800D01*
X162560Y685800D02*
X162560Y670560D01*
X137160Y670560D02*
X137160Y685800D01*
X480060Y530860D02*
X480060Y515620D01*
X505460Y515620D02*
X505460Y530860D01*
X530860Y530860D02*
X530860Y515620D01*
X556260Y515620D02*
X556260Y530860D01*
D17*
X35560Y424180D03*
X35560Y398780D03*
X35560Y373380D03*
X35560Y347980D03*
X35560Y322580D03*
X35560Y297180D03*
X35560Y271780D03*
X35560Y246380D03*
X35560Y220980D03*
X35560Y195580D03*
X35560Y170180D03*
X35560Y144780D03*
X35560Y119380D03*
D18*
X25400Y525440D03*
X25400Y546440D03*
D19*
X256540Y450088D02*
X256540Y438912D01*
X307340Y438912D02*
X307340Y450088D01*
D20*
X383540Y424180D03*
X408940Y424180D03*
D21*
X160020Y503580D03*
X160020Y522580D03*
D22*
X468020Y640080D03*
X487020Y640080D03*
D23*
X131560Y455380D03*
X193560Y455380D03*
X131560Y418380D03*
X193560Y418380D03*
X512560Y450300D03*
X574560Y450300D03*
X512560Y413300D03*
X574560Y413300D03*
D24*
X482600Y48260D03*
X457200Y48260D03*
X431800Y48260D03*
X406400Y48260D03*
D25*
X226060Y601980D03*
X238760Y582930D03*
X251460Y601980D03*
D26*
X338553Y302448D02*
X337284Y301856D01*
X331283Y314724D01*
X332552Y315316D01*
X338553Y302448D01*
X338209Y303186D02*
X336664Y303186D01*
X336044Y304516D02*
X337589Y304516D01*
X336968Y305846D02*
X335423Y305846D01*
X334803Y307176D02*
X336348Y307176D01*
X335728Y308506D02*
X334183Y308506D01*
X333563Y309836D02*
X335108Y309836D01*
X334487Y311166D02*
X332942Y311166D01*
X332322Y312496D02*
X333867Y312496D01*
X333247Y313826D02*
X331702Y313826D01*
X332209Y315156D02*
X332627Y315156D01*
X334021Y300335D02*
X332752Y299743D01*
X326751Y312611D01*
X328020Y313203D01*
X334021Y300335D01*
X333677Y301073D02*
X332132Y301073D01*
X331512Y302403D02*
X333057Y302403D01*
X332436Y303733D02*
X330891Y303733D01*
X330271Y305063D02*
X331816Y305063D01*
X331196Y306393D02*
X329651Y306393D01*
X329031Y307723D02*
X330576Y307723D01*
X329955Y309053D02*
X328410Y309053D01*
X327790Y310383D02*
X329335Y310383D01*
X328715Y311713D02*
X327170Y311713D01*
X327677Y313043D02*
X328095Y313043D01*
X329490Y298221D02*
X328221Y297629D01*
X322220Y310497D01*
X323489Y311089D01*
X329490Y298221D01*
X329146Y298959D02*
X327601Y298959D01*
X326981Y300289D02*
X328526Y300289D01*
X327905Y301619D02*
X326360Y301619D01*
X325740Y302949D02*
X327285Y302949D01*
X326665Y304279D02*
X325120Y304279D01*
X324500Y305609D02*
X326045Y305609D01*
X325424Y306939D02*
X323879Y306939D01*
X323259Y308269D02*
X324804Y308269D01*
X324184Y309599D02*
X322639Y309599D01*
X323146Y310929D02*
X323564Y310929D01*
X324958Y296108D02*
X323689Y295516D01*
X317688Y308384D01*
X318957Y308976D01*
X324958Y296108D01*
X324614Y296846D02*
X323069Y296846D01*
X322449Y298176D02*
X323994Y298176D01*
X323373Y299506D02*
X321828Y299506D01*
X321208Y300836D02*
X322753Y300836D01*
X322133Y302166D02*
X320588Y302166D01*
X319968Y303496D02*
X321513Y303496D01*
X320892Y304826D02*
X319347Y304826D01*
X318727Y306156D02*
X320272Y306156D01*
X319652Y307486D02*
X318107Y307486D01*
X318614Y308816D02*
X319032Y308816D01*
X320427Y293995D02*
X319158Y293403D01*
X313157Y306271D01*
X314426Y306863D01*
X320427Y293995D01*
X320083Y294733D02*
X318538Y294733D01*
X317918Y296063D02*
X319463Y296063D01*
X318842Y297393D02*
X317297Y297393D01*
X316677Y298723D02*
X318222Y298723D01*
X317602Y300053D02*
X316057Y300053D01*
X315437Y301383D02*
X316982Y301383D01*
X316361Y302713D02*
X314816Y302713D01*
X314196Y304043D02*
X315741Y304043D01*
X315121Y305373D02*
X313576Y305373D01*
X314083Y306703D02*
X314501Y306703D01*
X315895Y291882D02*
X314626Y291290D01*
X308625Y304158D01*
X309894Y304750D01*
X315895Y291882D01*
X315551Y292620D02*
X314006Y292620D01*
X313386Y293950D02*
X314931Y293950D01*
X314310Y295280D02*
X312765Y295280D01*
X312145Y296610D02*
X313690Y296610D01*
X313070Y297940D02*
X311525Y297940D01*
X310905Y299270D02*
X312450Y299270D01*
X311829Y300600D02*
X310284Y300600D01*
X309664Y301930D02*
X311209Y301930D01*
X310589Y303260D02*
X309044Y303260D01*
X309551Y304590D02*
X309969Y304590D01*
X311364Y289769D02*
X310095Y289177D01*
X304094Y302045D01*
X305363Y302637D01*
X311364Y289769D01*
X311020Y290507D02*
X309475Y290507D01*
X308855Y291837D02*
X310400Y291837D01*
X309779Y293167D02*
X308234Y293167D01*
X307614Y294497D02*
X309159Y294497D01*
X308539Y295827D02*
X306994Y295827D01*
X306374Y297157D02*
X307919Y297157D01*
X307298Y298487D02*
X305753Y298487D01*
X305133Y299817D02*
X306678Y299817D01*
X306058Y301147D02*
X304513Y301147D01*
X305020Y302477D02*
X305438Y302477D01*
X306832Y287656D02*
X305563Y287064D01*
X299562Y299932D01*
X300831Y300524D01*
X306832Y287656D01*
X306488Y288394D02*
X304943Y288394D01*
X304323Y289724D02*
X305868Y289724D01*
X305247Y291054D02*
X303702Y291054D01*
X303082Y292384D02*
X304627Y292384D01*
X304007Y293714D02*
X302462Y293714D01*
X301842Y295044D02*
X303387Y295044D01*
X302766Y296374D02*
X301221Y296374D01*
X300601Y297704D02*
X302146Y297704D01*
X301526Y299034D02*
X299981Y299034D01*
X300488Y300364D02*
X300906Y300364D01*
X302301Y285543D02*
X301032Y284951D01*
X295031Y297819D01*
X296300Y298411D01*
X302301Y285543D01*
X301957Y286281D02*
X300412Y286281D01*
X299792Y287611D02*
X301337Y287611D01*
X300716Y288941D02*
X299171Y288941D01*
X298551Y290271D02*
X300096Y290271D01*
X299476Y291601D02*
X297931Y291601D01*
X297311Y292931D02*
X298856Y292931D01*
X298235Y294261D02*
X296690Y294261D01*
X296070Y295591D02*
X297615Y295591D01*
X296995Y296921D02*
X295450Y296921D01*
X295957Y298251D02*
X296375Y298251D01*
X297769Y283430D02*
X296500Y282838D01*
X290499Y295706D01*
X291768Y296298D01*
X297769Y283430D01*
X297425Y284168D02*
X295880Y284168D01*
X295260Y285498D02*
X296805Y285498D01*
X296184Y286828D02*
X294639Y286828D01*
X294019Y288158D02*
X295564Y288158D01*
X294944Y289488D02*
X293399Y289488D01*
X292779Y290818D02*
X294324Y290818D01*
X293703Y292148D02*
X292158Y292148D01*
X291538Y293478D02*
X293083Y293478D01*
X292463Y294808D02*
X290918Y294808D01*
X291425Y296138D02*
X291843Y296138D01*
X293238Y281317D02*
X291969Y280725D01*
X285968Y293593D01*
X287237Y294185D01*
X293238Y281317D01*
X292894Y282055D02*
X291349Y282055D01*
X290729Y283385D02*
X292274Y283385D01*
X291653Y284715D02*
X290108Y284715D01*
X289488Y286045D02*
X291033Y286045D01*
X290413Y287375D02*
X288868Y287375D01*
X288248Y288705D02*
X289793Y288705D01*
X289172Y290035D02*
X287627Y290035D01*
X287007Y291365D02*
X288552Y291365D01*
X287932Y292695D02*
X286387Y292695D01*
X286894Y294025D02*
X287312Y294025D01*
X288706Y279204D02*
X287437Y278612D01*
X281436Y291480D01*
X282705Y292072D01*
X288706Y279204D01*
X288362Y279942D02*
X286817Y279942D01*
X286197Y281272D02*
X287742Y281272D01*
X287121Y282602D02*
X285576Y282602D01*
X284956Y283932D02*
X286501Y283932D01*
X285881Y285262D02*
X284336Y285262D01*
X283716Y286592D02*
X285261Y286592D01*
X284640Y287922D02*
X283095Y287922D01*
X282475Y289252D02*
X284020Y289252D01*
X283400Y290582D02*
X281855Y290582D01*
X282362Y291912D02*
X282780Y291912D01*
X271424Y263972D02*
X272016Y262703D01*
X271424Y263972D02*
X284292Y269973D01*
X284884Y268704D01*
X272016Y262703D01*
X271555Y264033D02*
X274868Y264033D01*
X274407Y265363D02*
X277720Y265363D01*
X277259Y266693D02*
X280572Y266693D01*
X280111Y268023D02*
X283424Y268023D01*
X282963Y269353D02*
X284581Y269353D01*
X273537Y259440D02*
X274129Y258171D01*
X273537Y259440D02*
X286405Y265441D01*
X286997Y264172D01*
X274129Y258171D01*
X273668Y259501D02*
X276981Y259501D01*
X276520Y260831D02*
X279833Y260831D01*
X279372Y262161D02*
X282685Y262161D01*
X282224Y263491D02*
X285537Y263491D01*
X285076Y264821D02*
X286694Y264821D01*
X275651Y254909D02*
X276243Y253640D01*
X275651Y254909D02*
X288519Y260910D01*
X289111Y259641D01*
X276243Y253640D01*
X275782Y254970D02*
X279095Y254970D01*
X278634Y256300D02*
X281947Y256300D01*
X281486Y257630D02*
X284799Y257630D01*
X284338Y258960D02*
X287651Y258960D01*
X287190Y260290D02*
X288808Y260290D01*
X277764Y250377D02*
X278356Y249108D01*
X277764Y250377D02*
X290632Y256378D01*
X291224Y255109D01*
X278356Y249108D01*
X277895Y250438D02*
X281208Y250438D01*
X280747Y251768D02*
X284060Y251768D01*
X283599Y253098D02*
X286912Y253098D01*
X286451Y254428D02*
X289764Y254428D01*
X289303Y255758D02*
X290921Y255758D01*
X279877Y245846D02*
X280469Y244577D01*
X279877Y245846D02*
X292745Y251847D01*
X293337Y250578D01*
X280469Y244577D01*
X280008Y245907D02*
X283321Y245907D01*
X282860Y247237D02*
X286173Y247237D01*
X285712Y248567D02*
X289025Y248567D01*
X288564Y249897D02*
X291877Y249897D01*
X291416Y251227D02*
X293034Y251227D01*
X281990Y241314D02*
X282582Y240045D01*
X281990Y241314D02*
X294858Y247315D01*
X295450Y246046D01*
X282582Y240045D01*
X282121Y241375D02*
X285434Y241375D01*
X284973Y242705D02*
X288286Y242705D01*
X287825Y244035D02*
X291138Y244035D01*
X290677Y245365D02*
X293990Y245365D01*
X293529Y246695D02*
X295147Y246695D01*
X284103Y236783D02*
X284695Y235514D01*
X284103Y236783D02*
X296971Y242784D01*
X297563Y241515D01*
X284695Y235514D01*
X284234Y236844D02*
X287547Y236844D01*
X287086Y238174D02*
X290399Y238174D01*
X289938Y239504D02*
X293251Y239504D01*
X292790Y240834D02*
X296103Y240834D01*
X295642Y242164D02*
X297260Y242164D01*
X286216Y232251D02*
X286808Y230982D01*
X286216Y232251D02*
X299084Y238252D01*
X299676Y236983D01*
X286808Y230982D01*
X286347Y232312D02*
X289660Y232312D01*
X289199Y233642D02*
X292512Y233642D01*
X292051Y234972D02*
X295364Y234972D01*
X294903Y236302D02*
X298216Y236302D01*
X297755Y237632D02*
X299373Y237632D01*
X288329Y227720D02*
X288921Y226451D01*
X288329Y227720D02*
X301197Y233721D01*
X301789Y232452D01*
X288921Y226451D01*
X288460Y227781D02*
X291773Y227781D01*
X291312Y229111D02*
X294625Y229111D01*
X294164Y230441D02*
X297477Y230441D01*
X297016Y231771D02*
X300329Y231771D01*
X299868Y233101D02*
X301486Y233101D01*
X290442Y223188D02*
X291034Y221919D01*
X290442Y223188D02*
X303310Y229189D01*
X303902Y227920D01*
X291034Y221919D01*
X290573Y223249D02*
X293886Y223249D01*
X293425Y224579D02*
X296738Y224579D01*
X296277Y225909D02*
X299590Y225909D01*
X299129Y227239D02*
X302442Y227239D01*
X301981Y228569D02*
X303599Y228569D01*
X292555Y218657D02*
X293147Y217388D01*
X292555Y218657D02*
X305423Y224658D01*
X306015Y223389D01*
X293147Y217388D01*
X292686Y218718D02*
X295999Y218718D01*
X295538Y220048D02*
X298851Y220048D01*
X298390Y221378D02*
X301703Y221378D01*
X301242Y222708D02*
X304555Y222708D01*
X304094Y224038D02*
X305712Y224038D01*
X294668Y214125D02*
X295260Y212856D01*
X294668Y214125D02*
X307536Y220126D01*
X308128Y218857D01*
X295260Y212856D01*
X294799Y214186D02*
X298112Y214186D01*
X297651Y215516D02*
X300964Y215516D01*
X300503Y216846D02*
X303816Y216846D01*
X303355Y218176D02*
X306668Y218176D01*
X306207Y219506D02*
X307825Y219506D01*
X322768Y202844D02*
X324037Y203436D01*
X322768Y202844D02*
X316767Y215712D01*
X318036Y216304D01*
X324037Y203436D01*
X323693Y204174D02*
X322148Y204174D01*
X321528Y205504D02*
X323073Y205504D01*
X322452Y206834D02*
X320907Y206834D01*
X320287Y208164D02*
X321832Y208164D01*
X321212Y209494D02*
X319667Y209494D01*
X319047Y210824D02*
X320592Y210824D01*
X319971Y212154D02*
X318426Y212154D01*
X317806Y213484D02*
X319351Y213484D01*
X318731Y214814D02*
X317186Y214814D01*
X317693Y216144D02*
X318111Y216144D01*
X327300Y204957D02*
X328569Y205549D01*
X327300Y204957D02*
X321299Y217825D01*
X322568Y218417D01*
X328569Y205549D01*
X328225Y206287D02*
X326680Y206287D01*
X326060Y207617D02*
X327605Y207617D01*
X326984Y208947D02*
X325439Y208947D01*
X324819Y210277D02*
X326364Y210277D01*
X325744Y211607D02*
X324199Y211607D01*
X323579Y212937D02*
X325124Y212937D01*
X324503Y214267D02*
X322958Y214267D01*
X322338Y215597D02*
X323883Y215597D01*
X323263Y216927D02*
X321718Y216927D01*
X322225Y218257D02*
X322643Y218257D01*
X331831Y207071D02*
X333100Y207663D01*
X331831Y207071D02*
X325830Y219939D01*
X327099Y220531D01*
X333100Y207663D01*
X332756Y208401D02*
X331211Y208401D01*
X330591Y209731D02*
X332136Y209731D01*
X331515Y211061D02*
X329970Y211061D01*
X329350Y212391D02*
X330895Y212391D01*
X330275Y213721D02*
X328730Y213721D01*
X328110Y215051D02*
X329655Y215051D01*
X329034Y216381D02*
X327489Y216381D01*
X326869Y217711D02*
X328414Y217711D01*
X327794Y219041D02*
X326249Y219041D01*
X326756Y220371D02*
X327174Y220371D01*
X336363Y209184D02*
X337632Y209776D01*
X336363Y209184D02*
X330362Y222052D01*
X331631Y222644D01*
X337632Y209776D01*
X337288Y210514D02*
X335743Y210514D01*
X335123Y211844D02*
X336668Y211844D01*
X336047Y213174D02*
X334502Y213174D01*
X333882Y214504D02*
X335427Y214504D01*
X334807Y215834D02*
X333262Y215834D01*
X332642Y217164D02*
X334187Y217164D01*
X333566Y218494D02*
X332021Y218494D01*
X331401Y219824D02*
X332946Y219824D01*
X332326Y221154D02*
X330781Y221154D01*
X331288Y222484D02*
X331706Y222484D01*
X340894Y211297D02*
X342163Y211889D01*
X340894Y211297D02*
X334893Y224165D01*
X336162Y224757D01*
X342163Y211889D01*
X341819Y212627D02*
X340274Y212627D01*
X339654Y213957D02*
X341199Y213957D01*
X340578Y215287D02*
X339033Y215287D01*
X338413Y216617D02*
X339958Y216617D01*
X339338Y217947D02*
X337793Y217947D01*
X337173Y219277D02*
X338718Y219277D01*
X338097Y220607D02*
X336552Y220607D01*
X335932Y221937D02*
X337477Y221937D01*
X336857Y223267D02*
X335312Y223267D01*
X335819Y224597D02*
X336237Y224597D01*
X345426Y213410D02*
X346695Y214002D01*
X345426Y213410D02*
X339425Y226278D01*
X340694Y226870D01*
X346695Y214002D01*
X346351Y214740D02*
X344806Y214740D01*
X344186Y216070D02*
X345731Y216070D01*
X345110Y217400D02*
X343565Y217400D01*
X342945Y218730D02*
X344490Y218730D01*
X343870Y220060D02*
X342325Y220060D01*
X341705Y221390D02*
X343250Y221390D01*
X342629Y222720D02*
X341084Y222720D01*
X340464Y224050D02*
X342009Y224050D01*
X341389Y225380D02*
X339844Y225380D01*
X340351Y226710D02*
X340769Y226710D01*
X349957Y215523D02*
X351226Y216115D01*
X349957Y215523D02*
X343956Y228391D01*
X345225Y228983D01*
X351226Y216115D01*
X350882Y216853D02*
X349337Y216853D01*
X348717Y218183D02*
X350262Y218183D01*
X349641Y219513D02*
X348096Y219513D01*
X347476Y220843D02*
X349021Y220843D01*
X348401Y222173D02*
X346856Y222173D01*
X346236Y223503D02*
X347781Y223503D01*
X347160Y224833D02*
X345615Y224833D01*
X344995Y226163D02*
X346540Y226163D01*
X345920Y227493D02*
X344375Y227493D01*
X344882Y228823D02*
X345300Y228823D01*
X354489Y217636D02*
X355758Y218228D01*
X354489Y217636D02*
X348488Y230504D01*
X349757Y231096D01*
X355758Y218228D01*
X355414Y218966D02*
X353869Y218966D01*
X353249Y220296D02*
X354794Y220296D01*
X354173Y221626D02*
X352628Y221626D01*
X352008Y222956D02*
X353553Y222956D01*
X352933Y224286D02*
X351388Y224286D01*
X350768Y225616D02*
X352313Y225616D01*
X351692Y226946D02*
X350147Y226946D01*
X349527Y228276D02*
X351072Y228276D01*
X350452Y229606D02*
X348907Y229606D01*
X349414Y230936D02*
X349832Y230936D01*
X359020Y219749D02*
X360289Y220341D01*
X359020Y219749D02*
X353019Y232617D01*
X354288Y233209D01*
X360289Y220341D01*
X359945Y221079D02*
X358400Y221079D01*
X357780Y222409D02*
X359325Y222409D01*
X358704Y223739D02*
X357159Y223739D01*
X356539Y225069D02*
X358084Y225069D01*
X357464Y226399D02*
X355919Y226399D01*
X355299Y227729D02*
X356844Y227729D01*
X356223Y229059D02*
X354678Y229059D01*
X354058Y230389D02*
X355603Y230389D01*
X354983Y231719D02*
X353438Y231719D01*
X353945Y233049D02*
X354363Y233049D01*
X363552Y221862D02*
X364821Y222454D01*
X363552Y221862D02*
X357551Y234730D01*
X358820Y235322D01*
X364821Y222454D01*
X364477Y223192D02*
X362932Y223192D01*
X362312Y224522D02*
X363857Y224522D01*
X363236Y225852D02*
X361691Y225852D01*
X361071Y227182D02*
X362616Y227182D01*
X361996Y228512D02*
X360451Y228512D01*
X359831Y229842D02*
X361376Y229842D01*
X360755Y231172D02*
X359210Y231172D01*
X358590Y232502D02*
X360135Y232502D01*
X359515Y233832D02*
X357970Y233832D01*
X358477Y235162D02*
X358895Y235162D01*
X368083Y223975D02*
X369352Y224567D01*
X368083Y223975D02*
X362082Y236843D01*
X363351Y237435D01*
X369352Y224567D01*
X369008Y225305D02*
X367463Y225305D01*
X366843Y226635D02*
X368388Y226635D01*
X367767Y227965D02*
X366222Y227965D01*
X365602Y229295D02*
X367147Y229295D01*
X366527Y230625D02*
X364982Y230625D01*
X364362Y231955D02*
X365907Y231955D01*
X365286Y233285D02*
X363741Y233285D01*
X363121Y234615D02*
X364666Y234615D01*
X364046Y235945D02*
X362501Y235945D01*
X363008Y237275D02*
X363426Y237275D01*
X372615Y226088D02*
X373884Y226680D01*
X372615Y226088D02*
X366614Y238956D01*
X367883Y239548D01*
X373884Y226680D01*
X373540Y227418D02*
X371995Y227418D01*
X371375Y228748D02*
X372920Y228748D01*
X372299Y230078D02*
X370754Y230078D01*
X370134Y231408D02*
X371679Y231408D01*
X371059Y232738D02*
X369514Y232738D01*
X368894Y234068D02*
X370439Y234068D01*
X369818Y235398D02*
X368273Y235398D01*
X367653Y236728D02*
X369198Y236728D01*
X368578Y238058D02*
X367033Y238058D01*
X367540Y239388D02*
X367958Y239388D01*
X371028Y248187D02*
X370436Y249456D01*
X383304Y255457D01*
X383896Y254188D01*
X371028Y248187D01*
X370567Y249517D02*
X373880Y249517D01*
X373419Y250847D02*
X376732Y250847D01*
X376271Y252177D02*
X379584Y252177D01*
X379123Y253507D02*
X382436Y253507D01*
X381975Y254837D02*
X383593Y254837D01*
X368915Y252719D02*
X368323Y253988D01*
X381191Y259989D01*
X381783Y258720D01*
X368915Y252719D01*
X368454Y254049D02*
X371767Y254049D01*
X371306Y255379D02*
X374619Y255379D01*
X374158Y256709D02*
X377471Y256709D01*
X377010Y258039D02*
X380323Y258039D01*
X379862Y259369D02*
X381480Y259369D01*
X366801Y257250D02*
X366209Y258519D01*
X379077Y264520D01*
X379669Y263251D01*
X366801Y257250D01*
X366340Y258580D02*
X369653Y258580D01*
X369192Y259910D02*
X372505Y259910D01*
X372044Y261240D02*
X375357Y261240D01*
X374896Y262570D02*
X378209Y262570D01*
X377748Y263900D02*
X379366Y263900D01*
X364688Y261782D02*
X364096Y263051D01*
X376964Y269052D01*
X377556Y267783D01*
X364688Y261782D01*
X364227Y263112D02*
X367540Y263112D01*
X367079Y264442D02*
X370392Y264442D01*
X369931Y265772D02*
X373244Y265772D01*
X372783Y267102D02*
X376096Y267102D01*
X375635Y268432D02*
X377253Y268432D01*
X362575Y266313D02*
X361983Y267582D01*
X374851Y273583D01*
X375443Y272314D01*
X362575Y266313D01*
X362114Y267643D02*
X365427Y267643D01*
X364966Y268973D02*
X368279Y268973D01*
X367818Y270303D02*
X371131Y270303D01*
X370670Y271633D02*
X373983Y271633D01*
X373522Y272963D02*
X375140Y272963D01*
X360462Y270845D02*
X359870Y272114D01*
X372738Y278115D01*
X373330Y276846D01*
X360462Y270845D01*
X360001Y272175D02*
X363314Y272175D01*
X362853Y273505D02*
X366166Y273505D01*
X365705Y274835D02*
X369018Y274835D01*
X368557Y276165D02*
X371870Y276165D01*
X371409Y277495D02*
X373027Y277495D01*
X358349Y275376D02*
X357757Y276645D01*
X370625Y282646D01*
X371217Y281377D01*
X358349Y275376D01*
X357888Y276706D02*
X361201Y276706D01*
X360740Y278036D02*
X364053Y278036D01*
X363592Y279366D02*
X366905Y279366D01*
X366444Y280696D02*
X369757Y280696D01*
X369296Y282026D02*
X370914Y282026D01*
X356236Y279908D02*
X355644Y281177D01*
X368512Y287178D01*
X369104Y285909D01*
X356236Y279908D01*
X355775Y281238D02*
X359088Y281238D01*
X358627Y282568D02*
X361940Y282568D01*
X361479Y283898D02*
X364792Y283898D01*
X364331Y285228D02*
X367644Y285228D01*
X367183Y286558D02*
X368801Y286558D01*
X354123Y284439D02*
X353531Y285708D01*
X366399Y291709D01*
X366991Y290440D01*
X354123Y284439D01*
X353662Y285769D02*
X356975Y285769D01*
X356514Y287099D02*
X359827Y287099D01*
X359366Y288429D02*
X362679Y288429D01*
X362218Y289759D02*
X365531Y289759D01*
X365070Y291089D02*
X366688Y291089D01*
X352010Y288971D02*
X351418Y290240D01*
X364286Y296241D01*
X364878Y294972D01*
X352010Y288971D01*
X351549Y290301D02*
X354862Y290301D01*
X354401Y291631D02*
X357714Y291631D01*
X357253Y292961D02*
X360566Y292961D01*
X360105Y294291D02*
X363418Y294291D01*
X362957Y295621D02*
X364575Y295621D01*
X349897Y293502D02*
X349305Y294771D01*
X362173Y300772D01*
X362765Y299503D01*
X349897Y293502D01*
X349436Y294832D02*
X352749Y294832D01*
X352288Y296162D02*
X355601Y296162D01*
X355140Y297492D02*
X358453Y297492D01*
X357992Y298822D02*
X361305Y298822D01*
X360844Y300152D02*
X362462Y300152D01*
X347784Y298034D02*
X347192Y299303D01*
X360060Y305304D01*
X360652Y304035D01*
X347784Y298034D01*
X347323Y299364D02*
X350636Y299364D01*
X350175Y300694D02*
X353488Y300694D01*
X353027Y302024D02*
X356340Y302024D01*
X355879Y303354D02*
X359192Y303354D01*
X358731Y304684D02*
X360349Y304684D01*
D18*
X493100Y134620D03*
X472100Y134620D03*
X86360Y477180D03*
X86360Y498180D03*
D16*
X342900Y137160D02*
X342900Y121920D01*
X317500Y121920D02*
X317500Y137160D01*
X292100Y137160D02*
X292100Y121920D01*
X266700Y121920D02*
X266700Y137160D01*
D27*
X304800Y601980D03*
D28*
X213360Y678180D02*
X188976Y678180D01*
X38100Y545592D02*
X25908Y545592D01*
X48768Y534924D02*
X85344Y498348D01*
X48768Y534924D02*
X38100Y545592D01*
X25908Y545592D02*
X25400Y546440D01*
X85344Y498348D02*
X86360Y498180D01*
X109728Y521208D02*
X160020Y521208D01*
X109728Y521208D02*
X86868Y498348D01*
X160020Y521208D02*
X160020Y522580D01*
X86868Y498348D02*
X86360Y498180D01*
X48768Y534924D02*
X60960Y547116D01*
X160020Y522732D02*
X188976Y522732D01*
X480060Y522732D01*
X480060Y523240D01*
X160020Y522732D02*
X160020Y522580D01*
X188976Y522732D02*
X188976Y678180D01*
X187960Y678180D01*
X470916Y134112D02*
X470916Y111252D01*
X449580Y89916D01*
X470916Y134112D02*
X472100Y134620D01*
X449580Y89916D02*
X448920Y88900D01*
X448056Y88392D02*
X448056Y56388D01*
X445008Y53340D01*
X445008Y42672D01*
X451104Y36576D01*
X470916Y36576D01*
X482600Y48260D01*
X448920Y88900D02*
X448056Y88392D01*
X217932Y70104D02*
X217932Y45720D01*
X218440Y45720D01*
X217932Y70104D02*
X218440Y71120D01*
X301752Y217932D02*
X313944Y217932D01*
X336804Y240792D01*
X365760Y240792D01*
X368808Y237744D01*
X368808Y233172D01*
X301752Y217932D02*
X301398Y216491D01*
X368808Y233172D02*
X370249Y232818D01*
X301752Y288036D02*
X298704Y291084D01*
X301752Y288036D02*
X301752Y275844D01*
X312420Y265176D02*
X336804Y240792D01*
X312420Y265176D02*
X301752Y275844D01*
X298704Y291084D02*
X298666Y291681D01*
X347472Y300228D02*
X353568Y300228D01*
X347472Y300228D02*
X312420Y265176D01*
X353568Y300228D02*
X353922Y301669D01*
X219456Y135636D02*
X219456Y71628D01*
X277368Y193548D02*
X300228Y216408D01*
X277368Y193548D02*
X219456Y135636D01*
X219456Y71628D02*
X218440Y71120D01*
X300228Y216408D02*
X301398Y216491D01*
X466344Y135636D02*
X470916Y135636D01*
X396240Y205740D02*
X370332Y231648D01*
X396240Y205740D02*
X466344Y135636D01*
X470916Y135636D02*
X472100Y134620D01*
X370332Y231648D02*
X370249Y232818D01*
X275844Y193548D02*
X260604Y208788D01*
X275844Y193548D02*
X277368Y193548D01*
X397764Y205740D02*
X437388Y245364D01*
X397764Y205740D02*
X396240Y205740D01*
D29*
X60960Y547116D03*
X260604Y208788D03*
X437388Y245364D03*
D28*
X438912Y669036D02*
X391668Y669036D01*
X438912Y669036D02*
X467868Y640080D01*
X391668Y669036D02*
X391460Y669460D01*
X467868Y640080D02*
X468020Y640080D01*
X251460Y665988D02*
X251460Y601980D01*
X251460Y665988D02*
X239268Y678180D01*
X238760Y678180D01*
X390144Y676656D02*
X390144Y670560D01*
X390144Y676656D02*
X387096Y679704D01*
X265176Y679704D01*
X251460Y665988D01*
X390144Y670560D02*
X391460Y669460D01*
D29*
X441960Y137160D03*
X312420Y243840D03*
X342900Y419100D03*
X251460Y350520D03*
X358140Y320040D03*
D28*
X294132Y289560D02*
X294132Y286512D01*
X297180Y283464D01*
X297180Y280416D01*
X291084Y274320D01*
X106680Y274320D01*
X44196Y336804D01*
X24384Y336804D01*
X16764Y344424D01*
X16764Y379476D01*
X35052Y397764D01*
X294134Y289568D02*
X294132Y289560D01*
X35560Y398780D02*
X35052Y397764D01*
X286512Y291084D02*
X289560Y288036D01*
X286512Y291084D02*
X286512Y294132D01*
X249936Y330708D01*
X79248Y330708D01*
X36576Y373380D01*
X289560Y288036D02*
X289603Y287455D01*
X36576Y373380D02*
X35560Y373380D01*
X99060Y286512D02*
X284988Y286512D01*
X99060Y286512D02*
X36576Y348996D01*
X284988Y286512D02*
X285071Y285342D01*
X36576Y348996D02*
X35560Y347980D01*
X91440Y266700D02*
X277368Y266700D01*
X91440Y266700D02*
X35560Y322580D01*
X277368Y266700D02*
X278154Y266338D01*
X278892Y260604D02*
X275844Y260604D01*
X274320Y259080D01*
X74676Y259080D01*
X36576Y297180D01*
X278892Y260604D02*
X280267Y261806D01*
X36576Y297180D02*
X35560Y297180D01*
X277368Y256032D02*
X281940Y256032D01*
X277368Y256032D02*
X275844Y254508D01*
X53340Y254508D01*
X36576Y271272D01*
X281940Y256032D02*
X282381Y257275D01*
X36576Y271272D02*
X35560Y271780D01*
X278892Y251460D02*
X283464Y251460D01*
X278892Y251460D02*
X274320Y246888D01*
X36576Y246888D01*
X283464Y251460D02*
X284494Y252743D01*
X36576Y246888D02*
X35560Y246380D01*
X281940Y246888D02*
X286512Y246888D01*
X281940Y246888D02*
X259080Y224028D01*
X39624Y224028D01*
X36576Y220980D01*
X286512Y246888D02*
X286607Y248212D01*
X36576Y220980D02*
X35560Y220980D01*
X339852Y217932D02*
X339852Y213360D01*
X352044Y201168D01*
X365760Y62484D02*
X403860Y24384D01*
X537972Y24384D01*
X644652Y131064D01*
X339852Y217932D02*
X338528Y218027D01*
X644652Y131064D02*
X645160Y132080D01*
X365760Y184927D02*
X352044Y198643D01*
X352044Y201168D01*
X365760Y184927D02*
X365760Y62484D01*
X344424Y214884D02*
X344424Y219456D01*
X344424Y214884D02*
X355092Y204216D01*
X368808Y64008D02*
X405384Y27432D01*
X515112Y27432D01*
X645160Y157480D01*
X344424Y219456D02*
X343060Y220140D01*
X563880Y181356D02*
X621792Y181356D01*
X633984Y193548D01*
X656844Y193548D01*
X662940Y187452D01*
X662940Y175260D01*
X645160Y157480D01*
X563880Y180340D02*
X563880Y181356D01*
X381000Y173997D02*
X381000Y91440D01*
X381000Y173997D02*
X355092Y199905D01*
X355092Y204216D01*
X368808Y79248D02*
X368808Y64008D01*
X368808Y79248D02*
X381000Y91440D01*
X348996Y216408D02*
X348996Y220980D01*
X348996Y216408D02*
X358140Y207264D01*
X358140Y201168D01*
X394716Y164592D01*
X394716Y42672D01*
X406908Y30480D01*
X492252Y30480D01*
X644652Y182880D01*
X348996Y220980D02*
X347591Y222253D01*
X644652Y182880D02*
X645160Y182880D01*
X352044Y225552D02*
X348996Y228600D01*
X348996Y230124D01*
X344424Y234696D01*
X342900Y234696D01*
X352044Y225552D02*
X352123Y224366D01*
D29*
X342900Y234696D03*
D28*
X374904Y582168D02*
X428244Y582168D01*
X478536Y632460D02*
X486156Y640080D01*
X478536Y632460D02*
X428244Y582168D01*
X486156Y640080D02*
X487020Y640080D01*
X358140Y225552D02*
X358140Y220980D01*
X361188Y217932D01*
X361188Y202692D01*
X417576Y146304D01*
X417576Y54864D01*
X419100Y53340D01*
X419100Y44196D01*
X429768Y33528D01*
X484632Y33528D01*
X545592Y94488D01*
X545592Y184404D01*
X556260Y195072D01*
X606552Y195072D01*
X645160Y233680D01*
X358140Y225552D02*
X356654Y226479D01*
X665988Y445008D02*
X478536Y632460D01*
X665988Y445008D02*
X665988Y254508D01*
X645160Y233680D01*
D29*
X374904Y582168D03*
D28*
X361188Y227076D02*
X364236Y224028D01*
X364236Y204216D01*
X420624Y147828D01*
X420624Y59436D01*
X431800Y48260D01*
X361188Y227076D02*
X361186Y228592D01*
X377952Y251460D02*
X440436Y251460D01*
X481584Y210312D01*
X481584Y73152D01*
X457200Y48768D01*
X377952Y251460D02*
X377166Y251822D01*
X457200Y48768D02*
X457200Y48260D01*
X379476Y257556D02*
X376428Y257556D01*
X379476Y257556D02*
X381000Y259080D01*
X645160Y259080D01*
X376428Y257556D02*
X375053Y256354D01*
X329184Y307848D02*
X329184Y310896D01*
X275844Y364236D01*
X96012Y364236D01*
X36576Y423672D01*
X329184Y307848D02*
X330386Y306473D01*
X36576Y423672D02*
X35560Y424180D01*
X371856Y266700D02*
X376428Y266700D01*
X406908Y297180D01*
X556260Y297180D01*
X371856Y266700D02*
X370826Y265417D01*
X576072Y309372D02*
X644652Y309372D01*
X576072Y309372D02*
X563880Y297180D01*
X556260Y297180D01*
X644652Y309372D02*
X645160Y309880D01*
X288036Y242316D02*
X283464Y242316D01*
X262128Y220980D01*
X60960Y220980D01*
X35560Y195580D01*
X288036Y242316D02*
X288720Y243680D01*
X289560Y237744D02*
X284988Y237744D01*
X265176Y217932D01*
X83820Y217932D01*
X36576Y170688D01*
X289560Y237744D02*
X290833Y239149D01*
X36576Y170688D02*
X35560Y170180D01*
X368808Y271272D02*
X373380Y271272D01*
X411480Y309372D01*
X571500Y309372D01*
X597408Y335280D01*
X645160Y335280D01*
X368808Y271272D02*
X368713Y269948D01*
X365760Y274320D02*
X362712Y271272D01*
X359664Y271272D01*
X358140Y269748D01*
X358140Y256032D01*
X370332Y243840D01*
X426720Y243840D01*
X366600Y274480D02*
X365760Y274320D01*
X531876Y524256D02*
X534924Y524256D01*
X551688Y541020D01*
X563880Y541020D01*
X662940Y441960D01*
X662940Y377952D01*
X646176Y361188D01*
X530860Y523240D02*
X531876Y524256D01*
X645160Y360680D02*
X646176Y361188D01*
D29*
X426720Y243840D03*
D28*
X370332Y280416D02*
X365760Y280416D01*
X370332Y280416D02*
X402336Y312420D01*
X569976Y312420D01*
X644652Y387096D01*
X365760Y280416D02*
X364487Y279011D01*
X556260Y496824D02*
X556260Y523240D01*
X556260Y496824D02*
X626364Y426720D01*
X626364Y405384D01*
X644652Y387096D01*
X645160Y386080D01*
X365760Y289560D02*
X361188Y289560D01*
X365760Y289560D02*
X406908Y330708D01*
X522732Y330708D01*
X361188Y289560D02*
X360261Y288074D01*
D29*
X522732Y330708D03*
D28*
X362712Y295656D02*
X359664Y292608D01*
X362712Y295656D02*
X364236Y295656D01*
X370332Y301752D01*
X370332Y336804D01*
X393192Y359664D01*
X541020Y359664D01*
X579120Y397764D01*
X579120Y402336D01*
X359664Y292608D02*
X358148Y292606D01*
D29*
X579120Y402336D03*
D28*
X294132Y228600D02*
X289560Y228600D01*
X277368Y216408D01*
X294132Y228600D02*
X295059Y230086D01*
D29*
X277368Y216408D03*
D28*
X292608Y222504D02*
X295656Y225552D01*
X292608Y222504D02*
X291084Y222504D01*
X277368Y205740D02*
X277368Y202692D01*
X266700Y192024D02*
X195072Y120396D01*
X36576Y120396D01*
X295656Y225552D02*
X297172Y225554D01*
X36576Y120396D02*
X35560Y119380D01*
D29*
X277368Y202692D03*
X266700Y192024D03*
D28*
X277368Y205740D02*
X277368Y207827D01*
X283436Y213895D02*
X283436Y214856D01*
X291084Y222504D01*
X283436Y213895D02*
X277368Y207827D01*
X266700Y155872D02*
X266700Y129540D01*
X266700Y155872D02*
X320402Y209574D01*
X327660Y198120D02*
X292100Y129540D01*
X327660Y198120D02*
X327660Y205105D01*
X327657Y205333D01*
X327649Y205562D01*
X327635Y205790D01*
X327615Y206017D01*
X327590Y206245D01*
X327559Y206471D01*
X327523Y206696D01*
X327481Y206921D01*
X327434Y207145D01*
X327381Y207367D01*
X327323Y207588D01*
X327259Y207807D01*
X327190Y208025D01*
X327116Y208241D01*
X327036Y208455D01*
X326951Y208667D01*
X326861Y208877D01*
X326766Y209085D01*
X326666Y209290D01*
X326561Y209493D01*
X326451Y209693D01*
X326336Y209891D01*
X326216Y210085D01*
X326091Y210277D01*
X325962Y210465D01*
X325828Y210650D01*
X325690Y210832D01*
X325547Y211011D01*
X325400Y211185D01*
X325249Y211357D01*
X325093Y211524D01*
X324933Y211687D01*
X335280Y147320D02*
X317500Y129540D01*
X335280Y147320D02*
X335280Y198120D01*
X329465Y213801D01*
X342900Y198120D02*
X342900Y129540D01*
X342900Y198120D02*
X333997Y215914D01*
X373380Y262128D02*
X377952Y262128D01*
X379476Y263652D01*
X569976Y263652D01*
X571500Y262128D01*
X623316Y262128D01*
X644652Y283464D01*
X373380Y262128D02*
X372939Y260885D01*
X644652Y283464D02*
X645160Y284480D01*
X315468Y300228D02*
X315468Y304800D01*
X292608Y327660D01*
X292608Y338328D01*
X315468Y300228D02*
X316792Y300133D01*
D29*
X292608Y338328D03*
D28*
X310896Y303276D02*
X310896Y298704D01*
X310896Y303276D02*
X284988Y329184D01*
X284988Y345948D01*
X310896Y298704D02*
X312260Y298020D01*
D29*
X284988Y345948D03*
D28*
X406908Y371856D02*
X417576Y382524D01*
X417576Y416052D01*
X409956Y423672D01*
X406908Y371856D02*
X406400Y371500D01*
X409956Y423672D02*
X408940Y424180D01*
X326136Y303276D02*
X329184Y300228D01*
X329184Y298704D01*
X332232Y295656D01*
X336804Y295656D01*
X344424Y303276D01*
X344424Y320040D01*
X394716Y370332D01*
X405384Y370332D01*
X325855Y304359D02*
X326136Y303276D01*
X405384Y370332D02*
X406400Y371500D01*
X387096Y388620D02*
X376428Y377952D01*
X387096Y388620D02*
X387096Y420624D01*
X383540Y424180D01*
X376428Y377952D02*
X375920Y376580D01*
X320040Y307848D02*
X320040Y303276D01*
X320040Y307848D02*
X301752Y326136D01*
X301752Y329184D01*
X320040Y303276D02*
X321323Y302246D01*
D29*
X301752Y329184D03*
D28*
X307848Y295656D02*
X307848Y292608D01*
X312420Y288036D01*
X326136Y288036D01*
X327660Y289560D01*
X350520Y312420D02*
X350520Y321564D01*
X391668Y362712D01*
X461772Y362712D01*
X512064Y413004D01*
X307729Y295907D02*
X307848Y295656D01*
X512064Y413004D02*
X512560Y413300D01*
X513588Y414528D02*
X541020Y414528D01*
X574548Y414528D01*
X574560Y413300D01*
X513588Y414528D02*
X512560Y413300D01*
X541020Y414528D02*
X541020Y368808D01*
D29*
X327660Y289560D03*
X350520Y312420D03*
X541020Y368808D03*
D28*
X160020Y483108D02*
X160020Y503580D01*
X160020Y483108D02*
X132588Y455676D01*
X131560Y455380D01*
X214884Y438912D02*
X214884Y370332D01*
X214884Y438912D02*
X199644Y454152D01*
X195072Y454152D01*
X193560Y455380D01*
X556260Y370332D02*
X556260Y322580D01*
X556260Y370332D02*
X589788Y403860D01*
X589788Y458724D01*
X556260Y492252D01*
X237744Y492252D01*
X199644Y454152D01*
X166116Y483108D02*
X160020Y483108D01*
X166116Y483108D02*
X193548Y455676D01*
X193560Y455380D01*
D29*
X214884Y370332D03*
D28*
X24384Y525780D02*
X24384Y531876D01*
X16764Y539496D01*
X16764Y553212D01*
X18288Y554736D01*
X99060Y554736D01*
X105156Y548640D01*
X25400Y525440D02*
X24384Y525780D01*
D29*
X105156Y548640D03*
D28*
X86868Y477012D02*
X86868Y458724D01*
X86868Y477012D02*
X86360Y477180D01*
D29*
X86868Y458724D03*
D28*
X358140Y280416D02*
X361188Y283464D01*
X358140Y280416D02*
X356616Y280416D01*
X353568Y277368D01*
X353568Y246888D01*
X361188Y283464D02*
X362374Y283543D01*
D29*
X353568Y246888D03*
D28*
X266700Y214884D02*
X257556Y214884D01*
X254508Y211836D01*
X254508Y188976D01*
D29*
X254508Y188976D03*
D28*
X266700Y214884D02*
X280416Y228600D01*
X292946Y234617D01*
X385572Y644652D02*
X385572Y669036D01*
X385572Y644652D02*
X414528Y615696D01*
X385572Y669036D02*
X384960Y669460D01*
D29*
X414528Y615696D03*
D28*
X377952Y623316D02*
X377952Y669036D01*
X377952Y623316D02*
X368808Y614172D01*
X377952Y669036D02*
X378460Y669460D01*
D29*
X368808Y614172D03*
D28*
X493776Y184404D02*
X493776Y135636D01*
X493100Y134620D01*
D29*
X493776Y184404D03*
D28*
X350520Y556260D02*
X304800Y601980D01*
X350520Y556260D02*
X350520Y541020D01*
D29*
X350520Y541020D03*
X342900Y403860D03*
D28*
X342900Y335280D01*
X335280Y327660D01*
X334918Y308586D01*
M02*
