G04 EAGLE Gerber RS-274X export*
G75*
%MOMM*%
%FSLAX34Y34*%
%LPD*%
%INBottom Copper*%
%IPPOS*%
%AMOC8*
5,1,8,0,0,1.08239X$1,22.5*%
G01*
%ADD10R,1.300000X1.500000*%
%ADD11R,1.500000X1.300000*%
%ADD12P,1.539592X8X22.500000*%
%ADD13C,1.524000*%
%ADD14C,1.676400*%
%ADD15C,1.117600*%
%ADD16C,1.320800*%
%ADD17R,1.600000X1.300000*%
%ADD18R,1.300000X1.600000*%
%ADD19C,1.879600*%
%ADD20P,1.429621X8X202.500000*%
%ADD21C,0.139500*%
%ADD22C,0.196500*%
%ADD23P,1.649562X8X22.500000*%
%ADD24C,0.152400*%
%ADD25C,0.756400*%

G36*
X635545Y10165D02*
X635545Y10165D01*
X635568Y10162D01*
X635665Y10184D01*
X635764Y10200D01*
X635785Y10212D01*
X635808Y10217D01*
X635893Y10269D01*
X635981Y10316D01*
X635997Y10333D01*
X636018Y10346D01*
X636082Y10422D01*
X636150Y10494D01*
X636160Y10516D01*
X636176Y10534D01*
X636212Y10627D01*
X636254Y10717D01*
X636257Y10741D01*
X636265Y10763D01*
X636270Y10863D01*
X636281Y10961D01*
X636276Y10985D01*
X636277Y11009D01*
X636250Y11105D01*
X636229Y11202D01*
X636216Y11222D01*
X636210Y11246D01*
X636154Y11328D01*
X636103Y11413D01*
X636084Y11429D01*
X636071Y11448D01*
X635991Y11508D01*
X635916Y11573D01*
X635893Y11582D01*
X635874Y11596D01*
X635718Y11657D01*
X629785Y13247D01*
X623704Y16758D01*
X618738Y21724D01*
X615227Y27805D01*
X613409Y34589D01*
X613409Y41611D01*
X615227Y48395D01*
X618738Y54476D01*
X623704Y59442D01*
X629785Y62953D01*
X636569Y64771D01*
X643591Y64771D01*
X650375Y62953D01*
X656456Y59442D01*
X661422Y54476D01*
X664933Y48395D01*
X666751Y41611D01*
X666751Y34589D01*
X664933Y27805D01*
X661422Y21724D01*
X656456Y16758D01*
X650375Y13247D01*
X644442Y11657D01*
X644420Y11647D01*
X644396Y11643D01*
X644309Y11597D01*
X644218Y11556D01*
X644200Y11540D01*
X644179Y11528D01*
X644111Y11456D01*
X644038Y11389D01*
X644026Y11368D01*
X644010Y11350D01*
X643968Y11260D01*
X643920Y11173D01*
X643916Y11149D01*
X643906Y11127D01*
X643895Y11028D01*
X643878Y10930D01*
X643882Y10906D01*
X643879Y10883D01*
X643900Y10785D01*
X643915Y10687D01*
X643926Y10666D01*
X643931Y10642D01*
X643982Y10557D01*
X644028Y10468D01*
X644045Y10452D01*
X644057Y10431D01*
X644133Y10366D01*
X644204Y10297D01*
X644226Y10287D01*
X644244Y10271D01*
X644337Y10234D01*
X644426Y10191D01*
X644450Y10188D01*
X644473Y10179D01*
X644639Y10161D01*
X669038Y10161D01*
X669058Y10164D01*
X669077Y10162D01*
X669179Y10184D01*
X669281Y10200D01*
X669298Y10210D01*
X669318Y10214D01*
X669407Y10267D01*
X669498Y10316D01*
X669512Y10330D01*
X669529Y10340D01*
X669596Y10419D01*
X669668Y10494D01*
X669676Y10512D01*
X669689Y10527D01*
X669728Y10623D01*
X669771Y10717D01*
X669773Y10737D01*
X669781Y10755D01*
X669799Y10922D01*
X669799Y705258D01*
X669796Y705278D01*
X669798Y705297D01*
X669776Y705399D01*
X669760Y705501D01*
X669750Y705518D01*
X669746Y705538D01*
X669693Y705627D01*
X669644Y705718D01*
X669630Y705732D01*
X669620Y705749D01*
X669541Y705816D01*
X669466Y705888D01*
X669448Y705896D01*
X669433Y705909D01*
X669337Y705948D01*
X669243Y705991D01*
X669223Y705993D01*
X669205Y706001D01*
X669038Y706019D01*
X10922Y706019D01*
X10902Y706016D01*
X10883Y706018D01*
X10781Y705996D01*
X10679Y705980D01*
X10662Y705970D01*
X10642Y705966D01*
X10553Y705913D01*
X10462Y705864D01*
X10448Y705850D01*
X10431Y705840D01*
X10364Y705761D01*
X10292Y705686D01*
X10284Y705668D01*
X10271Y705653D01*
X10232Y705557D01*
X10189Y705463D01*
X10187Y705443D01*
X10179Y705425D01*
X10161Y705258D01*
X10161Y675119D01*
X10165Y675095D01*
X10162Y675072D01*
X10184Y674975D01*
X10200Y674876D01*
X10212Y674855D01*
X10217Y674832D01*
X10269Y674747D01*
X10316Y674659D01*
X10333Y674643D01*
X10346Y674622D01*
X10422Y674558D01*
X10494Y674490D01*
X10516Y674480D01*
X10534Y674464D01*
X10627Y674428D01*
X10717Y674386D01*
X10741Y674383D01*
X10763Y674375D01*
X10863Y674370D01*
X10961Y674359D01*
X10985Y674364D01*
X11009Y674363D01*
X11105Y674390D01*
X11202Y674411D01*
X11222Y674424D01*
X11246Y674430D01*
X11328Y674486D01*
X11413Y674537D01*
X11429Y674556D01*
X11448Y674569D01*
X11508Y674649D01*
X11573Y674724D01*
X11582Y674747D01*
X11596Y674766D01*
X11657Y674922D01*
X13247Y680855D01*
X16758Y686936D01*
X21724Y691902D01*
X27805Y695413D01*
X34589Y697231D01*
X41611Y697231D01*
X48395Y695413D01*
X54476Y691902D01*
X59442Y686936D01*
X62953Y680855D01*
X64771Y674071D01*
X64771Y667049D01*
X62953Y660265D01*
X59442Y654184D01*
X54476Y649218D01*
X48395Y645707D01*
X41611Y643889D01*
X34589Y643889D01*
X27805Y645707D01*
X21724Y649218D01*
X16758Y654184D01*
X13247Y660265D01*
X11657Y666198D01*
X11647Y666220D01*
X11643Y666244D01*
X11597Y666331D01*
X11556Y666422D01*
X11540Y666440D01*
X11528Y666461D01*
X11456Y666529D01*
X11389Y666602D01*
X11368Y666614D01*
X11350Y666630D01*
X11260Y666672D01*
X11173Y666720D01*
X11149Y666724D01*
X11127Y666734D01*
X11028Y666745D01*
X10930Y666762D01*
X10906Y666758D01*
X10883Y666761D01*
X10785Y666740D01*
X10687Y666725D01*
X10666Y666714D01*
X10642Y666709D01*
X10557Y666658D01*
X10468Y666612D01*
X10452Y666595D01*
X10431Y666583D01*
X10366Y666507D01*
X10297Y666436D01*
X10287Y666414D01*
X10271Y666396D01*
X10234Y666303D01*
X10191Y666214D01*
X10188Y666190D01*
X10179Y666167D01*
X10161Y666001D01*
X10161Y10922D01*
X10164Y10902D01*
X10162Y10883D01*
X10184Y10781D01*
X10200Y10679D01*
X10210Y10662D01*
X10214Y10642D01*
X10267Y10553D01*
X10316Y10462D01*
X10330Y10448D01*
X10340Y10431D01*
X10419Y10364D01*
X10494Y10292D01*
X10512Y10284D01*
X10527Y10271D01*
X10623Y10232D01*
X10717Y10189D01*
X10737Y10187D01*
X10755Y10179D01*
X10922Y10161D01*
X635521Y10161D01*
X635545Y10165D01*
G37*
%LPC*%
G36*
X335108Y89535D02*
X335108Y89535D01*
X334215Y90428D01*
X334215Y107692D01*
X335108Y108585D01*
X348215Y108585D01*
X348306Y108599D01*
X348396Y108607D01*
X348426Y108619D01*
X348458Y108624D01*
X348539Y108667D01*
X348623Y108703D01*
X348655Y108729D01*
X348676Y108740D01*
X348698Y108763D01*
X348754Y108808D01*
X355630Y115684D01*
X355683Y115758D01*
X355743Y115828D01*
X355755Y115858D01*
X355774Y115884D01*
X355801Y115971D01*
X355835Y116056D01*
X355839Y116097D01*
X355846Y116119D01*
X355845Y116151D01*
X355853Y116223D01*
X355853Y240820D01*
X355850Y240839D01*
X355852Y240859D01*
X355830Y240961D01*
X355814Y241063D01*
X355804Y241080D01*
X355800Y241100D01*
X355747Y241189D01*
X355698Y241280D01*
X355684Y241294D01*
X355674Y241311D01*
X355595Y241378D01*
X355520Y241450D01*
X355502Y241458D01*
X355487Y241471D01*
X355391Y241510D01*
X355297Y241553D01*
X355277Y241555D01*
X355259Y241563D01*
X355092Y241581D01*
X351370Y241581D01*
X348261Y244690D01*
X348261Y245654D01*
X348250Y245724D01*
X348248Y245796D01*
X348230Y245845D01*
X348222Y245896D01*
X348188Y245960D01*
X348163Y246027D01*
X348131Y246068D01*
X348106Y246114D01*
X348054Y246163D01*
X348010Y246219D01*
X347966Y246247D01*
X347928Y246283D01*
X347863Y246313D01*
X347803Y246352D01*
X347752Y246365D01*
X347705Y246387D01*
X347634Y246395D01*
X347564Y246412D01*
X347512Y246408D01*
X347461Y246414D01*
X347390Y246399D01*
X347319Y246393D01*
X347271Y246373D01*
X347220Y246362D01*
X347159Y246325D01*
X347093Y246297D01*
X347037Y246252D01*
X347009Y246235D01*
X346994Y246218D01*
X346962Y246192D01*
X345410Y244640D01*
X345357Y244566D01*
X345297Y244496D01*
X345285Y244466D01*
X345266Y244440D01*
X345239Y244353D01*
X345205Y244268D01*
X345201Y244227D01*
X345194Y244205D01*
X345195Y244173D01*
X345187Y244101D01*
X345187Y240229D01*
X345201Y240139D01*
X345209Y240048D01*
X345221Y240019D01*
X345226Y239987D01*
X345269Y239906D01*
X345305Y239822D01*
X345331Y239790D01*
X345342Y239769D01*
X345365Y239747D01*
X345410Y239691D01*
X348207Y236894D01*
X348207Y232498D01*
X345098Y229389D01*
X340702Y229389D01*
X337593Y232498D01*
X337593Y236894D01*
X340390Y239691D01*
X340443Y239765D01*
X340503Y239835D01*
X340515Y239865D01*
X340534Y239891D01*
X340561Y239978D01*
X340595Y240063D01*
X340599Y240104D01*
X340606Y240126D01*
X340605Y240158D01*
X340613Y240229D01*
X340613Y246311D01*
X349573Y255271D01*
X407169Y255271D01*
X407260Y255285D01*
X407350Y255293D01*
X407380Y255305D01*
X407412Y255310D01*
X407493Y255353D01*
X407577Y255389D01*
X407609Y255415D01*
X407630Y255426D01*
X407641Y255437D01*
X407642Y255438D01*
X407654Y255451D01*
X407708Y255494D01*
X419638Y267424D01*
X419691Y267498D01*
X419751Y267568D01*
X419763Y267598D01*
X419782Y267624D01*
X419809Y267711D01*
X419843Y267796D01*
X419847Y267837D01*
X419854Y267859D01*
X419853Y267891D01*
X419861Y267963D01*
X419861Y576074D01*
X419858Y576094D01*
X419860Y576113D01*
X419838Y576215D01*
X419822Y576317D01*
X419812Y576334D01*
X419808Y576354D01*
X419755Y576443D01*
X419706Y576534D01*
X419692Y576548D01*
X419682Y576565D01*
X419603Y576632D01*
X419528Y576704D01*
X419510Y576712D01*
X419495Y576725D01*
X419399Y576764D01*
X419305Y576807D01*
X419285Y576809D01*
X419267Y576817D01*
X419100Y576835D01*
X413008Y576835D01*
X412115Y577728D01*
X412115Y591992D01*
X413008Y592885D01*
X430272Y592885D01*
X431165Y591992D01*
X431165Y577728D01*
X430272Y576835D01*
X425196Y576835D01*
X425176Y576832D01*
X425157Y576834D01*
X425055Y576812D01*
X424953Y576796D01*
X424936Y576786D01*
X424916Y576782D01*
X424827Y576729D01*
X424736Y576680D01*
X424722Y576666D01*
X424705Y576656D01*
X424638Y576577D01*
X424566Y576502D01*
X424558Y576484D01*
X424545Y576469D01*
X424506Y576373D01*
X424463Y576279D01*
X424461Y576259D01*
X424453Y576241D01*
X424435Y576074D01*
X424435Y265753D01*
X412204Y253522D01*
X412193Y253506D01*
X412177Y253494D01*
X412147Y253447D01*
X412128Y253428D01*
X412114Y253397D01*
X412061Y253323D01*
X412055Y253304D01*
X412044Y253287D01*
X412019Y253186D01*
X411988Y253087D01*
X411989Y253068D01*
X411984Y253048D01*
X411992Y252945D01*
X411995Y252842D01*
X412002Y252823D01*
X412003Y252803D01*
X412043Y252708D01*
X412079Y252611D01*
X412092Y252595D01*
X412099Y252577D01*
X412204Y252446D01*
X420114Y244536D01*
X420172Y244494D01*
X420224Y244445D01*
X420271Y244423D01*
X420313Y244393D01*
X420382Y244372D01*
X420447Y244341D01*
X420499Y244336D01*
X420549Y244320D01*
X420620Y244322D01*
X420691Y244314D01*
X420742Y244325D01*
X420794Y244327D01*
X420862Y244351D01*
X420932Y244366D01*
X420976Y244393D01*
X421025Y244411D01*
X421081Y244456D01*
X421143Y244493D01*
X421177Y244532D01*
X421217Y244565D01*
X421256Y244625D01*
X421303Y244680D01*
X421322Y244728D01*
X421350Y244772D01*
X421368Y244841D01*
X421395Y244908D01*
X421403Y244979D01*
X421411Y245010D01*
X421409Y245034D01*
X421413Y245074D01*
X421413Y246038D01*
X424522Y249147D01*
X428918Y249147D01*
X430782Y247283D01*
X430840Y247241D01*
X430892Y247192D01*
X430939Y247170D01*
X430981Y247140D01*
X431050Y247118D01*
X431115Y247088D01*
X431167Y247083D01*
X431217Y247067D01*
X431288Y247069D01*
X431359Y247061D01*
X431410Y247072D01*
X431462Y247074D01*
X431530Y247098D01*
X431600Y247113D01*
X431645Y247140D01*
X431693Y247158D01*
X431749Y247203D01*
X431811Y247240D01*
X431845Y247279D01*
X431885Y247312D01*
X431924Y247372D01*
X431971Y247427D01*
X431988Y247469D01*
X434878Y250359D01*
X434931Y250433D01*
X434991Y250503D01*
X435003Y250533D01*
X435022Y250559D01*
X435049Y250646D01*
X435083Y250731D01*
X435087Y250772D01*
X435094Y250794D01*
X435093Y250826D01*
X435101Y250897D01*
X435101Y256034D01*
X435098Y256054D01*
X435100Y256073D01*
X435078Y256175D01*
X435062Y256277D01*
X435052Y256294D01*
X435048Y256314D01*
X434995Y256403D01*
X434946Y256494D01*
X434932Y256508D01*
X434922Y256525D01*
X434843Y256592D01*
X434768Y256664D01*
X434750Y256672D01*
X434735Y256685D01*
X434639Y256724D01*
X434545Y256767D01*
X434525Y256769D01*
X434507Y256777D01*
X434340Y256795D01*
X428748Y256795D01*
X427855Y257688D01*
X427855Y271952D01*
X428748Y272845D01*
X445012Y272845D01*
X445905Y271952D01*
X445905Y271144D01*
X445916Y271074D01*
X445918Y271002D01*
X445936Y270953D01*
X445944Y270902D01*
X445978Y270838D01*
X446003Y270771D01*
X446035Y270730D01*
X446060Y270684D01*
X446112Y270635D01*
X446156Y270579D01*
X446200Y270551D01*
X446238Y270515D01*
X446303Y270485D01*
X446363Y270446D01*
X446414Y270433D01*
X446461Y270411D01*
X446532Y270403D01*
X446602Y270386D01*
X446654Y270390D01*
X446705Y270384D01*
X446776Y270399D01*
X446847Y270405D01*
X446895Y270425D01*
X446946Y270436D01*
X447007Y270473D01*
X447073Y270501D01*
X447129Y270546D01*
X447157Y270563D01*
X447172Y270580D01*
X447204Y270606D01*
X448594Y271996D01*
X448647Y272070D01*
X448707Y272140D01*
X448719Y272170D01*
X448738Y272196D01*
X448765Y272283D01*
X448799Y272368D01*
X448803Y272409D01*
X448810Y272431D01*
X448809Y272463D01*
X448817Y272535D01*
X448817Y292870D01*
X448803Y292960D01*
X448795Y293051D01*
X448783Y293080D01*
X448778Y293112D01*
X448735Y293193D01*
X448699Y293277D01*
X448673Y293309D01*
X448662Y293330D01*
X448639Y293352D01*
X448594Y293408D01*
X437170Y304832D01*
X437096Y304885D01*
X437026Y304945D01*
X436996Y304957D01*
X436970Y304976D01*
X436883Y305003D01*
X436798Y305037D01*
X436757Y305041D01*
X436735Y305048D01*
X436703Y305047D01*
X436632Y305055D01*
X428748Y305055D01*
X427855Y305948D01*
X427855Y320212D01*
X428748Y321105D01*
X445012Y321105D01*
X445905Y320212D01*
X445905Y305948D01*
X444934Y304977D01*
X444879Y304957D01*
X444838Y304925D01*
X444792Y304900D01*
X444743Y304849D01*
X444687Y304804D01*
X444659Y304760D01*
X444623Y304722D01*
X444593Y304657D01*
X444554Y304597D01*
X444541Y304546D01*
X444519Y304499D01*
X444511Y304428D01*
X444494Y304358D01*
X444498Y304306D01*
X444492Y304255D01*
X444507Y304184D01*
X444513Y304113D01*
X444533Y304065D01*
X444544Y304014D01*
X444581Y303953D01*
X444609Y303887D01*
X444654Y303831D01*
X444671Y303803D01*
X444688Y303788D01*
X444714Y303756D01*
X450566Y297904D01*
X450582Y297893D01*
X450594Y297877D01*
X450682Y297821D01*
X450765Y297761D01*
X450784Y297755D01*
X450801Y297744D01*
X450902Y297719D01*
X451001Y297688D01*
X451020Y297689D01*
X451040Y297684D01*
X451143Y297692D01*
X451246Y297695D01*
X451265Y297702D01*
X451285Y297703D01*
X451380Y297743D01*
X451477Y297779D01*
X451493Y297792D01*
X451511Y297799D01*
X451642Y297904D01*
X492829Y339091D01*
X548901Y339091D01*
X548992Y339105D01*
X549082Y339113D01*
X549112Y339125D01*
X549144Y339130D01*
X549225Y339173D01*
X549309Y339209D01*
X549341Y339235D01*
X549362Y339246D01*
X549384Y339269D01*
X549440Y339314D01*
X570142Y360016D01*
X570184Y360074D01*
X570233Y360126D01*
X570255Y360173D01*
X570285Y360215D01*
X570306Y360284D01*
X570337Y360349D01*
X570342Y360401D01*
X570358Y360451D01*
X570356Y360522D01*
X570364Y360593D01*
X570353Y360644D01*
X570351Y360696D01*
X570327Y360764D01*
X570312Y360834D01*
X570285Y360879D01*
X570267Y360927D01*
X570222Y360983D01*
X570185Y361045D01*
X570146Y361079D01*
X570113Y361119D01*
X570053Y361158D01*
X569998Y361205D01*
X569950Y361224D01*
X569906Y361252D01*
X569837Y361270D01*
X569770Y361297D01*
X569699Y361305D01*
X569668Y361313D01*
X569644Y361311D01*
X569604Y361315D01*
X568788Y361315D01*
X567895Y362208D01*
X567895Y379472D01*
X568828Y380404D01*
X568830Y380404D01*
X568894Y380438D01*
X568961Y380463D01*
X569002Y380495D01*
X569048Y380520D01*
X569097Y380572D01*
X569153Y380616D01*
X569181Y380660D01*
X569217Y380698D01*
X569247Y380763D01*
X569286Y380823D01*
X569299Y380874D01*
X569321Y380921D01*
X569329Y380992D01*
X569346Y381062D01*
X569342Y381114D01*
X569348Y381165D01*
X569333Y381236D01*
X569327Y381307D01*
X569307Y381355D01*
X569296Y381406D01*
X569259Y381467D01*
X569231Y381533D01*
X569213Y381555D01*
X569213Y419361D01*
X569199Y419452D01*
X569191Y419542D01*
X569179Y419572D01*
X569174Y419604D01*
X569131Y419685D01*
X569095Y419769D01*
X569069Y419801D01*
X569058Y419822D01*
X569035Y419844D01*
X568990Y419900D01*
X482618Y506273D01*
X482524Y506340D01*
X482429Y506411D01*
X482423Y506413D01*
X482418Y506416D01*
X482307Y506450D01*
X482195Y506487D01*
X482189Y506487D01*
X482183Y506488D01*
X482066Y506485D01*
X481949Y506484D01*
X481942Y506482D01*
X481937Y506482D01*
X481920Y506476D01*
X481918Y506475D01*
X478241Y506475D01*
X474880Y507867D01*
X472307Y510440D01*
X470915Y513801D01*
X470915Y532679D01*
X472307Y536040D01*
X474880Y538613D01*
X478241Y540005D01*
X481879Y540005D01*
X485240Y538613D01*
X487813Y536040D01*
X489205Y532679D01*
X489205Y513801D01*
X487813Y510440D01*
X486904Y509531D01*
X486892Y509515D01*
X486876Y509502D01*
X486820Y509415D01*
X486760Y509331D01*
X486754Y509312D01*
X486743Y509295D01*
X486718Y509195D01*
X486688Y509096D01*
X486688Y509076D01*
X486683Y509057D01*
X486691Y508954D01*
X486694Y508850D01*
X486701Y508831D01*
X486702Y508812D01*
X486743Y508717D01*
X486778Y508619D01*
X486791Y508604D01*
X486799Y508585D01*
X486904Y508454D01*
X573787Y421571D01*
X573787Y406345D01*
X573798Y406275D01*
X573800Y406203D01*
X573818Y406154D01*
X573826Y406103D01*
X573860Y406039D01*
X573885Y405972D01*
X573917Y405931D01*
X573942Y405885D01*
X573994Y405836D01*
X574038Y405780D01*
X574082Y405752D01*
X574120Y405716D01*
X574185Y405686D01*
X574245Y405647D01*
X574296Y405634D01*
X574343Y405612D01*
X574414Y405604D01*
X574484Y405587D01*
X574536Y405591D01*
X574587Y405585D01*
X574658Y405600D01*
X574729Y405606D01*
X574777Y405626D01*
X574828Y405637D01*
X574889Y405674D01*
X574955Y405702D01*
X575011Y405747D01*
X575039Y405764D01*
X575054Y405781D01*
X575086Y405807D01*
X576922Y407643D01*
X581318Y407643D01*
X584115Y404846D01*
X584189Y404793D01*
X584259Y404733D01*
X584289Y404721D01*
X584315Y404702D01*
X584402Y404675D01*
X584487Y404641D01*
X584528Y404637D01*
X584550Y404630D01*
X584582Y404631D01*
X584653Y404623D01*
X594621Y404623D01*
X594712Y404637D01*
X594802Y404645D01*
X594832Y404657D01*
X594864Y404662D01*
X594945Y404705D01*
X595029Y404741D01*
X595061Y404767D01*
X595082Y404778D01*
X595104Y404801D01*
X595160Y404846D01*
X628465Y438151D01*
X634492Y438151D01*
X634512Y438154D01*
X634531Y438152D01*
X634633Y438174D01*
X634735Y438190D01*
X634752Y438200D01*
X634772Y438204D01*
X634861Y438257D01*
X634952Y438306D01*
X634966Y438320D01*
X634983Y438330D01*
X635050Y438409D01*
X635122Y438484D01*
X635130Y438502D01*
X635143Y438517D01*
X635182Y438613D01*
X635225Y438707D01*
X635227Y438727D01*
X635235Y438745D01*
X635244Y438828D01*
X636761Y442492D01*
X639548Y445279D01*
X643189Y446787D01*
X647131Y446787D01*
X650772Y445279D01*
X653559Y442492D01*
X655067Y438851D01*
X655067Y434909D01*
X653559Y431268D01*
X650772Y428481D01*
X647131Y426973D01*
X643189Y426973D01*
X639548Y428481D01*
X636761Y431268D01*
X636000Y433107D01*
X635938Y433207D01*
X635878Y433307D01*
X635873Y433311D01*
X635870Y433316D01*
X635780Y433391D01*
X635691Y433467D01*
X635685Y433469D01*
X635681Y433473D01*
X635572Y433515D01*
X635463Y433559D01*
X635456Y433560D01*
X635451Y433561D01*
X635433Y433562D01*
X635296Y433577D01*
X630675Y433577D01*
X630584Y433563D01*
X630494Y433555D01*
X630464Y433543D01*
X630432Y433538D01*
X630351Y433495D01*
X630267Y433459D01*
X630235Y433433D01*
X630214Y433422D01*
X630192Y433399D01*
X630136Y433354D01*
X596831Y400049D01*
X584653Y400049D01*
X584563Y400035D01*
X584472Y400027D01*
X584443Y400015D01*
X584411Y400010D01*
X584330Y399967D01*
X584246Y399931D01*
X584214Y399905D01*
X584193Y399894D01*
X584171Y399871D01*
X584115Y399826D01*
X581318Y397029D01*
X576922Y397029D01*
X575086Y398865D01*
X575028Y398907D01*
X574976Y398956D01*
X574929Y398978D01*
X574887Y399008D01*
X574818Y399030D01*
X574753Y399060D01*
X574701Y399065D01*
X574651Y399081D01*
X574580Y399079D01*
X574509Y399087D01*
X574458Y399076D01*
X574406Y399074D01*
X574338Y399050D01*
X574268Y399035D01*
X574223Y399008D01*
X574175Y398990D01*
X574119Y398945D01*
X574057Y398908D01*
X574023Y398869D01*
X573983Y398836D01*
X573944Y398776D01*
X573897Y398721D01*
X573878Y398673D01*
X573850Y398629D01*
X573832Y398560D01*
X573805Y398493D01*
X573797Y398422D01*
X573789Y398391D01*
X573791Y398368D01*
X573787Y398327D01*
X573787Y383787D01*
X573801Y383696D01*
X573809Y383606D01*
X573821Y383576D01*
X573826Y383544D01*
X573869Y383463D01*
X573905Y383379D01*
X573931Y383347D01*
X573942Y383326D01*
X573965Y383304D01*
X574010Y383248D01*
X576670Y380588D01*
X576744Y380535D01*
X576814Y380475D01*
X576844Y380463D01*
X576870Y380444D01*
X576957Y380417D01*
X577042Y380383D01*
X577083Y380379D01*
X577105Y380372D01*
X577137Y380373D01*
X577209Y380365D01*
X583052Y380365D01*
X583945Y379472D01*
X583945Y362208D01*
X583052Y361315D01*
X577596Y361315D01*
X577576Y361312D01*
X577557Y361314D01*
X577455Y361292D01*
X577353Y361276D01*
X577336Y361266D01*
X577316Y361262D01*
X577227Y361209D01*
X577136Y361160D01*
X577122Y361146D01*
X577105Y361136D01*
X577038Y361057D01*
X576966Y360982D01*
X576958Y360964D01*
X576945Y360949D01*
X576906Y360853D01*
X576863Y360759D01*
X576861Y360739D01*
X576853Y360721D01*
X576835Y360554D01*
X576835Y360241D01*
X576796Y360202D01*
X576754Y360144D01*
X576705Y360092D01*
X576683Y360045D01*
X576653Y360003D01*
X576632Y359934D01*
X576601Y359869D01*
X576596Y359817D01*
X576580Y359767D01*
X576582Y359696D01*
X576574Y359625D01*
X576585Y359574D01*
X576587Y359522D01*
X576611Y359454D01*
X576626Y359384D01*
X576653Y359339D01*
X576671Y359291D01*
X576716Y359235D01*
X576753Y359173D01*
X576792Y359139D01*
X576825Y359099D01*
X576885Y359060D01*
X576940Y359013D01*
X576988Y358994D01*
X577032Y358966D01*
X577101Y358948D01*
X577168Y358921D01*
X577239Y358913D01*
X577270Y358905D01*
X577294Y358907D01*
X577334Y358903D01*
X583953Y358903D01*
X584044Y358917D01*
X584134Y358925D01*
X584164Y358937D01*
X584196Y358942D01*
X584277Y358985D01*
X584361Y359021D01*
X584393Y359047D01*
X584414Y359058D01*
X584436Y359081D01*
X584492Y359126D01*
X635030Y409664D01*
X635083Y409738D01*
X635143Y409808D01*
X635155Y409838D01*
X635174Y409864D01*
X635201Y409951D01*
X635235Y410036D01*
X635239Y410077D01*
X635246Y410099D01*
X635245Y410131D01*
X635253Y410203D01*
X635253Y413451D01*
X636761Y417092D01*
X639548Y419879D01*
X643189Y421387D01*
X647131Y421387D01*
X650772Y419879D01*
X653559Y417092D01*
X655067Y413451D01*
X655067Y409509D01*
X653559Y405868D01*
X650772Y403081D01*
X647131Y401573D01*
X643189Y401573D01*
X639548Y403081D01*
X637770Y404860D01*
X637754Y404871D01*
X637742Y404887D01*
X637654Y404943D01*
X637570Y405003D01*
X637551Y405009D01*
X637535Y405020D01*
X637434Y405045D01*
X637335Y405076D01*
X637315Y405075D01*
X637296Y405080D01*
X637193Y405072D01*
X637089Y405069D01*
X637071Y405062D01*
X637051Y405061D01*
X636956Y405020D01*
X636858Y404985D01*
X636843Y404972D01*
X636825Y404964D01*
X636694Y404860D01*
X586163Y354329D01*
X575811Y354329D01*
X575720Y354315D01*
X575630Y354307D01*
X575600Y354295D01*
X575568Y354290D01*
X575487Y354247D01*
X575403Y354211D01*
X575371Y354185D01*
X575350Y354174D01*
X575328Y354151D01*
X575272Y354106D01*
X554190Y333024D01*
X554148Y332966D01*
X554099Y332914D01*
X554077Y332867D01*
X554047Y332825D01*
X554026Y332756D01*
X553995Y332691D01*
X553990Y332639D01*
X553974Y332589D01*
X553976Y332518D01*
X553968Y332447D01*
X553979Y332396D01*
X553981Y332344D01*
X554005Y332276D01*
X554020Y332206D01*
X554047Y332161D01*
X554065Y332113D01*
X554110Y332057D01*
X554147Y331995D01*
X554186Y331961D01*
X554219Y331921D01*
X554279Y331882D01*
X554334Y331835D01*
X554382Y331816D01*
X554426Y331788D01*
X554495Y331770D01*
X554562Y331743D01*
X554633Y331735D01*
X554664Y331727D01*
X554688Y331729D01*
X554728Y331725D01*
X565699Y331725D01*
X569060Y330333D01*
X571633Y327760D01*
X573025Y324399D01*
X573025Y320761D01*
X571633Y317400D01*
X569060Y314827D01*
X565699Y313435D01*
X546821Y313435D01*
X543460Y314827D01*
X540887Y317400D01*
X539495Y320761D01*
X539495Y324399D01*
X540887Y327760D01*
X543297Y330170D01*
X543339Y330228D01*
X543388Y330280D01*
X543410Y330327D01*
X543441Y330369D01*
X543462Y330438D01*
X543492Y330503D01*
X543498Y330555D01*
X543513Y330605D01*
X543511Y330676D01*
X543519Y330747D01*
X543508Y330798D01*
X543507Y330850D01*
X543482Y330918D01*
X543467Y330988D01*
X543440Y331033D01*
X543422Y331081D01*
X543377Y331137D01*
X543341Y331199D01*
X543301Y331233D01*
X543269Y331273D01*
X543208Y331312D01*
X543154Y331359D01*
X543105Y331378D01*
X543062Y331406D01*
X542992Y331424D01*
X542926Y331451D01*
X542854Y331459D01*
X542823Y331467D01*
X542800Y331465D01*
X542759Y331469D01*
X528800Y331469D01*
X528780Y331466D01*
X528761Y331468D01*
X528659Y331446D01*
X528557Y331430D01*
X528540Y331420D01*
X528520Y331416D01*
X528431Y331363D01*
X528340Y331314D01*
X528326Y331300D01*
X528309Y331290D01*
X528242Y331211D01*
X528170Y331136D01*
X528162Y331118D01*
X528149Y331103D01*
X528110Y331007D01*
X528067Y330913D01*
X528065Y330893D01*
X528057Y330875D01*
X528039Y330708D01*
X528039Y328510D01*
X524930Y325401D01*
X520534Y325401D01*
X517425Y328510D01*
X517425Y332906D01*
X517737Y333218D01*
X517779Y333276D01*
X517828Y333328D01*
X517850Y333375D01*
X517880Y333417D01*
X517902Y333486D01*
X517932Y333551D01*
X517937Y333603D01*
X517953Y333653D01*
X517951Y333724D01*
X517959Y333795D01*
X517948Y333846D01*
X517946Y333898D01*
X517922Y333966D01*
X517907Y334036D01*
X517880Y334081D01*
X517862Y334129D01*
X517817Y334185D01*
X517780Y334247D01*
X517741Y334281D01*
X517708Y334321D01*
X517648Y334360D01*
X517593Y334407D01*
X517545Y334426D01*
X517501Y334454D01*
X517432Y334472D01*
X517365Y334499D01*
X517294Y334507D01*
X517263Y334515D01*
X517240Y334513D01*
X517199Y334517D01*
X495039Y334517D01*
X494948Y334503D01*
X494858Y334495D01*
X494828Y334483D01*
X494796Y334478D01*
X494715Y334435D01*
X494631Y334399D01*
X494599Y334373D01*
X494578Y334362D01*
X494556Y334339D01*
X494500Y334294D01*
X453614Y293408D01*
X453561Y293334D01*
X453501Y293264D01*
X453489Y293234D01*
X453470Y293208D01*
X453443Y293121D01*
X453409Y293036D01*
X453405Y292995D01*
X453398Y292973D01*
X453399Y292941D01*
X453391Y292870D01*
X453391Y270325D01*
X446128Y263062D01*
X446075Y262988D01*
X446015Y262918D01*
X446003Y262888D01*
X445984Y262862D01*
X445957Y262775D01*
X445923Y262690D01*
X445919Y262649D01*
X445912Y262627D01*
X445913Y262595D01*
X445905Y262523D01*
X445905Y257688D01*
X445012Y256795D01*
X440436Y256795D01*
X440416Y256792D01*
X440397Y256794D01*
X440295Y256772D01*
X440193Y256756D01*
X440176Y256746D01*
X440156Y256742D01*
X440067Y256689D01*
X439976Y256640D01*
X439962Y256626D01*
X439945Y256616D01*
X439878Y256537D01*
X439806Y256462D01*
X439798Y256444D01*
X439785Y256429D01*
X439746Y256333D01*
X439703Y256239D01*
X439701Y256219D01*
X439693Y256201D01*
X439675Y256034D01*
X439675Y250897D01*
X439689Y250807D01*
X439697Y250716D01*
X439709Y250687D01*
X439714Y250655D01*
X439757Y250574D01*
X439793Y250490D01*
X439819Y250458D01*
X439830Y250437D01*
X439853Y250415D01*
X439898Y250359D01*
X442695Y247562D01*
X442695Y243166D01*
X442383Y242854D01*
X442341Y242796D01*
X442292Y242744D01*
X442270Y242697D01*
X442240Y242655D01*
X442218Y242586D01*
X442188Y242521D01*
X442183Y242469D01*
X442167Y242419D01*
X442169Y242348D01*
X442161Y242277D01*
X442172Y242226D01*
X442174Y242174D01*
X442198Y242106D01*
X442213Y242036D01*
X442240Y241991D01*
X442258Y241943D01*
X442303Y241887D01*
X442340Y241825D01*
X442379Y241791D01*
X442412Y241751D01*
X442472Y241712D01*
X442527Y241665D01*
X442575Y241646D01*
X442619Y241618D01*
X442688Y241600D01*
X442755Y241573D01*
X442826Y241565D01*
X442857Y241557D01*
X442880Y241559D01*
X442921Y241555D01*
X524517Y241555D01*
X524608Y241569D01*
X524698Y241577D01*
X524728Y241589D01*
X524760Y241594D01*
X524841Y241637D01*
X524925Y241673D01*
X524957Y241699D01*
X524978Y241710D01*
X525000Y241733D01*
X525002Y241735D01*
X525004Y241736D01*
X525005Y241737D01*
X525056Y241778D01*
X620806Y337528D01*
X620859Y337602D01*
X620919Y337672D01*
X620931Y337702D01*
X620950Y337728D01*
X620977Y337815D01*
X621011Y337900D01*
X621015Y337941D01*
X621022Y337963D01*
X621021Y337995D01*
X621029Y338067D01*
X621029Y345371D01*
X635030Y359372D01*
X635083Y359446D01*
X635143Y359516D01*
X635155Y359546D01*
X635174Y359572D01*
X635201Y359659D01*
X635235Y359744D01*
X635239Y359785D01*
X635246Y359807D01*
X635245Y359839D01*
X635253Y359911D01*
X635253Y362651D01*
X636761Y366292D01*
X639548Y369079D01*
X643189Y370587D01*
X647131Y370587D01*
X650772Y369079D01*
X653559Y366292D01*
X655067Y362651D01*
X655067Y358709D01*
X653559Y355068D01*
X650772Y352281D01*
X647131Y350773D01*
X643189Y350773D01*
X639548Y352281D01*
X637516Y354314D01*
X637500Y354325D01*
X637487Y354341D01*
X637400Y354397D01*
X637316Y354457D01*
X637297Y354463D01*
X637281Y354474D01*
X637180Y354499D01*
X637081Y354530D01*
X637061Y354529D01*
X637042Y354534D01*
X636939Y354526D01*
X636835Y354523D01*
X636817Y354516D01*
X636797Y354515D01*
X636702Y354474D01*
X636604Y354439D01*
X636589Y354426D01*
X636571Y354418D01*
X636440Y354314D01*
X625826Y343700D01*
X625773Y343626D01*
X625713Y343556D01*
X625701Y343526D01*
X625682Y343500D01*
X625655Y343413D01*
X625621Y343328D01*
X625617Y343287D01*
X625610Y343265D01*
X625611Y343233D01*
X625603Y343161D01*
X625603Y335857D01*
X526727Y236981D01*
X433393Y236981D01*
X431830Y238544D01*
X430918Y239456D01*
X430902Y239468D01*
X430889Y239484D01*
X430802Y239540D01*
X430718Y239600D01*
X430699Y239606D01*
X430682Y239617D01*
X430582Y239642D01*
X430483Y239672D01*
X430463Y239672D01*
X430444Y239677D01*
X430341Y239669D01*
X430237Y239666D01*
X430218Y239659D01*
X430198Y239657D01*
X430104Y239617D01*
X430006Y239581D01*
X429990Y239569D01*
X429972Y239561D01*
X429841Y239456D01*
X428918Y238533D01*
X427954Y238533D01*
X427884Y238522D01*
X427812Y238520D01*
X427763Y238502D01*
X427712Y238494D01*
X427648Y238460D01*
X427581Y238435D01*
X427540Y238403D01*
X427494Y238378D01*
X427445Y238326D01*
X427389Y238282D01*
X427361Y238238D01*
X427325Y238200D01*
X427295Y238135D01*
X427256Y238075D01*
X427243Y238024D01*
X427221Y237977D01*
X427213Y237906D01*
X427196Y237836D01*
X427200Y237784D01*
X427194Y237733D01*
X427209Y237662D01*
X427215Y237591D01*
X427235Y237543D01*
X427246Y237492D01*
X427283Y237431D01*
X427311Y237365D01*
X427356Y237309D01*
X427373Y237281D01*
X427390Y237266D01*
X427416Y237234D01*
X442684Y221966D01*
X442758Y221913D01*
X442828Y221853D01*
X442858Y221841D01*
X442884Y221822D01*
X442971Y221795D01*
X443056Y221761D01*
X443097Y221757D01*
X443119Y221750D01*
X443151Y221751D01*
X443223Y221743D01*
X619691Y221743D01*
X628612Y212822D01*
X628686Y212769D01*
X628756Y212709D01*
X628786Y212697D01*
X628812Y212678D01*
X628899Y212651D01*
X628984Y212617D01*
X629025Y212613D01*
X629047Y212606D01*
X629079Y212607D01*
X629151Y212599D01*
X630359Y212599D01*
X631660Y211298D01*
X631734Y211245D01*
X631804Y211185D01*
X631834Y211173D01*
X631860Y211154D01*
X631947Y211127D01*
X632032Y211093D01*
X632073Y211089D01*
X632095Y211082D01*
X632127Y211083D01*
X632199Y211075D01*
X635086Y211075D01*
X635201Y211094D01*
X635317Y211111D01*
X635323Y211113D01*
X635329Y211114D01*
X635431Y211169D01*
X635536Y211222D01*
X635541Y211227D01*
X635546Y211230D01*
X635626Y211314D01*
X635708Y211398D01*
X635712Y211404D01*
X635715Y211408D01*
X635723Y211425D01*
X635789Y211545D01*
X636761Y213892D01*
X639548Y216679D01*
X643189Y218187D01*
X647131Y218187D01*
X650772Y216679D01*
X653559Y213892D01*
X655067Y210251D01*
X655067Y206309D01*
X653559Y202668D01*
X650772Y199881D01*
X647131Y198373D01*
X643189Y198373D01*
X639548Y199881D01*
X636761Y202668D01*
X635368Y206031D01*
X635307Y206131D01*
X635247Y206231D01*
X635242Y206235D01*
X635239Y206240D01*
X635149Y206315D01*
X635060Y206391D01*
X635054Y206393D01*
X635049Y206397D01*
X634941Y206439D01*
X634832Y206483D01*
X634824Y206484D01*
X634820Y206485D01*
X634801Y206486D01*
X634665Y206501D01*
X629989Y206501D01*
X628688Y207802D01*
X628614Y207855D01*
X628544Y207915D01*
X628514Y207927D01*
X628488Y207946D01*
X628401Y207973D01*
X628316Y208007D01*
X628275Y208011D01*
X628253Y208018D01*
X628221Y208017D01*
X628149Y208025D01*
X626941Y208025D01*
X618020Y216946D01*
X617946Y216999D01*
X617876Y217059D01*
X617846Y217071D01*
X617820Y217090D01*
X617733Y217117D01*
X617648Y217151D01*
X617607Y217155D01*
X617585Y217162D01*
X617553Y217161D01*
X617481Y217169D01*
X441013Y217169D01*
X407708Y250474D01*
X407634Y250527D01*
X407564Y250587D01*
X407534Y250599D01*
X407508Y250618D01*
X407421Y250645D01*
X407336Y250679D01*
X407295Y250683D01*
X407273Y250690D01*
X407241Y250689D01*
X407169Y250697D01*
X359101Y250697D01*
X359031Y250686D01*
X358959Y250684D01*
X358910Y250666D01*
X358859Y250658D01*
X358795Y250624D01*
X358728Y250599D01*
X358687Y250567D01*
X358641Y250542D01*
X358592Y250490D01*
X358536Y250446D01*
X358508Y250402D01*
X358472Y250364D01*
X358442Y250299D01*
X358403Y250239D01*
X358390Y250188D01*
X358368Y250141D01*
X358360Y250070D01*
X358343Y250000D01*
X358347Y249948D01*
X358341Y249897D01*
X358356Y249826D01*
X358362Y249755D01*
X358382Y249707D01*
X358393Y249656D01*
X358430Y249595D01*
X358458Y249529D01*
X358503Y249473D01*
X358520Y249445D01*
X358537Y249430D01*
X358563Y249398D01*
X358875Y249086D01*
X358875Y245131D01*
X358889Y245040D01*
X358897Y244950D01*
X358909Y244920D01*
X358914Y244888D01*
X358957Y244807D01*
X358993Y244723D01*
X359019Y244691D01*
X359030Y244670D01*
X359053Y244648D01*
X359098Y244592D01*
X360427Y243263D01*
X360427Y114013D01*
X350488Y104074D01*
X350435Y104000D01*
X350375Y103930D01*
X350363Y103900D01*
X350344Y103874D01*
X350317Y103787D01*
X350283Y103702D01*
X350279Y103661D01*
X350272Y103639D01*
X350273Y103607D01*
X350265Y103535D01*
X350265Y90428D01*
X349372Y89535D01*
X335108Y89535D01*
G37*
%LPD*%
%LPC*%
G36*
X33589Y134873D02*
X33589Y134873D01*
X29948Y136381D01*
X27161Y139168D01*
X25653Y142809D01*
X25653Y146751D01*
X27161Y150392D01*
X29948Y153179D01*
X33589Y154687D01*
X37531Y154687D01*
X41172Y153179D01*
X43959Y150392D01*
X45141Y147537D01*
X45203Y147437D01*
X45263Y147337D01*
X45267Y147333D01*
X45271Y147328D01*
X45361Y147253D01*
X45450Y147177D01*
X45455Y147175D01*
X45460Y147171D01*
X45569Y147129D01*
X45678Y147085D01*
X45685Y147084D01*
X45690Y147083D01*
X45708Y147082D01*
X45844Y147067D01*
X49030Y147067D01*
X49120Y147081D01*
X49211Y147089D01*
X49240Y147101D01*
X49272Y147106D01*
X49353Y147149D01*
X49437Y147185D01*
X49469Y147211D01*
X49490Y147222D01*
X49512Y147245D01*
X49568Y147290D01*
X99637Y197359D01*
X254769Y197359D01*
X254860Y197373D01*
X254950Y197381D01*
X254980Y197393D01*
X255012Y197398D01*
X255093Y197441D01*
X255177Y197477D01*
X255209Y197503D01*
X255230Y197514D01*
X255252Y197537D01*
X255308Y197582D01*
X259908Y202182D01*
X259950Y202240D01*
X259999Y202292D01*
X260021Y202339D01*
X260051Y202381D01*
X260072Y202450D01*
X260103Y202515D01*
X260108Y202567D01*
X260124Y202617D01*
X260122Y202688D01*
X260130Y202759D01*
X260119Y202810D01*
X260117Y202862D01*
X260093Y202930D01*
X260078Y203000D01*
X260051Y203045D01*
X260033Y203093D01*
X259988Y203149D01*
X259951Y203211D01*
X259912Y203245D01*
X259879Y203285D01*
X259819Y203324D01*
X259764Y203371D01*
X259716Y203390D01*
X259672Y203418D01*
X259603Y203436D01*
X259536Y203463D01*
X259465Y203471D01*
X259434Y203479D01*
X259410Y203477D01*
X259370Y203481D01*
X258406Y203481D01*
X256704Y205183D01*
X256646Y205225D01*
X256594Y205274D01*
X256547Y205296D01*
X256505Y205326D01*
X256436Y205348D01*
X256371Y205378D01*
X256319Y205383D01*
X256269Y205399D01*
X256198Y205397D01*
X256127Y205405D01*
X256076Y205394D01*
X256024Y205392D01*
X255956Y205368D01*
X255886Y205353D01*
X255841Y205326D01*
X255793Y205308D01*
X255737Y205263D01*
X255675Y205226D01*
X255641Y205187D01*
X255601Y205154D01*
X255562Y205094D01*
X255515Y205039D01*
X255496Y204991D01*
X255468Y204947D01*
X255450Y204878D01*
X255423Y204811D01*
X255415Y204740D01*
X255407Y204709D01*
X255409Y204686D01*
X255405Y204645D01*
X255405Y201808D01*
X254512Y200915D01*
X238248Y200915D01*
X237355Y201808D01*
X237355Y207264D01*
X237352Y207284D01*
X237354Y207303D01*
X237332Y207405D01*
X237316Y207507D01*
X237306Y207524D01*
X237302Y207544D01*
X237249Y207633D01*
X237200Y207724D01*
X237186Y207738D01*
X237176Y207755D01*
X237097Y207822D01*
X237022Y207894D01*
X237004Y207902D01*
X236989Y207915D01*
X236893Y207954D01*
X236847Y207975D01*
X203453Y241369D01*
X203453Y278894D01*
X203451Y278909D01*
X203452Y278921D01*
X203451Y278926D01*
X203452Y278933D01*
X203430Y279035D01*
X203414Y279137D01*
X203404Y279154D01*
X203400Y279174D01*
X203347Y279263D01*
X203298Y279354D01*
X203284Y279368D01*
X203274Y279385D01*
X203195Y279452D01*
X203120Y279524D01*
X203102Y279532D01*
X203087Y279545D01*
X202991Y279584D01*
X202897Y279627D01*
X202877Y279629D01*
X202859Y279637D01*
X202692Y279655D01*
X192528Y279655D01*
X191635Y280548D01*
X191635Y281940D01*
X191633Y281954D01*
X191634Y281966D01*
X191633Y281971D01*
X191634Y281979D01*
X191612Y282081D01*
X191596Y282183D01*
X191586Y282200D01*
X191582Y282220D01*
X191529Y282309D01*
X191480Y282400D01*
X191466Y282414D01*
X191456Y282431D01*
X191377Y282498D01*
X191302Y282570D01*
X191284Y282578D01*
X191269Y282591D01*
X191173Y282630D01*
X191079Y282673D01*
X191059Y282675D01*
X191041Y282683D01*
X190874Y282701D01*
X169806Y282701D01*
X169786Y282698D01*
X169767Y282700D01*
X169665Y282678D01*
X169563Y282662D01*
X169546Y282652D01*
X169526Y282648D01*
X169437Y282595D01*
X169346Y282546D01*
X169332Y282532D01*
X169315Y282522D01*
X169248Y282443D01*
X169176Y282368D01*
X169168Y282350D01*
X169155Y282335D01*
X169116Y282239D01*
X169073Y282145D01*
X169071Y282125D01*
X169063Y282107D01*
X169045Y281940D01*
X169045Y278008D01*
X168152Y277115D01*
X151888Y277115D01*
X150995Y278008D01*
X150995Y292272D01*
X151888Y293165D01*
X168152Y293165D01*
X169045Y292272D01*
X169045Y288036D01*
X169048Y288016D01*
X169046Y287997D01*
X169068Y287895D01*
X169084Y287793D01*
X169094Y287776D01*
X169098Y287756D01*
X169151Y287667D01*
X169200Y287576D01*
X169214Y287562D01*
X169224Y287545D01*
X169303Y287478D01*
X169378Y287406D01*
X169396Y287398D01*
X169411Y287385D01*
X169507Y287346D01*
X169601Y287303D01*
X169621Y287301D01*
X169639Y287293D01*
X169806Y287275D01*
X190874Y287275D01*
X190894Y287278D01*
X190913Y287276D01*
X191015Y287298D01*
X191117Y287314D01*
X191134Y287324D01*
X191154Y287328D01*
X191243Y287381D01*
X191334Y287430D01*
X191348Y287444D01*
X191365Y287454D01*
X191432Y287533D01*
X191504Y287608D01*
X191512Y287626D01*
X191525Y287641D01*
X191564Y287737D01*
X191607Y287831D01*
X191609Y287851D01*
X191617Y287869D01*
X191635Y288036D01*
X191635Y294812D01*
X192528Y295705D01*
X208792Y295705D01*
X209685Y294812D01*
X209685Y280548D01*
X208792Y279655D01*
X208788Y279655D01*
X208768Y279652D01*
X208749Y279654D01*
X208647Y279632D01*
X208545Y279616D01*
X208528Y279606D01*
X208508Y279602D01*
X208419Y279549D01*
X208328Y279500D01*
X208314Y279486D01*
X208297Y279476D01*
X208230Y279397D01*
X208158Y279322D01*
X208150Y279304D01*
X208137Y279289D01*
X208098Y279193D01*
X208055Y279099D01*
X208053Y279079D01*
X208045Y279061D01*
X208027Y278894D01*
X208027Y243579D01*
X208041Y243488D01*
X208049Y243398D01*
X208061Y243368D01*
X208066Y243336D01*
X208109Y243255D01*
X208145Y243171D01*
X208171Y243139D01*
X208182Y243118D01*
X208205Y243096D01*
X208250Y243040D01*
X236056Y215234D01*
X236114Y215192D01*
X236166Y215143D01*
X236213Y215121D01*
X236255Y215091D01*
X236324Y215070D01*
X236389Y215039D01*
X236441Y215034D01*
X236491Y215018D01*
X236562Y215020D01*
X236633Y215012D01*
X236684Y215023D01*
X236736Y215025D01*
X236804Y215049D01*
X236874Y215064D01*
X236919Y215091D01*
X236967Y215109D01*
X237023Y215154D01*
X237085Y215191D01*
X237119Y215230D01*
X237159Y215263D01*
X237198Y215323D01*
X237245Y215378D01*
X237264Y215426D01*
X237292Y215470D01*
X237310Y215539D01*
X237337Y215606D01*
X237345Y215677D01*
X237353Y215708D01*
X237351Y215732D01*
X237355Y215772D01*
X237355Y216072D01*
X238248Y216965D01*
X254512Y216965D01*
X255405Y216072D01*
X255405Y212931D01*
X255416Y212861D01*
X255418Y212789D01*
X255436Y212740D01*
X255444Y212689D01*
X255478Y212625D01*
X255503Y212558D01*
X255535Y212517D01*
X255560Y212471D01*
X255612Y212422D01*
X255656Y212366D01*
X255700Y212338D01*
X255738Y212302D01*
X255803Y212272D01*
X255863Y212233D01*
X255914Y212220D01*
X255961Y212198D01*
X256032Y212190D01*
X256102Y212173D01*
X256154Y212177D01*
X256205Y212171D01*
X256276Y212186D01*
X256347Y212192D01*
X256395Y212212D01*
X256446Y212223D01*
X256507Y212260D01*
X256573Y212288D01*
X256629Y212333D01*
X256657Y212350D01*
X256672Y212367D01*
X256704Y212393D01*
X258406Y214095D01*
X262802Y214095D01*
X265911Y210986D01*
X265911Y210022D01*
X265922Y209952D01*
X265924Y209880D01*
X265942Y209831D01*
X265950Y209780D01*
X265984Y209716D01*
X266009Y209649D01*
X266041Y209608D01*
X266066Y209562D01*
X266118Y209513D01*
X266162Y209457D01*
X266206Y209429D01*
X266244Y209393D01*
X266309Y209363D01*
X266369Y209324D01*
X266420Y209311D01*
X266467Y209289D01*
X266538Y209281D01*
X266608Y209264D01*
X266660Y209268D01*
X266711Y209262D01*
X266782Y209277D01*
X266853Y209283D01*
X266901Y209303D01*
X266952Y209314D01*
X267013Y209351D01*
X267079Y209379D01*
X267135Y209424D01*
X267163Y209441D01*
X267178Y209458D01*
X267210Y209484D01*
X271838Y214112D01*
X271891Y214186D01*
X271951Y214256D01*
X271963Y214286D01*
X271982Y214312D01*
X272009Y214399D01*
X272043Y214484D01*
X272047Y214525D01*
X272054Y214547D01*
X272053Y214579D01*
X272061Y214651D01*
X272061Y218606D01*
X275170Y221715D01*
X279566Y221715D01*
X282675Y218606D01*
X282675Y214210D01*
X279566Y211101D01*
X275611Y211101D01*
X275520Y211087D01*
X275430Y211079D01*
X275400Y211067D01*
X275368Y211062D01*
X275287Y211019D01*
X275203Y210983D01*
X275171Y210957D01*
X275150Y210946D01*
X275128Y210923D01*
X275072Y210878D01*
X258130Y193936D01*
X258118Y193920D01*
X258102Y193907D01*
X258046Y193820D01*
X257986Y193736D01*
X257980Y193717D01*
X257969Y193700D01*
X257944Y193600D01*
X257914Y193501D01*
X257914Y193481D01*
X257909Y193462D01*
X257917Y193359D01*
X257920Y193255D01*
X257927Y193236D01*
X257929Y193216D01*
X257969Y193122D01*
X258005Y193024D01*
X258017Y193008D01*
X258025Y192990D01*
X258130Y192859D01*
X259815Y191174D01*
X259815Y186778D01*
X259501Y186464D01*
X259459Y186406D01*
X259410Y186354D01*
X259388Y186307D01*
X259358Y186265D01*
X259336Y186196D01*
X259306Y186131D01*
X259301Y186079D01*
X259285Y186029D01*
X259287Y185958D01*
X259279Y185887D01*
X259290Y185836D01*
X259292Y185784D01*
X259316Y185716D01*
X259331Y185646D01*
X259358Y185601D01*
X259376Y185553D01*
X259421Y185497D01*
X259458Y185435D01*
X259497Y185401D01*
X259530Y185361D01*
X259590Y185322D01*
X259645Y185275D01*
X259693Y185256D01*
X259737Y185228D01*
X259806Y185210D01*
X259873Y185183D01*
X259944Y185175D01*
X259975Y185167D01*
X259998Y185169D01*
X260039Y185165D01*
X260092Y185165D01*
X260985Y184272D01*
X260985Y170008D01*
X260092Y169115D01*
X242828Y169115D01*
X241935Y170008D01*
X241935Y184272D01*
X242828Y185165D01*
X248977Y185165D01*
X249047Y185176D01*
X249119Y185178D01*
X249168Y185196D01*
X249219Y185204D01*
X249283Y185238D01*
X249350Y185263D01*
X249391Y185295D01*
X249437Y185320D01*
X249486Y185372D01*
X249542Y185416D01*
X249570Y185460D01*
X249606Y185498D01*
X249636Y185563D01*
X249675Y185623D01*
X249688Y185674D01*
X249710Y185721D01*
X249718Y185792D01*
X249735Y185862D01*
X249731Y185914D01*
X249737Y185965D01*
X249722Y186036D01*
X249716Y186107D01*
X249696Y186155D01*
X249685Y186206D01*
X249648Y186267D01*
X249620Y186333D01*
X249575Y186389D01*
X249558Y186417D01*
X249541Y186432D01*
X249515Y186464D01*
X249201Y186778D01*
X249201Y191174D01*
X249513Y191486D01*
X249555Y191544D01*
X249604Y191596D01*
X249626Y191643D01*
X249656Y191685D01*
X249678Y191754D01*
X249708Y191819D01*
X249713Y191871D01*
X249729Y191921D01*
X249727Y191992D01*
X249735Y192063D01*
X249724Y192114D01*
X249722Y192166D01*
X249698Y192234D01*
X249683Y192304D01*
X249656Y192349D01*
X249638Y192397D01*
X249593Y192453D01*
X249556Y192515D01*
X249517Y192549D01*
X249484Y192589D01*
X249424Y192628D01*
X249369Y192675D01*
X249321Y192694D01*
X249277Y192722D01*
X249208Y192740D01*
X249141Y192767D01*
X249070Y192775D01*
X249039Y192783D01*
X249016Y192781D01*
X248975Y192785D01*
X101847Y192785D01*
X101756Y192771D01*
X101666Y192763D01*
X101636Y192751D01*
X101604Y192746D01*
X101523Y192703D01*
X101439Y192667D01*
X101407Y192641D01*
X101386Y192630D01*
X101364Y192607D01*
X101308Y192562D01*
X52802Y144056D01*
X51239Y142493D01*
X45844Y142493D01*
X45730Y142474D01*
X45613Y142457D01*
X45608Y142455D01*
X45602Y142454D01*
X45499Y142399D01*
X45394Y142346D01*
X45390Y142341D01*
X45384Y142338D01*
X45304Y142254D01*
X45222Y142170D01*
X45218Y142164D01*
X45215Y142160D01*
X45207Y142143D01*
X45141Y142023D01*
X43959Y139168D01*
X41172Y136381D01*
X37531Y134873D01*
X33589Y134873D01*
G37*
%LPD*%
%LPC*%
G36*
X290410Y333021D02*
X290410Y333021D01*
X287301Y336130D01*
X287301Y339880D01*
X287298Y339900D01*
X287300Y339919D01*
X287278Y340021D01*
X287262Y340123D01*
X287252Y340140D01*
X287248Y340160D01*
X287195Y340249D01*
X287146Y340340D01*
X287132Y340354D01*
X287122Y340371D01*
X287043Y340438D01*
X286968Y340510D01*
X286950Y340518D01*
X286935Y340531D01*
X286839Y340570D01*
X286745Y340613D01*
X286725Y340615D01*
X286707Y340623D01*
X286540Y340641D01*
X282790Y340641D01*
X279681Y343750D01*
X279681Y348146D01*
X281391Y349856D01*
X281433Y349914D01*
X281482Y349966D01*
X281504Y350013D01*
X281534Y350055D01*
X281556Y350124D01*
X281586Y350189D01*
X281591Y350241D01*
X281607Y350291D01*
X281605Y350362D01*
X281613Y350433D01*
X281602Y350484D01*
X281600Y350536D01*
X281576Y350604D01*
X281561Y350674D01*
X281534Y350719D01*
X281516Y350767D01*
X281471Y350823D01*
X281434Y350885D01*
X281395Y350919D01*
X281362Y350959D01*
X281302Y350998D01*
X281247Y351045D01*
X281199Y351064D01*
X281155Y351092D01*
X281086Y351110D01*
X281019Y351137D01*
X280948Y351145D01*
X280917Y351153D01*
X280894Y351151D01*
X280853Y351155D01*
X275468Y351155D01*
X274575Y352048D01*
X274575Y364472D01*
X274566Y364530D01*
X274566Y364588D01*
X274546Y364650D01*
X274536Y364714D01*
X274508Y364766D01*
X274490Y364822D01*
X274451Y364874D01*
X274420Y364932D01*
X274378Y364972D01*
X274343Y365019D01*
X274289Y365056D01*
X274242Y365101D01*
X274189Y365126D01*
X274140Y365159D01*
X274048Y365191D01*
X274019Y365205D01*
X274004Y365206D01*
X273982Y365214D01*
X266494Y366906D01*
X266390Y366912D01*
X266287Y366924D01*
X266268Y366920D01*
X266248Y366921D01*
X266148Y366894D01*
X266046Y366872D01*
X266030Y366862D01*
X266011Y366857D01*
X265924Y366799D01*
X265835Y366745D01*
X265823Y366731D01*
X265806Y366720D01*
X265743Y366638D01*
X265675Y366559D01*
X265668Y366541D01*
X265656Y366525D01*
X265622Y366427D01*
X265583Y366330D01*
X265581Y366307D01*
X265576Y366293D01*
X265576Y366261D01*
X265565Y366164D01*
X265565Y364368D01*
X264672Y363475D01*
X248408Y363475D01*
X247515Y364368D01*
X247515Y374963D01*
X247512Y374983D01*
X247514Y375003D01*
X247492Y375104D01*
X247476Y375206D01*
X247466Y375224D01*
X247462Y375243D01*
X247409Y375332D01*
X247360Y375424D01*
X247346Y375437D01*
X247336Y375454D01*
X247214Y375570D01*
X243275Y378558D01*
X243240Y378577D01*
X243210Y378603D01*
X243131Y378634D01*
X243057Y378674D01*
X243018Y378680D01*
X242981Y378695D01*
X242903Y378704D01*
X242370Y379236D01*
X242344Y379255D01*
X242292Y379304D01*
X241697Y379755D01*
X241666Y379828D01*
X241642Y379908D01*
X241618Y379941D01*
X241603Y379977D01*
X241553Y380039D01*
X241553Y380792D01*
X241548Y380824D01*
X241546Y380895D01*
X241445Y381635D01*
X241474Y381708D01*
X241514Y381783D01*
X241520Y381822D01*
X241535Y381859D01*
X241553Y382025D01*
X241553Y433271D01*
X241545Y433320D01*
X241547Y433369D01*
X241526Y433440D01*
X241514Y433514D01*
X241490Y433557D01*
X241476Y433605D01*
X241460Y433630D01*
X241549Y434425D01*
X241547Y434453D01*
X241553Y434509D01*
X241553Y435314D01*
X241567Y435340D01*
X241611Y435401D01*
X241625Y435448D01*
X241649Y435492D01*
X241655Y435520D01*
X242280Y436020D01*
X242299Y436042D01*
X242342Y436076D01*
X242912Y436646D01*
X242940Y436654D01*
X243014Y436666D01*
X243057Y436690D01*
X243105Y436704D01*
X243209Y436770D01*
X243231Y436782D01*
X243236Y436787D01*
X243246Y436794D01*
X249142Y441510D01*
X249148Y441517D01*
X249157Y441522D01*
X249230Y441608D01*
X249306Y441692D01*
X249310Y441702D01*
X249317Y441709D01*
X249359Y441814D01*
X249404Y441918D01*
X249405Y441928D01*
X249409Y441937D01*
X249427Y442104D01*
X249427Y451503D01*
X250510Y454117D01*
X252511Y456118D01*
X255125Y457201D01*
X257955Y457201D01*
X260569Y456118D01*
X262570Y454117D01*
X263653Y451503D01*
X263653Y437497D01*
X262570Y434883D01*
X260569Y432882D01*
X257955Y431799D01*
X255125Y431799D01*
X252511Y432882D01*
X250510Y434883D01*
X250318Y435348D01*
X250316Y435351D01*
X250315Y435354D01*
X250252Y435454D01*
X250188Y435557D01*
X250185Y435559D01*
X250183Y435562D01*
X250092Y435636D01*
X249999Y435713D01*
X249995Y435715D01*
X249992Y435717D01*
X249881Y435759D01*
X249769Y435802D01*
X249765Y435802D01*
X249762Y435803D01*
X249642Y435807D01*
X249523Y435812D01*
X249520Y435811D01*
X249516Y435811D01*
X249402Y435777D01*
X249287Y435743D01*
X249284Y435741D01*
X249281Y435740D01*
X249139Y435651D01*
X246412Y433470D01*
X246406Y433462D01*
X246397Y433457D01*
X246324Y433371D01*
X246248Y433287D01*
X246244Y433278D01*
X246237Y433270D01*
X246195Y433165D01*
X246150Y433061D01*
X246149Y433051D01*
X246145Y433042D01*
X246127Y432875D01*
X246127Y399518D01*
X246138Y399447D01*
X246140Y399375D01*
X246158Y399326D01*
X246166Y399275D01*
X246200Y399212D01*
X246225Y399144D01*
X246257Y399103D01*
X246282Y399058D01*
X246334Y399008D01*
X246378Y398952D01*
X246422Y398924D01*
X246460Y398888D01*
X246525Y398858D01*
X246585Y398819D01*
X246636Y398806D01*
X246683Y398785D01*
X246754Y398777D01*
X246824Y398759D01*
X246876Y398763D01*
X246927Y398757D01*
X246998Y398773D01*
X247069Y398778D01*
X247117Y398799D01*
X247168Y398810D01*
X247229Y398847D01*
X247295Y398875D01*
X247351Y398919D01*
X247379Y398936D01*
X247394Y398954D01*
X247426Y398979D01*
X247480Y399033D01*
X248059Y399368D01*
X248706Y399541D01*
X255017Y399541D01*
X255017Y391262D01*
X255020Y391242D01*
X255018Y391223D01*
X255040Y391121D01*
X255057Y391019D01*
X255066Y391002D01*
X255070Y390982D01*
X255123Y390893D01*
X255172Y390802D01*
X255186Y390788D01*
X255196Y390771D01*
X255275Y390704D01*
X255350Y390633D01*
X255368Y390624D01*
X255383Y390611D01*
X255479Y390572D01*
X255573Y390529D01*
X255593Y390527D01*
X255611Y390519D01*
X255778Y390501D01*
X256541Y390501D01*
X256541Y390499D01*
X255778Y390499D01*
X255758Y390496D01*
X255739Y390498D01*
X255637Y390476D01*
X255535Y390459D01*
X255518Y390450D01*
X255498Y390446D01*
X255409Y390393D01*
X255318Y390344D01*
X255304Y390330D01*
X255287Y390320D01*
X255220Y390241D01*
X255149Y390166D01*
X255140Y390148D01*
X255127Y390133D01*
X255088Y390037D01*
X255045Y389943D01*
X255043Y389923D01*
X255035Y389905D01*
X255017Y389738D01*
X255017Y381459D01*
X249281Y381459D01*
X249038Y381420D01*
X248821Y381304D01*
X248652Y381126D01*
X248628Y381076D01*
X248548Y380903D01*
X248521Y380659D01*
X248573Y380418D01*
X248699Y380207D01*
X248821Y380092D01*
X249364Y379680D01*
X249399Y379661D01*
X249429Y379635D01*
X249507Y379604D01*
X249581Y379564D01*
X249621Y379558D01*
X249657Y379543D01*
X249824Y379525D01*
X264672Y379525D01*
X265565Y378632D01*
X265565Y372413D01*
X265574Y372355D01*
X265574Y372296D01*
X265594Y372235D01*
X265604Y372171D01*
X265632Y372119D01*
X265650Y372063D01*
X265689Y372011D01*
X265720Y371953D01*
X265762Y371913D01*
X265797Y371866D01*
X265851Y371829D01*
X265898Y371784D01*
X265951Y371759D01*
X266000Y371726D01*
X266092Y371694D01*
X266121Y371680D01*
X266136Y371679D01*
X266158Y371671D01*
X274539Y369777D01*
X274591Y369774D01*
X274642Y369761D01*
X274713Y369766D01*
X274784Y369762D01*
X274835Y369776D01*
X274888Y369780D01*
X274953Y369808D01*
X275022Y369827D01*
X275066Y369856D01*
X275114Y369876D01*
X275203Y369947D01*
X275226Y369963D01*
X275233Y369971D01*
X275245Y369981D01*
X275468Y370205D01*
X289732Y370205D01*
X290625Y369312D01*
X290625Y352048D01*
X289732Y351155D01*
X289123Y351155D01*
X289053Y351144D01*
X288981Y351142D01*
X288932Y351124D01*
X288881Y351116D01*
X288817Y351082D01*
X288750Y351057D01*
X288709Y351025D01*
X288663Y351000D01*
X288614Y350948D01*
X288558Y350904D01*
X288530Y350860D01*
X288494Y350822D01*
X288464Y350757D01*
X288425Y350697D01*
X288412Y350646D01*
X288390Y350599D01*
X288382Y350528D01*
X288365Y350458D01*
X288369Y350406D01*
X288363Y350355D01*
X288378Y350284D01*
X288384Y350213D01*
X288404Y350165D01*
X288415Y350114D01*
X288452Y350053D01*
X288480Y349987D01*
X288525Y349931D01*
X288542Y349903D01*
X288559Y349888D01*
X288585Y349856D01*
X290295Y348146D01*
X290295Y347182D01*
X290306Y347112D01*
X290308Y347040D01*
X290326Y346991D01*
X290334Y346940D01*
X290368Y346876D01*
X290393Y346809D01*
X290425Y346768D01*
X290450Y346722D01*
X290502Y346673D01*
X290546Y346617D01*
X290590Y346589D01*
X290628Y346553D01*
X290693Y346523D01*
X290753Y346484D01*
X290804Y346471D01*
X290851Y346449D01*
X290922Y346441D01*
X290992Y346424D01*
X291044Y346428D01*
X291095Y346422D01*
X291166Y346437D01*
X291237Y346443D01*
X291285Y346463D01*
X291336Y346474D01*
X291397Y346511D01*
X291463Y346539D01*
X291519Y346584D01*
X291547Y346601D01*
X291562Y346618D01*
X291594Y346644D01*
X294806Y349856D01*
X294848Y349914D01*
X294897Y349966D01*
X294919Y350013D01*
X294949Y350055D01*
X294970Y350124D01*
X295001Y350189D01*
X295006Y350241D01*
X295022Y350291D01*
X295020Y350362D01*
X295028Y350433D01*
X295017Y350484D01*
X295015Y350536D01*
X294991Y350604D01*
X294976Y350674D01*
X294949Y350718D01*
X294931Y350767D01*
X294886Y350823D01*
X294849Y350885D01*
X294810Y350919D01*
X294777Y350959D01*
X294717Y350998D01*
X294662Y351045D01*
X294614Y351064D01*
X294570Y351092D01*
X294518Y351106D01*
X293575Y352048D01*
X293575Y369312D01*
X294468Y370205D01*
X305968Y370205D01*
X305977Y370206D01*
X305985Y370205D01*
X306098Y370226D01*
X306211Y370244D01*
X306218Y370249D01*
X306227Y370250D01*
X306328Y370306D01*
X306428Y370360D01*
X306434Y370366D01*
X306442Y370370D01*
X306561Y370489D01*
X313387Y378968D01*
X313412Y379012D01*
X313445Y379050D01*
X313472Y379118D01*
X313508Y379182D01*
X313518Y379231D01*
X313537Y379278D01*
X313550Y379397D01*
X313555Y379423D01*
X313554Y379432D01*
X313555Y379445D01*
X313555Y388513D01*
X313553Y388528D01*
X313554Y388541D01*
X313542Y388597D01*
X313539Y388672D01*
X313523Y388713D01*
X313516Y388756D01*
X313502Y388781D01*
X313502Y388782D01*
X313500Y388786D01*
X313478Y388826D01*
X313449Y388901D01*
X313421Y388934D01*
X313400Y388973D01*
X313343Y389028D01*
X313291Y389090D01*
X313243Y389122D01*
X313222Y389142D01*
X313197Y389154D01*
X313153Y389184D01*
X304321Y393903D01*
X304243Y393930D01*
X304168Y393965D01*
X304115Y393974D01*
X304088Y393983D01*
X304059Y393983D01*
X304002Y393992D01*
X303734Y394006D01*
X303458Y394313D01*
X303420Y394343D01*
X303389Y394380D01*
X303284Y394452D01*
X303266Y394467D01*
X303259Y394469D01*
X303251Y394475D01*
X302887Y394670D01*
X302809Y394926D01*
X302773Y395001D01*
X302744Y395078D01*
X302713Y395122D01*
X302700Y395147D01*
X302680Y395168D01*
X302646Y395215D01*
X302467Y395414D01*
X302488Y395826D01*
X302483Y395874D01*
X302487Y395923D01*
X302464Y396048D01*
X302461Y396071D01*
X302459Y396077D01*
X302457Y396087D01*
X302337Y396482D01*
X302463Y396719D01*
X302490Y396797D01*
X302525Y396872D01*
X302534Y396925D01*
X302543Y396952D01*
X302543Y396981D01*
X302552Y397038D01*
X304386Y431888D01*
X304385Y431901D01*
X304387Y431915D01*
X304371Y432024D01*
X304359Y432132D01*
X304354Y432145D01*
X304351Y432159D01*
X304302Y432256D01*
X304256Y432355D01*
X304246Y432365D01*
X304240Y432378D01*
X304162Y432455D01*
X304087Y432534D01*
X304074Y432540D01*
X304064Y432550D01*
X303917Y432631D01*
X303311Y432882D01*
X301310Y434883D01*
X300227Y437497D01*
X300227Y451503D01*
X301310Y454117D01*
X303311Y456118D01*
X305925Y457201D01*
X308755Y457201D01*
X311369Y456118D01*
X313370Y454117D01*
X314453Y451503D01*
X314453Y437497D01*
X313370Y434883D01*
X311369Y432882D01*
X309410Y432071D01*
X309327Y432019D01*
X309241Y431974D01*
X309223Y431955D01*
X309201Y431941D01*
X309139Y431866D01*
X309072Y431796D01*
X309061Y431772D01*
X309044Y431751D01*
X309009Y431661D01*
X308968Y431573D01*
X308963Y431540D01*
X308956Y431522D01*
X308954Y431489D01*
X308941Y431407D01*
X307185Y398055D01*
X307196Y397956D01*
X307201Y397856D01*
X307210Y397834D01*
X307212Y397811D01*
X307254Y397720D01*
X307291Y397627D01*
X307306Y397609D01*
X307316Y397587D01*
X307384Y397515D01*
X307449Y397438D01*
X307473Y397422D01*
X307485Y397409D01*
X307514Y397393D01*
X307587Y397344D01*
X313242Y394322D01*
X313272Y394312D01*
X313298Y394295D01*
X313387Y394272D01*
X313475Y394243D01*
X313506Y394243D01*
X313536Y394235D01*
X313628Y394242D01*
X313721Y394242D01*
X313750Y394252D01*
X313782Y394254D01*
X313867Y394290D01*
X313954Y394319D01*
X313979Y394338D01*
X314008Y394350D01*
X314139Y394455D01*
X314448Y394765D01*
X330712Y394765D01*
X331605Y393872D01*
X331605Y379608D01*
X330712Y378715D01*
X319420Y378715D01*
X319411Y378714D01*
X319402Y378715D01*
X319290Y378694D01*
X319177Y378676D01*
X319169Y378671D01*
X319160Y378670D01*
X319060Y378614D01*
X318960Y378560D01*
X318953Y378554D01*
X318946Y378550D01*
X318827Y378431D01*
X309793Y367210D01*
X309768Y367166D01*
X309735Y367128D01*
X309708Y367060D01*
X309672Y366996D01*
X309662Y366947D01*
X309643Y366900D01*
X309630Y366780D01*
X309625Y366755D01*
X309626Y366746D01*
X309625Y366733D01*
X309625Y352048D01*
X308732Y351155D01*
X302889Y351155D01*
X302798Y351141D01*
X302708Y351133D01*
X302678Y351121D01*
X302646Y351116D01*
X302565Y351073D01*
X302481Y351037D01*
X302449Y351011D01*
X302428Y351000D01*
X302406Y350977D01*
X302350Y350932D01*
X300952Y349534D01*
X295468Y344050D01*
X295456Y344034D01*
X295440Y344021D01*
X295384Y343934D01*
X295324Y343850D01*
X295318Y343831D01*
X295307Y343814D01*
X295282Y343714D01*
X295252Y343615D01*
X295252Y343595D01*
X295247Y343576D01*
X295255Y343473D01*
X295258Y343369D01*
X295265Y343350D01*
X295267Y343330D01*
X295307Y343236D01*
X295343Y343138D01*
X295355Y343122D01*
X295363Y343104D01*
X295468Y342973D01*
X297915Y340526D01*
X297915Y336130D01*
X294806Y333021D01*
X290410Y333021D01*
G37*
%LPD*%
%LPC*%
G36*
X636569Y643889D02*
X636569Y643889D01*
X629785Y645707D01*
X623704Y649218D01*
X618738Y654184D01*
X615227Y660265D01*
X613409Y667049D01*
X613409Y674071D01*
X615227Y680855D01*
X618738Y686936D01*
X623704Y691902D01*
X629785Y695413D01*
X636569Y697231D01*
X643591Y697231D01*
X650375Y695413D01*
X656456Y691902D01*
X661422Y686936D01*
X664933Y680855D01*
X666751Y674071D01*
X666751Y667049D01*
X664933Y660265D01*
X661422Y654184D01*
X656456Y649218D01*
X650375Y645707D01*
X643591Y643889D01*
X636569Y643889D01*
G37*
%LPD*%
%LPC*%
G36*
X42209Y19049D02*
X42209Y19049D01*
X35425Y20867D01*
X29344Y24378D01*
X24378Y29344D01*
X20867Y35425D01*
X19049Y42209D01*
X19049Y49231D01*
X20867Y56015D01*
X24378Y62096D01*
X29344Y67062D01*
X35425Y70573D01*
X42209Y72391D01*
X49231Y72391D01*
X56015Y70573D01*
X62096Y67062D01*
X67062Y62096D01*
X70573Y56015D01*
X72391Y49231D01*
X72391Y42209D01*
X70573Y35425D01*
X67062Y29344D01*
X62096Y24378D01*
X56015Y20867D01*
X49231Y19049D01*
X42209Y19049D01*
G37*
%LPD*%
%LPC*%
G36*
X170008Y572635D02*
X170008Y572635D01*
X169115Y573528D01*
X169115Y588886D01*
X169111Y588911D01*
X169114Y588936D01*
X169091Y589032D01*
X169076Y589129D01*
X169064Y589151D01*
X169058Y589176D01*
X168977Y589323D01*
X168565Y589911D01*
X168555Y589922D01*
X168548Y589934D01*
X168534Y589948D01*
X168525Y589963D01*
X168461Y590018D01*
X168394Y590087D01*
X168381Y590094D01*
X168370Y590104D01*
X168350Y590113D01*
X168338Y590123D01*
X168269Y590151D01*
X168175Y590199D01*
X168160Y590201D01*
X168147Y590207D01*
X168122Y590210D01*
X168110Y590215D01*
X167953Y590232D01*
X167931Y590235D01*
X167917Y590233D01*
X167903Y590234D01*
X167796Y590211D01*
X167689Y590192D01*
X167676Y590185D01*
X167662Y590182D01*
X167569Y590126D01*
X167473Y590074D01*
X167464Y590063D01*
X167451Y590056D01*
X167380Y589974D01*
X167318Y589906D01*
X167312Y589900D01*
X167307Y589893D01*
X167301Y589880D01*
X167291Y589869D01*
X167251Y589768D01*
X167230Y589723D01*
X167209Y589677D01*
X167209Y589675D01*
X167206Y589669D01*
X167205Y589654D01*
X167199Y589641D01*
X167181Y589474D01*
X167181Y583183D01*
X159663Y583183D01*
X159663Y591701D01*
X164974Y591701D01*
X165621Y591528D01*
X165687Y591489D01*
X165763Y591460D01*
X165836Y591423D01*
X165878Y591417D01*
X165917Y591402D01*
X165999Y591399D01*
X166079Y591387D01*
X166121Y591395D01*
X166163Y591393D01*
X166241Y591416D01*
X166321Y591430D01*
X166358Y591451D01*
X166399Y591463D01*
X166466Y591509D01*
X166537Y591548D01*
X166566Y591580D01*
X166600Y591604D01*
X166648Y591670D01*
X166704Y591729D01*
X166721Y591768D01*
X166746Y591802D01*
X166771Y591880D01*
X166804Y591954D01*
X166808Y591996D01*
X166821Y592037D01*
X166820Y592118D01*
X166828Y592199D01*
X166818Y592240D01*
X166817Y592283D01*
X166790Y592359D01*
X166772Y592438D01*
X166745Y592487D01*
X166745Y592488D01*
X166866Y593176D01*
X166866Y593207D01*
X166877Y593308D01*
X166877Y603765D01*
X166863Y603856D01*
X166855Y603946D01*
X166843Y603976D01*
X166838Y604008D01*
X166795Y604089D01*
X166759Y604173D01*
X166733Y604205D01*
X166722Y604226D01*
X166699Y604248D01*
X166654Y604304D01*
X162344Y608614D01*
X162270Y608667D01*
X162200Y608727D01*
X162170Y608739D01*
X162144Y608758D01*
X162057Y608785D01*
X161972Y608819D01*
X161931Y608823D01*
X161909Y608830D01*
X161877Y608829D01*
X161805Y608837D01*
X73626Y608837D01*
X73520Y608820D01*
X73413Y608807D01*
X73399Y608800D01*
X73383Y608798D01*
X73288Y608747D01*
X73191Y608701D01*
X73180Y608690D01*
X73166Y608682D01*
X73092Y608605D01*
X73014Y608529D01*
X73007Y608515D01*
X72996Y608504D01*
X72951Y608406D01*
X72902Y608311D01*
X72898Y608292D01*
X72893Y608281D01*
X72889Y608251D01*
X72868Y608147D01*
X71665Y595216D01*
X71669Y595161D01*
X71663Y595107D01*
X71677Y595040D01*
X71682Y594971D01*
X71703Y594920D01*
X71715Y594866D01*
X71750Y594807D01*
X71777Y594744D01*
X71813Y594702D01*
X71841Y594655D01*
X71893Y594610D01*
X71939Y594559D01*
X71986Y594531D01*
X72028Y594495D01*
X72092Y594469D01*
X72151Y594435D01*
X72205Y594424D01*
X72256Y594403D01*
X72362Y594391D01*
X72392Y594385D01*
X72404Y594387D01*
X72423Y594385D01*
X73413Y594385D01*
X74715Y593083D01*
X74715Y579537D01*
X73413Y578235D01*
X63667Y578235D01*
X62365Y579537D01*
X62365Y593083D01*
X63667Y594385D01*
X66301Y594385D01*
X66407Y594402D01*
X66514Y594415D01*
X66528Y594422D01*
X66544Y594424D01*
X66638Y594475D01*
X66736Y594521D01*
X66747Y594532D01*
X66761Y594540D01*
X66835Y594617D01*
X66912Y594693D01*
X66919Y594707D01*
X66930Y594718D01*
X66976Y594816D01*
X67025Y594911D01*
X67029Y594930D01*
X67034Y594941D01*
X67037Y594971D01*
X67059Y595075D01*
X68558Y611195D01*
X68557Y611220D01*
X68562Y611265D01*
X68562Y612114D01*
X68597Y612163D01*
X68614Y612217D01*
X68636Y612260D01*
X69279Y612794D01*
X69296Y612813D01*
X69331Y612841D01*
X69931Y613441D01*
X69991Y613450D01*
X70041Y613477D01*
X70087Y613491D01*
X70919Y613414D01*
X70944Y613416D01*
X70990Y613411D01*
X164015Y613411D01*
X171451Y605975D01*
X171451Y605028D01*
X171454Y605008D01*
X171452Y604989D01*
X171474Y604887D01*
X171490Y604785D01*
X171500Y604768D01*
X171504Y604748D01*
X171557Y604659D01*
X171606Y604568D01*
X171620Y604554D01*
X171630Y604537D01*
X171709Y604470D01*
X171784Y604398D01*
X171802Y604390D01*
X171817Y604377D01*
X171913Y604338D01*
X172007Y604295D01*
X172027Y604293D01*
X172045Y604285D01*
X172212Y604267D01*
X175609Y604267D01*
X175629Y604270D01*
X175662Y604269D01*
X176554Y604331D01*
X176565Y604324D01*
X176628Y604310D01*
X176689Y604285D01*
X176773Y604276D01*
X176805Y604268D01*
X176824Y604270D01*
X176855Y604267D01*
X206001Y604267D01*
X206092Y604281D01*
X206182Y604289D01*
X206212Y604301D01*
X206244Y604306D01*
X206325Y604349D01*
X206409Y604385D01*
X206441Y604411D01*
X206462Y604422D01*
X206484Y604445D01*
X206540Y604490D01*
X220033Y617983D01*
X238691Y617983D01*
X246791Y609883D01*
X246807Y609871D01*
X246819Y609856D01*
X246907Y609800D01*
X246991Y609740D01*
X247010Y609734D01*
X247026Y609723D01*
X247127Y609698D01*
X247226Y609667D01*
X247246Y609668D01*
X247265Y609663D01*
X247368Y609671D01*
X247471Y609674D01*
X247490Y609680D01*
X247510Y609682D01*
X247605Y609722D01*
X247703Y609758D01*
X247718Y609771D01*
X247736Y609778D01*
X247867Y609883D01*
X248093Y610109D01*
X254827Y610109D01*
X259589Y605347D01*
X259589Y598613D01*
X254827Y593851D01*
X248093Y593851D01*
X243331Y598613D01*
X243331Y605347D01*
X243557Y605573D01*
X243569Y605589D01*
X243584Y605601D01*
X243640Y605688D01*
X243700Y605772D01*
X243706Y605791D01*
X243717Y605808D01*
X243742Y605909D01*
X243773Y606007D01*
X243772Y606027D01*
X243777Y606047D01*
X243769Y606150D01*
X243766Y606253D01*
X243760Y606272D01*
X243758Y606292D01*
X243718Y606387D01*
X243682Y606484D01*
X243669Y606500D01*
X243662Y606518D01*
X243557Y606649D01*
X237020Y613186D01*
X236946Y613239D01*
X236876Y613299D01*
X236846Y613311D01*
X236820Y613330D01*
X236733Y613357D01*
X236648Y613391D01*
X236607Y613395D01*
X236585Y613402D01*
X236553Y613401D01*
X236481Y613409D01*
X222243Y613409D01*
X222152Y613395D01*
X222062Y613387D01*
X222032Y613375D01*
X222000Y613370D01*
X221919Y613327D01*
X221835Y613291D01*
X221803Y613265D01*
X221782Y613254D01*
X221760Y613231D01*
X221704Y613186D01*
X208211Y599693D01*
X178985Y599693D01*
X178939Y599686D01*
X178893Y599688D01*
X178819Y599666D01*
X178742Y599654D01*
X178701Y599632D01*
X178656Y599619D01*
X178593Y599575D01*
X178525Y599538D01*
X178493Y599505D01*
X178455Y599478D01*
X178409Y599416D01*
X178356Y599360D01*
X178336Y599318D01*
X178308Y599280D01*
X178284Y599207D01*
X178252Y599137D01*
X178247Y599091D01*
X178232Y599046D01*
X178227Y598912D01*
X178225Y598893D01*
X178226Y598887D01*
X178226Y598879D01*
X178750Y591393D01*
X178777Y591280D01*
X178802Y591166D01*
X178805Y591160D01*
X178807Y591153D01*
X178869Y591054D01*
X178928Y590955D01*
X178933Y590951D01*
X178937Y590945D01*
X179027Y590870D01*
X179115Y590795D01*
X179121Y590793D01*
X179127Y590788D01*
X179235Y590747D01*
X179343Y590703D01*
X179351Y590702D01*
X179356Y590700D01*
X179376Y590700D01*
X179510Y590685D01*
X184272Y590685D01*
X185165Y589792D01*
X185165Y573528D01*
X184272Y572635D01*
X170008Y572635D01*
G37*
%LPD*%
%LPC*%
G36*
X33589Y388873D02*
X33589Y388873D01*
X29948Y390381D01*
X27161Y393168D01*
X25653Y396809D01*
X25653Y400751D01*
X27161Y404392D01*
X29948Y407179D01*
X33589Y408687D01*
X37531Y408687D01*
X41172Y407179D01*
X43959Y404392D01*
X44931Y402045D01*
X44992Y401945D01*
X45052Y401845D01*
X45057Y401841D01*
X45060Y401836D01*
X45150Y401761D01*
X45239Y401685D01*
X45245Y401683D01*
X45250Y401679D01*
X45358Y401637D01*
X45467Y401593D01*
X45475Y401592D01*
X45479Y401591D01*
X45498Y401590D01*
X45634Y401575D01*
X49029Y401575D01*
X49120Y401589D01*
X49210Y401597D01*
X49240Y401609D01*
X49272Y401614D01*
X49353Y401657D01*
X49437Y401693D01*
X49469Y401719D01*
X49490Y401730D01*
X49512Y401753D01*
X49568Y401798D01*
X50869Y403099D01*
X81033Y403099D01*
X81124Y403113D01*
X81214Y403121D01*
X81244Y403133D01*
X81276Y403138D01*
X81357Y403181D01*
X81441Y403217D01*
X81473Y403243D01*
X81494Y403254D01*
X81516Y403277D01*
X81572Y403322D01*
X98074Y419824D01*
X98127Y419898D01*
X98187Y419968D01*
X98199Y419998D01*
X98218Y420024D01*
X98245Y420111D01*
X98279Y420196D01*
X98283Y420237D01*
X98290Y420259D01*
X98289Y420291D01*
X98297Y420363D01*
X98297Y445955D01*
X99860Y447518D01*
X230730Y578388D01*
X230742Y578404D01*
X230757Y578416D01*
X230813Y578504D01*
X230873Y578588D01*
X230879Y578607D01*
X230890Y578623D01*
X230915Y578724D01*
X230946Y578823D01*
X230945Y578843D01*
X230950Y578862D01*
X230942Y578965D01*
X230939Y579069D01*
X230933Y579087D01*
X230931Y579107D01*
X230891Y579202D01*
X230855Y579300D01*
X230842Y579315D01*
X230835Y579333D01*
X230730Y579464D01*
X230631Y579563D01*
X230631Y586297D01*
X235393Y591059D01*
X242127Y591059D01*
X246889Y586297D01*
X246889Y579563D01*
X242127Y574801D01*
X235393Y574801D01*
X235040Y575154D01*
X235024Y575166D01*
X235012Y575181D01*
X234925Y575237D01*
X234841Y575297D01*
X234822Y575303D01*
X234805Y575314D01*
X234704Y575339D01*
X234606Y575370D01*
X234586Y575369D01*
X234566Y575374D01*
X234463Y575366D01*
X234360Y575363D01*
X234341Y575357D01*
X234321Y575355D01*
X234226Y575315D01*
X234129Y575279D01*
X234113Y575266D01*
X234095Y575259D01*
X233964Y575154D01*
X103094Y444284D01*
X103041Y444210D01*
X102981Y444140D01*
X102969Y444110D01*
X102950Y444084D01*
X102923Y443997D01*
X102889Y443912D01*
X102885Y443871D01*
X102878Y443849D01*
X102879Y443817D01*
X102871Y443745D01*
X102871Y418153D01*
X83243Y398525D01*
X53079Y398525D01*
X52988Y398511D01*
X52898Y398503D01*
X52868Y398491D01*
X52836Y398486D01*
X52755Y398443D01*
X52671Y398407D01*
X52639Y398381D01*
X52618Y398370D01*
X52596Y398347D01*
X52540Y398302D01*
X51239Y397001D01*
X46055Y397001D01*
X45940Y396982D01*
X45824Y396965D01*
X45818Y396963D01*
X45812Y396962D01*
X45709Y396907D01*
X45605Y396854D01*
X45600Y396849D01*
X45595Y396846D01*
X45515Y396762D01*
X45432Y396678D01*
X45429Y396672D01*
X45425Y396668D01*
X45418Y396651D01*
X45352Y396531D01*
X43959Y393168D01*
X41172Y390381D01*
X37531Y388873D01*
X33589Y388873D01*
G37*
%LPD*%
%LPC*%
G36*
X256609Y29717D02*
X256609Y29717D01*
X248868Y37458D01*
X248852Y37469D01*
X248840Y37485D01*
X248753Y37541D01*
X248669Y37601D01*
X248650Y37607D01*
X248633Y37618D01*
X248532Y37643D01*
X248434Y37674D01*
X248414Y37673D01*
X248394Y37678D01*
X248291Y37670D01*
X248188Y37667D01*
X248169Y37660D01*
X248149Y37659D01*
X248054Y37618D01*
X247957Y37583D01*
X247941Y37570D01*
X247923Y37562D01*
X247792Y37458D01*
X247417Y37083D01*
X240263Y37083D01*
X235203Y42143D01*
X235203Y49297D01*
X240263Y54357D01*
X247417Y54357D01*
X252477Y49297D01*
X252477Y42143D01*
X252102Y41768D01*
X252091Y41752D01*
X252075Y41740D01*
X252019Y41652D01*
X251959Y41568D01*
X251953Y41549D01*
X251942Y41533D01*
X251917Y41432D01*
X251886Y41333D01*
X251887Y41313D01*
X251882Y41294D01*
X251890Y41191D01*
X251893Y41087D01*
X251900Y41069D01*
X251901Y41049D01*
X251942Y40954D01*
X251977Y40856D01*
X251990Y40841D01*
X251998Y40823D01*
X252102Y40692D01*
X258280Y34514D01*
X258354Y34461D01*
X258424Y34401D01*
X258454Y34389D01*
X258480Y34370D01*
X258567Y34343D01*
X258652Y34309D01*
X258693Y34305D01*
X258715Y34298D01*
X258747Y34299D01*
X258819Y34291D01*
X274581Y34291D01*
X274672Y34305D01*
X274762Y34313D01*
X274792Y34325D01*
X274824Y34330D01*
X274905Y34373D01*
X274989Y34409D01*
X275021Y34435D01*
X275042Y34446D01*
X275064Y34469D01*
X275120Y34514D01*
X320578Y79972D01*
X320631Y80046D01*
X320691Y80116D01*
X320703Y80146D01*
X320722Y80172D01*
X320749Y80259D01*
X320783Y80344D01*
X320787Y80385D01*
X320794Y80407D01*
X320793Y80439D01*
X320801Y80511D01*
X320801Y88774D01*
X320798Y88794D01*
X320800Y88813D01*
X320778Y88915D01*
X320762Y89017D01*
X320752Y89034D01*
X320748Y89054D01*
X320695Y89143D01*
X320646Y89234D01*
X320632Y89248D01*
X320622Y89265D01*
X320543Y89332D01*
X320468Y89404D01*
X320450Y89412D01*
X320435Y89425D01*
X320339Y89464D01*
X320245Y89507D01*
X320225Y89509D01*
X320207Y89517D01*
X320040Y89535D01*
X316108Y89535D01*
X315215Y90428D01*
X315215Y107692D01*
X316108Y108585D01*
X330372Y108585D01*
X331265Y107692D01*
X331265Y90428D01*
X330372Y89535D01*
X326136Y89535D01*
X326116Y89532D01*
X326097Y89534D01*
X325995Y89512D01*
X325893Y89496D01*
X325876Y89486D01*
X325856Y89482D01*
X325767Y89429D01*
X325676Y89380D01*
X325662Y89366D01*
X325645Y89356D01*
X325578Y89277D01*
X325506Y89202D01*
X325498Y89184D01*
X325485Y89169D01*
X325446Y89073D01*
X325403Y88979D01*
X325401Y88959D01*
X325393Y88941D01*
X325375Y88774D01*
X325375Y78301D01*
X276791Y29717D01*
X256609Y29717D01*
G37*
%LPD*%
%LPC*%
G36*
X507828Y196215D02*
X507828Y196215D01*
X506935Y197108D01*
X506935Y214372D01*
X507828Y215265D01*
X522092Y215265D01*
X522985Y214372D01*
X522985Y208788D01*
X522988Y208768D01*
X522986Y208749D01*
X523008Y208647D01*
X523024Y208545D01*
X523034Y208528D01*
X523038Y208508D01*
X523091Y208419D01*
X523140Y208328D01*
X523154Y208314D01*
X523164Y208297D01*
X523243Y208230D01*
X523318Y208158D01*
X523336Y208150D01*
X523351Y208137D01*
X523447Y208098D01*
X523541Y208055D01*
X523561Y208053D01*
X523579Y208045D01*
X523746Y208027D01*
X541281Y208027D01*
X541372Y208041D01*
X541462Y208049D01*
X541492Y208061D01*
X541524Y208066D01*
X541605Y208109D01*
X541689Y208145D01*
X541721Y208171D01*
X541742Y208182D01*
X541764Y208205D01*
X541820Y208250D01*
X543121Y209551D01*
X547432Y209551D01*
X547546Y209570D01*
X547663Y209587D01*
X547668Y209589D01*
X547674Y209590D01*
X547777Y209645D01*
X547882Y209698D01*
X547886Y209703D01*
X547892Y209706D01*
X547973Y209791D01*
X548054Y209874D01*
X548058Y209880D01*
X548061Y209884D01*
X548069Y209901D01*
X548135Y210021D01*
X548507Y210920D01*
X551080Y213493D01*
X554441Y214885D01*
X573319Y214885D01*
X576680Y213493D01*
X579253Y210920D01*
X580645Y207559D01*
X580645Y203921D01*
X579253Y200560D01*
X576680Y197987D01*
X573319Y196595D01*
X554441Y196595D01*
X551080Y197987D01*
X548507Y200560D01*
X547115Y203921D01*
X547115Y204216D01*
X547112Y204236D01*
X547114Y204255D01*
X547092Y204357D01*
X547076Y204459D01*
X547066Y204476D01*
X547062Y204496D01*
X547009Y204585D01*
X546960Y204676D01*
X546946Y204690D01*
X546936Y204707D01*
X546857Y204774D01*
X546782Y204846D01*
X546764Y204854D01*
X546749Y204867D01*
X546653Y204906D01*
X546559Y204949D01*
X546539Y204951D01*
X546521Y204959D01*
X546354Y204977D01*
X545331Y204977D01*
X545240Y204963D01*
X545150Y204955D01*
X545120Y204943D01*
X545088Y204938D01*
X545007Y204895D01*
X544923Y204859D01*
X544891Y204833D01*
X544870Y204822D01*
X544848Y204799D01*
X544792Y204754D01*
X543491Y203453D01*
X523746Y203453D01*
X523726Y203450D01*
X523707Y203452D01*
X523605Y203430D01*
X523503Y203414D01*
X523486Y203404D01*
X523466Y203400D01*
X523377Y203347D01*
X523286Y203298D01*
X523272Y203284D01*
X523255Y203274D01*
X523188Y203195D01*
X523116Y203120D01*
X523108Y203102D01*
X523095Y203087D01*
X523056Y202991D01*
X523013Y202897D01*
X523011Y202877D01*
X523003Y202859D01*
X522985Y202692D01*
X522985Y197108D01*
X522092Y196215D01*
X507828Y196215D01*
G37*
%LPD*%
%LPC*%
G36*
X240263Y62483D02*
X240263Y62483D01*
X235203Y67543D01*
X235203Y74697D01*
X240263Y79757D01*
X247417Y79757D01*
X247538Y79636D01*
X247554Y79625D01*
X247566Y79609D01*
X247641Y79561D01*
X247660Y79545D01*
X247671Y79540D01*
X247738Y79493D01*
X247757Y79487D01*
X247773Y79476D01*
X247874Y79451D01*
X247973Y79420D01*
X247993Y79421D01*
X248012Y79416D01*
X248115Y79424D01*
X248218Y79427D01*
X248237Y79434D01*
X248257Y79435D01*
X248352Y79476D01*
X248450Y79511D01*
X248465Y79524D01*
X248483Y79532D01*
X248552Y79587D01*
X248557Y79589D01*
X248563Y79595D01*
X248614Y79636D01*
X248950Y79972D01*
X249003Y80046D01*
X249063Y80116D01*
X249075Y80146D01*
X249094Y80172D01*
X249121Y80259D01*
X249155Y80344D01*
X249159Y80385D01*
X249166Y80407D01*
X249165Y80439D01*
X249173Y80511D01*
X249173Y149354D01*
X249170Y149374D01*
X249172Y149393D01*
X249150Y149495D01*
X249134Y149597D01*
X249124Y149614D01*
X249120Y149634D01*
X249067Y149723D01*
X249018Y149814D01*
X249004Y149828D01*
X248994Y149845D01*
X248915Y149912D01*
X248840Y149984D01*
X248822Y149992D01*
X248807Y150005D01*
X248711Y150044D01*
X248617Y150087D01*
X248597Y150089D01*
X248579Y150097D01*
X248412Y150115D01*
X242828Y150115D01*
X241935Y151008D01*
X241935Y165272D01*
X242828Y166165D01*
X260092Y166165D01*
X260985Y165272D01*
X260985Y151008D01*
X260092Y150115D01*
X254508Y150115D01*
X254488Y150112D01*
X254469Y150114D01*
X254367Y150092D01*
X254265Y150076D01*
X254248Y150066D01*
X254228Y150062D01*
X254139Y150009D01*
X254048Y149960D01*
X254034Y149946D01*
X254017Y149936D01*
X253950Y149857D01*
X253878Y149782D01*
X253870Y149764D01*
X253857Y149749D01*
X253818Y149653D01*
X253775Y149559D01*
X253773Y149539D01*
X253765Y149521D01*
X253747Y149354D01*
X253747Y78301D01*
X251848Y76402D01*
X251837Y76386D01*
X251821Y76374D01*
X251765Y76287D01*
X251705Y76203D01*
X251699Y76184D01*
X251688Y76167D01*
X251663Y76066D01*
X251632Y75968D01*
X251633Y75948D01*
X251628Y75928D01*
X251636Y75825D01*
X251639Y75722D01*
X251646Y75703D01*
X251647Y75683D01*
X251688Y75588D01*
X251723Y75491D01*
X251736Y75475D01*
X251744Y75457D01*
X251848Y75326D01*
X252477Y74697D01*
X252477Y67543D01*
X247417Y62483D01*
X240263Y62483D01*
G37*
%LPD*%
%LPC*%
G36*
X299554Y323877D02*
X299554Y323877D01*
X296445Y326986D01*
X296445Y331382D01*
X299242Y334179D01*
X299295Y334253D01*
X299355Y334323D01*
X299367Y334353D01*
X299386Y334379D01*
X299413Y334466D01*
X299447Y334551D01*
X299451Y334592D01*
X299458Y334614D01*
X299457Y334646D01*
X299465Y334717D01*
X299465Y339275D01*
X375442Y415252D01*
X375495Y415326D01*
X375555Y415396D01*
X375567Y415426D01*
X375586Y415452D01*
X375613Y415539D01*
X375647Y415624D01*
X375651Y415665D01*
X375658Y415687D01*
X375657Y415719D01*
X375665Y415791D01*
X375665Y416999D01*
X376907Y418241D01*
X376919Y418257D01*
X376934Y418269D01*
X376990Y418357D01*
X377050Y418441D01*
X377056Y418460D01*
X377067Y418476D01*
X377092Y418577D01*
X377123Y418676D01*
X377122Y418696D01*
X377127Y418715D01*
X377119Y418818D01*
X377116Y418921D01*
X377110Y418940D01*
X377108Y418960D01*
X377068Y419055D01*
X377032Y419153D01*
X377019Y419168D01*
X377012Y419186D01*
X376907Y419317D01*
X376649Y419575D01*
X375411Y422563D01*
X375411Y425797D01*
X376649Y428785D01*
X378935Y431071D01*
X381923Y432309D01*
X385157Y432309D01*
X388145Y431071D01*
X390431Y428785D01*
X391669Y425797D01*
X391669Y422563D01*
X390431Y419575D01*
X388145Y417289D01*
X385157Y416051D01*
X381923Y416051D01*
X381871Y416073D01*
X381758Y416099D01*
X381644Y416128D01*
X381638Y416127D01*
X381632Y416129D01*
X381516Y416118D01*
X381399Y416109D01*
X381393Y416106D01*
X381387Y416106D01*
X381280Y416058D01*
X381173Y416013D01*
X381167Y416008D01*
X381162Y416006D01*
X381149Y415993D01*
X381042Y415908D01*
X380462Y415328D01*
X380408Y415254D01*
X380349Y415184D01*
X380337Y415154D01*
X380318Y415128D01*
X380291Y415041D01*
X380257Y414956D01*
X380253Y414915D01*
X380246Y414893D01*
X380247Y414861D01*
X380239Y414789D01*
X380239Y413581D01*
X304262Y337604D01*
X304209Y337530D01*
X304149Y337460D01*
X304137Y337430D01*
X304118Y337404D01*
X304091Y337317D01*
X304057Y337232D01*
X304053Y337191D01*
X304046Y337169D01*
X304047Y337137D01*
X304039Y337065D01*
X304039Y334717D01*
X304053Y334627D01*
X304061Y334536D01*
X304073Y334507D01*
X304078Y334475D01*
X304121Y334394D01*
X304157Y334310D01*
X304183Y334278D01*
X304194Y334257D01*
X304217Y334235D01*
X304262Y334179D01*
X307059Y331382D01*
X307059Y326986D01*
X303950Y323877D01*
X299554Y323877D01*
G37*
%LPD*%
%LPC*%
G36*
X340702Y398553D02*
X340702Y398553D01*
X337593Y401662D01*
X337593Y406058D01*
X340702Y409167D01*
X344657Y409167D01*
X344748Y409181D01*
X344838Y409189D01*
X344868Y409201D01*
X344900Y409206D01*
X344981Y409249D01*
X345065Y409285D01*
X345097Y409311D01*
X345118Y409322D01*
X345140Y409345D01*
X345196Y409390D01*
X348010Y412204D01*
X348063Y412278D01*
X348123Y412348D01*
X348135Y412378D01*
X348154Y412404D01*
X348181Y412491D01*
X348215Y412576D01*
X348219Y412617D01*
X348226Y412639D01*
X348225Y412671D01*
X348233Y412743D01*
X348233Y535487D01*
X348219Y535577D01*
X348211Y535668D01*
X348199Y535697D01*
X348194Y535729D01*
X348151Y535810D01*
X348115Y535894D01*
X348089Y535926D01*
X348078Y535947D01*
X348055Y535969D01*
X348010Y536025D01*
X345213Y538822D01*
X345213Y543218D01*
X348322Y546327D01*
X352718Y546327D01*
X355827Y543218D01*
X355827Y538822D01*
X353030Y536025D01*
X352977Y535951D01*
X352917Y535881D01*
X352905Y535851D01*
X352886Y535825D01*
X352859Y535738D01*
X352825Y535653D01*
X352821Y535612D01*
X352814Y535590D01*
X352815Y535558D01*
X352807Y535487D01*
X352807Y410533D01*
X348430Y406156D01*
X348377Y406082D01*
X348317Y406012D01*
X348305Y405982D01*
X348286Y405956D01*
X348259Y405869D01*
X348225Y405784D01*
X348221Y405743D01*
X348214Y405721D01*
X348215Y405689D01*
X348207Y405617D01*
X348207Y401662D01*
X345098Y398553D01*
X340702Y398553D01*
G37*
%LPD*%
%LPC*%
G36*
X33589Y414273D02*
X33589Y414273D01*
X29948Y415781D01*
X27161Y418568D01*
X25653Y422209D01*
X25653Y426151D01*
X27161Y429792D01*
X29948Y432579D01*
X33589Y434087D01*
X37531Y434087D01*
X41172Y432579D01*
X43959Y429792D01*
X45352Y426429D01*
X45413Y426329D01*
X45473Y426229D01*
X45478Y426225D01*
X45481Y426220D01*
X45571Y426145D01*
X45660Y426069D01*
X45666Y426067D01*
X45671Y426063D01*
X45779Y426021D01*
X45888Y425977D01*
X45896Y425976D01*
X45900Y425975D01*
X45919Y425974D01*
X46055Y425959D01*
X49029Y425959D01*
X49120Y425973D01*
X49210Y425981D01*
X49240Y425993D01*
X49272Y425998D01*
X49353Y426041D01*
X49437Y426077D01*
X49469Y426103D01*
X49490Y426114D01*
X49512Y426137D01*
X49568Y426182D01*
X53917Y430531D01*
X76074Y430531D01*
X76094Y430534D01*
X76113Y430532D01*
X76215Y430554D01*
X76317Y430570D01*
X76334Y430580D01*
X76354Y430584D01*
X76443Y430637D01*
X76534Y430686D01*
X76548Y430700D01*
X76565Y430710D01*
X76632Y430789D01*
X76704Y430864D01*
X76712Y430882D01*
X76725Y430897D01*
X76764Y430993D01*
X76807Y431087D01*
X76809Y431107D01*
X76817Y431125D01*
X76835Y431292D01*
X76835Y434512D01*
X77728Y435405D01*
X94992Y435405D01*
X95885Y434512D01*
X95885Y420248D01*
X94992Y419355D01*
X77728Y419355D01*
X76835Y420248D01*
X76835Y425196D01*
X76832Y425216D01*
X76834Y425235D01*
X76812Y425337D01*
X76796Y425439D01*
X76786Y425456D01*
X76782Y425476D01*
X76729Y425565D01*
X76680Y425656D01*
X76666Y425670D01*
X76656Y425687D01*
X76577Y425754D01*
X76502Y425826D01*
X76484Y425834D01*
X76469Y425847D01*
X76373Y425886D01*
X76279Y425929D01*
X76259Y425931D01*
X76241Y425939D01*
X76074Y425957D01*
X56127Y425957D01*
X56036Y425943D01*
X55946Y425935D01*
X55916Y425923D01*
X55884Y425918D01*
X55803Y425875D01*
X55719Y425839D01*
X55687Y425813D01*
X55666Y425802D01*
X55644Y425779D01*
X55588Y425734D01*
X51239Y421385D01*
X45634Y421385D01*
X45519Y421366D01*
X45403Y421349D01*
X45397Y421347D01*
X45391Y421346D01*
X45289Y421291D01*
X45184Y421238D01*
X45179Y421233D01*
X45174Y421230D01*
X45094Y421146D01*
X45012Y421062D01*
X45008Y421056D01*
X45005Y421052D01*
X44997Y421035D01*
X44931Y420915D01*
X43959Y418568D01*
X41172Y415781D01*
X37531Y414273D01*
X33589Y414273D01*
G37*
%LPD*%
%LPC*%
G36*
X507828Y359275D02*
X507828Y359275D01*
X506935Y360168D01*
X506935Y376432D01*
X507828Y377325D01*
X522092Y377325D01*
X522985Y376432D01*
X522985Y371856D01*
X522988Y371836D01*
X522986Y371817D01*
X523008Y371715D01*
X523024Y371613D01*
X523034Y371596D01*
X523038Y371576D01*
X523091Y371487D01*
X523140Y371396D01*
X523154Y371382D01*
X523164Y371365D01*
X523243Y371298D01*
X523318Y371226D01*
X523336Y371218D01*
X523351Y371205D01*
X523447Y371166D01*
X523541Y371123D01*
X523561Y371121D01*
X523579Y371113D01*
X523746Y371095D01*
X535487Y371095D01*
X535577Y371109D01*
X535668Y371117D01*
X535697Y371129D01*
X535729Y371134D01*
X535810Y371177D01*
X535894Y371213D01*
X535926Y371239D01*
X535947Y371250D01*
X535969Y371273D01*
X536025Y371318D01*
X538822Y374115D01*
X543218Y374115D01*
X546015Y371318D01*
X546089Y371265D01*
X546159Y371205D01*
X546189Y371193D01*
X546215Y371174D01*
X546302Y371147D01*
X546387Y371113D01*
X546428Y371109D01*
X546450Y371102D01*
X546482Y371103D01*
X546553Y371095D01*
X548134Y371095D01*
X548154Y371098D01*
X548173Y371096D01*
X548275Y371118D01*
X548377Y371134D01*
X548394Y371144D01*
X548414Y371148D01*
X548503Y371201D01*
X548594Y371250D01*
X548608Y371264D01*
X548625Y371274D01*
X548692Y371353D01*
X548764Y371428D01*
X548772Y371446D01*
X548785Y371461D01*
X548824Y371557D01*
X548867Y371651D01*
X548869Y371671D01*
X548877Y371689D01*
X548895Y371856D01*
X548895Y379472D01*
X549788Y380365D01*
X564052Y380365D01*
X564945Y379472D01*
X564945Y362208D01*
X564052Y361315D01*
X549788Y361315D01*
X548895Y362208D01*
X548895Y365760D01*
X548892Y365780D01*
X548894Y365799D01*
X548872Y365901D01*
X548856Y366003D01*
X548846Y366020D01*
X548842Y366040D01*
X548789Y366129D01*
X548740Y366220D01*
X548726Y366234D01*
X548716Y366251D01*
X548637Y366318D01*
X548562Y366390D01*
X548544Y366398D01*
X548529Y366411D01*
X548433Y366450D01*
X548339Y366493D01*
X548319Y366495D01*
X548301Y366503D01*
X548134Y366521D01*
X546553Y366521D01*
X546463Y366507D01*
X546372Y366499D01*
X546343Y366487D01*
X546311Y366482D01*
X546230Y366439D01*
X546146Y366403D01*
X546114Y366377D01*
X546093Y366366D01*
X546071Y366343D01*
X546015Y366298D01*
X543218Y363501D01*
X538822Y363501D01*
X536025Y366298D01*
X535951Y366351D01*
X535881Y366411D01*
X535851Y366423D01*
X535825Y366442D01*
X535738Y366469D01*
X535653Y366503D01*
X535612Y366507D01*
X535590Y366514D01*
X535558Y366513D01*
X535487Y366521D01*
X523746Y366521D01*
X523726Y366518D01*
X523707Y366520D01*
X523605Y366498D01*
X523503Y366482D01*
X523486Y366472D01*
X523466Y366468D01*
X523377Y366415D01*
X523286Y366366D01*
X523272Y366352D01*
X523255Y366342D01*
X523188Y366263D01*
X523116Y366188D01*
X523108Y366170D01*
X523095Y366155D01*
X523056Y366059D01*
X523013Y365965D01*
X523011Y365945D01*
X523003Y365927D01*
X522985Y365760D01*
X522985Y360168D01*
X522092Y359275D01*
X507828Y359275D01*
G37*
%LPD*%
%LPC*%
G36*
X58762Y541809D02*
X58762Y541809D01*
X55653Y544918D01*
X55653Y549314D01*
X58573Y552234D01*
X58585Y552250D01*
X58600Y552263D01*
X58657Y552350D01*
X58717Y552434D01*
X58723Y552453D01*
X58733Y552470D01*
X58759Y552570D01*
X58789Y552669D01*
X58789Y552689D01*
X58793Y552708D01*
X58785Y552811D01*
X58783Y552915D01*
X58776Y552933D01*
X58774Y552953D01*
X58734Y553049D01*
X58698Y553146D01*
X58686Y553161D01*
X58678Y553180D01*
X58675Y553183D01*
X58675Y569472D01*
X59568Y570365D01*
X71945Y570365D01*
X72036Y570379D01*
X72126Y570387D01*
X72156Y570399D01*
X72188Y570404D01*
X72269Y570447D01*
X72353Y570483D01*
X72385Y570509D01*
X72406Y570520D01*
X72428Y570543D01*
X72484Y570588D01*
X85042Y583146D01*
X85095Y583220D01*
X85155Y583290D01*
X85167Y583320D01*
X85186Y583346D01*
X85213Y583433D01*
X85247Y583518D01*
X85251Y583559D01*
X85258Y583581D01*
X85257Y583613D01*
X85265Y583685D01*
X85265Y593083D01*
X86567Y594385D01*
X96313Y594385D01*
X97615Y593083D01*
X97615Y579537D01*
X96313Y578235D01*
X86915Y578235D01*
X86824Y578221D01*
X86734Y578213D01*
X86704Y578201D01*
X86672Y578196D01*
X86591Y578153D01*
X86507Y578117D01*
X86475Y578091D01*
X86454Y578080D01*
X86432Y578057D01*
X86376Y578012D01*
X81044Y572680D01*
X81002Y572622D01*
X80953Y572570D01*
X80931Y572523D01*
X80901Y572481D01*
X80880Y572412D01*
X80849Y572347D01*
X80844Y572295D01*
X80828Y572245D01*
X80830Y572174D01*
X80822Y572103D01*
X80833Y572052D01*
X80835Y572000D01*
X80859Y571932D01*
X80874Y571862D01*
X80901Y571817D01*
X80919Y571769D01*
X80964Y571713D01*
X81001Y571651D01*
X81040Y571617D01*
X81073Y571577D01*
X81133Y571538D01*
X81188Y571491D01*
X81236Y571472D01*
X81280Y571444D01*
X81349Y571426D01*
X81416Y571399D01*
X81487Y571391D01*
X81518Y571383D01*
X81542Y571385D01*
X81582Y571381D01*
X84177Y571381D01*
X84177Y562863D01*
X76659Y562863D01*
X76659Y566458D01*
X76648Y566528D01*
X76646Y566600D01*
X76628Y566649D01*
X76620Y566700D01*
X76586Y566764D01*
X76561Y566831D01*
X76529Y566872D01*
X76504Y566918D01*
X76453Y566967D01*
X76408Y567023D01*
X76364Y567051D01*
X76326Y567087D01*
X76261Y567117D01*
X76201Y567156D01*
X76150Y567169D01*
X76103Y567191D01*
X76032Y567199D01*
X75962Y567216D01*
X75910Y567212D01*
X75859Y567218D01*
X75788Y567203D01*
X75717Y567197D01*
X75669Y567177D01*
X75618Y567166D01*
X75557Y567129D01*
X75491Y567101D01*
X75435Y567056D01*
X75407Y567039D01*
X75392Y567022D01*
X75360Y566996D01*
X74948Y566584D01*
X74894Y566510D01*
X74835Y566440D01*
X74823Y566410D01*
X74804Y566384D01*
X74777Y566297D01*
X74743Y566212D01*
X74739Y566171D01*
X74732Y566149D01*
X74733Y566117D01*
X74725Y566045D01*
X74725Y553208D01*
X73832Y552315D01*
X68580Y552315D01*
X68560Y552312D01*
X68541Y552314D01*
X68439Y552292D01*
X68337Y552276D01*
X68320Y552266D01*
X68300Y552262D01*
X68211Y552209D01*
X68120Y552160D01*
X68106Y552146D01*
X68089Y552136D01*
X68022Y552057D01*
X67950Y551982D01*
X67942Y551964D01*
X67929Y551949D01*
X67890Y551853D01*
X67847Y551759D01*
X67845Y551739D01*
X67837Y551721D01*
X67819Y551554D01*
X67819Y550741D01*
X66490Y549412D01*
X66437Y549338D01*
X66377Y549268D01*
X66365Y549238D01*
X66346Y549212D01*
X66319Y549125D01*
X66285Y549040D01*
X66281Y548999D01*
X66274Y548977D01*
X66275Y548945D01*
X66267Y548873D01*
X66267Y544918D01*
X63158Y541809D01*
X58762Y541809D01*
G37*
%LPD*%
%LPC*%
G36*
X75184Y645135D02*
X75184Y645135D01*
X73715Y646604D01*
X73715Y659816D01*
X75184Y661285D01*
X107696Y661285D01*
X109165Y659816D01*
X109165Y646604D01*
X107696Y645135D01*
X75184Y645135D01*
G37*
%LPD*%
%LPC*%
G36*
X529041Y506475D02*
X529041Y506475D01*
X525680Y507867D01*
X523107Y510440D01*
X521715Y513801D01*
X521715Y532679D01*
X523107Y536040D01*
X525680Y538613D01*
X529041Y540005D01*
X532679Y540005D01*
X536040Y538613D01*
X538613Y536040D01*
X540005Y532679D01*
X540005Y513801D01*
X538613Y510440D01*
X536040Y507867D01*
X532679Y506475D01*
X529041Y506475D01*
G37*
%LPD*%
%LPC*%
G36*
X546821Y288035D02*
X546821Y288035D01*
X543460Y289427D01*
X540887Y292000D01*
X539495Y295361D01*
X539495Y298999D01*
X540887Y302360D01*
X543460Y304933D01*
X546821Y306325D01*
X565699Y306325D01*
X569060Y304933D01*
X571633Y302360D01*
X573025Y298999D01*
X573025Y295361D01*
X571633Y292000D01*
X569060Y289427D01*
X565699Y288035D01*
X546821Y288035D01*
G37*
%LPD*%
%LPC*%
G36*
X236941Y661415D02*
X236941Y661415D01*
X233580Y662807D01*
X231007Y665380D01*
X229615Y668741D01*
X229615Y687619D01*
X231007Y690980D01*
X233580Y693553D01*
X236941Y694945D01*
X240579Y694945D01*
X243940Y693553D01*
X246513Y690980D01*
X247905Y687619D01*
X247905Y668741D01*
X246513Y665380D01*
X243940Y662807D01*
X240579Y661415D01*
X236941Y661415D01*
G37*
%LPD*%
%LPC*%
G36*
X186141Y661415D02*
X186141Y661415D01*
X182780Y662807D01*
X180207Y665380D01*
X178815Y668741D01*
X178815Y687619D01*
X180207Y690980D01*
X182780Y693553D01*
X186141Y694945D01*
X189779Y694945D01*
X193140Y693553D01*
X195713Y690980D01*
X197105Y687619D01*
X197105Y668741D01*
X195713Y665380D01*
X193140Y662807D01*
X189779Y661415D01*
X186141Y661415D01*
G37*
%LPD*%
%LPC*%
G36*
X211541Y661415D02*
X211541Y661415D01*
X208180Y662807D01*
X205607Y665380D01*
X204215Y668741D01*
X204215Y687619D01*
X205607Y690980D01*
X208180Y693553D01*
X211541Y694945D01*
X215179Y694945D01*
X218540Y693553D01*
X221113Y690980D01*
X222505Y687619D01*
X222505Y668741D01*
X221113Y665380D01*
X218540Y662807D01*
X215179Y661415D01*
X211541Y661415D01*
G37*
%LPD*%
%LPC*%
G36*
X554441Y171195D02*
X554441Y171195D01*
X551080Y172587D01*
X548507Y175160D01*
X547115Y178521D01*
X547115Y182159D01*
X548507Y185520D01*
X551080Y188093D01*
X554441Y189485D01*
X573319Y189485D01*
X576680Y188093D01*
X579253Y185520D01*
X580645Y182159D01*
X580645Y178521D01*
X579253Y175160D01*
X576680Y172587D01*
X573319Y171195D01*
X554441Y171195D01*
G37*
%LPD*%
%LPC*%
G36*
X554441Y506475D02*
X554441Y506475D01*
X551080Y507867D01*
X548507Y510440D01*
X547115Y513801D01*
X547115Y532679D01*
X548507Y536040D01*
X551080Y538613D01*
X554441Y540005D01*
X558079Y540005D01*
X561440Y538613D01*
X564013Y536040D01*
X565405Y532679D01*
X565405Y513801D01*
X564013Y510440D01*
X561440Y507867D01*
X558079Y506475D01*
X554441Y506475D01*
G37*
%LPD*%
%LPC*%
G36*
X315681Y112775D02*
X315681Y112775D01*
X312320Y114167D01*
X309747Y116740D01*
X308355Y120101D01*
X308355Y138979D01*
X309747Y142340D01*
X312320Y144913D01*
X315681Y146305D01*
X319319Y146305D01*
X322680Y144913D01*
X325253Y142340D01*
X326645Y138979D01*
X326645Y120101D01*
X325253Y116740D01*
X322680Y114167D01*
X319319Y112775D01*
X315681Y112775D01*
G37*
%LPD*%
%LPC*%
G36*
X341081Y112775D02*
X341081Y112775D01*
X337720Y114167D01*
X335147Y116740D01*
X333755Y120101D01*
X333755Y138979D01*
X335147Y142340D01*
X337720Y144913D01*
X341081Y146305D01*
X344719Y146305D01*
X348080Y144913D01*
X350653Y142340D01*
X352045Y138979D01*
X352045Y120101D01*
X350653Y116740D01*
X348080Y114167D01*
X344719Y112775D01*
X341081Y112775D01*
G37*
%LPD*%
%LPC*%
G36*
X264881Y112775D02*
X264881Y112775D01*
X261520Y114167D01*
X258947Y116740D01*
X257555Y120101D01*
X257555Y138979D01*
X258947Y142340D01*
X261520Y144913D01*
X264881Y146305D01*
X268519Y146305D01*
X271880Y144913D01*
X274453Y142340D01*
X275845Y138979D01*
X275845Y120101D01*
X274453Y116740D01*
X271880Y114167D01*
X268519Y112775D01*
X264881Y112775D01*
G37*
%LPD*%
%LPC*%
G36*
X290281Y112775D02*
X290281Y112775D01*
X286920Y114167D01*
X284347Y116740D01*
X282955Y120101D01*
X282955Y138979D01*
X284347Y142340D01*
X286920Y144913D01*
X290281Y146305D01*
X293919Y146305D01*
X297280Y144913D01*
X299853Y142340D01*
X301245Y138979D01*
X301245Y120101D01*
X299853Y116740D01*
X297280Y114167D01*
X293919Y112775D01*
X290281Y112775D01*
G37*
%LPD*%
%LPC*%
G36*
X125988Y533655D02*
X125988Y533655D01*
X125095Y534548D01*
X125095Y539496D01*
X125092Y539516D01*
X125094Y539535D01*
X125072Y539637D01*
X125056Y539739D01*
X125046Y539756D01*
X125042Y539776D01*
X124989Y539865D01*
X124940Y539956D01*
X124926Y539970D01*
X124916Y539987D01*
X124837Y540054D01*
X124762Y540126D01*
X124744Y540134D01*
X124729Y540147D01*
X124633Y540186D01*
X124539Y540229D01*
X124519Y540231D01*
X124501Y540239D01*
X124334Y540257D01*
X110305Y540257D01*
X107452Y543110D01*
X107378Y543163D01*
X107308Y543223D01*
X107278Y543235D01*
X107252Y543254D01*
X107165Y543281D01*
X107080Y543315D01*
X107039Y543319D01*
X107017Y543326D01*
X106985Y543325D01*
X106913Y543333D01*
X102958Y543333D01*
X99849Y546442D01*
X99849Y550838D01*
X102958Y553947D01*
X107354Y553947D01*
X110463Y550838D01*
X110463Y546883D01*
X110477Y546792D01*
X110485Y546702D01*
X110497Y546672D01*
X110502Y546640D01*
X110545Y546559D01*
X110581Y546475D01*
X110607Y546443D01*
X110618Y546422D01*
X110641Y546400D01*
X110686Y546344D01*
X111976Y545054D01*
X112050Y545001D01*
X112120Y544941D01*
X112150Y544929D01*
X112176Y544910D01*
X112263Y544883D01*
X112348Y544849D01*
X112389Y544845D01*
X112411Y544838D01*
X112443Y544839D01*
X112515Y544831D01*
X124334Y544831D01*
X124354Y544834D01*
X124373Y544832D01*
X124475Y544854D01*
X124577Y544870D01*
X124594Y544880D01*
X124614Y544884D01*
X124703Y544937D01*
X124794Y544986D01*
X124808Y545000D01*
X124825Y545010D01*
X124892Y545089D01*
X124964Y545164D01*
X124972Y545182D01*
X124985Y545197D01*
X125024Y545293D01*
X125067Y545387D01*
X125069Y545407D01*
X125077Y545425D01*
X125095Y545592D01*
X125095Y548812D01*
X125988Y549705D01*
X143252Y549705D01*
X144145Y548812D01*
X144145Y534548D01*
X143252Y533655D01*
X125988Y533655D01*
G37*
%LPD*%
%LPC*%
G36*
X192528Y355855D02*
X192528Y355855D01*
X191635Y356748D01*
X191635Y371012D01*
X192528Y371905D01*
X208816Y371905D01*
X208836Y371908D01*
X208855Y371906D01*
X208957Y371928D01*
X209059Y371944D01*
X209076Y371954D01*
X209096Y371958D01*
X209185Y372011D01*
X209276Y372060D01*
X209290Y372074D01*
X209307Y372084D01*
X209374Y372163D01*
X209446Y372238D01*
X209454Y372256D01*
X209467Y372271D01*
X209506Y372367D01*
X209549Y372461D01*
X209551Y372481D01*
X209559Y372499D01*
X209560Y372513D01*
X209753Y372706D01*
X209781Y372745D01*
X209816Y372777D01*
X209852Y372844D01*
X209897Y372906D01*
X209911Y372951D01*
X209934Y372994D01*
X209947Y373068D01*
X209969Y373141D01*
X209968Y373189D01*
X209976Y373236D01*
X209965Y373311D01*
X209963Y373387D01*
X209946Y373432D01*
X209939Y373479D01*
X209904Y373546D01*
X209878Y373618D01*
X209848Y373655D01*
X209826Y373698D01*
X209772Y373750D01*
X209724Y373810D01*
X209684Y373836D01*
X209650Y373869D01*
X209581Y373902D01*
X209518Y373943D01*
X209471Y373954D01*
X209428Y373975D01*
X209352Y373984D01*
X209279Y374003D01*
X209231Y373999D01*
X209184Y374005D01*
X209056Y373985D01*
X209034Y373984D01*
X209028Y373981D01*
X209018Y373979D01*
X208494Y373839D01*
X202183Y373839D01*
X202183Y381357D01*
X210701Y381357D01*
X210701Y376046D01*
X210561Y375522D01*
X210556Y375475D01*
X210542Y375429D01*
X210544Y375353D01*
X210536Y375278D01*
X210547Y375231D01*
X210548Y375183D01*
X210574Y375112D01*
X210591Y375038D01*
X210616Y374997D01*
X210632Y374952D01*
X210680Y374893D01*
X210719Y374828D01*
X210756Y374797D01*
X210786Y374760D01*
X210850Y374719D01*
X210908Y374670D01*
X210953Y374653D01*
X210993Y374627D01*
X211067Y374608D01*
X211137Y374581D01*
X211185Y374578D01*
X211232Y374567D01*
X211307Y374573D01*
X211383Y374569D01*
X211429Y374582D01*
X211477Y374586D01*
X211547Y374615D01*
X211619Y374636D01*
X211659Y374663D01*
X211703Y374682D01*
X211804Y374763D01*
X211822Y374775D01*
X211826Y374781D01*
X211834Y374787D01*
X212686Y375639D01*
X217082Y375639D01*
X220191Y372530D01*
X220191Y368134D01*
X217082Y365025D01*
X213127Y365025D01*
X213036Y365011D01*
X212946Y365003D01*
X212916Y364991D01*
X212884Y364986D01*
X212803Y364943D01*
X212719Y364907D01*
X212687Y364881D01*
X212666Y364870D01*
X212644Y364847D01*
X212588Y364802D01*
X209908Y362122D01*
X209855Y362048D01*
X209795Y361978D01*
X209783Y361948D01*
X209764Y361922D01*
X209737Y361835D01*
X209703Y361750D01*
X209699Y361709D01*
X209692Y361687D01*
X209693Y361655D01*
X209685Y361584D01*
X209685Y356748D01*
X208792Y355855D01*
X192528Y355855D01*
G37*
%LPD*%
%LPC*%
G36*
X491578Y179097D02*
X491578Y179097D01*
X488469Y182206D01*
X488469Y186602D01*
X491266Y189399D01*
X491319Y189473D01*
X491379Y189543D01*
X491391Y189573D01*
X491410Y189599D01*
X491437Y189686D01*
X491471Y189771D01*
X491475Y189812D01*
X491482Y189834D01*
X491481Y189866D01*
X491489Y189937D01*
X491489Y195454D01*
X491486Y195474D01*
X491488Y195493D01*
X491466Y195595D01*
X491450Y195697D01*
X491440Y195714D01*
X491436Y195734D01*
X491383Y195823D01*
X491334Y195914D01*
X491320Y195928D01*
X491310Y195945D01*
X491231Y196012D01*
X491156Y196084D01*
X491138Y196092D01*
X491123Y196105D01*
X491027Y196144D01*
X490933Y196187D01*
X490913Y196189D01*
X490895Y196197D01*
X490728Y196215D01*
X488828Y196215D01*
X487935Y197108D01*
X487935Y214372D01*
X488828Y215265D01*
X503092Y215265D01*
X503985Y214372D01*
X503985Y197108D01*
X503092Y196215D01*
X496824Y196215D01*
X496804Y196212D01*
X496785Y196214D01*
X496683Y196192D01*
X496581Y196176D01*
X496564Y196166D01*
X496544Y196162D01*
X496455Y196109D01*
X496364Y196060D01*
X496350Y196046D01*
X496333Y196036D01*
X496266Y195957D01*
X496194Y195882D01*
X496186Y195864D01*
X496173Y195849D01*
X496134Y195753D01*
X496091Y195659D01*
X496089Y195639D01*
X496081Y195621D01*
X496063Y195454D01*
X496063Y189937D01*
X496077Y189847D01*
X496085Y189756D01*
X496097Y189727D01*
X496102Y189695D01*
X496145Y189614D01*
X496181Y189530D01*
X496207Y189498D01*
X496218Y189477D01*
X496241Y189455D01*
X496286Y189399D01*
X499083Y186602D01*
X499083Y182206D01*
X495974Y179097D01*
X491578Y179097D01*
G37*
%LPD*%
%LPC*%
G36*
X352048Y593295D02*
X352048Y593295D01*
X351155Y594188D01*
X351155Y608452D01*
X352048Y609345D01*
X360431Y609345D01*
X360522Y609359D01*
X360612Y609367D01*
X360642Y609379D01*
X360674Y609384D01*
X360755Y609427D01*
X360839Y609463D01*
X360871Y609489D01*
X360892Y609500D01*
X360914Y609523D01*
X360970Y609568D01*
X363278Y611876D01*
X363331Y611950D01*
X363391Y612020D01*
X363403Y612050D01*
X363422Y612076D01*
X363449Y612163D01*
X363483Y612248D01*
X363487Y612289D01*
X363494Y612311D01*
X363493Y612343D01*
X363501Y612415D01*
X363501Y616370D01*
X366610Y619479D01*
X371006Y619479D01*
X374115Y616370D01*
X374115Y611974D01*
X371006Y608865D01*
X370966Y608865D01*
X370946Y608862D01*
X370927Y608864D01*
X370825Y608842D01*
X370723Y608826D01*
X370706Y608816D01*
X370686Y608812D01*
X370597Y608759D01*
X370506Y608710D01*
X370492Y608696D01*
X370475Y608686D01*
X370408Y608607D01*
X370336Y608532D01*
X370328Y608514D01*
X370315Y608499D01*
X370276Y608403D01*
X370233Y608309D01*
X370231Y608289D01*
X370223Y608271D01*
X370205Y608104D01*
X370205Y594188D01*
X369312Y593295D01*
X352048Y593295D01*
G37*
%LPD*%
%LPC*%
G36*
X352048Y574295D02*
X352048Y574295D01*
X351155Y575188D01*
X351155Y589452D01*
X352048Y590345D01*
X369312Y590345D01*
X370205Y589452D01*
X370205Y586811D01*
X370216Y586741D01*
X370218Y586669D01*
X370236Y586620D01*
X370244Y586569D01*
X370278Y586505D01*
X370303Y586438D01*
X370335Y586397D01*
X370360Y586351D01*
X370412Y586302D01*
X370456Y586246D01*
X370500Y586218D01*
X370538Y586182D01*
X370603Y586152D01*
X370663Y586113D01*
X370714Y586100D01*
X370761Y586078D01*
X370832Y586070D01*
X370902Y586053D01*
X370954Y586057D01*
X371005Y586051D01*
X371076Y586066D01*
X371147Y586072D01*
X371195Y586092D01*
X371246Y586103D01*
X371307Y586140D01*
X371373Y586168D01*
X371429Y586213D01*
X371457Y586230D01*
X371472Y586247D01*
X371504Y586273D01*
X372706Y587475D01*
X377102Y587475D01*
X380211Y584366D01*
X380211Y579970D01*
X377102Y576861D01*
X372706Y576861D01*
X371504Y578063D01*
X371446Y578105D01*
X371394Y578154D01*
X371347Y578176D01*
X371305Y578206D01*
X371236Y578228D01*
X371171Y578258D01*
X371119Y578263D01*
X371069Y578279D01*
X370998Y578277D01*
X370927Y578285D01*
X370876Y578274D01*
X370824Y578272D01*
X370756Y578248D01*
X370686Y578233D01*
X370641Y578206D01*
X370593Y578188D01*
X370537Y578143D01*
X370475Y578106D01*
X370441Y578067D01*
X370401Y578034D01*
X370362Y577974D01*
X370315Y577919D01*
X370296Y577871D01*
X370268Y577827D01*
X370250Y577758D01*
X370223Y577691D01*
X370215Y577620D01*
X370207Y577589D01*
X370209Y577566D01*
X370205Y577525D01*
X370205Y575188D01*
X369312Y574295D01*
X352048Y574295D01*
G37*
%LPD*%
%LPC*%
G36*
X77728Y438355D02*
X77728Y438355D01*
X76835Y439248D01*
X76835Y453512D01*
X77728Y454405D01*
X81845Y454405D01*
X81915Y454416D01*
X81987Y454418D01*
X82036Y454436D01*
X82087Y454444D01*
X82151Y454478D01*
X82218Y454503D01*
X82259Y454535D01*
X82305Y454560D01*
X82354Y454612D01*
X82410Y454656D01*
X82438Y454700D01*
X82474Y454738D01*
X82504Y454803D01*
X82543Y454863D01*
X82556Y454914D01*
X82578Y454961D01*
X82586Y455032D01*
X82603Y455102D01*
X82599Y455154D01*
X82605Y455205D01*
X82590Y455276D01*
X82584Y455347D01*
X82564Y455395D01*
X82553Y455446D01*
X82516Y455507D01*
X82488Y455573D01*
X82443Y455629D01*
X82426Y455657D01*
X82409Y455672D01*
X82383Y455704D01*
X81561Y456526D01*
X81561Y460922D01*
X84670Y464031D01*
X89066Y464031D01*
X92175Y460922D01*
X92175Y456526D01*
X91353Y455704D01*
X91311Y455646D01*
X91262Y455594D01*
X91240Y455547D01*
X91210Y455505D01*
X91188Y455436D01*
X91158Y455371D01*
X91153Y455319D01*
X91137Y455269D01*
X91139Y455198D01*
X91131Y455127D01*
X91142Y455076D01*
X91144Y455024D01*
X91168Y454956D01*
X91183Y454886D01*
X91210Y454841D01*
X91228Y454793D01*
X91273Y454737D01*
X91310Y454675D01*
X91349Y454641D01*
X91382Y454601D01*
X91442Y454562D01*
X91497Y454515D01*
X91545Y454496D01*
X91589Y454468D01*
X91658Y454450D01*
X91725Y454423D01*
X91796Y454415D01*
X91827Y454407D01*
X91850Y454409D01*
X91891Y454405D01*
X94992Y454405D01*
X95885Y453512D01*
X95885Y439248D01*
X94992Y438355D01*
X77728Y438355D01*
G37*
%LPD*%
%LPC*%
G36*
X413008Y595835D02*
X413008Y595835D01*
X412115Y596728D01*
X412115Y610289D01*
X412101Y610379D01*
X412093Y610470D01*
X412081Y610499D01*
X412076Y610531D01*
X412033Y610612D01*
X411997Y610696D01*
X411971Y610728D01*
X411960Y610749D01*
X411937Y610771D01*
X411892Y610827D01*
X409221Y613498D01*
X409221Y617894D01*
X412330Y621003D01*
X416726Y621003D01*
X419835Y617894D01*
X419835Y613939D01*
X419849Y613848D01*
X419857Y613758D01*
X419869Y613728D01*
X419874Y613696D01*
X419917Y613615D01*
X419953Y613531D01*
X419979Y613499D01*
X419990Y613478D01*
X420013Y613456D01*
X420058Y613400D01*
X421350Y612108D01*
X421424Y612055D01*
X421494Y611995D01*
X421524Y611983D01*
X421550Y611964D01*
X421637Y611937D01*
X421722Y611903D01*
X421763Y611899D01*
X421785Y611892D01*
X421817Y611893D01*
X421889Y611885D01*
X430272Y611885D01*
X431165Y610992D01*
X431165Y596728D01*
X430272Y595835D01*
X413008Y595835D01*
G37*
%LPD*%
%LPC*%
G36*
X480427Y37337D02*
X480427Y37337D01*
X476413Y39000D01*
X473340Y42073D01*
X471677Y46087D01*
X471677Y50433D01*
X473340Y54447D01*
X476413Y57520D01*
X480427Y59183D01*
X484773Y59183D01*
X488787Y57520D01*
X491860Y54447D01*
X493523Y50433D01*
X493523Y46087D01*
X491860Y42073D01*
X488787Y39000D01*
X484773Y37337D01*
X480427Y37337D01*
G37*
%LPD*%
%LPC*%
G36*
X455027Y37337D02*
X455027Y37337D01*
X451013Y39000D01*
X447940Y42073D01*
X446277Y46087D01*
X446277Y50433D01*
X447940Y54447D01*
X451013Y57520D01*
X455027Y59183D01*
X459373Y59183D01*
X463387Y57520D01*
X466460Y54447D01*
X468123Y50433D01*
X468123Y46087D01*
X466460Y42073D01*
X463387Y39000D01*
X459373Y37337D01*
X455027Y37337D01*
G37*
%LPD*%
%LPC*%
G36*
X429627Y37337D02*
X429627Y37337D01*
X425613Y39000D01*
X422540Y42073D01*
X420877Y46087D01*
X420877Y50433D01*
X422540Y54447D01*
X425613Y57520D01*
X429627Y59183D01*
X433973Y59183D01*
X437987Y57520D01*
X441060Y54447D01*
X442723Y50433D01*
X442723Y46087D01*
X441060Y42073D01*
X437987Y39000D01*
X433973Y37337D01*
X429627Y37337D01*
G37*
%LPD*%
%LPC*%
G36*
X643189Y223773D02*
X643189Y223773D01*
X639548Y225281D01*
X636761Y228068D01*
X635253Y231709D01*
X635253Y235651D01*
X636761Y239292D01*
X639548Y242079D01*
X643189Y243587D01*
X647131Y243587D01*
X650772Y242079D01*
X653559Y239292D01*
X655067Y235651D01*
X655067Y231709D01*
X653559Y228068D01*
X650772Y225281D01*
X647131Y223773D01*
X643189Y223773D01*
G37*
%LPD*%
%LPC*%
G36*
X643189Y299973D02*
X643189Y299973D01*
X639548Y301481D01*
X636761Y304268D01*
X635253Y307909D01*
X635253Y311851D01*
X636761Y315492D01*
X639548Y318279D01*
X643189Y319787D01*
X647131Y319787D01*
X650772Y318279D01*
X653559Y315492D01*
X655067Y311851D01*
X655067Y307909D01*
X653559Y304268D01*
X650772Y301481D01*
X647131Y299973D01*
X643189Y299973D01*
G37*
%LPD*%
%LPC*%
G36*
X33589Y338073D02*
X33589Y338073D01*
X29948Y339581D01*
X27161Y342368D01*
X25653Y346009D01*
X25653Y349951D01*
X27161Y353592D01*
X29948Y356379D01*
X33589Y357887D01*
X37531Y357887D01*
X41172Y356379D01*
X43959Y353592D01*
X45467Y349951D01*
X45467Y346009D01*
X43959Y342368D01*
X41172Y339581D01*
X37531Y338073D01*
X33589Y338073D01*
G37*
%LPD*%
%LPC*%
G36*
X643189Y172973D02*
X643189Y172973D01*
X639548Y174481D01*
X636761Y177268D01*
X635253Y180909D01*
X635253Y184851D01*
X636761Y188492D01*
X639548Y191279D01*
X643189Y192787D01*
X647131Y192787D01*
X650772Y191279D01*
X653559Y188492D01*
X655067Y184851D01*
X655067Y180909D01*
X653559Y177268D01*
X650772Y174481D01*
X647131Y172973D01*
X643189Y172973D01*
G37*
%LPD*%
%LPC*%
G36*
X33589Y185673D02*
X33589Y185673D01*
X29948Y187181D01*
X27161Y189968D01*
X25653Y193609D01*
X25653Y197551D01*
X27161Y201192D01*
X29948Y203979D01*
X33589Y205487D01*
X37531Y205487D01*
X41172Y203979D01*
X43959Y201192D01*
X45467Y197551D01*
X45467Y193609D01*
X43959Y189968D01*
X41172Y187181D01*
X37531Y185673D01*
X33589Y185673D01*
G37*
%LPD*%
%LPC*%
G36*
X643189Y376173D02*
X643189Y376173D01*
X639548Y377681D01*
X636761Y380468D01*
X635253Y384109D01*
X635253Y388051D01*
X636761Y391692D01*
X639548Y394479D01*
X643189Y395987D01*
X647131Y395987D01*
X650772Y394479D01*
X653559Y391692D01*
X655067Y388051D01*
X655067Y384109D01*
X653559Y380468D01*
X650772Y377681D01*
X647131Y376173D01*
X643189Y376173D01*
G37*
%LPD*%
%LPC*%
G36*
X33589Y109473D02*
X33589Y109473D01*
X29948Y110981D01*
X27161Y113768D01*
X25653Y117409D01*
X25653Y121351D01*
X27161Y124992D01*
X29948Y127779D01*
X33589Y129287D01*
X37531Y129287D01*
X41172Y127779D01*
X43959Y124992D01*
X45467Y121351D01*
X45467Y117409D01*
X43959Y113768D01*
X41172Y110981D01*
X37531Y109473D01*
X33589Y109473D01*
G37*
%LPD*%
%LPC*%
G36*
X33589Y211073D02*
X33589Y211073D01*
X29948Y212581D01*
X27161Y215368D01*
X25653Y219009D01*
X25653Y222951D01*
X27161Y226592D01*
X29948Y229379D01*
X33589Y230887D01*
X37531Y230887D01*
X41172Y229379D01*
X43959Y226592D01*
X45467Y222951D01*
X45467Y219009D01*
X43959Y215368D01*
X41172Y212581D01*
X37531Y211073D01*
X33589Y211073D01*
G37*
%LPD*%
%LPC*%
G36*
X33589Y287273D02*
X33589Y287273D01*
X29948Y288781D01*
X27161Y291568D01*
X25653Y295209D01*
X25653Y299151D01*
X27161Y302792D01*
X29948Y305579D01*
X33589Y307087D01*
X37531Y307087D01*
X41172Y305579D01*
X43959Y302792D01*
X45467Y299151D01*
X45467Y295209D01*
X43959Y291568D01*
X41172Y288781D01*
X37531Y287273D01*
X33589Y287273D01*
G37*
%LPD*%
%LPC*%
G36*
X33589Y236473D02*
X33589Y236473D01*
X29948Y237981D01*
X27161Y240768D01*
X25653Y244409D01*
X25653Y248351D01*
X27161Y251992D01*
X29948Y254779D01*
X33589Y256287D01*
X37531Y256287D01*
X41172Y254779D01*
X43959Y251992D01*
X45467Y248351D01*
X45467Y244409D01*
X43959Y240768D01*
X41172Y237981D01*
X37531Y236473D01*
X33589Y236473D01*
G37*
%LPD*%
%LPC*%
G36*
X643189Y122173D02*
X643189Y122173D01*
X639548Y123681D01*
X636761Y126468D01*
X635253Y130109D01*
X635253Y134051D01*
X636761Y137692D01*
X639548Y140479D01*
X643189Y141987D01*
X647131Y141987D01*
X650772Y140479D01*
X653559Y137692D01*
X655067Y134051D01*
X655067Y130109D01*
X653559Y126468D01*
X650772Y123681D01*
X647131Y122173D01*
X643189Y122173D01*
G37*
%LPD*%
%LPC*%
G36*
X643189Y274573D02*
X643189Y274573D01*
X639548Y276081D01*
X636761Y278868D01*
X635253Y282509D01*
X635253Y286451D01*
X636761Y290092D01*
X639548Y292879D01*
X643189Y294387D01*
X647131Y294387D01*
X650772Y292879D01*
X653559Y290092D01*
X655067Y286451D01*
X655067Y282509D01*
X653559Y278868D01*
X650772Y276081D01*
X647131Y274573D01*
X643189Y274573D01*
G37*
%LPD*%
%LPC*%
G36*
X643189Y325373D02*
X643189Y325373D01*
X639548Y326881D01*
X636761Y329668D01*
X635253Y333309D01*
X635253Y337251D01*
X636761Y340892D01*
X639548Y343679D01*
X643189Y345187D01*
X647131Y345187D01*
X650772Y343679D01*
X653559Y340892D01*
X655067Y337251D01*
X655067Y333309D01*
X653559Y329668D01*
X650772Y326881D01*
X647131Y325373D01*
X643189Y325373D01*
G37*
%LPD*%
%LPC*%
G36*
X33589Y261873D02*
X33589Y261873D01*
X29948Y263381D01*
X27161Y266168D01*
X25653Y269809D01*
X25653Y273751D01*
X27161Y277392D01*
X29948Y280179D01*
X33589Y281687D01*
X37531Y281687D01*
X41172Y280179D01*
X43959Y277392D01*
X45467Y273751D01*
X45467Y269809D01*
X43959Y266168D01*
X41172Y263381D01*
X37531Y261873D01*
X33589Y261873D01*
G37*
%LPD*%
%LPC*%
G36*
X643189Y147573D02*
X643189Y147573D01*
X639548Y149081D01*
X636761Y151868D01*
X635253Y155509D01*
X635253Y159451D01*
X636761Y163092D01*
X639548Y165879D01*
X643189Y167387D01*
X647131Y167387D01*
X650772Y165879D01*
X653559Y163092D01*
X655067Y159451D01*
X655067Y155509D01*
X653559Y151868D01*
X650772Y149081D01*
X647131Y147573D01*
X643189Y147573D01*
G37*
%LPD*%
%LPC*%
G36*
X643189Y249173D02*
X643189Y249173D01*
X639548Y250681D01*
X636761Y253468D01*
X635253Y257109D01*
X635253Y261051D01*
X636761Y264692D01*
X639548Y267479D01*
X643189Y268987D01*
X647131Y268987D01*
X650772Y267479D01*
X653559Y264692D01*
X655067Y261051D01*
X655067Y257109D01*
X653559Y253468D01*
X650772Y250681D01*
X647131Y249173D01*
X643189Y249173D01*
G37*
%LPD*%
%LPC*%
G36*
X33589Y160273D02*
X33589Y160273D01*
X29948Y161781D01*
X27161Y164568D01*
X25653Y168209D01*
X25653Y172151D01*
X27161Y175792D01*
X29948Y178579D01*
X33589Y180087D01*
X37531Y180087D01*
X41172Y178579D01*
X43959Y175792D01*
X45467Y172151D01*
X45467Y168209D01*
X43959Y164568D01*
X41172Y161781D01*
X37531Y160273D01*
X33589Y160273D01*
G37*
%LPD*%
%LPC*%
G36*
X33589Y363473D02*
X33589Y363473D01*
X29948Y364981D01*
X27161Y367768D01*
X25653Y371409D01*
X25653Y375351D01*
X27161Y378992D01*
X29948Y381779D01*
X33589Y383287D01*
X37531Y383287D01*
X41172Y381779D01*
X43959Y378992D01*
X45467Y375351D01*
X45467Y371409D01*
X43959Y367768D01*
X41172Y364981D01*
X37531Y363473D01*
X33589Y363473D01*
G37*
%LPD*%
%LPC*%
G36*
X33589Y312673D02*
X33589Y312673D01*
X29948Y314181D01*
X27161Y316968D01*
X25653Y320609D01*
X25653Y324551D01*
X27161Y328192D01*
X29948Y330979D01*
X33589Y332487D01*
X37531Y332487D01*
X41172Y330979D01*
X43959Y328192D01*
X45467Y324551D01*
X45467Y320609D01*
X43959Y316968D01*
X41172Y314181D01*
X37531Y312673D01*
X33589Y312673D01*
G37*
%LPD*%
%LPC*%
G36*
X325462Y284253D02*
X325462Y284253D01*
X322353Y287362D01*
X322353Y291758D01*
X325462Y294867D01*
X329417Y294867D01*
X329508Y294881D01*
X329598Y294889D01*
X329628Y294901D01*
X329660Y294906D01*
X329741Y294949D01*
X329825Y294985D01*
X329857Y295011D01*
X329878Y295022D01*
X329879Y295023D01*
X329900Y295045D01*
X329956Y295090D01*
X344990Y310124D01*
X345043Y310198D01*
X345103Y310268D01*
X345115Y310298D01*
X345134Y310324D01*
X345161Y310411D01*
X345195Y310496D01*
X345199Y310537D01*
X345206Y310559D01*
X345205Y310591D01*
X345213Y310662D01*
X345213Y314618D01*
X348322Y317727D01*
X352718Y317727D01*
X355827Y314618D01*
X355827Y310222D01*
X352718Y307113D01*
X348762Y307113D01*
X348672Y307099D01*
X348581Y307091D01*
X348552Y307079D01*
X348520Y307074D01*
X348439Y307031D01*
X348355Y306995D01*
X348323Y306969D01*
X348302Y306958D01*
X348280Y306935D01*
X348224Y306890D01*
X333190Y291856D01*
X333137Y291782D01*
X333077Y291712D01*
X333065Y291682D01*
X333046Y291656D01*
X333019Y291569D01*
X332985Y291484D01*
X332981Y291443D01*
X332974Y291421D01*
X332975Y291389D01*
X332967Y291317D01*
X332967Y287362D01*
X329858Y284253D01*
X325462Y284253D01*
G37*
%LPD*%
%LPC*%
G36*
X301012Y592835D02*
X301012Y592835D01*
X295655Y598192D01*
X295655Y605768D01*
X301012Y611125D01*
X308588Y611125D01*
X313945Y605768D01*
X313945Y598192D01*
X308588Y592835D01*
X301012Y592835D01*
G37*
%LPD*%
%LPC*%
G36*
X214863Y62483D02*
X214863Y62483D01*
X209803Y67543D01*
X209803Y74697D01*
X214863Y79757D01*
X222017Y79757D01*
X227077Y74697D01*
X227077Y67543D01*
X222017Y62483D01*
X214863Y62483D01*
G37*
%LPD*%
%LPC*%
G36*
X214863Y37083D02*
X214863Y37083D01*
X209803Y42143D01*
X209803Y49297D01*
X214863Y54357D01*
X222017Y54357D01*
X227077Y49297D01*
X227077Y42143D01*
X222017Y37083D01*
X214863Y37083D01*
G37*
%LPD*%
%LPC*%
G36*
X407323Y416051D02*
X407323Y416051D01*
X404335Y417289D01*
X402049Y419575D01*
X400811Y422563D01*
X400811Y425797D01*
X402049Y428785D01*
X404335Y431071D01*
X407323Y432309D01*
X410557Y432309D01*
X413545Y431071D01*
X415831Y428785D01*
X417069Y425797D01*
X417069Y422563D01*
X415831Y419575D01*
X413545Y417289D01*
X410557Y416051D01*
X407323Y416051D01*
G37*
%LPD*%
%LPC*%
G36*
X264502Y186717D02*
X264502Y186717D01*
X261393Y189826D01*
X261393Y194222D01*
X264502Y197331D01*
X268457Y197331D01*
X268548Y197345D01*
X268638Y197353D01*
X268668Y197365D01*
X268700Y197370D01*
X268781Y197413D01*
X268865Y197449D01*
X268897Y197475D01*
X268918Y197486D01*
X268940Y197509D01*
X268996Y197554D01*
X271838Y200396D01*
X271891Y200470D01*
X271951Y200540D01*
X271963Y200570D01*
X271982Y200596D01*
X272009Y200683D01*
X272043Y200768D01*
X272047Y200809D01*
X272054Y200831D01*
X272053Y200863D01*
X272061Y200935D01*
X272061Y204890D01*
X275170Y207999D01*
X279566Y207999D01*
X282675Y204890D01*
X282675Y200494D01*
X279566Y197385D01*
X275611Y197385D01*
X275520Y197371D01*
X275430Y197363D01*
X275400Y197351D01*
X275368Y197346D01*
X275287Y197303D01*
X275203Y197267D01*
X275171Y197241D01*
X275150Y197230D01*
X275128Y197207D01*
X275072Y197162D01*
X272230Y194320D01*
X272177Y194246D01*
X272117Y194176D01*
X272105Y194146D01*
X272086Y194120D01*
X272059Y194033D01*
X272025Y193948D01*
X272021Y193907D01*
X272014Y193885D01*
X272015Y193853D01*
X272007Y193781D01*
X272007Y189826D01*
X268898Y186717D01*
X264502Y186717D01*
G37*
%LPD*%
%LPC*%
G36*
X138683Y679703D02*
X138683Y679703D01*
X138683Y695846D01*
X139539Y695711D01*
X141060Y695216D01*
X142485Y694490D01*
X143779Y693550D01*
X144910Y692419D01*
X145850Y691125D01*
X146576Y689700D01*
X147071Y688179D01*
X147321Y686600D01*
X147321Y679703D01*
X138683Y679703D01*
G37*
%LPD*%
%LPC*%
G36*
X164083Y679703D02*
X164083Y679703D01*
X164083Y695846D01*
X164939Y695711D01*
X166460Y695216D01*
X167885Y694490D01*
X169179Y693550D01*
X170310Y692419D01*
X171250Y691125D01*
X171976Y689700D01*
X172471Y688179D01*
X172721Y686600D01*
X172721Y679703D01*
X164083Y679703D01*
G37*
%LPD*%
%LPC*%
G36*
X506983Y524763D02*
X506983Y524763D01*
X506983Y540906D01*
X507839Y540771D01*
X509360Y540276D01*
X510785Y539550D01*
X512079Y538610D01*
X513210Y537479D01*
X514150Y536185D01*
X514876Y534760D01*
X515371Y533239D01*
X515621Y531660D01*
X515621Y524763D01*
X506983Y524763D01*
G37*
%LPD*%
%LPC*%
G36*
X138683Y676657D02*
X138683Y676657D01*
X147321Y676657D01*
X147321Y669760D01*
X147071Y668181D01*
X146576Y666660D01*
X145850Y665235D01*
X144910Y663941D01*
X143779Y662810D01*
X142485Y661870D01*
X141060Y661144D01*
X139539Y660649D01*
X138683Y660514D01*
X138683Y676657D01*
G37*
%LPD*%
%LPC*%
G36*
X164083Y676657D02*
X164083Y676657D01*
X172721Y676657D01*
X172721Y669760D01*
X172471Y668181D01*
X171976Y666660D01*
X171250Y665235D01*
X170310Y663941D01*
X169179Y662810D01*
X167885Y661870D01*
X166460Y661144D01*
X164939Y660649D01*
X164083Y660514D01*
X164083Y676657D01*
G37*
%LPD*%
%LPC*%
G36*
X506983Y521717D02*
X506983Y521717D01*
X515621Y521717D01*
X515621Y514820D01*
X515371Y513241D01*
X514876Y511720D01*
X514150Y510295D01*
X513210Y509001D01*
X512079Y507870D01*
X510785Y506930D01*
X509360Y506204D01*
X507839Y505709D01*
X506983Y505574D01*
X506983Y521717D01*
G37*
%LPD*%
%LPC*%
G36*
X152399Y679703D02*
X152399Y679703D01*
X152399Y686600D01*
X152649Y688179D01*
X153144Y689700D01*
X153870Y691125D01*
X154810Y692419D01*
X155941Y693550D01*
X157235Y694490D01*
X158660Y695216D01*
X160181Y695711D01*
X161037Y695846D01*
X161037Y679703D01*
X152399Y679703D01*
G37*
%LPD*%
%LPC*%
G36*
X126999Y679703D02*
X126999Y679703D01*
X126999Y686600D01*
X127249Y688179D01*
X127744Y689700D01*
X128470Y691125D01*
X129410Y692419D01*
X130541Y693550D01*
X131835Y694490D01*
X133260Y695216D01*
X134781Y695711D01*
X135637Y695846D01*
X135637Y679703D01*
X126999Y679703D01*
G37*
%LPD*%
%LPC*%
G36*
X495299Y524763D02*
X495299Y524763D01*
X495299Y531660D01*
X495549Y533239D01*
X496044Y534760D01*
X496770Y536185D01*
X497710Y537479D01*
X498841Y538610D01*
X500135Y539550D01*
X501560Y540276D01*
X503081Y540771D01*
X503937Y540906D01*
X503937Y524763D01*
X495299Y524763D01*
G37*
%LPD*%
%LPC*%
G36*
X134781Y660649D02*
X134781Y660649D01*
X133260Y661144D01*
X131835Y661870D01*
X130541Y662810D01*
X129410Y663941D01*
X128470Y665235D01*
X127744Y666660D01*
X127249Y668181D01*
X126999Y669760D01*
X126999Y676657D01*
X135637Y676657D01*
X135637Y660514D01*
X134781Y660649D01*
G37*
%LPD*%
%LPC*%
G36*
X503081Y505709D02*
X503081Y505709D01*
X501560Y506204D01*
X500135Y506930D01*
X498841Y507870D01*
X497710Y509001D01*
X496770Y510295D01*
X496044Y511720D01*
X495549Y513241D01*
X495299Y514820D01*
X495299Y521717D01*
X503937Y521717D01*
X503937Y505574D01*
X503081Y505709D01*
G37*
%LPD*%
%LPC*%
G36*
X160181Y660649D02*
X160181Y660649D01*
X158660Y661144D01*
X157235Y661870D01*
X155941Y662810D01*
X154810Y663941D01*
X153870Y665235D01*
X153144Y666660D01*
X152649Y668181D01*
X152399Y669760D01*
X152399Y676657D01*
X161037Y676657D01*
X161037Y660514D01*
X160181Y660649D01*
G37*
%LPD*%
%LPC*%
G36*
X407923Y49783D02*
X407923Y49783D01*
X407923Y60106D01*
X409196Y59905D01*
X410983Y59324D01*
X412657Y58471D01*
X414178Y57366D01*
X415506Y56038D01*
X416611Y54517D01*
X417464Y52843D01*
X418045Y51056D01*
X418246Y49783D01*
X407923Y49783D01*
G37*
%LPD*%
%LPC*%
G36*
X394554Y49783D02*
X394554Y49783D01*
X394755Y51056D01*
X395336Y52843D01*
X396189Y54517D01*
X397294Y56038D01*
X398622Y57366D01*
X400143Y58471D01*
X401817Y59324D01*
X403604Y59905D01*
X404877Y60106D01*
X404877Y49783D01*
X394554Y49783D01*
G37*
%LPD*%
%LPC*%
G36*
X407923Y46737D02*
X407923Y46737D01*
X418246Y46737D01*
X418045Y45464D01*
X417464Y43677D01*
X416611Y42003D01*
X415506Y40482D01*
X414178Y39154D01*
X412657Y38049D01*
X410983Y37196D01*
X409196Y36615D01*
X407923Y36414D01*
X407923Y46737D01*
G37*
%LPD*%
%LPC*%
G36*
X403604Y36615D02*
X403604Y36615D01*
X401817Y37196D01*
X400143Y38049D01*
X398622Y39154D01*
X397294Y40482D01*
X396189Y42003D01*
X395336Y43677D01*
X394755Y45464D01*
X394554Y46737D01*
X404877Y46737D01*
X404877Y36414D01*
X403604Y36615D01*
G37*
%LPD*%
%LPC*%
G36*
X136143Y562203D02*
X136143Y562203D01*
X136143Y569721D01*
X142954Y569721D01*
X143601Y569548D01*
X144180Y569213D01*
X144653Y568740D01*
X144988Y568161D01*
X145161Y567514D01*
X145161Y562203D01*
X136143Y562203D01*
G37*
%LPD*%
%LPC*%
G36*
X124079Y562203D02*
X124079Y562203D01*
X124079Y567514D01*
X124252Y568161D01*
X124587Y568740D01*
X125060Y569213D01*
X125639Y569548D01*
X126286Y569721D01*
X133097Y569721D01*
X133097Y562203D01*
X124079Y562203D01*
G37*
%LPD*%
%LPC*%
G36*
X136143Y551639D02*
X136143Y551639D01*
X136143Y559157D01*
X145161Y559157D01*
X145161Y553846D01*
X144988Y553199D01*
X144653Y552620D01*
X144180Y552147D01*
X143601Y551812D01*
X142954Y551639D01*
X136143Y551639D01*
G37*
%LPD*%
%LPC*%
G36*
X126286Y551639D02*
X126286Y551639D01*
X125639Y551812D01*
X125060Y552147D01*
X124587Y552620D01*
X124252Y553199D01*
X124079Y553846D01*
X124079Y559157D01*
X133097Y559157D01*
X133097Y551639D01*
X126286Y551639D01*
G37*
%LPD*%
%LPC*%
G36*
X247903Y229463D02*
X247903Y229463D01*
X247903Y236981D01*
X254214Y236981D01*
X254861Y236808D01*
X255440Y236473D01*
X255913Y236000D01*
X256248Y235421D01*
X256421Y234774D01*
X256421Y229463D01*
X247903Y229463D01*
G37*
%LPD*%
%LPC*%
G36*
X324103Y407263D02*
X324103Y407263D01*
X324103Y414781D01*
X330414Y414781D01*
X331061Y414608D01*
X331640Y414273D01*
X332113Y413800D01*
X332448Y413221D01*
X332621Y412574D01*
X332621Y407263D01*
X324103Y407263D01*
G37*
%LPD*%
%LPC*%
G36*
X258063Y392023D02*
X258063Y392023D01*
X258063Y399541D01*
X264374Y399541D01*
X265021Y399368D01*
X265600Y399033D01*
X266073Y398560D01*
X266408Y397981D01*
X266581Y397334D01*
X266581Y392023D01*
X258063Y392023D01*
G37*
%LPD*%
%LPC*%
G36*
X202183Y384403D02*
X202183Y384403D01*
X202183Y391921D01*
X208494Y391921D01*
X209141Y391748D01*
X209720Y391413D01*
X210193Y390940D01*
X210528Y390361D01*
X210701Y389714D01*
X210701Y384403D01*
X202183Y384403D01*
G37*
%LPD*%
%LPC*%
G36*
X497483Y369823D02*
X497483Y369823D01*
X497483Y378341D01*
X502794Y378341D01*
X503441Y378168D01*
X504020Y377833D01*
X504493Y377360D01*
X504828Y376781D01*
X505001Y376134D01*
X505001Y369823D01*
X497483Y369823D01*
G37*
%LPD*%
%LPC*%
G36*
X87223Y562863D02*
X87223Y562863D01*
X87223Y571381D01*
X92534Y571381D01*
X93181Y571208D01*
X93760Y570873D01*
X94233Y570400D01*
X94568Y569821D01*
X94741Y569174D01*
X94741Y562863D01*
X87223Y562863D01*
G37*
%LPD*%
%LPC*%
G36*
X438403Y333603D02*
X438403Y333603D01*
X438403Y341121D01*
X444714Y341121D01*
X445361Y340948D01*
X445940Y340613D01*
X446413Y340140D01*
X446748Y339561D01*
X446921Y338914D01*
X446921Y333603D01*
X438403Y333603D01*
G37*
%LPD*%
%LPC*%
G36*
X202183Y308203D02*
X202183Y308203D01*
X202183Y315721D01*
X208494Y315721D01*
X209141Y315548D01*
X209720Y315213D01*
X210193Y314740D01*
X210528Y314161D01*
X210701Y313514D01*
X210701Y308203D01*
X202183Y308203D01*
G37*
%LPD*%
%LPC*%
G36*
X161543Y305663D02*
X161543Y305663D01*
X161543Y313181D01*
X167854Y313181D01*
X168501Y313008D01*
X169080Y312673D01*
X169553Y312200D01*
X169888Y311621D01*
X170061Y310974D01*
X170061Y305663D01*
X161543Y305663D01*
G37*
%LPD*%
%LPC*%
G36*
X438403Y285343D02*
X438403Y285343D01*
X438403Y292861D01*
X444714Y292861D01*
X445361Y292688D01*
X445940Y292353D01*
X446413Y291880D01*
X446748Y291301D01*
X446921Y290654D01*
X446921Y285343D01*
X438403Y285343D01*
G37*
%LPD*%
%LPC*%
G36*
X190619Y308203D02*
X190619Y308203D01*
X190619Y313514D01*
X190792Y314161D01*
X191127Y314740D01*
X191600Y315213D01*
X192179Y315548D01*
X192826Y315721D01*
X199137Y315721D01*
X199137Y308203D01*
X190619Y308203D01*
G37*
%LPD*%
%LPC*%
G36*
X149979Y305663D02*
X149979Y305663D01*
X149979Y310974D01*
X150152Y311621D01*
X150487Y312200D01*
X150960Y312673D01*
X151539Y313008D01*
X152186Y313181D01*
X158497Y313181D01*
X158497Y305663D01*
X149979Y305663D01*
G37*
%LPD*%
%LPC*%
G36*
X236339Y229463D02*
X236339Y229463D01*
X236339Y234774D01*
X236512Y235421D01*
X236847Y236000D01*
X237320Y236473D01*
X237899Y236808D01*
X238546Y236981D01*
X244857Y236981D01*
X244857Y229463D01*
X236339Y229463D01*
G37*
%LPD*%
%LPC*%
G36*
X312539Y407263D02*
X312539Y407263D01*
X312539Y412574D01*
X312712Y413221D01*
X313047Y413800D01*
X313520Y414273D01*
X314099Y414608D01*
X314746Y414781D01*
X321057Y414781D01*
X321057Y407263D01*
X312539Y407263D01*
G37*
%LPD*%
%LPC*%
G36*
X190619Y384403D02*
X190619Y384403D01*
X190619Y389714D01*
X190792Y390361D01*
X191127Y390940D01*
X191600Y391413D01*
X192179Y391748D01*
X192826Y391921D01*
X199137Y391921D01*
X199137Y384403D01*
X190619Y384403D01*
G37*
%LPD*%
%LPC*%
G36*
X159663Y571619D02*
X159663Y571619D01*
X159663Y580137D01*
X167181Y580137D01*
X167181Y573826D01*
X167008Y573179D01*
X166673Y572600D01*
X166200Y572127D01*
X165621Y571792D01*
X164974Y571619D01*
X159663Y571619D01*
G37*
%LPD*%
%LPC*%
G36*
X87223Y551299D02*
X87223Y551299D01*
X87223Y559817D01*
X94741Y559817D01*
X94741Y553506D01*
X94568Y552859D01*
X94233Y552280D01*
X93760Y551807D01*
X93181Y551472D01*
X92534Y551299D01*
X87223Y551299D01*
G37*
%LPD*%
%LPC*%
G36*
X426839Y333603D02*
X426839Y333603D01*
X426839Y338914D01*
X427012Y339561D01*
X427347Y340140D01*
X427820Y340613D01*
X428399Y340948D01*
X429046Y341121D01*
X435357Y341121D01*
X435357Y333603D01*
X426839Y333603D01*
G37*
%LPD*%
%LPC*%
G36*
X426839Y285343D02*
X426839Y285343D01*
X426839Y290654D01*
X427012Y291301D01*
X427347Y291880D01*
X427820Y292353D01*
X428399Y292688D01*
X429046Y292861D01*
X435357Y292861D01*
X435357Y285343D01*
X426839Y285343D01*
G37*
%LPD*%
%LPC*%
G36*
X497483Y358259D02*
X497483Y358259D01*
X497483Y366777D01*
X505001Y366777D01*
X505001Y360466D01*
X504828Y359819D01*
X504493Y359240D01*
X504020Y358767D01*
X503441Y358432D01*
X502794Y358259D01*
X497483Y358259D01*
G37*
%LPD*%
%LPC*%
G36*
X324103Y396699D02*
X324103Y396699D01*
X324103Y404217D01*
X332621Y404217D01*
X332621Y398906D01*
X332448Y398259D01*
X332113Y397680D01*
X331640Y397207D01*
X331061Y396872D01*
X330414Y396699D01*
X324103Y396699D01*
G37*
%LPD*%
%LPC*%
G36*
X149099Y583183D02*
X149099Y583183D01*
X149099Y589494D01*
X149272Y590141D01*
X149607Y590720D01*
X150080Y591193D01*
X150659Y591528D01*
X151306Y591701D01*
X156617Y591701D01*
X156617Y583183D01*
X149099Y583183D01*
G37*
%LPD*%
%LPC*%
G36*
X202183Y297639D02*
X202183Y297639D01*
X202183Y305157D01*
X210701Y305157D01*
X210701Y299846D01*
X210528Y299199D01*
X210193Y298620D01*
X209720Y298147D01*
X209141Y297812D01*
X208494Y297639D01*
X202183Y297639D01*
G37*
%LPD*%
%LPC*%
G36*
X161543Y295099D02*
X161543Y295099D01*
X161543Y302617D01*
X170061Y302617D01*
X170061Y297306D01*
X169888Y296659D01*
X169553Y296080D01*
X169080Y295607D01*
X168501Y295272D01*
X167854Y295099D01*
X161543Y295099D01*
G37*
%LPD*%
%LPC*%
G36*
X258063Y381459D02*
X258063Y381459D01*
X258063Y388977D01*
X266581Y388977D01*
X266581Y383666D01*
X266408Y383019D01*
X266073Y382440D01*
X265600Y381967D01*
X265021Y381632D01*
X264374Y381459D01*
X258063Y381459D01*
G37*
%LPD*%
%LPC*%
G36*
X438403Y274779D02*
X438403Y274779D01*
X438403Y282297D01*
X446921Y282297D01*
X446921Y276986D01*
X446748Y276339D01*
X446413Y275760D01*
X445940Y275287D01*
X445361Y274952D01*
X444714Y274779D01*
X438403Y274779D01*
G37*
%LPD*%
%LPC*%
G36*
X486919Y369823D02*
X486919Y369823D01*
X486919Y376134D01*
X487092Y376781D01*
X487427Y377360D01*
X487900Y377833D01*
X488479Y378168D01*
X489126Y378341D01*
X494437Y378341D01*
X494437Y369823D01*
X486919Y369823D01*
G37*
%LPD*%
%LPC*%
G36*
X438403Y323039D02*
X438403Y323039D01*
X438403Y330557D01*
X446921Y330557D01*
X446921Y325246D01*
X446748Y324599D01*
X446413Y324020D01*
X445940Y323547D01*
X445361Y323212D01*
X444714Y323039D01*
X438403Y323039D01*
G37*
%LPD*%
%LPC*%
G36*
X247903Y218899D02*
X247903Y218899D01*
X247903Y226417D01*
X256421Y226417D01*
X256421Y221106D01*
X256248Y220459D01*
X255913Y219880D01*
X255440Y219407D01*
X254861Y219072D01*
X254214Y218899D01*
X247903Y218899D01*
G37*
%LPD*%
%LPC*%
G36*
X489126Y358259D02*
X489126Y358259D01*
X488479Y358432D01*
X487900Y358767D01*
X487427Y359240D01*
X487092Y359819D01*
X486919Y360466D01*
X486919Y366777D01*
X494437Y366777D01*
X494437Y358259D01*
X489126Y358259D01*
G37*
%LPD*%
%LPC*%
G36*
X192826Y373839D02*
X192826Y373839D01*
X192179Y374012D01*
X191600Y374347D01*
X191127Y374820D01*
X190792Y375399D01*
X190619Y376046D01*
X190619Y381357D01*
X199137Y381357D01*
X199137Y373839D01*
X192826Y373839D01*
G37*
%LPD*%
%LPC*%
G36*
X314746Y396699D02*
X314746Y396699D01*
X314099Y396872D01*
X313520Y397207D01*
X313047Y397680D01*
X312712Y398259D01*
X312539Y398906D01*
X312539Y404217D01*
X321057Y404217D01*
X321057Y396699D01*
X314746Y396699D01*
G37*
%LPD*%
%LPC*%
G36*
X152186Y295099D02*
X152186Y295099D01*
X151539Y295272D01*
X150960Y295607D01*
X150487Y296080D01*
X150152Y296659D01*
X149979Y297306D01*
X149979Y302617D01*
X158497Y302617D01*
X158497Y295099D01*
X152186Y295099D01*
G37*
%LPD*%
%LPC*%
G36*
X238546Y218899D02*
X238546Y218899D01*
X237899Y219072D01*
X237320Y219407D01*
X236847Y219880D01*
X236512Y220459D01*
X236339Y221106D01*
X236339Y226417D01*
X244857Y226417D01*
X244857Y218899D01*
X238546Y218899D01*
G37*
%LPD*%
%LPC*%
G36*
X429046Y323039D02*
X429046Y323039D01*
X428399Y323212D01*
X427820Y323547D01*
X427347Y324020D01*
X427012Y324599D01*
X426839Y325246D01*
X426839Y330557D01*
X435357Y330557D01*
X435357Y323039D01*
X429046Y323039D01*
G37*
%LPD*%
%LPC*%
G36*
X192826Y297639D02*
X192826Y297639D01*
X192179Y297812D01*
X191600Y298147D01*
X191127Y298620D01*
X190792Y299199D01*
X190619Y299846D01*
X190619Y305157D01*
X199137Y305157D01*
X199137Y297639D01*
X192826Y297639D01*
G37*
%LPD*%
%LPC*%
G36*
X151306Y571619D02*
X151306Y571619D01*
X150659Y571792D01*
X150080Y572127D01*
X149607Y572600D01*
X149272Y573179D01*
X149099Y573826D01*
X149099Y580137D01*
X156617Y580137D01*
X156617Y571619D01*
X151306Y571619D01*
G37*
%LPD*%
%LPC*%
G36*
X78866Y551299D02*
X78866Y551299D01*
X78219Y551472D01*
X77640Y551807D01*
X77167Y552280D01*
X76832Y552859D01*
X76659Y553506D01*
X76659Y559817D01*
X84177Y559817D01*
X84177Y551299D01*
X78866Y551299D01*
G37*
%LPD*%
%LPC*%
G36*
X429046Y274779D02*
X429046Y274779D01*
X428399Y274952D01*
X427820Y275287D01*
X427347Y275760D01*
X427012Y276339D01*
X426839Y276986D01*
X426839Y282297D01*
X435357Y282297D01*
X435357Y274779D01*
X429046Y274779D01*
G37*
%LPD*%
%LPC*%
G36*
X270763Y47243D02*
X270763Y47243D01*
X270763Y55373D01*
X273238Y55373D01*
X278893Y49718D01*
X278893Y47243D01*
X270763Y47243D01*
G37*
%LPD*%
%LPC*%
G36*
X270763Y72643D02*
X270763Y72643D01*
X270763Y80773D01*
X273238Y80773D01*
X278893Y75118D01*
X278893Y72643D01*
X270763Y72643D01*
G37*
%LPD*%
%LPC*%
G36*
X259587Y47243D02*
X259587Y47243D01*
X259587Y49718D01*
X265242Y55373D01*
X267717Y55373D01*
X267717Y47243D01*
X259587Y47243D01*
G37*
%LPD*%
%LPC*%
G36*
X259587Y72643D02*
X259587Y72643D01*
X259587Y75118D01*
X265242Y80773D01*
X267717Y80773D01*
X267717Y72643D01*
X259587Y72643D01*
G37*
%LPD*%
%LPC*%
G36*
X270763Y61467D02*
X270763Y61467D01*
X270763Y69597D01*
X278893Y69597D01*
X278893Y67122D01*
X273238Y61467D01*
X270763Y61467D01*
G37*
%LPD*%
%LPC*%
G36*
X270763Y36067D02*
X270763Y36067D01*
X270763Y44197D01*
X278893Y44197D01*
X278893Y41722D01*
X273238Y36067D01*
X270763Y36067D01*
G37*
%LPD*%
%LPC*%
G36*
X265242Y61467D02*
X265242Y61467D01*
X259587Y67122D01*
X259587Y69597D01*
X267717Y69597D01*
X267717Y61467D01*
X265242Y61467D01*
G37*
%LPD*%
%LPC*%
G36*
X265242Y36067D02*
X265242Y36067D01*
X259587Y41722D01*
X259587Y44197D01*
X267717Y44197D01*
X267717Y36067D01*
X265242Y36067D01*
G37*
%LPD*%
%LPC*%
G36*
X227583Y603503D02*
X227583Y603503D01*
X227583Y611125D01*
X229848Y611125D01*
X235205Y605768D01*
X235205Y603503D01*
X227583Y603503D01*
G37*
%LPD*%
%LPC*%
G36*
X216915Y603503D02*
X216915Y603503D01*
X216915Y605768D01*
X222272Y611125D01*
X224537Y611125D01*
X224537Y603503D01*
X216915Y603503D01*
G37*
%LPD*%
%LPC*%
G36*
X227583Y592835D02*
X227583Y592835D01*
X227583Y600457D01*
X235205Y600457D01*
X235205Y598192D01*
X229848Y592835D01*
X227583Y592835D01*
G37*
%LPD*%
%LPC*%
G36*
X222272Y592835D02*
X222272Y592835D01*
X216915Y598192D01*
X216915Y600457D01*
X224537Y600457D01*
X224537Y592835D01*
X222272Y592835D01*
G37*
%LPD*%
%LPC*%
G36*
X115863Y587833D02*
X115863Y587833D01*
X115863Y595401D01*
X118719Y595401D01*
X119542Y595180D01*
X120281Y594754D01*
X120884Y594151D01*
X121310Y593412D01*
X121531Y592589D01*
X121531Y587833D01*
X115863Y587833D01*
G37*
%LPD*%
%LPC*%
G36*
X107149Y587833D02*
X107149Y587833D01*
X107149Y592589D01*
X107370Y593412D01*
X107796Y594151D01*
X108399Y594754D01*
X109138Y595180D01*
X109961Y595401D01*
X112817Y595401D01*
X112817Y587833D01*
X107149Y587833D01*
G37*
%LPD*%
%LPC*%
G36*
X115863Y577219D02*
X115863Y577219D01*
X115863Y584787D01*
X121531Y584787D01*
X121531Y580031D01*
X121310Y579208D01*
X120884Y578469D01*
X120281Y577866D01*
X119542Y577440D01*
X118719Y577219D01*
X115863Y577219D01*
G37*
%LPD*%
%LPC*%
G36*
X109961Y577219D02*
X109961Y577219D01*
X109138Y577440D01*
X108399Y577866D01*
X107796Y578469D01*
X107370Y579208D01*
X107149Y580031D01*
X107149Y584787D01*
X112817Y584787D01*
X112817Y577219D01*
X109961Y577219D01*
G37*
%LPD*%
%LPC*%
G36*
X162559Y678179D02*
X162559Y678179D01*
X162559Y678181D01*
X162561Y678181D01*
X162561Y678179D01*
X162559Y678179D01*
G37*
%LPD*%
%LPC*%
G36*
X137159Y678179D02*
X137159Y678179D01*
X137159Y678181D01*
X137161Y678181D01*
X137161Y678179D01*
X137159Y678179D01*
G37*
%LPD*%
%LPC*%
G36*
X505459Y523239D02*
X505459Y523239D01*
X505459Y523241D01*
X505461Y523241D01*
X505461Y523239D01*
X505459Y523239D01*
G37*
%LPD*%
%LPC*%
G36*
X226059Y601979D02*
X226059Y601979D01*
X226059Y601981D01*
X226061Y601981D01*
X226061Y601979D01*
X226059Y601979D01*
G37*
%LPD*%
%LPC*%
G36*
X406399Y48259D02*
X406399Y48259D01*
X406399Y48261D01*
X406401Y48261D01*
X406401Y48259D01*
X406399Y48259D01*
G37*
%LPD*%
%LPC*%
G36*
X269239Y45719D02*
X269239Y45719D01*
X269239Y45721D01*
X269241Y45721D01*
X269241Y45719D01*
X269239Y45719D01*
G37*
%LPD*%
%LPC*%
G36*
X269239Y71119D02*
X269239Y71119D01*
X269239Y71121D01*
X269241Y71121D01*
X269241Y71119D01*
X269239Y71119D01*
G37*
%LPD*%
%LPC*%
G36*
X158139Y581659D02*
X158139Y581659D01*
X158139Y581661D01*
X158141Y581661D01*
X158141Y581659D01*
X158139Y581659D01*
G37*
%LPD*%
%LPC*%
G36*
X246379Y227939D02*
X246379Y227939D01*
X246379Y227941D01*
X246381Y227941D01*
X246381Y227939D01*
X246379Y227939D01*
G37*
%LPD*%
%LPC*%
G36*
X85699Y561339D02*
X85699Y561339D01*
X85699Y561341D01*
X85701Y561341D01*
X85701Y561339D01*
X85699Y561339D01*
G37*
%LPD*%
%LPC*%
G36*
X134619Y560679D02*
X134619Y560679D01*
X134619Y560681D01*
X134621Y560681D01*
X134621Y560679D01*
X134619Y560679D01*
G37*
%LPD*%
%LPC*%
G36*
X200659Y382879D02*
X200659Y382879D01*
X200659Y382881D01*
X200661Y382881D01*
X200661Y382879D01*
X200659Y382879D01*
G37*
%LPD*%
%LPC*%
G36*
X436879Y332079D02*
X436879Y332079D01*
X436879Y332081D01*
X436881Y332081D01*
X436881Y332079D01*
X436879Y332079D01*
G37*
%LPD*%
%LPC*%
G36*
X436879Y283819D02*
X436879Y283819D01*
X436879Y283821D01*
X436881Y283821D01*
X436881Y283819D01*
X436879Y283819D01*
G37*
%LPD*%
%LPC*%
G36*
X322579Y405739D02*
X322579Y405739D01*
X322579Y405741D01*
X322581Y405741D01*
X322581Y405739D01*
X322579Y405739D01*
G37*
%LPD*%
%LPC*%
G36*
X160019Y304139D02*
X160019Y304139D01*
X160019Y304141D01*
X160021Y304141D01*
X160021Y304139D01*
X160019Y304139D01*
G37*
%LPD*%
%LPC*%
G36*
X495959Y368299D02*
X495959Y368299D01*
X495959Y368301D01*
X495961Y368301D01*
X495961Y368299D01*
X495959Y368299D01*
G37*
%LPD*%
%LPC*%
G36*
X200659Y306679D02*
X200659Y306679D01*
X200659Y306681D01*
X200661Y306681D01*
X200661Y306679D01*
X200659Y306679D01*
G37*
%LPD*%
%LPC*%
G36*
X114339Y586309D02*
X114339Y586309D01*
X114339Y586311D01*
X114341Y586311D01*
X114341Y586309D01*
X114339Y586309D01*
G37*
%LPD*%
D10*
X66700Y561340D03*
X85700Y561340D03*
D11*
X246380Y227940D03*
X246380Y208940D03*
X436880Y283820D03*
X436880Y264820D03*
X436880Y332080D03*
X436880Y313080D03*
X200660Y306680D03*
X200660Y287680D03*
X160020Y304140D03*
X160020Y285140D03*
D10*
X177140Y581660D03*
X158140Y581660D03*
X495960Y368300D03*
X514960Y368300D03*
D11*
X200660Y363880D03*
X200660Y382880D03*
X322580Y405740D03*
X322580Y386740D03*
X256540Y390500D03*
X256540Y371500D03*
D12*
X218440Y45720D03*
X218440Y71120D03*
X243840Y45720D03*
X243840Y71120D03*
X269240Y45720D03*
X269240Y71120D03*
D13*
X548640Y322580D02*
X563880Y322580D01*
X563880Y297180D02*
X548640Y297180D01*
X556260Y180340D02*
X571500Y180340D01*
X571500Y205740D02*
X556260Y205740D01*
D14*
X645160Y436880D03*
X645160Y411480D03*
X645160Y386080D03*
X645160Y360680D03*
X645160Y335280D03*
X645160Y309880D03*
X645160Y284480D03*
X645160Y259080D03*
X645160Y233680D03*
X645160Y208280D03*
X645160Y182880D03*
X645160Y157480D03*
X645160Y132080D03*
D13*
X238760Y670560D02*
X238760Y685800D01*
X213360Y685800D02*
X213360Y670560D01*
X187960Y670560D02*
X187960Y685800D01*
X162560Y685800D02*
X162560Y670560D01*
X137160Y670560D02*
X137160Y685800D01*
X480060Y530860D02*
X480060Y515620D01*
X505460Y515620D02*
X505460Y530860D01*
X530860Y530860D02*
X530860Y515620D01*
X556260Y515620D02*
X556260Y530860D01*
D14*
X35560Y424180D03*
X35560Y398780D03*
X35560Y373380D03*
X35560Y347980D03*
X35560Y322580D03*
X35560Y297180D03*
X35560Y271780D03*
X35560Y246380D03*
X35560Y220980D03*
X35560Y195580D03*
X35560Y170180D03*
X35560Y144780D03*
X35560Y119380D03*
D15*
X256540Y438912D02*
X256540Y450088D01*
X307340Y450088D02*
X307340Y438912D01*
D16*
X383540Y424180D03*
X408940Y424180D03*
D17*
X134620Y560680D03*
X134620Y541680D03*
D18*
X556920Y370840D03*
X575920Y370840D03*
X301600Y360680D03*
X282600Y360680D03*
D17*
X251460Y158140D03*
X251460Y177140D03*
D18*
X323240Y99060D03*
X342240Y99060D03*
D17*
X360680Y582320D03*
X360680Y601320D03*
D18*
X514960Y205740D03*
X495960Y205740D03*
D17*
X421640Y584860D03*
X421640Y603860D03*
X86360Y427380D03*
X86360Y446380D03*
D19*
X482600Y48260D03*
X457200Y48260D03*
X431800Y48260D03*
X406400Y48260D03*
D20*
X226060Y601980D03*
X238760Y582930D03*
X251460Y601980D03*
D21*
X118293Y592163D02*
X110387Y592163D01*
X118293Y592163D02*
X118293Y580457D01*
X110387Y580457D01*
X110387Y592163D01*
X110387Y581782D02*
X118293Y581782D01*
X118293Y583107D02*
X110387Y583107D01*
X110387Y584432D02*
X118293Y584432D01*
X118293Y585757D02*
X110387Y585757D01*
X110387Y587082D02*
X118293Y587082D01*
X118293Y588407D02*
X110387Y588407D01*
X110387Y589732D02*
X118293Y589732D01*
X118293Y591057D02*
X110387Y591057D01*
X95393Y592163D02*
X87487Y592163D01*
X95393Y592163D02*
X95393Y580457D01*
X87487Y580457D01*
X87487Y592163D01*
X87487Y581782D02*
X95393Y581782D01*
X95393Y583107D02*
X87487Y583107D01*
X87487Y584432D02*
X95393Y584432D01*
X95393Y585757D02*
X87487Y585757D01*
X87487Y587082D02*
X95393Y587082D01*
X95393Y588407D02*
X87487Y588407D01*
X87487Y589732D02*
X95393Y589732D01*
X95393Y591057D02*
X87487Y591057D01*
X72493Y592163D02*
X64587Y592163D01*
X72493Y592163D02*
X72493Y580457D01*
X64587Y580457D01*
X64587Y592163D01*
X64587Y581782D02*
X72493Y581782D01*
X72493Y583107D02*
X64587Y583107D01*
X64587Y584432D02*
X72493Y584432D01*
X72493Y585757D02*
X64587Y585757D01*
X64587Y587082D02*
X72493Y587082D01*
X72493Y588407D02*
X64587Y588407D01*
X64587Y589732D02*
X72493Y589732D01*
X72493Y591057D02*
X64587Y591057D01*
D22*
X76222Y658778D02*
X106658Y658778D01*
X106658Y647642D01*
X76222Y647642D01*
X76222Y658778D01*
X76222Y649509D02*
X106658Y649509D01*
X106658Y651376D02*
X76222Y651376D01*
X76222Y653243D02*
X106658Y653243D01*
X106658Y655110D02*
X76222Y655110D01*
X76222Y656977D02*
X106658Y656977D01*
D13*
X342900Y137160D02*
X342900Y121920D01*
X317500Y121920D02*
X317500Y137160D01*
X292100Y137160D02*
X292100Y121920D01*
X266700Y121920D02*
X266700Y137160D01*
D23*
X304800Y601980D03*
D24*
X66700Y561570D02*
X66700Y561340D01*
X66700Y561570D02*
X91440Y586310D01*
X65532Y560832D02*
X65532Y551688D01*
X60960Y547116D01*
X65532Y560832D02*
X66700Y561340D01*
X437388Y265176D02*
X445008Y265176D01*
X451104Y271272D01*
X451104Y294132D01*
X437388Y307848D01*
X437388Y312420D01*
X437388Y265176D02*
X436880Y264820D01*
X437388Y312420D02*
X436880Y313080D01*
X574548Y361188D02*
X574548Y370332D01*
X574548Y361188D02*
X550164Y336804D01*
X493776Y336804D01*
X451104Y294132D01*
X574548Y370332D02*
X575920Y370840D01*
X198120Y284988D02*
X160020Y284988D01*
X198120Y284988D02*
X199644Y286512D01*
X160020Y285140D02*
X160020Y284988D01*
X199644Y286512D02*
X200660Y287680D01*
X237744Y210312D02*
X245364Y210312D01*
X237744Y210312D02*
X205740Y242316D01*
X205740Y281940D01*
X201168Y286512D01*
X245364Y210312D02*
X246380Y208940D01*
X201168Y286512D02*
X200660Y287680D01*
X246888Y208788D02*
X260604Y208788D01*
X246888Y208788D02*
X246380Y208940D01*
X437388Y245364D02*
X437388Y263652D01*
X436880Y264820D01*
X480060Y512064D02*
X480060Y523240D01*
X480060Y512064D02*
X571500Y420624D01*
X571500Y382524D01*
X574548Y379476D01*
X574548Y371856D01*
X575920Y370840D01*
D25*
X60960Y547116D03*
X260604Y208788D03*
X437388Y245364D03*
D24*
X163068Y611124D02*
X70848Y611124D01*
X163068Y611124D02*
X169164Y605028D01*
X169164Y601980D02*
X169164Y593041D01*
X169164Y601980D02*
X169164Y605028D01*
X70848Y611124D02*
X68540Y586310D01*
X169164Y593041D02*
X177140Y581660D01*
X175716Y601980D02*
X207264Y601980D01*
X175716Y601980D02*
X169164Y601980D01*
X207264Y601980D02*
X220980Y615696D01*
X237744Y615696D01*
X251460Y601980D01*
X175716Y601980D02*
X177140Y581660D01*
D25*
X441960Y137160D03*
X312420Y243840D03*
X342900Y419100D03*
X251460Y350520D03*
X358140Y320040D03*
D24*
X100584Y445008D02*
X237744Y582168D01*
X100584Y445008D02*
X100584Y419100D01*
X82296Y400812D01*
X51816Y400812D01*
X50292Y399288D01*
X36576Y399288D01*
X237744Y582168D02*
X238760Y582930D01*
X36576Y399288D02*
X35560Y398780D01*
X342900Y245364D02*
X342900Y234696D01*
X342900Y245364D02*
X350520Y252984D01*
X408432Y252984D01*
X441960Y219456D01*
X618744Y219456D01*
X627888Y210312D01*
X629412Y210312D01*
X630936Y208788D01*
X644652Y208788D01*
X645160Y208280D01*
X422148Y266700D02*
X422148Y583692D01*
X422148Y266700D02*
X408432Y252984D01*
X422148Y583692D02*
X421640Y584860D01*
D25*
X342900Y234696D03*
D24*
X361188Y582168D02*
X374904Y582168D01*
X361188Y582168D02*
X360680Y582320D01*
D25*
X374904Y582168D03*
D24*
X514960Y205740D02*
X542544Y205740D01*
X544068Y207264D01*
X562356Y207264D01*
X563880Y205740D01*
X85344Y428244D02*
X54864Y428244D01*
X50292Y423672D01*
X36576Y423672D01*
X85344Y428244D02*
X86360Y427380D01*
X36576Y423672D02*
X35560Y424180D01*
X251460Y158140D02*
X251460Y79248D01*
X243840Y71628D01*
X243840Y71120D01*
X323088Y79248D02*
X323088Y99060D01*
X323088Y79248D02*
X275844Y32004D01*
X257556Y32004D01*
X243840Y45720D01*
X323088Y99060D02*
X323240Y99060D01*
X426720Y243840D02*
X429768Y243840D01*
X434340Y239268D01*
X525780Y239268D01*
X623316Y336804D01*
X623316Y344424D01*
X638556Y359664D01*
X644652Y359664D01*
X645160Y360680D01*
D25*
X426720Y243840D03*
D24*
X522732Y330708D02*
X525780Y333756D01*
X551688Y333756D01*
X574548Y356616D01*
X585216Y356616D01*
X640080Y411480D01*
X645160Y411480D01*
D25*
X522732Y330708D03*
D24*
X579120Y402336D02*
X595884Y402336D01*
X629412Y435864D01*
X644652Y435864D01*
X645160Y436880D01*
D25*
X579120Y402336D03*
D24*
X277368Y216408D02*
X256032Y195072D01*
X100584Y195072D01*
X50292Y144780D01*
X35560Y144780D01*
D25*
X277368Y216408D03*
D24*
X277368Y202692D02*
X266700Y192024D01*
D25*
X277368Y202692D03*
X266700Y192024D03*
D24*
X292608Y338328D02*
X292608Y344424D01*
X300228Y352044D01*
X300228Y359664D01*
X301600Y360680D01*
D25*
X292608Y338328D03*
D24*
X304800Y396240D02*
X307340Y444500D01*
X304800Y396240D02*
X322580Y386740D01*
X301600Y360680D01*
X281940Y361188D02*
X281940Y365760D01*
X256540Y371500D02*
X256469Y371419D01*
X281940Y361188D02*
X282600Y360680D01*
X284988Y358140D02*
X284988Y345948D01*
X284988Y358140D02*
X283464Y359664D01*
X282600Y360680D01*
D25*
X284988Y345948D03*
D24*
X243840Y434340D02*
X256540Y444500D01*
X243840Y434340D02*
X243840Y381000D01*
X256469Y371419D01*
X256540Y371500D02*
X281940Y365760D01*
X301752Y338328D02*
X301752Y329184D01*
X301752Y338328D02*
X377952Y414528D01*
X377952Y416052D01*
X382524Y420624D01*
X382524Y423672D01*
X383540Y424180D01*
D25*
X301752Y329184D03*
D24*
X541020Y368808D02*
X554736Y368808D01*
X541020Y368808D02*
X515112Y368808D01*
X554736Y368808D02*
X556260Y370332D01*
X515112Y368808D02*
X514960Y368300D01*
X556260Y370332D02*
X556920Y370840D01*
X350520Y312420D02*
X327660Y289560D01*
D25*
X327660Y289560D03*
X350520Y312420D03*
X541020Y368808D03*
D24*
X208788Y364236D02*
X201168Y364236D01*
X208788Y364236D02*
X214884Y370332D01*
X201168Y364236D02*
X200660Y363880D01*
D25*
X214884Y370332D03*
D24*
X111252Y542544D02*
X105156Y548640D01*
X111252Y542544D02*
X134112Y542544D01*
X134620Y541680D01*
D25*
X105156Y548640D03*
D24*
X86868Y458724D02*
X86868Y446532D01*
X86360Y446380D01*
D25*
X86868Y458724D03*
X353568Y246888D03*
D24*
X358140Y114960D02*
X342240Y99060D01*
X358140Y242316D02*
X353568Y246888D01*
X358140Y242316D02*
X358140Y114960D01*
X254508Y181356D02*
X254508Y188976D01*
X254508Y181356D02*
X251460Y178308D01*
X251460Y177140D01*
D25*
X254508Y188976D03*
D24*
X420624Y609600D02*
X414528Y615696D01*
X420624Y609600D02*
X420624Y605028D01*
X421640Y603860D01*
D25*
X414528Y615696D03*
D24*
X368808Y614172D02*
X361188Y606552D01*
X361188Y601980D01*
X360680Y601320D01*
D25*
X368808Y614172D03*
D24*
X493776Y204216D02*
X493776Y184404D01*
X493776Y204216D02*
X495300Y205740D01*
X495960Y205740D01*
D25*
X493776Y184404D03*
X350520Y541020D03*
D24*
X350520Y411480D01*
X342900Y403860D01*
D25*
X342900Y403860D03*
M02*
