G04 EAGLE Gerber RS-274X export*
G75*
%MOMM*%
%FSLAX34Y34*%
%LPD*%
%INSolderpaste Top*%
%IPPOS*%
%AMOC8*
5,1,8,0,0,1.08239X$1,22.5*%
G01*
%ADD10R,1.500000X1.300000*%
%ADD11R,1.300000X1.500000*%
%ADD12R,0.350000X1.400000*%
%ADD13R,1.800000X1.900000*%
%ADD14R,1.900000X1.900000*%
%ADD15R,1.200000X1.200000*%
%ADD16R,1.600000X1.300000*%
%ADD17R,1.300000X1.600000*%
%ADD18R,1.800000X1.100000*%
%ADD19C,0.140000*%


D10*
X406400Y390500D03*
X406400Y371500D03*
X375920Y395580D03*
X375920Y376580D03*
D11*
X429920Y88900D03*
X448920Y88900D03*
D12*
X391460Y669460D03*
X365460Y669460D03*
X384960Y669460D03*
X378460Y669460D03*
X371960Y669460D03*
D13*
X418460Y695960D03*
X338460Y695960D03*
D14*
X391160Y695960D03*
X365760Y695960D03*
D15*
X25400Y525440D03*
X25400Y546440D03*
D16*
X160020Y503580D03*
X160020Y522580D03*
D17*
X468020Y640080D03*
X487020Y640080D03*
D18*
X131560Y455380D03*
X193560Y455380D03*
X131560Y418380D03*
X193560Y418380D03*
X512560Y450300D03*
X574560Y450300D03*
X512560Y413300D03*
X574560Y413300D03*
D19*
X338553Y302448D02*
X337284Y301856D01*
X331283Y314724D01*
X332552Y315316D01*
X338553Y302448D01*
X338209Y303186D02*
X336664Y303186D01*
X336044Y304516D02*
X337589Y304516D01*
X336968Y305846D02*
X335423Y305846D01*
X334803Y307176D02*
X336348Y307176D01*
X335728Y308506D02*
X334183Y308506D01*
X333563Y309836D02*
X335108Y309836D01*
X334487Y311166D02*
X332942Y311166D01*
X332322Y312496D02*
X333867Y312496D01*
X333247Y313826D02*
X331702Y313826D01*
X332209Y315156D02*
X332627Y315156D01*
X334021Y300335D02*
X332752Y299743D01*
X326751Y312611D01*
X328020Y313203D01*
X334021Y300335D01*
X333677Y301073D02*
X332132Y301073D01*
X331512Y302403D02*
X333057Y302403D01*
X332436Y303733D02*
X330891Y303733D01*
X330271Y305063D02*
X331816Y305063D01*
X331196Y306393D02*
X329651Y306393D01*
X329031Y307723D02*
X330576Y307723D01*
X329955Y309053D02*
X328410Y309053D01*
X327790Y310383D02*
X329335Y310383D01*
X328715Y311713D02*
X327170Y311713D01*
X327677Y313043D02*
X328095Y313043D01*
X329490Y298221D02*
X328221Y297629D01*
X322220Y310497D01*
X323489Y311089D01*
X329490Y298221D01*
X329146Y298959D02*
X327601Y298959D01*
X326981Y300289D02*
X328526Y300289D01*
X327905Y301619D02*
X326360Y301619D01*
X325740Y302949D02*
X327285Y302949D01*
X326665Y304279D02*
X325120Y304279D01*
X324500Y305609D02*
X326045Y305609D01*
X325424Y306939D02*
X323879Y306939D01*
X323259Y308269D02*
X324804Y308269D01*
X324184Y309599D02*
X322639Y309599D01*
X323146Y310929D02*
X323564Y310929D01*
X324958Y296108D02*
X323689Y295516D01*
X317688Y308384D01*
X318957Y308976D01*
X324958Y296108D01*
X324614Y296846D02*
X323069Y296846D01*
X322449Y298176D02*
X323994Y298176D01*
X323373Y299506D02*
X321828Y299506D01*
X321208Y300836D02*
X322753Y300836D01*
X322133Y302166D02*
X320588Y302166D01*
X319968Y303496D02*
X321513Y303496D01*
X320892Y304826D02*
X319347Y304826D01*
X318727Y306156D02*
X320272Y306156D01*
X319652Y307486D02*
X318107Y307486D01*
X318614Y308816D02*
X319032Y308816D01*
X320427Y293995D02*
X319158Y293403D01*
X313157Y306271D01*
X314426Y306863D01*
X320427Y293995D01*
X320083Y294733D02*
X318538Y294733D01*
X317918Y296063D02*
X319463Y296063D01*
X318842Y297393D02*
X317297Y297393D01*
X316677Y298723D02*
X318222Y298723D01*
X317602Y300053D02*
X316057Y300053D01*
X315437Y301383D02*
X316982Y301383D01*
X316361Y302713D02*
X314816Y302713D01*
X314196Y304043D02*
X315741Y304043D01*
X315121Y305373D02*
X313576Y305373D01*
X314083Y306703D02*
X314501Y306703D01*
X315895Y291882D02*
X314626Y291290D01*
X308625Y304158D01*
X309894Y304750D01*
X315895Y291882D01*
X315551Y292620D02*
X314006Y292620D01*
X313386Y293950D02*
X314931Y293950D01*
X314310Y295280D02*
X312765Y295280D01*
X312145Y296610D02*
X313690Y296610D01*
X313070Y297940D02*
X311525Y297940D01*
X310905Y299270D02*
X312450Y299270D01*
X311829Y300600D02*
X310284Y300600D01*
X309664Y301930D02*
X311209Y301930D01*
X310589Y303260D02*
X309044Y303260D01*
X309551Y304590D02*
X309969Y304590D01*
X311364Y289769D02*
X310095Y289177D01*
X304094Y302045D01*
X305363Y302637D01*
X311364Y289769D01*
X311020Y290507D02*
X309475Y290507D01*
X308855Y291837D02*
X310400Y291837D01*
X309779Y293167D02*
X308234Y293167D01*
X307614Y294497D02*
X309159Y294497D01*
X308539Y295827D02*
X306994Y295827D01*
X306374Y297157D02*
X307919Y297157D01*
X307298Y298487D02*
X305753Y298487D01*
X305133Y299817D02*
X306678Y299817D01*
X306058Y301147D02*
X304513Y301147D01*
X305020Y302477D02*
X305438Y302477D01*
X306832Y287656D02*
X305563Y287064D01*
X299562Y299932D01*
X300831Y300524D01*
X306832Y287656D01*
X306488Y288394D02*
X304943Y288394D01*
X304323Y289724D02*
X305868Y289724D01*
X305247Y291054D02*
X303702Y291054D01*
X303082Y292384D02*
X304627Y292384D01*
X304007Y293714D02*
X302462Y293714D01*
X301842Y295044D02*
X303387Y295044D01*
X302766Y296374D02*
X301221Y296374D01*
X300601Y297704D02*
X302146Y297704D01*
X301526Y299034D02*
X299981Y299034D01*
X300488Y300364D02*
X300906Y300364D01*
X302301Y285543D02*
X301032Y284951D01*
X295031Y297819D01*
X296300Y298411D01*
X302301Y285543D01*
X301957Y286281D02*
X300412Y286281D01*
X299792Y287611D02*
X301337Y287611D01*
X300716Y288941D02*
X299171Y288941D01*
X298551Y290271D02*
X300096Y290271D01*
X299476Y291601D02*
X297931Y291601D01*
X297311Y292931D02*
X298856Y292931D01*
X298235Y294261D02*
X296690Y294261D01*
X296070Y295591D02*
X297615Y295591D01*
X296995Y296921D02*
X295450Y296921D01*
X295957Y298251D02*
X296375Y298251D01*
X297769Y283430D02*
X296500Y282838D01*
X290499Y295706D01*
X291768Y296298D01*
X297769Y283430D01*
X297425Y284168D02*
X295880Y284168D01*
X295260Y285498D02*
X296805Y285498D01*
X296184Y286828D02*
X294639Y286828D01*
X294019Y288158D02*
X295564Y288158D01*
X294944Y289488D02*
X293399Y289488D01*
X292779Y290818D02*
X294324Y290818D01*
X293703Y292148D02*
X292158Y292148D01*
X291538Y293478D02*
X293083Y293478D01*
X292463Y294808D02*
X290918Y294808D01*
X291425Y296138D02*
X291843Y296138D01*
X293238Y281317D02*
X291969Y280725D01*
X285968Y293593D01*
X287237Y294185D01*
X293238Y281317D01*
X292894Y282055D02*
X291349Y282055D01*
X290729Y283385D02*
X292274Y283385D01*
X291653Y284715D02*
X290108Y284715D01*
X289488Y286045D02*
X291033Y286045D01*
X290413Y287375D02*
X288868Y287375D01*
X288248Y288705D02*
X289793Y288705D01*
X289172Y290035D02*
X287627Y290035D01*
X287007Y291365D02*
X288552Y291365D01*
X287932Y292695D02*
X286387Y292695D01*
X286894Y294025D02*
X287312Y294025D01*
X288706Y279204D02*
X287437Y278612D01*
X281436Y291480D01*
X282705Y292072D01*
X288706Y279204D01*
X288362Y279942D02*
X286817Y279942D01*
X286197Y281272D02*
X287742Y281272D01*
X287121Y282602D02*
X285576Y282602D01*
X284956Y283932D02*
X286501Y283932D01*
X285881Y285262D02*
X284336Y285262D01*
X283716Y286592D02*
X285261Y286592D01*
X284640Y287922D02*
X283095Y287922D01*
X282475Y289252D02*
X284020Y289252D01*
X283400Y290582D02*
X281855Y290582D01*
X282362Y291912D02*
X282780Y291912D01*
X271424Y263972D02*
X272016Y262703D01*
X271424Y263972D02*
X284292Y269973D01*
X284884Y268704D01*
X272016Y262703D01*
X271555Y264033D02*
X274868Y264033D01*
X274407Y265363D02*
X277720Y265363D01*
X277259Y266693D02*
X280572Y266693D01*
X280111Y268023D02*
X283424Y268023D01*
X282963Y269353D02*
X284581Y269353D01*
X273537Y259440D02*
X274129Y258171D01*
X273537Y259440D02*
X286405Y265441D01*
X286997Y264172D01*
X274129Y258171D01*
X273668Y259501D02*
X276981Y259501D01*
X276520Y260831D02*
X279833Y260831D01*
X279372Y262161D02*
X282685Y262161D01*
X282224Y263491D02*
X285537Y263491D01*
X285076Y264821D02*
X286694Y264821D01*
X275651Y254909D02*
X276243Y253640D01*
X275651Y254909D02*
X288519Y260910D01*
X289111Y259641D01*
X276243Y253640D01*
X275782Y254970D02*
X279095Y254970D01*
X278634Y256300D02*
X281947Y256300D01*
X281486Y257630D02*
X284799Y257630D01*
X284338Y258960D02*
X287651Y258960D01*
X287190Y260290D02*
X288808Y260290D01*
X277764Y250377D02*
X278356Y249108D01*
X277764Y250377D02*
X290632Y256378D01*
X291224Y255109D01*
X278356Y249108D01*
X277895Y250438D02*
X281208Y250438D01*
X280747Y251768D02*
X284060Y251768D01*
X283599Y253098D02*
X286912Y253098D01*
X286451Y254428D02*
X289764Y254428D01*
X289303Y255758D02*
X290921Y255758D01*
X279877Y245846D02*
X280469Y244577D01*
X279877Y245846D02*
X292745Y251847D01*
X293337Y250578D01*
X280469Y244577D01*
X280008Y245907D02*
X283321Y245907D01*
X282860Y247237D02*
X286173Y247237D01*
X285712Y248567D02*
X289025Y248567D01*
X288564Y249897D02*
X291877Y249897D01*
X291416Y251227D02*
X293034Y251227D01*
X281990Y241314D02*
X282582Y240045D01*
X281990Y241314D02*
X294858Y247315D01*
X295450Y246046D01*
X282582Y240045D01*
X282121Y241375D02*
X285434Y241375D01*
X284973Y242705D02*
X288286Y242705D01*
X287825Y244035D02*
X291138Y244035D01*
X290677Y245365D02*
X293990Y245365D01*
X293529Y246695D02*
X295147Y246695D01*
X284103Y236783D02*
X284695Y235514D01*
X284103Y236783D02*
X296971Y242784D01*
X297563Y241515D01*
X284695Y235514D01*
X284234Y236844D02*
X287547Y236844D01*
X287086Y238174D02*
X290399Y238174D01*
X289938Y239504D02*
X293251Y239504D01*
X292790Y240834D02*
X296103Y240834D01*
X295642Y242164D02*
X297260Y242164D01*
X286216Y232251D02*
X286808Y230982D01*
X286216Y232251D02*
X299084Y238252D01*
X299676Y236983D01*
X286808Y230982D01*
X286347Y232312D02*
X289660Y232312D01*
X289199Y233642D02*
X292512Y233642D01*
X292051Y234972D02*
X295364Y234972D01*
X294903Y236302D02*
X298216Y236302D01*
X297755Y237632D02*
X299373Y237632D01*
X288329Y227720D02*
X288921Y226451D01*
X288329Y227720D02*
X301197Y233721D01*
X301789Y232452D01*
X288921Y226451D01*
X288460Y227781D02*
X291773Y227781D01*
X291312Y229111D02*
X294625Y229111D01*
X294164Y230441D02*
X297477Y230441D01*
X297016Y231771D02*
X300329Y231771D01*
X299868Y233101D02*
X301486Y233101D01*
X290442Y223188D02*
X291034Y221919D01*
X290442Y223188D02*
X303310Y229189D01*
X303902Y227920D01*
X291034Y221919D01*
X290573Y223249D02*
X293886Y223249D01*
X293425Y224579D02*
X296738Y224579D01*
X296277Y225909D02*
X299590Y225909D01*
X299129Y227239D02*
X302442Y227239D01*
X301981Y228569D02*
X303599Y228569D01*
X292555Y218657D02*
X293147Y217388D01*
X292555Y218657D02*
X305423Y224658D01*
X306015Y223389D01*
X293147Y217388D01*
X292686Y218718D02*
X295999Y218718D01*
X295538Y220048D02*
X298851Y220048D01*
X298390Y221378D02*
X301703Y221378D01*
X301242Y222708D02*
X304555Y222708D01*
X304094Y224038D02*
X305712Y224038D01*
X294668Y214125D02*
X295260Y212856D01*
X294668Y214125D02*
X307536Y220126D01*
X308128Y218857D01*
X295260Y212856D01*
X294799Y214186D02*
X298112Y214186D01*
X297651Y215516D02*
X300964Y215516D01*
X300503Y216846D02*
X303816Y216846D01*
X303355Y218176D02*
X306668Y218176D01*
X306207Y219506D02*
X307825Y219506D01*
X322768Y202844D02*
X324037Y203436D01*
X322768Y202844D02*
X316767Y215712D01*
X318036Y216304D01*
X324037Y203436D01*
X323693Y204174D02*
X322148Y204174D01*
X321528Y205504D02*
X323073Y205504D01*
X322452Y206834D02*
X320907Y206834D01*
X320287Y208164D02*
X321832Y208164D01*
X321212Y209494D02*
X319667Y209494D01*
X319047Y210824D02*
X320592Y210824D01*
X319971Y212154D02*
X318426Y212154D01*
X317806Y213484D02*
X319351Y213484D01*
X318731Y214814D02*
X317186Y214814D01*
X317693Y216144D02*
X318111Y216144D01*
X327300Y204957D02*
X328569Y205549D01*
X327300Y204957D02*
X321299Y217825D01*
X322568Y218417D01*
X328569Y205549D01*
X328225Y206287D02*
X326680Y206287D01*
X326060Y207617D02*
X327605Y207617D01*
X326984Y208947D02*
X325439Y208947D01*
X324819Y210277D02*
X326364Y210277D01*
X325744Y211607D02*
X324199Y211607D01*
X323579Y212937D02*
X325124Y212937D01*
X324503Y214267D02*
X322958Y214267D01*
X322338Y215597D02*
X323883Y215597D01*
X323263Y216927D02*
X321718Y216927D01*
X322225Y218257D02*
X322643Y218257D01*
X331831Y207071D02*
X333100Y207663D01*
X331831Y207071D02*
X325830Y219939D01*
X327099Y220531D01*
X333100Y207663D01*
X332756Y208401D02*
X331211Y208401D01*
X330591Y209731D02*
X332136Y209731D01*
X331515Y211061D02*
X329970Y211061D01*
X329350Y212391D02*
X330895Y212391D01*
X330275Y213721D02*
X328730Y213721D01*
X328110Y215051D02*
X329655Y215051D01*
X329034Y216381D02*
X327489Y216381D01*
X326869Y217711D02*
X328414Y217711D01*
X327794Y219041D02*
X326249Y219041D01*
X326756Y220371D02*
X327174Y220371D01*
X336363Y209184D02*
X337632Y209776D01*
X336363Y209184D02*
X330362Y222052D01*
X331631Y222644D01*
X337632Y209776D01*
X337288Y210514D02*
X335743Y210514D01*
X335123Y211844D02*
X336668Y211844D01*
X336047Y213174D02*
X334502Y213174D01*
X333882Y214504D02*
X335427Y214504D01*
X334807Y215834D02*
X333262Y215834D01*
X332642Y217164D02*
X334187Y217164D01*
X333566Y218494D02*
X332021Y218494D01*
X331401Y219824D02*
X332946Y219824D01*
X332326Y221154D02*
X330781Y221154D01*
X331288Y222484D02*
X331706Y222484D01*
X340894Y211297D02*
X342163Y211889D01*
X340894Y211297D02*
X334893Y224165D01*
X336162Y224757D01*
X342163Y211889D01*
X341819Y212627D02*
X340274Y212627D01*
X339654Y213957D02*
X341199Y213957D01*
X340578Y215287D02*
X339033Y215287D01*
X338413Y216617D02*
X339958Y216617D01*
X339338Y217947D02*
X337793Y217947D01*
X337173Y219277D02*
X338718Y219277D01*
X338097Y220607D02*
X336552Y220607D01*
X335932Y221937D02*
X337477Y221937D01*
X336857Y223267D02*
X335312Y223267D01*
X335819Y224597D02*
X336237Y224597D01*
X345426Y213410D02*
X346695Y214002D01*
X345426Y213410D02*
X339425Y226278D01*
X340694Y226870D01*
X346695Y214002D01*
X346351Y214740D02*
X344806Y214740D01*
X344186Y216070D02*
X345731Y216070D01*
X345110Y217400D02*
X343565Y217400D01*
X342945Y218730D02*
X344490Y218730D01*
X343870Y220060D02*
X342325Y220060D01*
X341705Y221390D02*
X343250Y221390D01*
X342629Y222720D02*
X341084Y222720D01*
X340464Y224050D02*
X342009Y224050D01*
X341389Y225380D02*
X339844Y225380D01*
X340351Y226710D02*
X340769Y226710D01*
X349957Y215523D02*
X351226Y216115D01*
X349957Y215523D02*
X343956Y228391D01*
X345225Y228983D01*
X351226Y216115D01*
X350882Y216853D02*
X349337Y216853D01*
X348717Y218183D02*
X350262Y218183D01*
X349641Y219513D02*
X348096Y219513D01*
X347476Y220843D02*
X349021Y220843D01*
X348401Y222173D02*
X346856Y222173D01*
X346236Y223503D02*
X347781Y223503D01*
X347160Y224833D02*
X345615Y224833D01*
X344995Y226163D02*
X346540Y226163D01*
X345920Y227493D02*
X344375Y227493D01*
X344882Y228823D02*
X345300Y228823D01*
X354489Y217636D02*
X355758Y218228D01*
X354489Y217636D02*
X348488Y230504D01*
X349757Y231096D01*
X355758Y218228D01*
X355414Y218966D02*
X353869Y218966D01*
X353249Y220296D02*
X354794Y220296D01*
X354173Y221626D02*
X352628Y221626D01*
X352008Y222956D02*
X353553Y222956D01*
X352933Y224286D02*
X351388Y224286D01*
X350768Y225616D02*
X352313Y225616D01*
X351692Y226946D02*
X350147Y226946D01*
X349527Y228276D02*
X351072Y228276D01*
X350452Y229606D02*
X348907Y229606D01*
X349414Y230936D02*
X349832Y230936D01*
X359020Y219749D02*
X360289Y220341D01*
X359020Y219749D02*
X353019Y232617D01*
X354288Y233209D01*
X360289Y220341D01*
X359945Y221079D02*
X358400Y221079D01*
X357780Y222409D02*
X359325Y222409D01*
X358704Y223739D02*
X357159Y223739D01*
X356539Y225069D02*
X358084Y225069D01*
X357464Y226399D02*
X355919Y226399D01*
X355299Y227729D02*
X356844Y227729D01*
X356223Y229059D02*
X354678Y229059D01*
X354058Y230389D02*
X355603Y230389D01*
X354983Y231719D02*
X353438Y231719D01*
X353945Y233049D02*
X354363Y233049D01*
X363552Y221862D02*
X364821Y222454D01*
X363552Y221862D02*
X357551Y234730D01*
X358820Y235322D01*
X364821Y222454D01*
X364477Y223192D02*
X362932Y223192D01*
X362312Y224522D02*
X363857Y224522D01*
X363236Y225852D02*
X361691Y225852D01*
X361071Y227182D02*
X362616Y227182D01*
X361996Y228512D02*
X360451Y228512D01*
X359831Y229842D02*
X361376Y229842D01*
X360755Y231172D02*
X359210Y231172D01*
X358590Y232502D02*
X360135Y232502D01*
X359515Y233832D02*
X357970Y233832D01*
X358477Y235162D02*
X358895Y235162D01*
X368083Y223975D02*
X369352Y224567D01*
X368083Y223975D02*
X362082Y236843D01*
X363351Y237435D01*
X369352Y224567D01*
X369008Y225305D02*
X367463Y225305D01*
X366843Y226635D02*
X368388Y226635D01*
X367767Y227965D02*
X366222Y227965D01*
X365602Y229295D02*
X367147Y229295D01*
X366527Y230625D02*
X364982Y230625D01*
X364362Y231955D02*
X365907Y231955D01*
X365286Y233285D02*
X363741Y233285D01*
X363121Y234615D02*
X364666Y234615D01*
X364046Y235945D02*
X362501Y235945D01*
X363008Y237275D02*
X363426Y237275D01*
X372615Y226088D02*
X373884Y226680D01*
X372615Y226088D02*
X366614Y238956D01*
X367883Y239548D01*
X373884Y226680D01*
X373540Y227418D02*
X371995Y227418D01*
X371375Y228748D02*
X372920Y228748D01*
X372299Y230078D02*
X370754Y230078D01*
X370134Y231408D02*
X371679Y231408D01*
X371059Y232738D02*
X369514Y232738D01*
X368894Y234068D02*
X370439Y234068D01*
X369818Y235398D02*
X368273Y235398D01*
X367653Y236728D02*
X369198Y236728D01*
X368578Y238058D02*
X367033Y238058D01*
X367540Y239388D02*
X367958Y239388D01*
X371028Y248187D02*
X370436Y249456D01*
X383304Y255457D01*
X383896Y254188D01*
X371028Y248187D01*
X370567Y249517D02*
X373880Y249517D01*
X373419Y250847D02*
X376732Y250847D01*
X376271Y252177D02*
X379584Y252177D01*
X379123Y253507D02*
X382436Y253507D01*
X381975Y254837D02*
X383593Y254837D01*
X368915Y252719D02*
X368323Y253988D01*
X381191Y259989D01*
X381783Y258720D01*
X368915Y252719D01*
X368454Y254049D02*
X371767Y254049D01*
X371306Y255379D02*
X374619Y255379D01*
X374158Y256709D02*
X377471Y256709D01*
X377010Y258039D02*
X380323Y258039D01*
X379862Y259369D02*
X381480Y259369D01*
X366801Y257250D02*
X366209Y258519D01*
X379077Y264520D01*
X379669Y263251D01*
X366801Y257250D01*
X366340Y258580D02*
X369653Y258580D01*
X369192Y259910D02*
X372505Y259910D01*
X372044Y261240D02*
X375357Y261240D01*
X374896Y262570D02*
X378209Y262570D01*
X377748Y263900D02*
X379366Y263900D01*
X364688Y261782D02*
X364096Y263051D01*
X376964Y269052D01*
X377556Y267783D01*
X364688Y261782D01*
X364227Y263112D02*
X367540Y263112D01*
X367079Y264442D02*
X370392Y264442D01*
X369931Y265772D02*
X373244Y265772D01*
X372783Y267102D02*
X376096Y267102D01*
X375635Y268432D02*
X377253Y268432D01*
X362575Y266313D02*
X361983Y267582D01*
X374851Y273583D01*
X375443Y272314D01*
X362575Y266313D01*
X362114Y267643D02*
X365427Y267643D01*
X364966Y268973D02*
X368279Y268973D01*
X367818Y270303D02*
X371131Y270303D01*
X370670Y271633D02*
X373983Y271633D01*
X373522Y272963D02*
X375140Y272963D01*
X360462Y270845D02*
X359870Y272114D01*
X372738Y278115D01*
X373330Y276846D01*
X360462Y270845D01*
X360001Y272175D02*
X363314Y272175D01*
X362853Y273505D02*
X366166Y273505D01*
X365705Y274835D02*
X369018Y274835D01*
X368557Y276165D02*
X371870Y276165D01*
X371409Y277495D02*
X373027Y277495D01*
X358349Y275376D02*
X357757Y276645D01*
X370625Y282646D01*
X371217Y281377D01*
X358349Y275376D01*
X357888Y276706D02*
X361201Y276706D01*
X360740Y278036D02*
X364053Y278036D01*
X363592Y279366D02*
X366905Y279366D01*
X366444Y280696D02*
X369757Y280696D01*
X369296Y282026D02*
X370914Y282026D01*
X356236Y279908D02*
X355644Y281177D01*
X368512Y287178D01*
X369104Y285909D01*
X356236Y279908D01*
X355775Y281238D02*
X359088Y281238D01*
X358627Y282568D02*
X361940Y282568D01*
X361479Y283898D02*
X364792Y283898D01*
X364331Y285228D02*
X367644Y285228D01*
X367183Y286558D02*
X368801Y286558D01*
X354123Y284439D02*
X353531Y285708D01*
X366399Y291709D01*
X366991Y290440D01*
X354123Y284439D01*
X353662Y285769D02*
X356975Y285769D01*
X356514Y287099D02*
X359827Y287099D01*
X359366Y288429D02*
X362679Y288429D01*
X362218Y289759D02*
X365531Y289759D01*
X365070Y291089D02*
X366688Y291089D01*
X352010Y288971D02*
X351418Y290240D01*
X364286Y296241D01*
X364878Y294972D01*
X352010Y288971D01*
X351549Y290301D02*
X354862Y290301D01*
X354401Y291631D02*
X357714Y291631D01*
X357253Y292961D02*
X360566Y292961D01*
X360105Y294291D02*
X363418Y294291D01*
X362957Y295621D02*
X364575Y295621D01*
X349897Y293502D02*
X349305Y294771D01*
X362173Y300772D01*
X362765Y299503D01*
X349897Y293502D01*
X349436Y294832D02*
X352749Y294832D01*
X352288Y296162D02*
X355601Y296162D01*
X355140Y297492D02*
X358453Y297492D01*
X357992Y298822D02*
X361305Y298822D01*
X360844Y300152D02*
X362462Y300152D01*
X347784Y298034D02*
X347192Y299303D01*
X360060Y305304D01*
X360652Y304035D01*
X347784Y298034D01*
X347323Y299364D02*
X350636Y299364D01*
X350175Y300694D02*
X353488Y300694D01*
X353027Y302024D02*
X356340Y302024D01*
X355879Y303354D02*
X359192Y303354D01*
X358731Y304684D02*
X360349Y304684D01*
D15*
X493100Y134620D03*
X472100Y134620D03*
X86360Y477180D03*
X86360Y498180D03*
M02*
