G04 EAGLE Gerber RS-274X export*
G75*
%MOMM*%
%FSLAX34Y34*%
%LPD*%
%INSoldermask Bottom*%
%IPPOS*%
%AMOC8*
5,1,8,0,0,1.08239X$1,22.5*%
G01*
%ADD10R,1.503200X1.703200*%
%ADD11R,1.703200X1.503200*%
%ADD12P,1.759533X8X22.500000*%
%ADD13C,1.727200*%
%ADD14C,1.879600*%
%ADD15C,1.320800*%
%ADD16C,1.524000*%
%ADD17R,1.803200X1.503200*%
%ADD18R,1.503200X1.803200*%
%ADD19C,2.082800*%
%ADD20P,1.649562X8X202.500000*%
%ADD21C,0.339959*%
%ADD22C,0.393431*%
%ADD23C,3.505200*%
%ADD24P,1.869504X8X22.500000*%
%ADD25C,0.959600*%


D10*
X66700Y561340D03*
X85700Y561340D03*
D11*
X246380Y227940D03*
X246380Y208940D03*
X436880Y283820D03*
X436880Y264820D03*
X436880Y332080D03*
X436880Y313080D03*
X200660Y306680D03*
X200660Y287680D03*
X160020Y304140D03*
X160020Y285140D03*
D10*
X177140Y581660D03*
X158140Y581660D03*
X495960Y368300D03*
X514960Y368300D03*
D11*
X200660Y363880D03*
X200660Y382880D03*
X322580Y405740D03*
X322580Y386740D03*
X256540Y390500D03*
X256540Y371500D03*
D12*
X218440Y45720D03*
X218440Y71120D03*
X243840Y45720D03*
X243840Y71120D03*
X269240Y45720D03*
X269240Y71120D03*
D13*
X548640Y322580D02*
X563880Y322580D01*
X563880Y297180D02*
X548640Y297180D01*
X556260Y180340D02*
X571500Y180340D01*
X571500Y205740D02*
X556260Y205740D01*
D14*
X645160Y436880D03*
X645160Y411480D03*
X645160Y386080D03*
X645160Y360680D03*
X645160Y335280D03*
X645160Y309880D03*
X645160Y284480D03*
X645160Y259080D03*
X645160Y233680D03*
X645160Y208280D03*
X645160Y182880D03*
X645160Y157480D03*
X645160Y132080D03*
D13*
X238760Y670560D02*
X238760Y685800D01*
X213360Y685800D02*
X213360Y670560D01*
X187960Y670560D02*
X187960Y685800D01*
X162560Y685800D02*
X162560Y670560D01*
X137160Y670560D02*
X137160Y685800D01*
X480060Y530860D02*
X480060Y515620D01*
X505460Y515620D02*
X505460Y530860D01*
X530860Y530860D02*
X530860Y515620D01*
X556260Y515620D02*
X556260Y530860D01*
D14*
X35560Y424180D03*
X35560Y398780D03*
X35560Y373380D03*
X35560Y347980D03*
X35560Y322580D03*
X35560Y297180D03*
X35560Y271780D03*
X35560Y246380D03*
X35560Y220980D03*
X35560Y195580D03*
X35560Y170180D03*
X35560Y144780D03*
X35560Y119380D03*
D15*
X256540Y438912D02*
X256540Y450088D01*
X307340Y450088D02*
X307340Y438912D01*
D16*
X383540Y424180D03*
X408940Y424180D03*
D17*
X134620Y560680D03*
X134620Y541680D03*
D18*
X556920Y370840D03*
X575920Y370840D03*
X301600Y360680D03*
X282600Y360680D03*
D17*
X251460Y158140D03*
X251460Y177140D03*
D18*
X323240Y99060D03*
X342240Y99060D03*
D17*
X360680Y582320D03*
X360680Y601320D03*
D18*
X514960Y205740D03*
X495960Y205740D03*
D17*
X421640Y584860D03*
X421640Y603860D03*
X86360Y427380D03*
X86360Y446380D03*
D19*
X482600Y48260D03*
X457200Y48260D03*
X431800Y48260D03*
X406400Y48260D03*
D20*
X226060Y601980D03*
X238760Y582930D03*
X251460Y601980D03*
D21*
X118306Y592176D02*
X110374Y592176D01*
X118306Y592176D02*
X118306Y580444D01*
X110374Y580444D01*
X110374Y592176D01*
X110374Y583674D02*
X118306Y583674D01*
X118306Y586904D02*
X110374Y586904D01*
X110374Y590134D02*
X118306Y590134D01*
X95406Y592176D02*
X87474Y592176D01*
X95406Y592176D02*
X95406Y580444D01*
X87474Y580444D01*
X87474Y592176D01*
X87474Y583674D02*
X95406Y583674D01*
X95406Y586904D02*
X87474Y586904D01*
X87474Y590134D02*
X95406Y590134D01*
X72506Y592176D02*
X64574Y592176D01*
X72506Y592176D02*
X72506Y580444D01*
X64574Y580444D01*
X64574Y592176D01*
X64574Y583674D02*
X72506Y583674D01*
X72506Y586904D02*
X64574Y586904D01*
X64574Y590134D02*
X72506Y590134D01*
D22*
X76191Y658809D02*
X106689Y658809D01*
X106689Y647611D01*
X76191Y647611D01*
X76191Y658809D01*
X76191Y651348D02*
X106689Y651348D01*
X106689Y655085D02*
X76191Y655085D01*
D23*
X38100Y670560D03*
X640080Y670560D03*
X45720Y45720D03*
X640080Y38100D03*
D13*
X342900Y121920D02*
X342900Y137160D01*
X317500Y137160D02*
X317500Y121920D01*
X292100Y121920D02*
X292100Y137160D01*
X266700Y137160D02*
X266700Y121920D01*
D24*
X304800Y601980D03*
D25*
X60960Y547116D03*
X260604Y208788D03*
X437388Y245364D03*
X441960Y137160D03*
X312420Y243840D03*
X342900Y419100D03*
X251460Y350520D03*
X358140Y320040D03*
X342900Y234696D03*
X374904Y582168D03*
X426720Y243840D03*
X522732Y330708D03*
X579120Y402336D03*
X277368Y216408D03*
X277368Y202692D03*
X266700Y192024D03*
X292608Y338328D03*
X284988Y345948D03*
X301752Y329184D03*
X327660Y289560D03*
X350520Y312420D03*
X541020Y368808D03*
X214884Y370332D03*
X105156Y548640D03*
X86868Y458724D03*
X353568Y246888D03*
X254508Y188976D03*
X414528Y615696D03*
X368808Y614172D03*
X493776Y184404D03*
X350520Y541020D03*
X342900Y403860D03*
M02*
